<svg width="695" height="401" viewBox="0 0 695 401" fill="none" xmlns="http://www.w3.org/2000/svg">
<path d="M0 358L695 358C695 310.61 648.675 213.342 613.399 167.289C588.68 141.451 562.196 94.6157 454.101 200.239C346.006 305.863 261.219 235.402 198.087 154.808C113.784 47.1876 0 258.082 0 358Z" fill="url(#paint0_linear)" fill-opacity="0.5"/>
<path d="M2.5 347H684.5C684.5 299.61 646.776 196.052 611.5 150C586.781 124.161 555.196 83.6157 447.101 189.239C339.006 294.863 265.132 225.594 202 145C117.696 37.3791 2.5 247.082 2.5 347Z" stroke="url(#paint1_linear)" stroke-opacity="0.5"/>
<path d="M8 380L679.888 380C679.888 335.834 646.5 150.5 550.5 221.5C489.052 266.946 430 119 345.5 132.5C261 146 308 232.17 167 183.5C60.1994 146.635 8 286.879 8 380Z" fill="url(#paint2_linear)" fill-opacity="0.3"/>
<path d="M340 6.94138C340 3.85925 336.661 1.93512 333.994 3.48057L253.994 49.8442C252.76 50.5596 252 51.8783 252 53.305V280.059C252 283.141 255.339 285.065 258.006 283.519L338.006 237.156C339.24 236.44 340 235.122 340 233.695V6.94138Z" fill="url(#paint3_linear)"/>
<path d="M14 367.375L685.888 367.374C685.888 323.209 652.5 164.5 556.5 235.5C495.052 280.946 436 116 351.5 129.5C267 143 314 250.67 173 202C66.1994 165.135 14 274.254 14 367.375Z" stroke="url(#paint4_linear)" stroke-opacity="0.3"/>
<path d="M341.607 257.255C346.386 254.515 354.101 254.517 358.876 257.26L429.483 297.812C434.281 300.568 434.298 305.047 429.522 307.815L358.848 348.774C354.062 351.548 346.281 351.548 341.494 348.774L270.827 307.819C266.049 305.05 266.07 300.567 270.874 297.812L341.607 257.255Z" fill="url(#paint5_linear)"/>
<path d="M259 59.206C259 56.8944 261.504 55.4513 263.504 56.6104L345.504 104.133C346.43 104.67 347 105.659 347 106.729V335.492C347 337.803 344.496 339.246 342.496 338.087L260.496 290.564C259.57 290.028 259 289.039 259 287.969V59.206Z" fill="url(#paint6_linear)"/>
<path d="M360 5.20603C360 2.89444 362.504 1.45134 364.504 2.61043L446.504 50.1332C447.43 50.6697 448 51.6587 448 52.7288V281.492C448 283.803 445.496 285.246 443.496 284.087L361.496 236.564C360.57 236.028 360 235.039 360 233.969V5.20603Z" fill="url(#paint7_linear)"/>
<path d="M442.903 60.4414C442.903 57.3593 439.564 55.4351 436.898 56.9806L356.898 103.344C355.663 104.06 354.903 105.378 354.903 106.805V333.559C354.903 336.641 358.242 338.565 360.909 337.019L440.909 290.656C442.143 289.94 442.903 288.622 442.903 287.195V60.4414Z" fill="url(#paint8_linear)"/>
<path d="M266 79.1812C266 76.8751 268.494 75.4314 270.494 76.5794L335.481 113.884C338.276 115.489 340 118.466 340 121.689V303.819C340 306.125 337.506 307.569 335.506 306.421L270.017 268.828C267.532 267.401 266 264.755 266 261.89V79.1812Z" fill="url(#paint9_linear)"/>
<path d="M438 72.1947C438 69.8856 435.501 68.4422 433.501 69.5963L365.002 109.122C361.907 110.908 360 114.21 360 117.784V310.805C360 313.114 362.499 314.558 364.499 313.404L432.998 273.878C436.093 272.092 438 268.79 438 265.216V72.1947Z" fill="url(#paint10_linear)"/>
<path d="M341.427 13.2197C346.206 10.4795 353.921 10.4814 358.696 13.2239L418.939 47.8241C423.736 50.5794 423.754 55.0587 418.978 57.8265L358.677 92.7735C353.89 95.5477 346.109 95.5478 341.323 92.7736L281.029 57.8308C276.251 55.0613 276.271 50.5788 281.076 47.8241L341.427 13.2197Z" fill="url(#paint11_linear)"/>
<path d="M316.434 333.096C312.087 336.038 315.469 333.746 299.404 344.263C289.749 349.71 239.657 379.455 205.237 399.036L133.009 357.338" stroke="black" stroke-dasharray="6 4"/>
<path d="M156.709 343.656L211.331 375.189C232.45 361.471 282.961 334.463 299.508 323.716" stroke="black" stroke-dasharray="6 4"/>
<path d="M181.362 329.424L214.133 348.343C234.759 336.534 265.858 318.787 278.552 310.741" stroke="black" stroke-dasharray="6 4"/>
<path d="M570.021 358.102L503.541 396.482C471.454 376.101 414.504 346.158 389.365 330.191" stroke="black" stroke-dasharray="6 4"/>
<path d="M546.321 344.019L499.154 371.249C476.999 357.141 426.158 330.61 408.801 319.557" stroke="black" stroke-dasharray="6 4"/>
<path d="M521.668 329.787L493.143 346.255C481.286 338.858 454.801 327.057 425.801 309.557" stroke="#E13F3F" stroke-dasharray="8 4"/>
<path d="M123.904 342L106.66 350.524L122.659 359.524L140.659 350.524L123.904 342Z" fill="#29B1CF"/>
<path d="M140.66 350.524L122.66 359.3V362.3L140.66 353.3V350.524Z" fill="#1D4B76"/>
<path d="M106.66 350.524L122.66 359.3V362.3L106.66 353.3V350.524Z" fill="#2F86AB"/>
<path d="M578.659 341.31L595.903 349.834L579.904 358.834L561.904 349.834L578.659 341.31Z" fill="#29B1CF"/>
<path d="M561.903 349.834L579.903 358.61V361.61L561.903 352.61V349.834Z" fill="#1D4B76"/>
<path d="M595.903 349.834L579.903 358.61V361.61L595.903 352.61V349.834Z" fill="#2F86AB"/>
<path d="M149.807 328.31L132.563 336.834L148.563 345.834L166.563 336.834L149.807 328.31Z" fill="#29B1CF"/>
<path d="M166.563 336.834L148.563 345.61V348.61L166.563 339.61V336.834Z" fill="#1D4B76"/>
<path d="M132.563 336.834L148.563 345.61V348.61L132.563 339.61V336.834Z" fill="#2F86AB"/>
<path d="M552.756 328.31L570 336.834L554 345.834L536 336.834L552.756 328.31Z" fill="#29B1CF"/>
<path d="M536 336.834L554 345.61V348.61L536 339.61V336.834Z" fill="#1D4B76"/>
<path d="M570 336.834L554 345.61V348.61L570 339.61V336.834Z" fill="#2F86AB"/>
<path d="M174.807 313.31L157.563 321.834L173.563 330.834L191.563 321.834L174.807 313.31Z" fill="#29B1CF"/>
<path d="M191.563 321.834L173.563 330.61V333.61L191.563 324.61V321.834Z" fill="#1D4B76"/>
<path d="M157.563 321.834L173.563 330.61V333.61L157.563 324.61V321.834Z" fill="#2F86AB"/>
<path d="M525.922 314.017L543.166 322.541L527.167 331.541L509.167 322.541L525.922 314.017Z" fill="#E13F3F"/>
<path d="M509.167 322.541L527.167 331.317V334.317L509.167 325.317V322.541Z" fill="#931E1E"/>
<path d="M543.167 322.541L527.167 331.317V334.317L543.167 325.317V322.541Z" fill="#A01616"/>
<path d="M612 314.939L577.129 336L577.093 334.14L611.956 313.079L612 314.939Z" fill="#737577"/>
<path d="M554.045 324.921L577.129 336L577.093 334.14L554 323.061L554.045 324.921Z" fill="white"/>
<path d="M588.871 302L554 323.061L577.093 334.14L611.955 313.079L588.871 302Z" fill="#EFEFF0"/>
<path d="M588.542 305.019L559.542 322.531L577.423 331.121L606.414 313.609L588.542 305.019Z" fill="#414042"/>
<path d="M569.681 316.673L588.337 310.491L598.164 314.436L578.412 321.013L569.681 316.673Z" fill="#74CD66"/>
<path d="M598.164 314.436C598.164 314.436 598.164 314.436 598.342 314.66L578.118 327.284L578.412 321.013L598.164 314.436Z" fill="#227238"/>
<path d="M569.137 322.603L578.055 326.862L578.064 327.096L569.146 322.837L569.137 322.603Z" fill="#2C9650"/>
<path d="M578.118 327.284L568.995 322.954L569.681 316.673L578.412 321.013L578.118 327.284Z" fill="#2C9650"/>
<path d="M587.214 313.699L592.31 312.081L593.896 312.728L588.666 314.4L587.214 313.699Z" fill="#2C9650"/>
<path d="M578.308 318.79C579.293 318.703 580.043 318.071 579.982 317.379C579.922 316.687 579.074 316.196 578.089 316.284C577.104 316.371 576.354 317.003 576.414 317.695C576.475 318.387 577.322 318.878 578.308 318.79Z" fill="#2C9650"/>
<path d="M116 296.939L150.871 318L150.907 316.14L116.044 295.079L116 296.939Z" fill="#737577"/>
<path d="M173.955 306.921L150.871 318L150.907 316.14L174 305.061L173.955 306.921Z" fill="white"/>
<path d="M139.129 284L174 305.061L150.907 316.14L116.045 295.079L139.129 284Z" fill="#EFEFF0"/>
<path d="M139.458 287.019L168.458 304.531L150.577 313.121L121.586 295.609L139.458 287.019Z" fill="#414042"/>
<path d="M158.319 298.673L139.663 292.491L129.836 296.436L149.588 303.013L158.319 298.673Z" fill="#74CD66"/>
<path d="M129.836 296.436C129.836 296.436 129.836 296.436 129.658 296.66L149.882 309.284L149.588 303.013L129.836 296.436Z" fill="#227238"/>
<path d="M158.863 304.603L149.945 308.862L149.936 309.096L158.854 304.837L158.863 304.603Z" fill="#2C9650"/>
<path d="M149.882 309.284L159.005 304.954L158.319 298.673L149.588 303.013L149.882 309.284Z" fill="#2C9650"/>
<path d="M140.786 295.699L135.69 294.081L134.104 294.728L139.334 296.4L140.786 295.699Z" fill="#2C9650"/>
<path d="M149.692 300.79C148.707 300.703 147.957 300.071 148.018 299.379C148.078 298.687 148.926 298.196 149.911 298.284C150.896 298.371 151.646 299.003 151.586 299.695C151.525 300.387 150.678 300.878 149.692 300.79Z" fill="#2C9650"/>
<path d="M638 328.939L603.129 350L603.093 348.14L637.956 327.079L638 328.939Z" fill="#737577"/>
<path d="M580.045 338.921L603.129 350L603.093 348.14L580 337.061L580.045 338.921Z" fill="white"/>
<path d="M614.871 316L580 337.061L603.093 348.14L637.955 327.079L614.871 316Z" fill="#EFEFF0"/>
<path d="M614.542 319.019L585.542 336.531L603.423 345.121L632.414 327.609L614.542 319.019Z" fill="#414042"/>
<path d="M595.681 330.673L614.337 324.491L624.164 328.436L604.412 335.013L595.681 330.673Z" fill="#74CD66"/>
<path d="M624.164 328.436C624.164 328.436 624.164 328.436 624.342 328.66L604.118 341.284L604.412 335.013L624.164 328.436Z" fill="#227238"/>
<path d="M595.137 336.603L604.055 340.862L604.064 341.096L595.146 336.837L595.137 336.603Z" fill="#2C9650"/>
<path d="M604.118 341.284L594.995 336.954L595.681 330.673L604.412 335.013L604.118 341.284Z" fill="#2C9650"/>
<path d="M613.214 327.699L618.31 326.081L619.896 326.728L614.666 328.4L613.214 327.699Z" fill="#2C9650"/>
<path d="M604.308 332.79C605.293 332.703 606.043 332.071 605.982 331.379C605.922 330.687 605.074 330.196 604.089 330.284C603.104 330.371 602.354 331.003 602.414 331.695C602.475 332.387 603.322 332.878 604.308 332.79Z" fill="#2C9650"/>
<path d="M86.9999 311.939L121.871 333L121.907 331.14L87.0445 310.079L86.9999 311.939Z" fill="#737577"/>
<path d="M144.955 321.921L121.871 333L121.907 331.14L145 320.061L144.955 321.921Z" fill="white"/>
<path d="M110.129 299L145 320.061L121.907 331.14L87.0445 310.079L110.129 299Z" fill="#EFEFF0"/>
<path d="M110.458 302.019L139.458 319.531L121.577 328.121L92.5862 310.609L110.458 302.019Z" fill="#414042"/>
<path d="M129.319 313.673L110.663 307.491L100.836 311.436L120.588 318.013L129.319 313.673Z" fill="#74CD66"/>
<path d="M100.836 311.436C100.836 311.436 100.836 311.436 100.658 311.66L120.882 324.284L120.588 318.013L100.836 311.436Z" fill="#227238"/>
<path d="M129.863 319.603L120.945 323.862L120.936 324.096L129.854 319.837L129.863 319.603Z" fill="#2C9650"/>
<path d="M120.882 324.284L130.005 319.954L129.319 313.673L120.588 318.013L120.882 324.284Z" fill="#2C9650"/>
<path d="M111.786 310.699L106.69 309.081L105.104 309.728L110.334 311.4L111.786 310.699Z" fill="#2C9650"/>
<path d="M120.692 315.79C119.707 315.703 118.957 315.071 119.018 314.379C119.078 313.687 119.926 313.196 120.911 313.284C121.896 313.371 122.646 314.003 122.586 314.695C122.525 315.387 121.678 315.878 120.692 315.79Z" fill="#2C9650"/>
<path d="M56.9999 325.939L91.8712 347L91.9069 345.14L57.0445 324.079L56.9999 325.939Z" fill="#737577"/>
<path d="M114.955 335.921L91.8713 347L91.9069 345.14L115 334.061L114.955 335.921Z" fill="white"/>
<path d="M80.1287 313L115 334.061L91.9069 345.14L57.0445 324.079L80.1287 313Z" fill="#EFEFF0"/>
<path d="M80.4584 316.019L109.458 333.531L91.5773 342.121L62.5862 324.609L80.4584 316.019Z" fill="#414042"/>
<path d="M99.3195 327.673L80.6632 321.491L70.8362 325.436L90.5883 332.013L99.3195 327.673Z" fill="#74CD66"/>
<path d="M70.8362 325.436C70.8362 325.436 70.8362 325.436 70.6581 325.66L90.8823 338.284L90.5883 332.013L70.8362 325.436Z" fill="#227238"/>
<path d="M99.863 333.603L90.9448 337.862L90.9358 338.096L99.8541 333.837L99.863 333.603Z" fill="#2C9650"/>
<path d="M90.8823 338.284L100.005 333.954L99.3195 327.673L90.5883 332.013L90.8823 338.284Z" fill="#2C9650"/>
<path d="M81.7859 324.699L76.6897 323.081L75.1039 323.728L80.3337 325.4L81.7859 324.699Z" fill="#2C9650"/>
<path d="M90.6924 329.79C89.7072 329.703 88.9574 329.071 89.0177 328.379C89.0781 327.687 89.9257 327.196 90.911 327.284C91.8962 327.371 92.646 328.003 92.5857 328.695C92.5253 329.387 91.6777 329.878 90.6924 329.79Z" fill="#2C9650"/>
<path d="M585 301.748L550.323 323L550.188 321.062L584.865 299.819L585 301.748Z" fill="#737577"/>
<path d="M526.135 311.181L550.323 323L550.188 321.062L526 309.252L526.135 311.181Z" fill="white"/>
<path d="M560.677 288L526 309.252L550.188 321.062L584.865 299.819L560.677 288Z" fill="#EFEFF0"/>
<path d="M560.488 291.117L531.65 308.786L550.377 317.954L579.214 300.276L560.488 291.117Z" fill="#414042"/>
<path d="M550.818 313.558L541.482 309.015L558.974 292.936L567.526 296.958L550.818 313.558Z" fill="#F47A72"/>
<path d="M567.526 296.958C567.526 296.958 567.526 296.958 570.933 301.053L550.836 313.804L550.818 313.558L567.526 296.958Z" fill="#BF3629"/>
<path d="M549.274 309.302C550.041 309.126 550.54 308.432 550.388 307.753C550.236 307.074 549.491 306.666 548.725 306.842C547.958 307.018 547.459 307.712 547.611 308.391C547.762 309.071 548.507 309.479 549.274 309.302Z" fill="white"/>
<path d="M559.064 299.581L557.253 298.686L561.984 294.344L563.579 295.093L559.064 299.581Z" fill="white"/>
<path d="M541.482 309.005L550.818 313.558L550.836 313.795L541.491 309.252L541.482 309.005Z" fill="#BF3629"/>
<line y1="-0.5" x2="66.1328" y2="-0.5" transform="matrix(-0.865528 -0.50086 0.000993407 1 331.529 187.628)" stroke="#1D4A74"/>
<line y1="-0.5" x2="66.1328" y2="-0.5" transform="matrix(-0.865528 -0.50086 0.000993405 1 331.538 197.752)" stroke="#1D4A74"/>
<line y1="-0.5" x2="66.1328" y2="-0.5" transform="matrix(-0.865528 -0.50086 0.000993405 1 331.547 207.875)" stroke="#1D4A74"/>
<line y1="-0.5" x2="66.1328" y2="-0.5" transform="matrix(-0.865528 -0.50086 0.000993405 1 331.555 217.998)" stroke="#1D4A74"/>
<line y1="-0.5" x2="66.1328" y2="-0.5" transform="matrix(-0.865528 -0.50086 0.000993405 1 331.563 228.121)" stroke="#1D4A74"/>
<line y1="-0.5" x2="66.1328" y2="-0.5" transform="matrix(-0.865528 -0.50086 0.000993405 1 331.571 238.245)" stroke="#1D4A74"/>
<line y1="-0.5" x2="66.1328" y2="-0.5" transform="matrix(-0.865528 -0.50086 0.000993405 1 331.579 248.368)" stroke="#1D4A74"/>
<line y1="-0.5" x2="66.1328" y2="-0.5" transform="matrix(-0.865528 -0.50086 0.000993405 1 331.588 258.491)" stroke="#1D4A74"/>
<g opacity="0.8">
<rect width="11.1566" height="24.5444" rx="2" transform="matrix(-0.866007 -0.500033 3.7683e-05 1 332.53 122.879)" fill="url(#paint12_linear)"/>
<rect width="11.1566" height="24.5444" rx="2" transform="matrix(-0.866007 -0.500033 3.76687e-05 1 319.969 115.627)" fill="url(#paint13_linear)"/>
<rect width="11.1566" height="24.5444" rx="2" transform="matrix(-0.866007 -0.500033 3.76687e-05 1 307.409 108.375)" fill="url(#paint14_linear)"/>
<rect width="11.1566" height="24.5444" rx="2" transform="matrix(-0.866007 -0.500033 3.76687e-05 1 294.849 101.122)" fill="url(#paint15_linear)"/>
<rect width="11.1566" height="24.5444" rx="2" transform="matrix(-0.866007 -0.500033 3.76687e-05 1 282.289 93.8701)" fill="url(#paint16_linear)"/>
</g>
<g opacity="0.8">
<rect width="11.1566" height="24.5444" rx="2" transform="matrix(-0.866007 -0.500033 3.7683e-05 1 332.53 151.879)" fill="url(#paint17_linear)"/>
<rect width="11.1566" height="24.5444" rx="2" transform="matrix(-0.866007 -0.500033 3.76687e-05 1 319.969 144.627)" fill="url(#paint18_linear)"/>
<rect width="11.1566" height="24.5444" rx="2" transform="matrix(-0.866007 -0.500033 3.76687e-05 1 307.409 137.375)" fill="url(#paint19_linear)"/>
<rect width="11.1566" height="24.5444" rx="2" transform="matrix(-0.866007 -0.500033 3.76687e-05 1 294.849 130.122)" fill="url(#paint20_linear)"/>
<rect width="11.1566" height="24.5444" rx="2" transform="matrix(-0.866007 -0.500033 3.76687e-05 1 282.289 122.87)" fill="url(#paint21_linear)"/>
</g>
<g opacity="0.8">
<rect width="11.1566" height="24.5444" rx="2" transform="matrix(-0.866007 -0.500033 3.7683e-05 1 332.53 271.879)" fill="url(#paint22_linear)"/>
<rect width="11.1566" height="24.5444" rx="2" transform="matrix(-0.866007 -0.500033 3.76687e-05 1 319.969 264.627)" fill="url(#paint23_linear)"/>
<rect width="11.1566" height="24.5444" rx="2" transform="matrix(-0.866007 -0.500033 3.76687e-05 1 307.409 257.375)" fill="url(#paint24_linear)"/>
<rect width="11.1566" height="24.5444" rx="2" transform="matrix(-0.866007 -0.500033 3.76687e-05 1 294.849 250.122)" fill="url(#paint25_linear)"/>
<rect width="11.1566" height="24.5444" rx="2" transform="matrix(-0.866007 -0.500033 3.76687e-05 1 282.289 242.87)" fill="url(#paint26_linear)"/>
</g>
<path opacity="0.7" d="M392.205 137.928L392.205 142.023C391.76 142.657 391.286 143.209 390.78 143.678C390.279 144.14 389.742 144.537 389.168 144.868C388.453 145.281 387.804 145.528 387.222 145.607C386.644 145.684 386.149 145.613 385.737 145.393C385.329 145.172 385.013 144.808 384.791 144.301C384.569 143.795 384.458 143.166 384.458 142.415C384.458 141.654 384.565 140.895 384.779 140.136C384.993 139.378 385.297 138.657 385.689 137.973C386.085 137.287 386.564 136.656 387.125 136.08C387.687 135.504 388.318 135.014 389.017 134.61C389.372 134.404 389.704 134.246 390.011 134.134C390.322 134.019 390.609 133.945 390.872 133.91C391.138 133.868 391.381 133.865 391.599 133.903C391.817 133.94 392.017 134.004 392.199 134.095L391.732 135.219C391.66 135.396 391.565 135.535 391.448 135.635C391.33 135.731 391.203 135.769 391.066 135.751C390.932 135.739 390.799 135.727 390.666 135.716C390.532 135.704 390.383 135.713 390.217 135.744C390.055 135.772 389.871 135.824 389.665 135.901C389.463 135.976 389.229 136.09 388.962 136.244C388.53 136.494 388.138 136.804 387.786 137.175C387.438 137.544 387.141 137.956 386.895 138.411C386.648 138.866 386.458 139.351 386.325 139.867C386.192 140.383 386.125 140.911 386.125 141.452C386.125 142.031 386.196 142.508 386.337 142.884C386.483 143.253 386.685 143.521 386.943 143.689C387.206 143.85 387.521 143.908 387.889 143.864C388.257 143.815 388.667 143.66 389.119 143.398C389.443 143.212 389.732 143.005 389.986 142.779C390.241 142.552 390.489 142.302 390.732 142.026L390.732 140.192L389.629 140.829C389.524 140.89 389.441 140.905 389.38 140.875C389.324 140.837 389.295 140.77 389.295 140.672L389.295 139.608L392.205 137.928ZM395.898 132.246L395.898 135.053L398.965 133.282L398.965 134.731L395.898 136.502L395.898 139.365L399.79 137.118L399.79 138.623L394.261 141.816L394.261 131.694L399.79 128.501L399.79 129.999L395.898 132.246ZM407.843 125.399L405.2 126.925L405.199 135.5L403.569 136.441L403.569 127.866L400.926 129.392L400.926 127.845L407.843 123.852L407.843 125.399ZM387.827 178.497C388.126 178.324 388.387 178.132 388.609 177.919C388.831 177.702 389.015 177.473 389.161 177.23C389.31 176.98 389.421 176.72 389.494 176.449C389.567 176.174 389.603 175.894 389.603 175.609C389.603 175.339 389.567 175.115 389.494 174.937C389.421 174.76 389.312 174.636 389.167 174.566C389.021 174.496 388.837 174.486 388.615 174.535C388.393 174.579 388.13 174.689 387.827 174.864L386.609 175.567L386.608 179.2L387.827 178.497ZM387.827 173.408C388.413 173.07 388.92 172.856 389.349 172.767C389.777 172.679 390.131 172.696 390.41 172.82C390.688 172.943 390.894 173.165 391.028 173.485C391.165 173.802 391.234 174.196 391.234 174.668C391.234 175.158 391.163 175.649 391.022 176.141C390.88 176.629 390.668 177.101 390.385 177.559C390.102 178.016 389.747 178.45 389.318 178.861C388.894 179.269 388.397 179.638 387.827 179.967L386.608 180.67L386.608 184.233L384.978 185.175L384.978 175.053L387.827 173.408ZM401.329 170.673C401.329 171.415 401.222 172.165 401.007 172.923C400.797 173.675 400.498 174.393 400.11 175.079C399.722 175.765 399.255 176.397 398.71 176.973C398.164 177.545 397.558 178.023 396.891 178.408C396.228 178.791 395.624 179.011 395.079 179.07C394.533 179.123 394.064 179.032 393.672 178.797C393.284 178.559 392.983 178.187 392.769 177.68C392.555 177.169 392.448 176.543 392.448 175.801C392.448 175.059 392.555 174.311 392.769 173.557C392.983 172.799 393.285 172.077 393.673 171.391C394.065 170.702 394.533 170.072 395.079 169.501C395.625 168.924 396.229 168.445 396.892 168.062C397.336 167.805 397.754 167.625 398.146 167.52C398.538 167.41 398.898 167.37 399.225 167.4C399.553 167.426 399.846 167.521 400.104 167.684C400.367 167.84 400.589 168.057 400.771 168.335C400.953 168.613 401.09 168.949 401.183 169.343C401.28 169.735 401.329 170.178 401.329 170.673ZM399.662 171.635C399.662 171.08 399.597 170.62 399.468 170.256C399.339 169.888 399.155 169.618 398.916 169.448C398.678 169.278 398.387 169.21 398.043 169.245C397.704 169.278 397.32 169.418 396.892 169.665C396.463 169.912 396.077 170.217 395.734 170.579C395.394 170.938 395.103 171.342 394.861 171.79C394.622 172.235 394.438 172.717 394.309 173.235C394.18 173.748 394.115 174.283 394.115 174.838C394.115 175.393 394.18 175.855 394.309 176.224C394.438 176.588 394.622 176.855 394.861 177.026C395.103 177.189 395.394 177.254 395.733 177.222C396.077 177.187 396.463 177.045 396.891 176.798C397.32 176.551 397.704 176.247 398.043 175.888C398.387 175.526 398.678 175.125 398.916 174.684C399.154 174.238 399.338 173.759 399.468 173.245C399.597 172.727 399.662 172.191 399.662 171.635ZM407.914 163.651C407.865 163.777 407.813 163.879 407.756 163.959C407.704 164.031 407.637 164.091 407.556 164.137C407.471 164.186 407.378 164.205 407.277 164.193C407.18 164.175 407.063 164.161 406.926 164.151C406.788 164.142 406.627 164.156 406.441 164.193C406.259 164.224 406.043 164.311 405.792 164.456C405.566 164.587 405.368 164.734 405.198 164.897C405.028 165.056 404.885 165.225 404.768 165.404C404.654 165.582 404.569 165.766 404.513 165.957C404.456 166.144 404.428 166.331 404.428 166.517C404.428 166.755 404.485 166.921 404.598 167.014C404.715 167.105 404.869 167.152 405.058 167.154C405.248 167.157 405.465 167.132 405.707 167.081C405.95 167.03 406.198 166.982 406.453 166.937C406.707 166.888 406.956 166.862 407.198 166.857C407.441 166.848 407.657 166.891 407.847 166.986C408.037 167.077 408.188 167.237 408.302 167.466C408.419 167.692 408.477 168.015 408.477 168.435C408.477 168.893 408.409 169.362 408.271 169.842C408.138 170.316 407.94 170.778 407.677 171.228C407.418 171.672 407.101 172.088 406.725 172.478C406.349 172.863 405.919 173.195 405.434 173.475C405.155 173.636 404.88 173.762 404.61 173.853C404.339 173.949 404.078 174.011 403.828 174.039C403.581 174.065 403.349 174.059 403.13 174.021C402.912 173.984 402.718 173.914 402.549 173.812L403.027 172.632C403.068 172.543 403.12 172.459 403.185 172.38C403.25 172.296 403.318 172.233 403.391 172.191C403.492 172.133 403.601 172.119 403.719 172.149C403.836 172.175 403.975 172.199 404.137 172.222C404.298 172.246 404.486 172.245 404.701 172.219C404.919 172.186 405.179 172.082 405.483 171.907C405.947 171.639 406.307 171.305 406.562 170.906C406.816 170.503 406.944 170.063 406.944 169.587C406.944 169.321 406.885 169.138 406.768 169.037C406.655 168.935 406.503 168.882 406.313 168.88C406.123 168.873 405.907 168.9 405.665 168.96C405.422 169.021 405.176 169.077 404.925 169.128C404.674 169.18 404.428 169.21 404.185 169.219C403.943 169.229 403.727 169.183 403.537 169.083C403.347 168.983 403.193 168.81 403.076 168.565C402.963 168.313 402.906 167.956 402.906 167.494C402.906 167.125 402.969 166.73 403.094 166.307C403.224 165.883 403.41 165.465 403.652 165.054C403.895 164.644 404.194 164.254 404.549 163.885C404.905 163.517 405.313 163.199 405.774 162.933C406.291 162.635 406.768 162.453 407.205 162.387C407.641 162.322 408.013 162.369 408.32 162.527L407.914 163.651ZM416.508 158.395L413.865 159.921L413.864 168.496L412.234 169.437L412.234 160.862L409.591 162.388L409.591 160.841L416.508 156.848L416.508 158.395ZM387.825 216.497C388.125 216.324 388.385 216.132 388.608 215.919C388.83 215.702 389.014 215.473 389.159 215.23C389.309 214.98 389.42 214.72 389.493 214.449C389.565 214.174 389.602 213.894 389.602 213.609C389.602 213.339 389.565 213.115 389.493 212.937C389.42 212.76 389.311 212.636 389.165 212.566C389.02 212.496 388.836 212.486 388.614 212.535C388.391 212.579 388.129 212.689 387.826 212.864L386.607 213.567L386.607 217.2L387.825 216.497ZM387.826 211.408C388.412 211.07 388.919 210.856 389.347 210.767C389.776 210.679 390.129 210.696 390.408 210.82C390.687 210.943 390.893 211.165 391.026 211.485C391.164 211.802 391.232 212.196 391.232 212.668C391.232 213.158 391.162 213.649 391.02 214.141C390.879 214.629 390.667 215.101 390.384 215.559C390.101 216.016 389.745 216.45 389.317 216.861C388.892 217.269 388.395 217.638 387.825 217.967L386.607 218.67L386.607 222.233L384.976 223.175L384.977 213.053L387.826 211.408ZM396.496 215.005C396.811 214.823 397.092 214.6 397.338 214.336C397.589 214.07 397.799 213.778 397.969 213.461C398.139 213.144 398.268 212.803 398.357 212.439C398.45 212.073 398.496 211.696 398.496 211.308L398.497 205.246L400.127 204.305L400.127 210.367C400.127 210.969 400.042 211.576 399.872 212.187C399.707 212.791 399.466 213.371 399.151 213.926C398.84 214.475 398.46 214.984 398.011 215.453C397.563 215.917 397.057 216.311 396.496 216.636C395.93 216.962 395.423 217.152 394.974 217.206C394.526 217.255 394.144 217.186 393.828 217C393.517 216.806 393.277 216.504 393.107 216.093C392.941 215.676 392.859 215.166 392.859 214.564L392.859 208.502L394.49 207.56L394.489 213.615C394.489 214.002 394.534 214.327 394.623 214.588C394.716 214.847 394.847 215.04 395.017 215.166C395.19 215.285 395.401 215.334 395.647 215.313C395.898 215.289 396.181 215.187 396.496 215.005ZM408.574 200.975L405.931 202.501L405.931 211.076L404.3 212.017L404.3 203.442L401.657 204.969L401.657 203.422L408.574 199.428L408.574 200.975ZM392.759 251.62C392.759 252.362 392.651 253.105 392.437 253.849C392.223 254.594 391.922 255.302 391.534 255.974C391.146 256.646 390.679 257.263 390.134 257.825C389.588 258.388 388.982 258.861 388.315 259.246L384.975 261.175L384.975 251.053L388.315 249.124C388.982 248.739 389.588 248.515 390.134 248.452C390.679 248.385 391.146 248.463 391.534 248.687C391.922 248.906 392.223 249.264 392.437 249.761C392.652 250.258 392.759 250.878 392.759 251.62ZM391.085 252.586C391.085 252.03 391.021 251.571 390.892 251.207C390.766 250.836 390.582 250.569 390.34 250.405C390.101 250.235 389.811 250.167 389.467 250.202C389.128 250.235 388.744 250.375 388.315 250.622L386.612 251.606L386.612 258.732L388.315 257.748C388.743 257.501 389.127 257.198 389.467 256.838C389.81 256.477 390.101 256.075 390.34 255.634C390.582 255.186 390.766 254.707 390.891 254.196C391.021 253.678 391.085 253.141 391.085 252.586ZM396.32 246L396.32 248.807L399.387 247.036L399.387 248.485L396.32 250.256L396.32 253.119L400.212 250.872L400.212 252.377L394.683 255.569L394.683 245.447L400.212 242.255L400.212 243.753L396.32 246ZM407.276 246.744L407.276 248.298L402.142 251.263L402.142 241.141L403.773 240.199L403.772 248.767L407.276 246.744ZM410.563 237.777L410.562 240.584L413.63 238.813L413.63 240.262L410.562 242.033L410.562 244.896L414.454 242.649L414.454 244.154L408.925 247.346L408.926 237.224L414.454 234.032L414.454 235.53L410.563 237.777ZM422.507 230.929L419.864 232.455L419.864 241.03L418.233 241.972L418.233 233.397L415.59 234.923L415.59 233.376L422.507 229.382L422.507 230.929ZM425.776 228.993L425.776 231.8L428.843 230.028L428.843 231.477L425.776 233.249L425.776 236.112L429.667 233.864L429.667 235.369L424.139 238.562L424.139 228.44L429.668 225.247L429.668 226.745L425.776 228.993Z" fill="black"/>
<g clip-path="url(#clip0)">
<path d="M375.227 137.315L371.777 150.189L368.682 149.36L368.2 151.16L371.814 152.129L372.328 152.245L372.575 151.368L376.266 137.594L375.227 137.315Z" fill="#199735"/>
</g>
<g clip-path="url(#clip1)">
<path d="M375.227 173.315L371.777 186.189L368.682 185.36L368.2 187.16L371.814 188.129L372.328 188.245L372.575 187.368L376.266 173.594L375.227 173.315Z" fill="#199735"/>
</g>
<g clip-path="url(#clip2)">
<path d="M375.227 213.315L371.777 226.189L368.682 225.36L368.2 227.16L371.814 228.129L372.328 228.245L372.575 227.368L376.266 213.594L375.227 213.315Z" fill="#199735"/>
</g>
<line x1="606.5" y1="106.5" x2="606.5" y2="114.5" stroke="#BFBFBF" stroke-linecap="round"/>
<line x1="602.5" y1="110.5" x2="610.5" y2="110.5" stroke="#BFBFBF" stroke-linecap="round"/>
<line x1="232.364" y1="148.707" x2="226.707" y2="154.364" stroke="#BFBFBF" stroke-linecap="round"/>
<line x1="226.707" y1="148.707" x2="232.364" y2="154.364" stroke="#BFBFBF" stroke-linecap="round"/>
<line x1="100.364" y1="96.7071" x2="94.7072" y2="102.364" stroke="#BFBFBF" stroke-linecap="round"/>
<line x1="94.7072" y1="96.7072" x2="100.364" y2="102.364" stroke="#BFBFBF" stroke-linecap="round"/>
<line x1="649.364" y1="173.707" x2="643.707" y2="179.364" stroke="#BFBFBF" stroke-linecap="round"/>
<line x1="643.707" y1="173.707" x2="649.364" y2="179.364" stroke="#BFBFBF" stroke-linecap="round"/>
<line x1="482.636" y1="129.707" x2="471.707" y2="140.636" stroke="#BFBFBF" stroke-linecap="round"/>
<line x1="471.707" y1="130.293" x2="482.636" y2="141.222" stroke="#BFBFBF" stroke-linecap="round"/>
<line x1="158.636" y1="143.707" x2="147.707" y2="154.636" stroke="#E3E3E3" stroke-linecap="round"/>
<line x1="147.707" y1="144.293" x2="158.636" y2="155.222" stroke="#E3E3E3" stroke-linecap="round"/>
<line x1="595.636" y1="159.707" x2="584.707" y2="170.636" stroke="#E3E3E3" stroke-linecap="round"/>
<line x1="584.707" y1="160.293" x2="595.636" y2="171.222" stroke="#E3E3E3" stroke-linecap="round"/>
<line x1="49.636" y1="170.707" x2="38.7072" y2="181.636" stroke="#BFBFBF" stroke-linecap="round"/>
<line x1="38.7074" y1="171.293" x2="49.6362" y2="182.222" stroke="#BFBFBF" stroke-linecap="round"/>
<path d="M190.701 105.25C191.278 104.25 192.722 104.25 193.299 105.25L195.897 109.75C196.474 110.75 195.753 112 194.598 112H189.402C188.247 112 187.526 110.75 188.103 109.75L190.701 105.25Z" stroke="#C4C4C4"/>
<rect x="56.5" y="125.5" width="8" height="8" rx="1.5" stroke="#C4C4C4"/>
<rect x="108.5" y="155.5" width="8" height="8" rx="1.5" stroke="#EDEDED"/>
<rect x="518.5" y="169.5" width="8" height="8" rx="1.5" stroke="white"/>
<rect x="533.5" y="96.5" width="8" height="8" rx="1.5" stroke="#C0C0C0"/>
<line x1="376.798" y1="255.082" x2="369.183" y2="268.273" stroke="#E13F3F" stroke-linecap="round"/>
<line x1="369.183" y1="259.828" x2="376.798" y2="264.224" stroke="#E13F3F" stroke-linecap="round"/>
<defs>
<linearGradient id="paint0_linear" x1="347.558" y1="142.327" x2="347.558" y2="358" gradientUnits="userSpaceOnUse">
<stop stop-color="#5894CA"/>
<stop offset="1" stop-color="#D8D8D8" stop-opacity="0"/>
</linearGradient>
<linearGradient id="paint1_linear" x1="340.558" y1="131.327" x2="340.558" y2="347" gradientUnits="userSpaceOnUse">
<stop stop-color="#D6D6D6"/>
<stop offset="1" stop-color="#D8D8D8" stop-opacity="0"/>
</linearGradient>
<linearGradient id="paint2_linear" x1="344" y1="179" x2="344" y2="380" gradientUnits="userSpaceOnUse">
<stop stop-color="#4499E7"/>
<stop offset="1" stop-color="#D8D8D8" stop-opacity="0"/>
</linearGradient>
<linearGradient id="paint3_linear" x1="296" y1="0" x2="296" y2="415" gradientUnits="userSpaceOnUse">
<stop stop-color="#9BC5D7"/>
<stop offset="1" stop-color="#AAE5FF" stop-opacity="0"/>
</linearGradient>
<linearGradient id="paint4_linear" x1="350" y1="166.375" x2="350" y2="367.375" gradientUnits="userSpaceOnUse">
<stop stop-color="white"/>
<stop offset="1" stop-color="#D8D8D8" stop-opacity="0"/>
</linearGradient>
<linearGradient id="paint5_linear" x1="337.5" y1="342" x2="424" y2="247.5" gradientUnits="userSpaceOnUse">
<stop stop-color="#90C6DD"/>
<stop offset="1" stop-color="#72ADC6" stop-opacity="0"/>
</linearGradient>
<linearGradient id="paint6_linear" x1="303" y1="54" x2="303" y2="430.5" gradientUnits="userSpaceOnUse">
<stop stop-color="#4191B4"/>
<stop offset="1" stop-color="#2F85AA" stop-opacity="0"/>
</linearGradient>
<linearGradient id="paint7_linear" x1="404" y1="0" x2="404" y2="376.5" gradientUnits="userSpaceOnUse">
<stop stop-color="#4191B4"/>
<stop offset="1" stop-color="#2F85AA" stop-opacity="0"/>
</linearGradient>
<linearGradient id="paint8_linear" x1="398.903" y1="53.5" x2="398.903" y2="468.5" gradientUnits="userSpaceOnUse">
<stop stop-color="#9BC5D7"/>
<stop offset="1" stop-color="#AAE5FF" stop-opacity="0"/>
</linearGradient>
<linearGradient id="paint9_linear" x1="303" y1="74" x2="303" y2="473.5" gradientUnits="userSpaceOnUse">
<stop stop-color="white"/>
<stop offset="1" stop-color="white" stop-opacity="0"/>
</linearGradient>
<linearGradient id="paint10_linear" x1="399" y1="67" x2="399" y2="490" gradientUnits="userSpaceOnUse">
<stop stop-color="white"/>
<stop offset="1" stop-color="white" stop-opacity="0"/>
</linearGradient>
<linearGradient id="paint11_linear" x1="388.889" y1="30.4506" x2="359.514" y2="140.112" gradientUnits="userSpaceOnUse">
<stop stop-color="#1D4A74"/>
<stop offset="1" stop-color="#1D4A74" stop-opacity="0"/>
</linearGradient>
<linearGradient id="paint12_linear" x1="5.57828" y1="0" x2="5.57828" y2="24.5444" gradientUnits="userSpaceOnUse">
<stop stop-color="#1D4A74"/>
<stop offset="1" stop-color="#1D4A74" stop-opacity="0"/>
</linearGradient>
<linearGradient id="paint13_linear" x1="5.57828" y1="0" x2="5.57828" y2="24.5444" gradientUnits="userSpaceOnUse">
<stop stop-color="#1D4A74"/>
<stop offset="1" stop-color="#1D4A74" stop-opacity="0"/>
</linearGradient>
<linearGradient id="paint14_linear" x1="5.57828" y1="0" x2="5.57828" y2="24.5444" gradientUnits="userSpaceOnUse">
<stop stop-color="#1D4A74"/>
<stop offset="1" stop-color="#1D4A74" stop-opacity="0"/>
</linearGradient>
<linearGradient id="paint15_linear" x1="5.57828" y1="0" x2="5.57828" y2="24.5444" gradientUnits="userSpaceOnUse">
<stop stop-color="#1D4A74"/>
<stop offset="1" stop-color="#1D4A74" stop-opacity="0"/>
</linearGradient>
<linearGradient id="paint16_linear" x1="5.57828" y1="0" x2="5.57828" y2="24.5444" gradientUnits="userSpaceOnUse">
<stop stop-color="#1D4A74"/>
<stop offset="1" stop-color="#1D4A74" stop-opacity="0"/>
</linearGradient>
<linearGradient id="paint17_linear" x1="5.57828" y1="0" x2="5.57828" y2="24.5444" gradientUnits="userSpaceOnUse">
<stop stop-color="#1D4A74"/>
<stop offset="1" stop-color="#1D4A74" stop-opacity="0"/>
</linearGradient>
<linearGradient id="paint18_linear" x1="5.57828" y1="0" x2="5.57828" y2="24.5444" gradientUnits="userSpaceOnUse">
<stop stop-color="#1D4A74"/>
<stop offset="1" stop-color="#1D4A74" stop-opacity="0"/>
</linearGradient>
<linearGradient id="paint19_linear" x1="5.57828" y1="0" x2="5.57828" y2="24.5444" gradientUnits="userSpaceOnUse">
<stop stop-color="#1D4A74"/>
<stop offset="1" stop-color="#1D4A74" stop-opacity="0"/>
</linearGradient>
<linearGradient id="paint20_linear" x1="5.57828" y1="0" x2="5.57828" y2="24.5444" gradientUnits="userSpaceOnUse">
<stop stop-color="#1D4A74"/>
<stop offset="1" stop-color="#1D4A74" stop-opacity="0"/>
</linearGradient>
<linearGradient id="paint21_linear" x1="5.57828" y1="0" x2="5.57828" y2="24.5444" gradientUnits="userSpaceOnUse">
<stop stop-color="#1D4A74"/>
<stop offset="1" stop-color="#1D4A74" stop-opacity="0"/>
</linearGradient>
<linearGradient id="paint22_linear" x1="5.57828" y1="0" x2="5.57828" y2="24.5444" gradientUnits="userSpaceOnUse">
<stop stop-color="#1D4A74"/>
<stop offset="1" stop-color="#1D4A74" stop-opacity="0"/>
</linearGradient>
<linearGradient id="paint23_linear" x1="5.57828" y1="0" x2="5.57828" y2="24.5444" gradientUnits="userSpaceOnUse">
<stop stop-color="#1D4A74"/>
<stop offset="1" stop-color="#1D4A74" stop-opacity="0"/>
</linearGradient>
<linearGradient id="paint24_linear" x1="5.57828" y1="0" x2="5.57828" y2="24.5444" gradientUnits="userSpaceOnUse">
<stop stop-color="#1D4A74"/>
<stop offset="1" stop-color="#1D4A74" stop-opacity="0"/>
</linearGradient>
<linearGradient id="paint25_linear" x1="5.57828" y1="0" x2="5.57828" y2="24.5444" gradientUnits="userSpaceOnUse">
<stop stop-color="#1D4A74"/>
<stop offset="1" stop-color="#1D4A74" stop-opacity="0"/>
</linearGradient>
<linearGradient id="paint26_linear" x1="5.57828" y1="0" x2="5.57828" y2="24.5444" gradientUnits="userSpaceOnUse">
<stop stop-color="#1D4A74"/>
<stop offset="1" stop-color="#1D4A74" stop-opacity="0"/>
</linearGradient>
<clipPath id="clip0">
<rect width="17.9625" height="17.9625" fill="white" transform="matrix(0.707107 -0.707107 0.258746 0.965945 364 143.701)"/>
</clipPath>
<clipPath id="clip1">
<rect width="17.9625" height="17.9625" fill="white" transform="matrix(0.707107 -0.707107 0.258746 0.965945 364 179.701)"/>
</clipPath>
<clipPath id="clip2">
<rect width="17.9625" height="17.9625" fill="white" transform="matrix(0.707107 -0.707107 0.258746 0.965945 364 219.701)"/>
</clipPath>
</defs>
</svg>
