<?xml version="1.0" encoding="utf-8"?>
<!-- Generator: Adobe Illustrator 23.1.0, SVG Export Plug-In . SVG Version: 6.00 Build 0)  -->
<svg version="1.1" id="Layer_1" xmlns="http://www.w3.org/2000/svg" xmlns:xlink="http://www.w3.org/1999/xlink" x="0px" y="0px"
	 viewBox="0 0 414.07 559.35" style="enable-background:new 0 0 414.07 559.35;" xml:space="preserve">
<style type="text/css">
	.st0{fill:#FFFFFF;}
	.st1{fill:#ED2025;}
	.st2{fill:#278BCB;}
</style>
<g id="_x32_srhAx.tif">
	<g>
		<path class="st0" d="M203.83,301.46c-1.04-2.88-2.95-5.01-4.56-7.34c-9.81-14.15-18.95-28.7-26.54-44.17
			c-3.93-8.01-7.11-16.29-9.36-24.94c-2.23-8.55-2.12-16.91,1.39-25.12c1.16-2.7,2.4-5.36,3.81-7.94c4.76-8.7,10.88-16.4,17.42-23.8
			c10.32-11.67,21.56-22.45,32.8-33.21c10.18-9.75,20.48-19.38,30.47-29.31c9.62-9.57,16.74-20.86,21.46-33.61
			c4.54-12.27,6.03-24.97,5.12-37.98c-0.57-8.13-2.04-16.1-4.28-23.94c-1.01-3.54-2.88-6.64-5.09-9.55
			c-0.26-0.34-0.6-0.66-1.09-0.53c-0.57,0.16-0.46,0.68-0.44,1.07c0.04,0.69,0.16,1.37,0.28,2.05c1.69,9.52,1.99,19.09,0.58,28.65
			c-3.12,21.19-12.55,39.31-27.12,54.87c-6.59,7.03-14.09,13.01-21.53,19.07c-15.82,12.89-31.64,25.78-46.75,39.5
			c-8.33,7.56-16.36,15.42-23.33,24.29c-4.88,6.21-9.15,12.78-11.86,20.27c-2.26,6.24-2.99,12.6-1.59,19.11
			c0.97,4.51,2.94,8.65,5.03,12.73c5.85,11.46,13.58,21.65,21.48,31.72c10.85,13.82,22.83,26.65,34.91,39.39
			C197.86,295.75,200.89,298.57,203.83,301.46z M381.2,478.37c0.5,1.33,0.85,2.19,1.14,3.06c1.37,4.06,0.66,6.7-2.63,9.47
			c-0.99,0.83-2.08,1.55-3.18,2.22c-4.39,2.68-9.2,4.41-14.11,5.8c-14.67,4.15-29.69,6.53-44.8,8.41
			c-7.12,0.88-14.25,1.66-21.4,2.24c-9.22,0.75-18.42,1.66-27.65,2.31c-9.06,0.64-18.12,1.13-27.19,1.53
			c-13.65,0.6-27.31,1.12-40.96,1.54c-9.42,0.29-18.85,0.41-28.28,0.5c-7.35,0.07-14.71,0.11-22.06-0.04
			c-10.29-0.22-20.55-0.91-30.81-1.81c-6.89-0.61-13.81-0.96-20.67-1.75c-12.1-1.4-24.22-2.71-36.19-5.04
			c-5.78-1.12-11.52-2.36-17.11-4.18c-3.13-1.02-6.18-2.31-8.61-4.63c-1.87-1.78-2.06-3.31-0.91-5.61c0.47-0.93,1.07-1.77,1.79-2.53
			c1.62-1.73,3.58-2.99,5.67-4.05c5.11-2.58,10.47-4.52,15.99-6.03c8.09-2.22,16.35-3.68,24.59-5.19c0.42-0.08,0.89-0.07,1.27-0.24
			c0.37-0.17,1.01,0.01,1.11-0.7c-7.25-0.43-14.4-0.09-21.54,0.86c-14.1,1.87-27.92,4.88-41.28,9.79
			c-5.78,2.12-11.34,4.73-16.19,8.6c-2.94,2.34-5.55,4.98-6.68,8.71c-0.99,3.24-0.54,6.12,2.11,8.51c1.36,1.23,2.85,2.24,4.44,3.12
			c4.05,2.23,8.4,3.68,12.81,4.89c11.78,3.24,23.81,5.17,35.9,6.67c13.47,1.67,27.01,2.7,40.55,3.59
			c12.6,0.83,25.22,1.36,37.84,1.56c14.87,0.23,29.74,0.65,44.63,0.33c12.54-0.27,25.08-0.48,37.62-0.85
			c4.93-0.14,9.86-0.31,14.78-0.58c9.93-0.56,19.86-0.95,29.77-1.83c6.89-0.62,13.8-1.03,20.67-1.78
			c11.68-1.26,23.33-2.87,34.88-5.05c11.99-2.27,23.84-5.06,35.44-8.86c9.31-3.05,18.3-6.82,26.6-12.12
			c3.09-1.97,5.84-4.32,8.24-7.07c2.29-2.62,2.46-5.4,0.6-8.34C385.94,481.59,384.07,479.84,381.2,478.37z M228.01,323.24
			c0.53,0.07,0.72,0.16,0.84,0.1c0.46-0.23,0.92-0.48,1.35-0.76c7.84-4.96,15.22-10.51,21.95-16.9c5.22-4.96,9.97-10.32,13.55-16.63
			c2.8-4.94,4.76-10.13,5.05-15.89c0.34-6.75-1.65-12.96-4.12-19.08c-3.26-8.06-7.98-15.3-12.73-22.52
			c-3.41-5.2-6.82-10.4-9.77-15.89c-5.47-10.18-5.56-20.24-0.02-30.42c2.99-5.5,6.66-10.5,10.82-15.15
			c7.52-8.41,16.03-15.74,24.9-22.67c15-11.73,30.97-22.05,47.09-32.14c0.99-0.62,2.11-1.08,3.01-2.13
			c-1.26-0.54-2.18,0.04-3.12,0.31c-16.51,4.85-32.57,10.89-48.11,18.3c-14.79,7.05-28.85,15.29-41.44,25.88
			c-9.49,7.98-17.66,17.03-23.09,28.32c-4.77,9.91-6.62,20.33-5.18,31.25c1.46,11.07,5.5,21.2,11.76,30.42
			c4.37,6.43,8.93,12.74,13.4,19.1c2.39,3.4,4.59,6.91,6.49,10.6c4.48,8.68,4.58,17.34,0.06,26.07c-2.79,5.39-5.96,10.52-9.54,15.41
			C230.14,320.2,229.16,321.62,228.01,323.24z M294.46,458.29c-0.52-0.28-0.88-0.52-1.27-0.67c-6.03-2.41-11.82-5.31-17.42-8.6
			c-2.83-1.67-5.69-3.28-8.47-5.03c-2.11-1.33-4.23-1.83-6.64-0.98c-1.3,0.45-2.66,0.74-4.01,1.03
			c-11.94,2.57-24.06,3.78-36.22,4.59c-10.44,0.7-20.88,1.23-31.35,1.25c-14.1,0.03-28.19-0.18-42.25-1.2
			c-4.23-0.31-8.38-1.2-12.39-2.65c-1.47-0.53-2.87-1.19-4.14-2.11c-3.21-2.33-3.85-5.39-1.9-8.84c0.4-0.71,1.2-1.29,0.9-2.27
			c-0.42-0.28-0.87-0.25-1.28-0.14c-6.54,1.65-12.66,4.21-17.64,8.87c-5.6,5.25-5.46,11.67,0.15,16.94
			c1.45,1.37,3.08,2.51,4.79,3.53c5.93,3.53,12.42,5.65,19.03,7.38c16.56,4.34,33.52,5.74,50.53,6.66c7.59,0.41,15.2,0.45,22.81,0.2
			c8.74-0.28,17.43-1.11,26.06-2.38c18.77-2.76,37.04-7.63,55.13-13.25C290.75,460.04,292.64,459.45,294.46,458.29z M302.55,397.91
			c-2.62-1.13-5.19-2.1-7.61-3.42c-3.82-2.07-7.36-4.55-10.57-7.46c-2.25-2.03-4.76-2.64-7.67-2.07c-6.7,1.31-13.47,2.19-20.22,3.18
			c-14.11,2.07-28.31,3.36-42.52,4.4c-9.82,0.72-19.67,1.24-29.52,1.5c-16.6,0.44-33.2,0.52-49.73-1.4
			c-4.46-0.52-8.86-1.43-13.17-2.77c-2.25-0.7-4.34-1.74-6.27-3.06c-3.54-2.4-4.34-5.66-2.4-9.45c0.75-1.48,1.85-2.71,2.89-3.97
			c0.48-0.57,1.24-0.97,1.3-2.08c-7.78,1.6-15.05,4.05-21.16,9.24c-2.58,2.19-4.41,4.85-5.5,8.02c-1.58,4.56-0.43,8.32,3.32,11.29
			c1.37,1.08,2.89,1.89,4.45,2.64c5.64,2.73,11.63,4.39,17.73,5.68c15.34,3.26,30.91,4.68,46.52,5.63c8.54,0.52,17.1,0.8,25.65,1.03
			c12.53,0.34,25.06,0.29,37.57-0.84c8.09-0.73,16.17-1.56,24.18-2.87c13.23-2.15,26.28-5.08,39.19-8.68
			C293.58,401.18,298.19,400.02,302.55,397.91z M136.71,306.8c-0.5-0.49-1.02-0.33-1.49-0.35c-3.3-0.17-6.57,0.32-9.82,0.75
			c-14.85,1.98-29.43,5.22-43.7,9.83c-9.8,3.17-19.46,6.7-28.46,11.8c-2.34,1.33-4.6,2.76-6.48,4.71c-3.01,3.15-2.71,5.65,1,8.02
			c1.98,1.26,4.16,2.08,6.39,2.81c9.51,3.1,19.37,4.39,29.23,5.65c10.98,1.4,22.01,2.28,33.05,3.01c13.29,0.88,26.6,1.41,39.91,1.65
			c15.23,0.28,30.43-0.7,45.62-1.61c4.66-0.28,9.31-0.69,13.96-1.14c7.91-0.76,15.83-1.54,23.73-2.4c7.9-0.86,15.81-1.72,23.69-2.76
			c10.79-1.42,21.57-2.98,32.34-4.56c2.79-0.41,5.67-0.47,8.22-2.08c6.29-3.97,12.65-7.82,18.97-11.74c0.54-0.34,1.32-0.46,1.46-1.3
			c-0.55-0.56-1.15-0.23-1.7-0.15c-1.62,0.25-3.23,0.58-4.85,0.82c-11.54,1.72-23.07,3.47-34.65,4.92
			c-10.03,1.26-20.08,2.4-30.14,3.38c-8.69,0.85-17.37,1.76-26.09,2.31c-10.87,0.69-21.72,1.72-32.59,2.23
			c-11.05,0.51-22.12,0.68-33.2,0.45c-12.71-0.26-25.42-0.36-38.11-1.27c-8.28-0.6-16.55-1.32-24.74-2.7
			c-3.4-0.58-6.8-1.37-9.87-3.05c-3.14-1.72-3.56-4.03-1.31-6.79c1.5-1.83,3.37-3.22,5.39-4.42c3.21-1.9,6.59-3.45,10.03-4.86
			c9.93-4.08,20.24-7.03,30.56-9.92C134.27,307.7,135.54,307.47,136.71,306.8z M78.64,542.23c0.5,0.94,1.18,1.11,1.81,1.29
			c4.33,1.21,8.64,2.48,12.99,3.58c18.13,4.59,36.56,7.46,55.14,9.37c14.19,1.46,28.43,2.27,42.7,2.64
			c22.23,0.58,44.44,0.13,66.63-1.4c11.81-0.82,23.61-1.82,35.38-3.09c17.19-1.86,34.28-4.38,51.21-7.91
			c15.38-3.21,30.22-8.02,44.15-15.41c7.3-3.87,14.1-8.42,19.65-14.64c2.2-2.47,4.11-5.13,5.13-8.32c0.16-0.5,0.68-1.03,0.07-1.64
			c-3.15,2.18-6.22,4.41-9.4,6.48c-12.94,8.41-27.1,14.12-41.82,18.51c-16.17,4.82-32.66,8.18-49.36,10.64
			c-14.97,2.21-30.01,3.73-45.09,4.86c-10.26,0.77-20.54,1.28-30.82,1.51c-12.96,0.29-25.93,0.68-38.91,0.44
			c-15.82-0.29-31.64-0.7-47.45-1.38c-6.91-0.3-13.82-0.66-20.72-1.14c-8.1-0.56-16.2-1.26-24.29-1.95
			c-4.99-0.42-9.98-0.93-14.97-1.38C86.75,542.92,82.83,542.59,78.64,542.23z M327.88,410.01c1.43,0.37,2.23-0.08,3.03-0.32
			c15.84-4.55,31.13-10.43,45.3-18.99c10.67-6.45,20.35-14.01,27.97-24c6.54-8.57,10.66-17.93,9.77-29.02
			c-0.44-5.54-1.94-10.71-4.89-15.41c-5.8-9.24-14.25-15.19-24.35-18.86c-9.78-3.56-19.79-3.56-29.88-1.29
			c-4.43,1-8.64,2.46-12.29,5.26c-0.41,0.32-1.02,0.53-0.98,1.35c1.04-0.14,1.98-0.25,2.92-0.4c8.66-1.39,17.24-1.04,25.69,1.35
			c5.87,1.66,11.07,4.56,14.8,9.52c5.93,7.91,7.81,16.81,5.84,26.48c-1.36,6.71-4.43,12.7-8.27,18.31
			c-5.11,7.47-11.46,13.83-18.16,19.86c-9.48,8.53-19.87,15.83-30.72,22.49C331.83,407.46,330.04,408.64,327.88,410.01z
			 M204.45,301.93l-0.07,0.14l0.11,0.01L204.45,301.93z"/>
		<path class="st1" d="M203.83,301.46c-2.94-2.9-5.97-5.71-8.81-8.7c-12.08-12.74-24.06-25.57-34.91-39.39
			c-7.9-10.07-15.63-20.26-21.48-31.72c-2.09-4.09-4.06-8.23-5.03-12.73c-1.4-6.51-0.67-12.88,1.59-19.11
			c2.71-7.49,6.98-14.05,11.86-20.27c6.97-8.87,15-16.73,23.33-24.29c15.12-13.72,30.94-26.61,46.75-39.5
			c7.44-6.06,14.95-12.04,21.53-19.07c14.58-15.57,24-33.68,27.12-54.87c1.41-9.56,1.11-19.13-0.58-28.65
			c-0.12-0.68-0.24-1.36-0.28-2.05c-0.03-0.39-0.13-0.91,0.44-1.07c0.49-0.14,0.83,0.18,1.09,0.53c2.21,2.91,4.08,6.01,5.09,9.55
			c2.24,7.83,3.71,15.8,4.28,23.94c0.91,13.01-0.58,25.71-5.12,37.98c-4.72,12.75-11.84,24.04-21.46,33.61
			c-9.99,9.94-20.29,19.56-30.47,29.31c-11.24,10.77-22.47,21.54-32.8,33.21c-6.54,7.39-12.67,15.1-17.42,23.8
			c-1.41,2.58-2.65,5.23-3.81,7.94c-3.51,8.21-3.62,16.57-1.39,25.12c2.25,8.65,5.43,16.93,9.36,24.94
			c7.59,15.47,16.73,30.02,26.54,44.17C200.88,296.45,202.79,298.58,203.83,301.46z"/>
		<path class="st2" d="M381.2,478.37c2.87,1.47,4.74,3.22,6.16,5.45c1.86,2.94,1.69,5.72-0.6,8.34c-2.4,2.75-5.15,5.1-8.24,7.07
			c-8.3,5.29-17.29,9.07-26.6,12.12c-11.6,3.8-23.45,6.59-35.44,8.86c-11.55,2.19-23.2,3.79-34.88,5.05
			c-6.87,0.74-13.78,1.16-20.67,1.78c-9.91,0.89-19.84,1.28-29.77,1.83c-4.92,0.28-9.85,0.44-14.78,0.58
			c-12.54,0.37-25.08,0.57-37.62,0.85c-14.88,0.32-29.75-0.1-44.63-0.33c-12.62-0.2-25.24-0.73-37.84-1.56
			c-13.54-0.89-27.08-1.92-40.55-3.59c-12.1-1.5-24.13-3.43-35.9-6.67c-4.42-1.21-8.77-2.66-12.81-4.89
			c-1.6-0.88-3.08-1.89-4.44-3.12c-2.65-2.39-3.09-5.27-2.11-8.51c1.14-3.73,3.75-6.37,6.68-8.71c4.85-3.88,10.41-6.48,16.19-8.6
			c13.37-4.91,27.18-7.92,41.28-9.79c7.14-0.95,14.29-1.29,21.54-0.86c-0.11,0.71-0.75,0.53-1.11,0.7
			c-0.38,0.18-0.84,0.16-1.27,0.24c-8.24,1.52-16.5,2.97-24.59,5.19c-5.52,1.51-10.88,3.45-15.99,6.03
			c-2.09,1.06-4.05,2.32-5.67,4.05c-0.72,0.77-1.32,1.6-1.79,2.53c-1.15,2.29-0.96,3.83,0.91,5.61c2.44,2.32,5.48,3.6,8.61,4.63
			c5.6,1.82,11.34,3.06,17.11,4.18c11.98,2.33,24.09,3.64,36.19,5.04c6.87,0.79,13.78,1.14,20.67,1.75
			c10.25,0.9,20.52,1.6,30.81,1.81c7.35,0.16,14.71,0.12,22.06,0.04c9.43-0.1,18.86-0.21,28.28-0.5
			c13.66-0.42,27.31-0.95,40.96-1.54c9.07-0.4,18.14-0.89,27.19-1.53c9.22-0.65,18.43-1.56,27.65-2.31
			c7.15-0.58,14.28-1.36,21.4-2.24c15.11-1.88,30.12-4.25,44.8-8.41c4.91-1.39,9.72-3.12,14.11-5.8c1.1-0.67,2.2-1.39,3.18-2.22
			c3.29-2.77,3.99-5.41,2.63-9.47C382.05,480.56,381.7,479.7,381.2,478.37z"/>
		<path class="st1" d="M228.01,323.24c1.15-1.63,2.13-3.04,3.14-4.43c3.58-4.89,6.75-10.02,9.54-15.41
			c4.52-8.73,4.42-17.39-0.06-26.07c-1.9-3.69-4.1-7.2-6.49-10.6c-4.48-6.36-9.03-12.67-13.4-19.1
			c-6.26-9.22-10.3-19.35-11.76-30.42c-1.44-10.92,0.41-21.34,5.18-31.25c5.43-11.28,13.61-20.34,23.09-28.32
			c12.59-10.58,26.65-18.82,41.44-25.88c15.54-7.41,31.6-13.45,48.11-18.3c0.93-0.27,1.85-0.85,3.12-0.31
			c-0.89,1.05-2.02,1.51-3.01,2.13c-16.12,10.09-32.09,20.41-47.09,32.14c-8.86,6.94-17.38,14.26-24.9,22.67
			c-4.16,4.65-7.83,9.65-10.82,15.15c-5.53,10.17-5.45,20.24,0.02,30.42c2.95,5.49,6.35,10.69,9.77,15.89
			c4.74,7.23,9.47,14.46,12.73,22.52c2.47,6.12,4.47,12.33,4.12,19.08c-0.29,5.76-2.25,10.95-5.05,15.89
			c-3.57,6.31-8.33,11.66-13.55,16.63c-6.72,6.4-14.11,11.94-21.95,16.9c-0.44,0.28-0.89,0.53-1.35,0.76
			C228.73,323.41,228.54,323.32,228.01,323.24z"/>
		<path class="st2" d="M294.46,458.29c-1.82,1.17-3.72,1.75-5.59,2.33c-18.08,5.63-36.36,10.49-55.13,13.25
			c-8.64,1.27-17.32,2.1-26.06,2.38c-7.61,0.25-15.22,0.2-22.81-0.2c-17.01-0.92-33.97-2.32-50.53-6.66
			c-6.61-1.73-13.1-3.85-19.03-7.38c-1.71-1.02-3.34-2.17-4.79-3.53c-5.61-5.28-5.75-11.7-0.15-16.94
			c4.98-4.66,11.1-7.22,17.64-8.87c0.41-0.1,0.86-0.14,1.28,0.14c0.31,0.98-0.49,1.55-0.9,2.27c-1.95,3.45-1.3,6.51,1.9,8.84
			c1.27,0.92,2.68,1.58,4.14,2.11c4.01,1.45,8.15,2.34,12.39,2.65c14.06,1.02,28.15,1.23,42.25,1.2
			c10.47-0.02,20.92-0.55,31.35-1.25c12.16-0.82,24.28-2.02,36.22-4.59c1.35-0.29,2.71-0.58,4.01-1.03
			c2.42-0.85,4.54-0.35,6.64,0.98c2.78,1.75,5.64,3.37,8.47,5.03c5.6,3.29,11.39,6.19,17.42,8.6
			C293.58,457.77,293.94,458.01,294.46,458.29z"/>
		<path class="st2" d="M302.55,397.91c-4.36,2.11-8.97,3.27-13.53,4.54c-12.91,3.59-25.96,6.53-39.19,8.68
			c-8.02,1.3-16.09,2.14-24.18,2.87c-12.51,1.13-25.04,1.17-37.57,0.84c-8.55-0.23-17.11-0.51-25.65-1.03
			c-15.61-0.95-31.18-2.37-46.52-5.63c-6.1-1.29-12.08-2.95-17.73-5.68c-1.56-0.75-3.08-1.56-4.45-2.64
			c-3.75-2.97-4.89-6.73-3.32-11.29c1.09-3.16,2.93-5.83,5.5-8.02c6.12-5.2,13.39-7.65,21.16-9.24c-0.07,1.12-0.83,1.51-1.3,2.08
			c-1.05,1.26-2.14,2.49-2.89,3.97c-1.94,3.79-1.14,7.05,2.4,9.45c1.94,1.31,4.02,2.36,6.27,3.06c4.3,1.34,8.7,2.25,13.17,2.77
			c16.53,1.93,33.14,1.85,49.73,1.4c9.85-0.26,19.69-0.78,29.52-1.5c14.21-1.04,28.41-2.32,42.52-4.4
			c6.75-0.99,13.52-1.87,20.22-3.18c2.91-0.57,5.42,0.04,7.67,2.07c3.21,2.9,6.75,5.38,10.57,7.46
			C297.36,395.81,299.92,396.78,302.55,397.91z"/>
		<path class="st2" d="M136.71,306.8c-1.17,0.67-2.43,0.89-3.65,1.23c-10.32,2.89-20.63,5.84-30.56,9.92
			c-3.44,1.41-6.82,2.96-10.03,4.86c-2.02,1.2-3.89,2.59-5.39,4.42c-2.26,2.75-1.84,5.06,1.31,6.79c3.07,1.68,6.46,2.48,9.87,3.05
			c8.19,1.39,16.45,2.11,24.74,2.7c12.69,0.91,25.4,1.01,38.11,1.27c11.08,0.23,22.15,0.06,33.2-0.45
			c10.88-0.5,21.73-1.54,32.59-2.23c8.72-0.55,17.4-1.46,26.09-2.31c10.06-0.99,20.11-2.13,30.14-3.38
			c11.58-1.45,23.11-3.2,34.65-4.92c1.62-0.24,3.23-0.57,4.85-0.82c0.55-0.08,1.15-0.41,1.7,0.15c-0.14,0.83-0.92,0.96-1.46,1.3
			c-6.32,3.92-12.68,7.77-18.97,11.74c-2.55,1.61-5.43,1.66-8.22,2.08c-10.77,1.59-21.55,3.14-32.34,4.56
			c-7.88,1.04-15.79,1.9-23.69,2.76c-7.9,0.86-15.82,1.64-23.73,2.4c-4.65,0.44-9.3,0.86-13.96,1.14
			c-15.19,0.91-30.39,1.89-45.62,1.61c-13.32-0.24-26.63-0.77-39.91-1.65c-11.04-0.73-22.07-1.61-33.05-3.01
			c-9.86-1.26-19.72-2.55-29.23-5.65c-2.23-0.73-4.41-1.54-6.39-2.81c-3.71-2.37-4.01-4.87-1-8.02c1.87-1.96,4.13-3.39,6.48-4.71
			c9-5.1,18.66-8.63,28.46-11.8c14.26-4.61,28.84-7.84,43.7-9.83c3.25-0.43,6.51-0.92,9.82-0.75
			C135.69,306.48,136.2,306.32,136.71,306.8z"/>
		<path class="st2" d="M78.64,542.23c4.19,0.36,8.11,0.69,12.03,1.04c4.99,0.45,9.98,0.96,14.97,1.38
			c8.09,0.68,16.19,1.38,24.29,1.95c6.9,0.48,13.81,0.84,20.72,1.14c15.81,0.68,31.63,1.09,47.45,1.38
			c12.98,0.24,25.94-0.15,38.91-0.44c10.28-0.23,20.57-0.75,30.82-1.51c15.08-1.13,30.12-2.64,45.09-4.86
			c16.7-2.47,33.18-5.82,49.36-10.64c14.72-4.39,28.88-10.1,41.82-18.51c3.18-2.07,6.25-4.3,9.4-6.48c0.61,0.62,0.09,1.15-0.07,1.64
			c-1.02,3.19-2.92,5.85-5.13,8.32c-5.55,6.22-12.35,10.76-19.65,14.64c-13.93,7.39-28.77,12.2-44.15,15.41
			c-16.93,3.53-34.01,6.06-51.21,7.91c-11.77,1.27-23.57,2.27-35.38,3.09c-22.19,1.54-44.4,1.98-66.63,1.4
			c-14.26-0.37-28.5-1.17-42.7-2.64c-18.58-1.91-37.01-4.78-55.14-9.37c-4.35-1.1-8.67-2.37-12.99-3.58
			C79.82,543.35,79.13,543.17,78.64,542.23z"/>
		<path class="st2" d="M327.88,410.01c2.16-1.37,3.96-2.54,5.79-3.67c10.85-6.66,21.24-13.96,30.72-22.49
			c6.7-6.03,13.05-12.39,18.16-19.86c3.83-5.61,6.9-11.6,8.27-18.31c1.96-9.67,0.09-18.57-5.84-26.48
			c-3.72-4.96-8.93-7.85-14.8-9.52c-8.44-2.39-17.03-2.74-25.69-1.35c-0.93,0.15-1.87,0.26-2.92,0.4c-0.05-0.82,0.57-1.03,0.98-1.35
			c3.64-2.8,7.86-4.26,12.29-5.26c10.08-2.28,20.09-2.28,29.88,1.29c10.09,3.67,18.54,9.62,24.35,18.86
			c2.95,4.69,4.44,9.87,4.89,15.41c0.89,11.09-3.23,20.44-9.77,29.02c-7.62,9.99-17.3,17.55-27.97,24
			c-14.17,8.56-29.46,14.44-45.3,18.99C330.1,409.92,329.3,410.38,327.88,410.01z"/>
		<polygon class="st1" points="204.45,301.93 204.49,302.08 204.38,302.06 		"/>
	</g>
</g>
</svg>
