<?xml version="1.0" encoding="utf-8"?>
<!-- Generator: Adobe Illustrator 23.1.1, SVG Export Plug-In . SVG Version: 6.00 Build 0)  -->
<svg version="1.1" id="face" xmlns="http://www.w3.org/2000/svg" xmlns:xlink="http://www.w3.org/1999/xlink" x="0px" y="0px"
	 viewBox="0 0 2416.97 1221.95" style="enable-background:new 0 0 2416.97 1221.95;" xml:space="preserve">
<style type="text/css">
	.st0{clip-path:url(#SVGID_2_);}
	.st1{fill:#002740;}
	.st2{fill:url(#SVGID_3_);}
	.st3{fill:url(#SVGID_4_);}
	.st4{fill:url(#SVGID_5_);}
	.st5{fill:#EEE5E8;}
	.st6{fill:#00AEEF;}
	.st7{fill:#231F20;stroke:#FFFFFF;stroke-width:3.0256;stroke-miterlimit:10;}
	.st8{fill:#FFFFFF;}
	.st9{fill:#231F20;}
	.st10{fill:none;stroke:#231F20;stroke-width:5.9075;stroke-linecap:round;stroke-linejoin:round;stroke-miterlimit:10;}
	.st11{fill:none;}
	.st12{fill:#E8E8E8;}
	.st13{clip-path:url(#SVGID_7_);}
	.st14{opacity:0.8;}
	.st15{opacity:0.6;}
	.st16{opacity:0.4;}
	.st17{opacity:0.2;}
	.st18{fill:#E6E6E5;}
	.st19{fill:#3DB54A;}
	.st20{fill:#836142;}
	.st21{fill:#A77D52;}
	.st22{fill:#F3F3F3;}
	.st23{fill:none;stroke:#231F20;stroke-width:3.0681;stroke-linecap:round;stroke-linejoin:round;stroke-miterlimit:10;}
	.st24{fill:#544842;}
	.st25{fill:#079247;}
	.st26{fill:none;stroke:#E6E7E7;stroke-width:9.0474;stroke-linecap:round;stroke-linejoin:round;stroke-miterlimit:10;}
</style>
<g>
	<defs>
		<rect id="SVGID_6_" width="2416.97" height="1221.95"/>
	</defs>
	<clipPath id="SVGID_2_">
		<use xlink:href="#SVGID_6_"  style="overflow:visible;"/>
	</clipPath>
	<g class="st0">
		<rect x="-3.22" y="1.07" class="st1" width="2428.54" height="1239.7"/>
		<g>
			<path class="st5" d="M1063.12,529.66c0,0,0.74,3.92-3.12,5.16c-1.39,0.45-2.5,0.21-3.36-0.29c-1.03-0.89-1.21-1.24-1.8-2.68
				c-0.63-1.55-2.52-3.03-4.18-3.28c-1.56-0.24-4.68-0.05-7.7,1.9c-0.42,0.26-0.83,0.55-1.24,0.89c0,0,3.92-0.75,5.16,3.12
				c0.47,1.46,0.18,2.62-0.37,3.49l-0.36,0.39c-0.35,0.33-0.73,0.59-1.05,0.78c-0.31,0.16-0.68,0.32-1.19,0.52
				c-1.55,0.63-3.03,2.52-3.28,4.18c-0.24,1.57-0.05,4.7,1.91,7.72c0.26,0.41,0.55,0.82,0.87,1.22c0,0-0.74-3.92,3.12-5.16
				c1.39-0.45,2.5-0.21,3.35,0.29c1.03,0.89,1.21,1.24,1.8,2.68c0.63,1.55,2.52,3.03,4.18,3.28c1.56,0.24,4.68,0.05,7.7-1.9
				c0.42-0.26,0.83-0.55,1.24-0.89c0,0-3.92,0.75-5.16-3.12c-0.47-1.46-0.18-2.62,0.37-3.49l0.36-0.4c0.35-0.33,0.72-0.59,1.05-0.78
				c0.31-0.16,0.68-0.32,1.19-0.52c1.55-0.63,3.03-2.52,3.28-4.18c0.24-1.56,0.05-4.7-1.91-7.72
				C1063.74,530.47,1063.45,530.06,1063.12,529.66z M1055.53,543.07c-0.99,1.17-2.74,1.31-3.9,0.33c-1.17-0.99-1.31-2.74-0.32-3.9
				c0.99-1.17,2.74-1.31,3.9-0.33C1056.37,540.16,1056.52,541.91,1055.53,543.07z"/>
			<path class="st6" d="M1155.69,549.91c-0.01,1.68,1.35,3.04,3.02,3.04h7.04c1.68,0,3.04-1.36,3.05-3.04l0.24-67.74l-13.15,12.54
				L1155.69,549.91z"/>
			<path class="st6" d="M1131,483.66c-2.66-2.87-5.94-5.03-9.72-6.44c-3.78-1.41-8.03-2.08-12.72-2.08c-5.16,0-9.61,0.76-13.4,2.34
				c-1.69,5.94-4.96,11.75-4.96,11.75c0.92-3.34,1.15-6.73,1.08-9.65c-0.04,0.03-0.08,0.05-0.12,0.08c0.01-2.02-1.63-3.66-3.65-3.66
				h-5.78c-2.03,0-3.67,1.64-3.68,3.66l-0.25,69.62c-0.01,2.02,1.63,3.66,3.65,3.66h5.78c2.02,0,3.67-1.64,3.68-3.66l0.15-42.45
				c0.01-3.11,0.43-5.8,1.2-8.09c0.78-2.3,1.89-4.2,3.38-5.82l0.03-0.04c1.4-1.58,3.08-2.74,5.18-3.55c2.1-0.81,4.64-1.25,7.67-1.25
				c3.09,0,5.69,0.43,7.8,1.22c3.17,1.2,5.32,3.07,6.9,5.97c1.57,2.91,2.46,6.97,2.44,12.26l-0.15,41.76
				c-0.01,2.02,1.63,3.66,3.65,3.66h5.78c2.03,0,3.67-1.64,3.68-3.66l0.15-42.45c0.02-4.78-0.59-9.12-1.87-13.01
				C1135.62,489.94,1133.65,486.51,1131,483.66z"/>
			<path class="st6" d="M1363.58,476h-8.02c-1.41,0-2.55,1.14-2.55,2.54l0,0.49c-0.01,2.03-2.26,3.24-3.95,2.11
				c-1.43-0.96-2.92-1.81-4.46-2.54c-5.14-2.43-10.8-3.64-16.85-3.64c-5.5,0-10.66,0.95-15.4,2.89c-4.74,1.93-9.05,4.84-12.87,8.64
				c-3.77,3.75-6.65,8.01-8.57,12.72c-1.92,4.71-2.87,9.85-2.89,15.34c-0.02,5.49,0.91,10.65,2.83,15.39
				c1.91,4.74,4.8,9.04,8.6,12.84c3.74,3.75,7.99,6.62,12.69,8.52c4.7,1.9,9.84,2.84,15.33,2.84c6.11,0,11.81-1.2,16.97-3.64
				c1.52-0.72,2.98-1.55,4.39-2.48c1.69-1.12,3.94,0.08,3.93,2.11v0.26c-0.01,1.41,1.13,2.55,2.54,2.55h8.02
				c1.41,0,2.55-1.14,2.55-2.55l0.25-71.86C1366.12,477.14,1364.99,476,1363.58,476z M1352.26,524.85c-1.31,3.13-3.26,6-5.94,8.67
				c-2.62,2.6-5.45,4.5-8.55,5.77c-3.1,1.27-6.5,1.92-10.26,1.92c-3.7,0-7.06-0.66-10.15-1.95c-3.1-1.3-5.95-3.24-8.61-5.91
				c-2.66-2.67-4.59-5.53-5.88-8.63c-1.28-3.1-1.93-6.46-1.92-10.16c0.01-3.76,0.69-7.16,1.99-10.29c1.31-3.13,3.26-6,5.94-8.67
				c2.61-2.6,5.44-4.5,8.55-5.77c3.11-1.27,6.5-1.92,10.27-1.92c3.7,0,7.05,0.66,10.15,1.95c3.1,1.3,5.95,3.24,8.61,5.91
				c2.66,2.67,4.59,5.53,5.88,8.64c1.28,3.1,1.93,6.46,1.92,10.16C1354.24,518.32,1353.57,521.72,1352.26,524.85z"/>
			<path class="st6" d="M1263.65,594.13c-0.04,8.32-3.4,16.15-9.48,22.04c-6.09,5.88-14.15,9.12-22.7,9.12
				c-8.55,0-16.59-3.25-22.64-9.13c-5.92-5.78-8.58-12.82-8.65-20.94l-0.27-39.27l-13.03,12.42l0.18,28.62h0.05
				c1.08,23.12,20.19,41,44.32,41c24.42-0.01,44.73-19.33,45.27-43.06l0.35-111.61l-13.13,11.95L1263.65,594.13z"/>
			<path class="st6" d="M1187.93,549.28l11.97-11.42l0.11-31.03c0.01-3.11,0.43-5.8,1.2-8.09c0.78-2.3,1.89-4.2,3.38-5.82l0.03-0.04
				c1.4-1.58,3.08-2.74,5.18-3.55c2.1-0.81,4.64-1.25,7.67-1.25c3.09,0,5.69,0.43,7.8,1.22c3.17,1.2,5.32,3.07,6.9,5.97
				c1.57,2.91,2.46,6.97,2.44,12.26l-0.15,41.76c-0.01,2.02,1.63,3.66,3.65,3.66h5.78c2.02,0,3.67-1.64,3.68-3.66l0.15-42.45
				c0.02-4.78-0.59-9.12-1.87-13.01c-1.28-3.89-3.25-7.31-5.9-10.16c-2.66-2.87-5.94-5.03-9.72-6.44
				c-3.78-1.41-8.03-2.08-12.72-2.08c-5.24,0-9.75,0.77-13.58,2.41c-1.7,5.92-4.94,11.68-4.94,11.68c0.98-3.59,1.17-7.21,1.05-10.27
				c-0.32-1.69-1.8-2.96-3.58-2.96h-5.78c-2.02,0-3.67,1.64-3.68,3.66l-0.25,69.62l0.01,1.11l0.14-0.13L1187.93,549.28z"/>
			<path class="st6" d="M1157.86,466.22c-2.65,2.64-3.06,6.64-1.28,9.73c0.15,0.26,0.31,0.5,0.49,0.74
				c0.23,0.31,0.46,0.63,0.75,0.92l1.61-1.6l6.36-6.33l3.46-3.45C1166.12,463.07,1161.02,463.07,1157.86,466.22z"/>
			<path class="st6" d="M1264.93,477.61l11.07-11.03l0.36-0.36c-3.13-3.15-8.23-3.15-11.39,0c-2.98,2.97-3.13,7.67-0.49,10.84
				C1264.63,477.24,1264.76,477.43,1264.93,477.61z"/>
			<path class="st5" d="M1056.57,369.05l0-0.56c0.02-4.26-3.43-7.72-7.69-7.72h-40.95c-4.26,0-7.71-3.46-7.7-7.72l0.07-21.23
				c0.01-4.24,3.46-7.67,7.7-7.67l50.9,0c4.24,0,7.68-3.43,7.7-7.67l0-0.56c0.02-4.26-3.43-7.72-7.7-7.72h-66.59
				c-4.24,0-7.68,3.43-7.7,7.67l-0.41,116.05c-0.01,4.26,3.43,7.72,7.7,7.72c0,0,0.16,0,0.35,0c4.24,0,7.68-3.43,7.7-7.67
				l0.17-47.59c0.02-4.24,3.45-7.67,7.7-7.67h41.06C1053.12,376.72,1056.55,373.29,1056.57,369.05z"/>
			<path class="st5" d="M1255.68,352.75c-3.87-2.52-14.18-8.21-28.29-8.21c-6.81,0-13.17,1.13-18.98,3.45
				c-5.81,2.31-11.05,5.8-15.64,10.37c-4.59,4.57-8.1,9.8-10.43,15.6c-2.33,5.8-3.49,12.15-3.51,18.96
				c-0.03,6.81,1.09,13.16,3.38,18.97c2.29,5.8,5.76,11.03,10.32,15.6c4.55,4.58,9.77,8.06,15.56,10.37
				c5.79,2.31,12.15,3.86,18.96,3.45c12.21-0.75,21.93-5,26.74-7.53c2.02-1.06,3.3-3.13,3.31-5.41l0.03-9.13
				c0.01-3.18-3.75-4.88-6.14-2.76c-6.94,6.12-14.69,9.06-23.89,9.09c-4.9,0-9.24-0.78-13.11-2.3c-3.87-1.52-7.29-3.78-10.36-6.85
				c-3.06-3.08-5.3-6.5-6.81-10.38c-1.5-3.88-2.27-8.22-2.26-13.12c0.02-4.97,0.82-9.37,2.35-13.28c1.54-3.91,3.8-7.35,6.88-10.43
				c3-2.99,6.39-5.19,10.28-6.68c3.88-1.49,8.27-2.26,13.25-2.26c4.09,0,8.51,0.77,13.26,2.33c0.22,0.07,0.44,0.17,0.65,0.28
				l5.07,2.72l5.29,3.46c2.45,1.6,5.71-0.16,5.72-3.09l0.04-10.13C1257.36,354.6,1256.73,353.44,1255.68,352.75z"/>
			<path class="st5" d="M1333.67,439.05c6.05-1.94,11.41-4.81,15.99-8.61c4.58-3.8,8.35-8.52,11.29-14.07l0.16-0.3
				c0.9-1.71,0.19-3.82-1.56-4.63l-8.42-3.88c-1.47-0.68-3.22-0.18-4.13,1.17l-3.29,4.94c-2.77,3.76-6.22,7.15-11.27,9.26
				c-4.24,1.74-9.03,2.64-14.47,2.64c-5.34,0-9.97-0.81-13.96-2.36c-3.99-1.55-7.36-3.83-10.25-6.91
				c-2.75-3.02-4.82-6.55-6.21-10.73c-0.72-2.16-1.26-4.5-1.61-7.01c-0.28-2.02,1.32-3.83,3.36-3.83h73.59
				c1.86,0,3.37-1.51,3.38-3.37v-0.32c0.03-6.74-1.09-12.99-3.4-18.64c-2.3-5.64-5.8-10.66-10.38-14.96
				c-4.5-4.29-9.67-7.55-15.4-9.7c-5.74-2.16-12.04-3.21-18.82-3.21c-6.88,0-13.28,1.13-19.13,3.45c-5.84,2.31-11.11,5.8-15.7,10.38
				c-4.53,4.51-7.99,9.71-10.28,15.52c-2.3,5.8-3.43,12.18-3.45,19.05c-0.03,6.81,1.09,13.16,3.38,18.97
				c2.29,5.8,5.75,11.02,10.31,15.59c4.49,4.58,9.68,8.08,15.47,10.39c5.8,2.31,12.18,3.45,19.05,3.45
				C1323.66,441.31,1328.91,440.57,1333.67,439.05z M1291.08,374.06c2.04-3.26,4.44-5.89,7.17-7.94c5.13-3.83,11.62-5.83,19.94-5.84
				c7.8,0.01,14.45,2.13,20.37,6.4l0.01,0.01c3.07,2.2,5.44,4.67,7.21,7.45c1.39,2.19-0.19,5.07-2.79,5.07h-49.06
				C1291.31,379.21,1289.68,376.3,1291.08,374.06z"/>
			<path class="st5" d="M1425.52,346h-11.77c-3.99,0-7.24-3.26-7.23-7.25l0.09-25.62c0.01-3.99-1.72-7.25-3.86-7.25
				c-2.14,0-5.73,0-7.97,0s-4.1,3.26-4.11,7.25l-0.09,25.62c-0.02,3.99-3.29,7.25-7.28,7.25h-11.37c-3.99,0-7.26,3.26-7.28,7.25
				l0,1.45c-0.02,3.99,3.24,7.25,7.22,7.25h11.37c3.99,0,7.24,3.26,7.23,7.25l-0.22,63.19c-0.02,3.99,3.24,7.25,7.22,7.25h1.44
				c3.99,0,7.26-3.26,7.28-7.25l0.22-63.19c0.02-3.99,3.29-7.25,7.28-7.25h11.77c3.99,0,7.26-3.26,7.28-7.25l0.01-1.45
				C1432.76,349.26,1429.51,346,1425.52,346z"/>
			<g>
				<path class="st7" d="M1166.54,339.93c-0.54-3.26-2.58-5.83-5.17-6.5c-0.44-0.11-0.89-0.18-1.36-0.18
					c-0.91,0-1.78,0.23-2.58,0.65c-0.68,0.36-1.29,0.88-1.83,1.48c-0.78,0.87-1.4,1.94-1.79,3.18c-0.3,0.95-0.48,1.99-0.48,3.08v0.1
					v5.42v3.79v0.79v0.02c-9.18-10.72-22.8-17.52-38.01-17.52c-11.64,0-22.34,3.99-30.84,10.65c0.01-0.28,0.03-0.57,0.03-0.85
					c-0.03-2.21-0.4-4.3-1.07-6.29c-0.66-1.99-1.63-3.88-2.95-5.65c-1.35-1.76-2.96-3.43-5.45-4.81c-1.15,2.6-1.42,4.91-1.42,7.13
					c0.03,2.21,0.4,4.3,1.08,6.28c0.35,1.04,0.79,2.04,1.31,3.02c-1.32-0.86-2.7-1.6-4.14-2.19c-2.16-0.9-4.45-1.51-6.87-1.77
					c-2.44-0.24-4.98-0.22-7.88,0.66c1.43,2.67,3.22,4.48,5.11,6.03c1.9,1.52,3.95,2.71,6.12,3.59c2.16,0.89,4.45,1.49,6.88,1.76
					c0.63,0.06,1.28,0.1,1.93,0.12c-7.4,8.72-11.87,20-11.87,32.33c0,27.63,22.4,50.03,50.03,50.03c15.22,0,28.84-6.8,38.01-17.52
					v4.06v3.78v0.84c0,4.63,2.99,8.39,6.67,8.39c0.21,0,0.41-0.05,0.61-0.08c0.84-0.1,1.63-0.38,2.35-0.83
					c0.93-0.59,1.73-1.42,2.36-2.46c0.45-0.75,0.79-1.59,1.02-2.51c0.2-0.8,0.34-1.63,0.34-2.52v-2.48v-3.78v-5.42v-3.78v-5.42
					v-3.78v-5.42v-3.78v-5.42v-3.79v-5.42v-3.78v-5.42v-3.79v-5.42v-3.78v-5.42v-3.79v-3.89
					C1166.68,341.06,1166.63,340.49,1166.54,339.93z M1149.2,387.29c-0.34,9.17-6.03,16.72-13.55,17.94
					c-7.82,1.28-15.79-4.39-18.63-11.74l-0.07-0.18c-0.35-0.81-0.96-1.42-1.69-1.7c-0.27-0.11-0.56-0.18-0.86-0.18
					c-1.2,0-2.16,0.95-2.43,2.26c-2.47,7.31-8.55,12.26-15.85,11.69c-8.13-0.64-15.33-8.44-16.7-18.15
					c-1.42-10.06,3.3-18.84,10.55-21.68l0.46-0.16c7.11-2.4,14.65-3.72,22.52-3.72c7.87,0,15.55,1.31,22.92,3.72l0.47,0.16
					C1143.9,368.39,1149.57,377.2,1149.2,387.29z"/>
				<path class="st8" d="M1136.33,365.55l-0.47-0.16c-7.36-2.41-15.05-3.72-22.92-3.72c-7.87,0-15.41,1.31-22.52,3.72l-0.46,0.16
					c-7.24,2.84-11.97,11.62-10.55,21.68c1.37,9.71,8.57,17.51,16.7,18.15c7.3,0.57,13.38-4.38,15.85-11.69
					c0.28-1.31,1.23-2.26,2.43-2.26c0.3,0,0.58,0.07,0.86,0.18c0.72,0.28,1.33,0.9,1.69,1.7l0.07,0.18
					c2.83,7.35,10.81,13.01,18.63,11.74c7.53-1.22,13.22-8.77,13.55-17.94C1149.57,377.2,1143.9,368.39,1136.33,365.55z"/>
				<path class="st9" d="M1166.54,339.93c-0.54-3.26-2.58-5.83-5.17-6.5c-0.44-0.11-0.89-0.18-1.36-0.18
					c-0.91,0-1.78,0.23-2.58,0.65c-0.68,0.36-1.29,0.88-1.83,1.48c-0.78,0.87-1.4,1.94-1.79,3.18c-0.3,0.95-0.48,1.99-0.48,3.08v0.1
					v5.42v3.79v0.79v0.02c-9.18-10.72-22.8-17.52-38.01-17.52c-11.64,0-22.34,3.99-30.84,10.65c0.01-0.28,0.03-0.57,0.03-0.85
					c-0.03-2.21-0.4-4.3-1.07-6.29c-0.66-1.99-1.63-3.88-2.95-5.65c-1.35-1.76-2.96-3.43-5.45-4.81c-1.15,2.6-1.42,4.91-1.42,7.13
					c0.03,2.21,0.4,4.3,1.08,6.28c0.35,1.04,0.79,2.04,1.31,3.02c-1.32-0.86-2.7-1.6-4.14-2.19c-2.16-0.9-4.45-1.51-6.87-1.77
					c-2.44-0.24-4.98-0.22-7.88,0.66c1.43,2.67,3.22,4.48,5.11,6.03c1.9,1.52,3.95,2.71,6.12,3.59c2.16,0.89,4.45,1.49,6.88,1.76
					c0.63,0.06,1.28,0.1,1.93,0.12c-7.4,8.72-11.87,20-11.87,32.33c0,27.63,22.4,50.03,50.03,50.03c15.22,0,28.84-6.8,38.01-17.52
					v4.06v3.78v0.84c0,4.63,2.99,8.39,6.67,8.39c0.21,0,0.41-0.05,0.61-0.08c0.84-0.1,1.63-0.38,2.35-0.83
					c0.93-0.59,1.73-1.42,2.36-2.46c0.45-0.75,0.79-1.59,1.02-2.51c0.2-0.8,0.34-1.63,0.34-2.52v-2.48v-3.78v-5.42v-3.78v-5.42
					v-3.78v-5.42v-3.78v-5.42v-3.79v-5.42v-3.78v-5.42v-3.79v-5.42v-3.78v-5.42v-3.79v-3.89
					C1166.68,341.06,1166.63,340.49,1166.54,339.93z M1149.2,387.29c-0.34,9.17-6.03,16.72-13.55,17.94
					c-7.82,1.28-15.79-4.39-18.63-11.74l-0.07-0.18c-0.35-0.81-0.96-1.42-1.69-1.7c-0.27-0.11-0.56-0.18-0.86-0.18
					c-1.2,0-2.16,0.95-2.43,2.26c-2.47,7.31-8.55,12.26-15.85,11.69c-8.13-0.64-15.33-8.44-16.7-18.15
					c-1.42-10.06,3.3-18.84,10.55-21.68l0.46-0.16c7.11-2.4,14.65-3.72,22.52-3.72c7.87,0,15.55,1.31,22.92,3.72l0.47,0.16
					C1143.9,368.39,1149.57,377.2,1149.2,387.29z"/>
				<path class="st10" d="M1088.07,386.03c0,0,8.46-11.15,16.92,0"/>
				<path class="st10" d="M1122.84,386.03c0,0,8.46-11.15,16.92,0"/>
			</g>
		</g>
		<g>
			<path class="st11" d="M1303.19,574.56c0-1.58-0.38-2.92-1.13-4.03c-0.76-1.13-1.82-1.89-3.19-2.31
				c-1.02-0.31-2.78-0.48-5.22-0.49l-0.96,0l-0.07,13.33l1.72,0h0.09c2.3,0,3.91-0.15,4.76-0.42c1.24-0.4,2.2-1.11,2.92-2.16
				c0.71-1.04,1.07-2.32,1.08-3.85V574.56z"/>
			<path class="st11" d="M1313.85,624.64c-0.87,0-1.66,0.21-2.39,0.63c-0.73,0.42-1.31,1.01-1.75,1.78
				c-0.44,0.77-0.66,1.58-0.66,2.43v0.01l0,0.01v0c0,0.84,0.21,1.64,0.64,2.42c0.43,0.78,1.01,1.38,1.74,1.81
				c0.73,0.43,1.51,0.65,2.35,0.65v0l0.01,0h0c0.85,0,1.64-0.21,2.4-0.64c0.77-0.43,1.34-1,1.76-1.73c0.41-0.73,0.62-1.54,0.63-2.47
				v-0.03c0-1.39-0.45-2.53-1.36-3.47C1316.31,625.11,1315.21,624.64,1313.85,624.64z"/>
			<path class="st11" d="M1317.29,573.42c-0.38-0.48-0.9-0.88-1.55-1.19c-0.65-0.3-1.33-0.46-2.05-0.46h-0.01
				c-1.18,0-2.18,0.38-3.03,1.13c-0.55,0.49-0.99,1.22-1.31,2.18l8.74,0.02C1317.87,574.42,1317.62,573.84,1317.29,573.42z"/>
			<path class="st11" d="M1311.27,598.65c-0.65-0.3-1.33-0.45-2.05-0.46h-0.01c-1.19,0-2.18,0.37-3.03,1.13
				c-0.55,0.48-0.98,1.21-1.31,2.18l8.74,0.01c-0.2-0.68-0.45-1.26-0.79-1.68C1312.43,599.35,1311.92,598.96,1311.27,598.65z"/>
			<polygon class="st11" points="1294.71,628.24 1299.77,628.24 1297.28,622.88 			"/>
			<path class="st11" d="M1329.27,603.14l0-0.03c0-1.39-0.45-2.53-1.36-3.47c-0.92-0.94-2.02-1.4-3.38-1.41h-0.01
				c-0.86,0-1.65,0.21-2.37,0.63c-0.73,0.42-1.31,1.01-1.75,1.78c-0.44,0.77-0.66,1.57-0.66,2.43v0.01v0.01v0.01
				c0,0.84,0.21,1.64,0.64,2.42c0.43,0.78,1.01,1.38,1.74,1.81c0.74,0.43,1.51,0.65,2.35,0.65h0.01c0.84,0,1.64-0.21,2.41-0.64
				c0.76-0.43,1.34-1,1.75-1.73C1329.06,604.88,1329.26,604.07,1329.27,603.14L1329.27,603.14z"/>
			<path class="st11" d="M1349.4,571.89c-1.29,0-2.38,0.47-3.32,1.42c-0.94,0.96-1.4,2.09-1.41,3.46v0.02v0.01
				c0,0.87,0.21,1.67,0.62,2.42c0.42,0.76,0.98,1.33,1.7,1.74c0.71,0.41,1.49,0.61,2.36,0.62h0.01c0.86,0,1.64-0.2,2.36-0.61
				c0.72-0.41,1.28-0.98,1.71-1.74c0.43-0.75,0.64-1.56,0.65-2.44v-0.02c0-1.35-0.46-2.48-1.38-3.44
				C1351.77,572.36,1350.69,571.9,1349.4,571.89z"/>
			<path class="st11" d="M1332.6,572.46c-0.73-0.43-1.51-0.64-2.38-0.64h-0.01h0c-1.34,0-2.45,0.46-3.38,1.39
				c-0.93,0.94-1.39,2.09-1.39,3.5v0.01v0.02c0,0.91,0.2,1.71,0.6,2.43c0.41,0.73,0.98,1.3,1.74,1.73c0.76,0.43,1.56,0.64,2.41,0.65
				h0.01c0.83,0,1.6-0.21,2.34-0.64c0.73-0.43,1.32-1.03,1.76-1.81c0.44-0.78,0.66-1.58,0.67-2.43v-0.02c0-0.85-0.21-1.65-0.63-2.42
				C1333.89,573.48,1333.32,572.89,1332.6,572.46z"/>
			<path class="st11" d="M1329.8,624.67h-0.01c-0.86,0-1.65,0.21-2.38,0.63c-0.73,0.42-1.31,1.01-1.75,1.78
				c-0.44,0.77-0.66,1.58-0.66,2.43v0.01v0.01v0.01c0,0.84,0.21,1.64,0.64,2.41c0.43,0.78,1.01,1.38,1.74,1.81
				c0.74,0.43,1.51,0.64,2.35,0.65h0.01v0c0.85,0,1.65-0.21,2.41-0.64c0.77-0.43,1.34-1,1.76-1.73c0.41-0.73,0.62-1.54,0.62-2.47
				v-0.03c0-1.39-0.45-2.53-1.36-3.46C1332.26,625.14,1331.15,624.68,1329.8,624.67z"/>
			<path class="st11" d="M1351.05,627.13c-0.43-0.77-1-1.36-1.73-1.79c-0.73-0.42-1.51-0.64-2.38-0.64h-0.01
				c-1.35,0-2.46,0.46-3.38,1.39c-0.92,0.94-1.38,2.09-1.39,3.5v0.01v0.01c0,0.91,0.2,1.72,0.6,2.45c0.4,0.73,0.98,1.3,1.74,1.73
				c0.77,0.43,1.56,0.64,2.41,0.65v0l0.01,0c0.83,0,1.6-0.21,2.34-0.64c0.74-0.43,1.32-1.02,1.76-1.81
				c0.44-0.78,0.66-1.58,0.67-2.43l0-0.03C1351.68,628.69,1351.47,627.89,1351.05,627.13z"/>
			<path class="st12" d="M1304.25,579.24c0.77-1.34,1.16-2.9,1.17-4.65v-0.06c0-2-0.47-3.74-1.42-5.21c-0.95-1.48-2.3-2.53-4-3.13
				c-1.2-0.43-3.08-0.64-5.66-0.64l-3.8-0.01l-0.09,17.62l5.7,0.01l0.04,0c2.14,0,3.82-0.31,5.06-0.95
				C1302.48,581.58,1303.49,580.58,1304.25,579.24z M1299.18,580.63c-0.85,0.28-2.45,0.43-4.76,0.42h-0.09l-1.72,0l0.07-13.33
				l0.96,0c2.44,0,4.2,0.17,5.22,0.49c1.38,0.42,2.43,1.19,3.19,2.31c0.75,1.11,1.13,2.45,1.13,4.03v0.06
				c-0.01,1.54-0.37,2.81-1.08,3.85C1301.39,579.52,1300.43,580.23,1299.18,580.63z"/>
			<path class="st12" d="M1337.11,576.64v-0.05c0-1.86-0.66-3.48-1.96-4.81c-1.31-1.34-2.92-2.02-4.77-2.03l-0.03,0
				c-1.06,0-2.04,0.23-2.91,0.69c-0.69,0.36-1.3,0.91-1.86,1.56l0.01-1.67v-0.25l-1.88-0.01h-0.25l0,0.25l-0.09,17.54l1.88,0.01
				h0.25l0.03-6.45c0.59,0.62,1.22,1.14,1.92,1.5c0.88,0.44,1.84,0.66,2.89,0.66h0.02c1.84,0,3.45-0.68,4.76-2.02
				C1336.43,580.21,1337.1,578.56,1337.11,576.64z M1334.96,576.69c-0.01,0.85-0.23,1.65-0.67,2.43c-0.44,0.78-1.03,1.38-1.76,1.81
				c-0.74,0.43-1.51,0.64-2.34,0.64h-0.01c-0.85,0-1.65-0.22-2.41-0.65c-0.76-0.43-1.34-1-1.74-1.73c-0.4-0.72-0.6-1.52-0.6-2.43
				v-0.02v-0.01c0.01-1.41,0.47-2.56,1.39-3.5c0.92-0.94,2.03-1.39,3.38-1.39h0h0.01c0.87,0,1.65,0.21,2.38,0.64
				c0.73,0.43,1.3,1.01,1.73,1.79c0.42,0.76,0.63,1.57,0.63,2.42V576.69z"/>
			<path class="st12" d="M1318.37,581.81c0.62-0.57,1.16-1.31,1.63-2.21l0.11-0.22l-1.59-0.84l-0.21-0.11l-0.12,0.2
				c-0.49,0.81-0.95,1.39-1.35,1.73c-0.4,0.35-0.9,0.63-1.48,0.84c-0.58,0.21-1.17,0.32-1.78,0.32h-0.02
				c-1.28-0.01-2.32-0.44-3.18-1.34c-0.8-0.84-1.23-1.9-1.3-3.2l11.37,0.02v-0.25c-0.01-1.77-0.48-3.28-1.43-4.49
				c-1.32-1.69-3.13-2.55-5.35-2.56l-0.03,0c-2.15,0-3.92,0.84-5.21,2.49c-1.02,1.29-1.54,2.79-1.55,4.44v0.04
				c0,1.75,0.6,3.33,1.78,4.72c1.21,1.42,2.91,2.12,5.03,2.13l0.02,0c0.95,0,1.81-0.14,2.57-0.43
				C1317.06,582.81,1317.75,582.37,1318.37,581.81z M1310.64,572.91c0.85-0.75,1.84-1.13,3.03-1.13h0.01c0.72,0,1.4,0.15,2.05,0.46
				c0.65,0.31,1.17,0.7,1.55,1.19c0.33,0.42,0.59,1,0.79,1.68l-8.74-0.02C1309.66,574.12,1310.09,573.39,1310.64,572.91z"/>
			<path class="st12" d="M1349.43,569.8h-0.03c-2.01,0-3.72,0.74-5.04,2.2c-1.21,1.33-1.83,2.92-1.84,4.73v0.04
				c0,1.81,0.63,3.41,1.89,4.77c1.27,1.38,2.93,2.07,4.94,2.07h0.02c1.98,0,3.65-0.69,4.93-2.05c1.28-1.36,1.93-2.98,1.94-4.81
				v-0.04c0-1.8-0.6-3.38-1.79-4.7C1353.13,570.54,1351.43,569.8,1349.43,569.8z M1354.08,576.78c-0.01,0.87-0.22,1.68-0.65,2.44
				c-0.43,0.76-0.99,1.33-1.71,1.74c-0.72,0.41-1.5,0.61-2.36,0.61h-0.01c-0.87,0-1.65-0.21-2.36-0.62
				c-0.72-0.41-1.27-0.99-1.7-1.74c-0.41-0.75-0.62-1.55-0.62-2.42v-0.01v-0.02c0.01-1.36,0.47-2.49,1.41-3.46
				c0.94-0.96,2.03-1.42,3.32-1.42c1.28,0.01,2.37,0.47,3.3,1.43c0.92,0.96,1.38,2.08,1.38,3.44V576.78z"/>
			<polygon class="st12" points="1367.37,570.16 1367.3,570.31 1363.25,579.53 1359.12,570.15 1357.23,570.14 1356.85,570.14 
				1362.09,582.1 1359.52,587.94 1361.62,587.94 1361.78,587.94 1369.65,570.16 1367.53,570.16 			"/>
			<polygon class="st12" points="1338.59,565.33 1338.49,583.38 1340.38,583.38 1340.62,583.39 1340.72,565.34 1340.47,565.34 
				1338.84,565.33 			"/>
			<path class="st12" d="M1340.92,598.48l0.2,0.08l0.97-1.55l0.14-0.22l-0.23-0.13c-0.53-0.3-1.05-0.46-1.55-0.46v0h-0.02h-0.01
				c-0.65,0-1.27,0.2-1.85,0.58c-0.42,0.27-0.81,0.67-1.19,1.13l0-1.14l0-0.25h-1.92h-0.25l-0.07,13.16l1.91,0l0.25,0l0.03-4.53
				c0.01-2.18,0.12-3.65,0.32-4.31c0.26-0.91,0.63-1.56,1.09-1.96c0.48-0.42,0.94-0.6,1.41-0.61
				C1340.33,598.28,1340.59,598.34,1340.92,598.48z"/>
			<path class="st12" d="M1355.99,602.8c0-1.67-0.17-2.91-0.52-3.76c-0.36-0.86-0.94-1.55-1.71-2.06c-0.77-0.51-1.66-0.76-2.64-0.77
				l-0.03,0c-0.96,0-1.87,0.23-2.69,0.67c-0.65,0.36-1.25,0.89-1.8,1.52l0.01-1.62v-0.25l-1.88,0h-0.25l-0.07,13.16l1.88,0h0.25
				l0.03-4.89c0.01-1.66,0.1-2.8,0.24-3.39c0.24-0.91,0.73-1.66,1.47-2.29c0.74-0.61,1.56-0.91,2.48-0.92h0.02
				c0.82,0,1.45,0.2,1.94,0.59c0.48,0.38,0.81,0.95,0.99,1.75v0.01c0.1,0.41,0.16,1.29,0.16,2.6v0.27l-0.03,6.29l1.88,0.01h0.25
				l0.03-6.77L1355.99,602.8z"/>
			<path class="st12" d="M1315.99,603.18c-0.01-1.77-0.48-3.28-1.43-4.48v0c-1.32-1.69-3.13-2.55-5.34-2.56h-0.01h-0.02
				c-2.15-0.01-3.92,0.83-5.21,2.48c-1.02,1.29-1.55,2.79-1.56,4.45l0,0.03c0,1.75,0.6,3.33,1.78,4.72c1.2,1.41,2.91,2.13,5.02,2.13
				h0.02c0.95,0,1.81-0.15,2.58-0.44c0.77-0.29,1.46-0.72,2.08-1.28c0.62-0.57,1.16-1.3,1.63-2.21l0.11-0.22l-1.59-0.84l-0.21-0.11
				l-0.12,0.2c-0.49,0.81-0.95,1.39-1.34,1.73c-0.41,0.35-0.9,0.63-1.48,0.85c-0.58,0.21-1.18,0.32-1.8,0.32
				c-1.28,0-2.32-0.44-3.18-1.34c-0.8-0.84-1.23-1.9-1.3-3.2l11.37,0.02L1315.99,603.18z M1304.86,601.5
				c0.32-0.96,0.76-1.69,1.31-2.18c0.85-0.76,1.85-1.13,3.03-1.13h0.01c0.72,0,1.4,0.15,2.05,0.46c0.65,0.31,1.17,0.7,1.55,1.19
				c0.33,0.42,0.59,0.99,0.79,1.68L1304.86,601.5z"/>
			<polygon class="st12" points="1292.33,590.74 1292.07,590.74 1292.07,590.99 1291.97,609.66 1301.71,609.67 1301.73,607.65 
				1301.73,607.4 1294.39,607.38 1294.48,590.75 			"/>
			<path class="st12" d="M1329.13,609.66l1.86,0l0.25,0l0.07-13.16l-1.86,0h-0.25l-0.01,1.92c-0.55-0.65-1.15-1.2-1.84-1.56
				c-0.88-0.46-1.85-0.69-2.92-0.69v0h-0.03c-1.85,0-3.47,0.68-4.79,2.01c-1.33,1.33-2.01,2.97-2.02,4.85l0,0.04
				c0,1.9,0.66,3.54,1.95,4.88c1.3,1.35,2.9,2.04,4.76,2.04h0.01c1.04,0,2.01-0.22,2.89-0.65c0.71-0.35,1.35-0.87,1.95-1.49
				l-0.01,1.57L1329.13,609.66z M1328.64,605.61c-0.41,0.73-0.99,1.3-1.75,1.73c-0.76,0.43-1.56,0.64-2.41,0.64h-0.01
				c-0.84,0-1.62-0.22-2.35-0.65c-0.73-0.43-1.31-1.03-1.74-1.81c-0.43-0.78-0.64-1.58-0.64-2.42v-0.01v-0.01v-0.01
				c0.01-0.86,0.22-1.66,0.66-2.43c0.44-0.77,1.02-1.36,1.75-1.78c0.73-0.42,1.51-0.63,2.37-0.63h0.01
				c1.35,0.01,2.46,0.47,3.38,1.41c0.91,0.94,1.36,2.07,1.36,3.47l0,0.03h0C1329.26,604.07,1329.06,604.88,1328.64,605.61z"/>
			<path class="st12" d="M1334.47,622.94l-0.01,1.92c-0.55-0.65-1.15-1.2-1.84-1.56c-0.87-0.46-1.85-0.69-2.93-0.7l-0.03,0
				c-1.85,0-3.47,0.68-4.79,2.01c-1.33,1.33-2.01,2.97-2.02,4.85v0.04c0,1.9,0.65,3.54,1.95,4.88c1.3,1.35,2.91,2.03,4.76,2.03h0.01
				c1.04,0,2-0.22,2.89-0.65c0.71-0.35,1.35-0.87,1.94-1.49l-0.01,1.57v0.25h1.86h0.25l0.07-13.16l-1.86,0H1334.47z M1334.54,629.58
				c-0.01,0.93-0.22,1.74-0.62,2.47c-0.42,0.73-0.99,1.3-1.76,1.73c-0.76,0.43-1.56,0.64-2.41,0.64v0h-0.01
				c-0.84,0-1.62-0.22-2.35-0.65c-0.73-0.43-1.31-1.03-1.74-1.81c-0.43-0.77-0.64-1.58-0.64-2.41v-0.01v-0.01v-0.01
				c0.01-0.86,0.22-1.66,0.66-2.43c0.44-0.77,1.02-1.36,1.75-1.78c0.73-0.42,1.52-0.63,2.38-0.63h0.01c1.35,0,2.45,0.47,3.37,1.41
				c0.91,0.93,1.35,2.07,1.36,3.46V629.58z"/>
			<polygon class="st12" points="1360.38,618.29 1360.13,618.29 1358.5,618.28 1358.25,618.28 1358.22,622.99 1356.25,622.98 
				1356,622.98 1355.99,624.64 1355.99,624.89 1358.21,624.89 1358.15,636.15 1360.03,636.15 1360.28,636.15 1360.34,624.89 
				1362.68,624.9 1362.92,624.9 1362.93,623.24 1362.93,622.99 1360.35,622.99 			"/>
			<path class="st12" d="M1318.55,618.01l-0.04,6.81c-0.55-0.64-1.15-1.19-1.84-1.56c-0.87-0.46-1.85-0.69-2.92-0.69v0l-0.02,0
				h-0.01c-1.85,0-3.47,0.68-4.8,2.01c-1.33,1.33-2.01,2.97-2.02,4.85v0.05c0,1.9,0.65,3.54,1.95,4.87c1.3,1.35,2.91,2.04,4.76,2.03
				h0.01c1.04,0,2-0.22,2.89-0.65c0.71-0.35,1.35-0.87,1.95-1.49l-0.01,1.57l0,0.25l1.85,0h0.25l0.1-18.05l-1.85,0L1318.55,618.01z
				 M1318.59,629.55c-0.01,0.92-0.22,1.74-0.63,2.47c-0.41,0.73-0.99,1.3-1.76,1.73c-0.76,0.43-1.56,0.64-2.4,0.64h0l-0.01,0v0
				c-0.84,0-1.62-0.21-2.35-0.65c-0.73-0.43-1.31-1.03-1.74-1.81c-0.43-0.78-0.64-1.57-0.64-2.42v0l0-0.01v-0.01
				c0.01-0.86,0.22-1.66,0.66-2.43c0.44-0.77,1.02-1.36,1.75-1.78c0.73-0.42,1.52-0.63,2.39-0.63c1.35,0.01,2.46,0.47,3.38,1.41
				c0.91,0.94,1.36,2.07,1.36,3.47V629.55z"/>
			<path class="st12" d="M1297.1,618.4l-0.16,0l-0.07,0.14l-8.35,17.46l2.3,0h0.16l2.69-5.63l7.06,0.01l2.66,5.64l2.01,0l0.39,0
				l-8.13-17.63L1297.1,618.4z M1294.71,628.24l2.57-5.36l2.5,5.36L1294.71,628.24z"/>
			<path class="st12" d="M1347.1,622.64l-0.03,0c-1.06,0-2.04,0.23-2.91,0.69c-0.69,0.36-1.3,0.91-1.86,1.56l0.01-1.67v-0.25
				l-1.88,0l-0.25,0l-0.09,17.79l1.88,0h0.25l0.03-6.45c0.59,0.62,1.22,1.15,1.93,1.5c0.87,0.44,1.84,0.66,2.88,0.66h0.02
				c1.84,0,3.45-0.68,4.76-2.02c1.32-1.34,1.99-2.99,2-4.91v-0.04c0-1.87-0.66-3.49-1.97-4.82
				C1350.56,623.32,1348.95,622.64,1347.1,622.64z M1351.02,632c-0.44,0.78-1.02,1.38-1.76,1.81c-0.74,0.43-1.51,0.64-2.34,0.64
				l-0.01,0v0c-0.85,0-1.64-0.22-2.41-0.65c-0.76-0.43-1.33-1-1.74-1.73c-0.4-0.72-0.6-1.53-0.6-2.45v-0.01v-0.01
				c0.01-1.41,0.47-2.55,1.39-3.5c0.92-0.94,2.03-1.39,3.38-1.39h0.01c0.87,0,1.65,0.21,2.38,0.64c0.73,0.43,1.3,1.02,1.73,1.79
				c0.42,0.76,0.63,1.56,0.63,2.4l0,0.03C1351.68,630.41,1351.46,631.22,1351.02,632z"/>
		</g>
	</g>
</g>
<g>
	<circle cx="2049.31" cy="1137.32" r="23.97"/>
	<path class="st8" d="M2030,1145.38c1.65,4.47,5.69,7.27,9.6,6.65c4.07-0.64,7.08-4.73,7.28-8.81l0.01-0.1
		c0.04-0.45,0.25-0.86,0.55-1.11c0.12-0.1,0.25-0.18,0.39-0.23c0.59-0.19,1.22,0.12,1.57,0.72c2.41,3.21,6.21,4.66,9.72,3.19
		c3.91-1.63,6.19-6.65,5.29-11.67c-0.93-5.2-4.69-8.76-8.72-8.98l-0.25,0c-3.9-0.03-7.83,0.54-11.71,1.82
		c-3.88,1.28-7.46,3.17-10.7,5.55l-0.21,0.16C2029.55,1135.19,2028.18,1140.46,2030,1145.38z"/>
	<path d="M2058.64,1106.55c0.49-0.93,1.1-1.77,1.82-2.51c1.65,2.33,2.28,5.18,1.67,7.95c1.28-1.27,2.92-2.19,4.84-2.61
		c1.03-0.22,2.07-0.28,3.09-0.2c-0.95,3.59-3.68,6.44-7.51,7.27c-0.95,0.21-1.92,0.27-2.87,0.21c-0.09,0.1-0.16,0.21-0.26,0.3
		C2057.27,1113.95,2056.83,1110.03,2058.64,1106.55z"/>
	
		<ellipse transform="matrix(0.9767 -0.2147 0.2147 0.9767 -195.8568 467.652)" class="st9" cx="2054.86" cy="1135.43" rx="2.45" ry="4.16"/>
	
		<ellipse transform="matrix(0.9767 -0.2147 0.2147 0.9767 -197.4068 464.2559)" class="st9" cx="2038.45" cy="1140.87" rx="2.45" ry="4.16"/>
</g>
<g>
	<path class="st18" d="M1685.32,1211.03c-5.92,0-10.71,4.8-10.71,10.71h21.43C1696.03,1215.83,1691.24,1211.03,1685.32,1211.03z"/>
</g>
<g>
	<path class="st18" d="M2389.64,1211.03c-5.92,0-10.71,4.8-10.71,10.71h21.43C2400.36,1215.83,2395.56,1211.03,2389.64,1211.03z"/>
</g>
<g>
	<path class="st18" d="M1022.38,1201.72c-10.94,0-19.81,8.87-19.81,19.81h39.62C1042.19,1210.59,1033.32,1201.72,1022.38,1201.72z"
		/>
</g>
<g>
	<path class="st18" d="M522.45,1206.42c-8.46,0-15.32,6.86-15.32,15.32h30.64C537.77,1213.28,530.91,1206.42,522.45,1206.42z"/>
</g>
<g>
	<path class="st18" d="M1939.65,1206.42c-8.46,0-15.32,6.86-15.32,15.32h30.64C1954.97,1213.28,1948.11,1206.42,1939.65,1206.42z"/>
</g>
<g>
	<path class="st18" d="M37.65,1206.42c-8.46,0-15.32,6.86-15.32,15.32h30.64C52.97,1213.28,46.11,1206.42,37.65,1206.42z"/>
</g>
<g>
	<path class="st19" d="M2164.77,1214.45c-0.06-1.45-0.36-2.91-0.85-4.3c2.04-3.29,3.19-7.1,3.01-11.11
		c-0.42-9.41-6.22-17.66-14.73-20.69c-1.92-7.48-7.33-13.62-14.62-15.95c-2.53-9.48-10.67-16.74-21.12-16.74
		c-4.17,0-8.27,1.33-11.78,3.6c-3.8-6.3-10.48-10.59-18.51-10.59c-2.24,0-4.45,0.39-6.57,1.09c-3.61-2.86-8.15-4.59-13.24-4.59
		c-6.98,0-13.78,3.74-17.91,9.33c-4.15,0.09-8.21,1.48-11.67,3.8c-1.17-0.2-2.38-0.31-3.63-0.31c-11.47,0-22.45,10.08-21.92,21.92
		c0,0.1,0.02,0.2,0.02,0.31c-2.24-0.8-4.66-1.25-7.23-1.25c-11.47,0-22.45,10.08-21.92,21.92c0.19,4.29,1.51,8.34,3.69,11.77
		c-4.04,2.56-6.92,7.22-6.71,11.92c0.11,2.46,0.75,4.69,1.8,6.61h182.22C2164.25,1219.22,2164.89,1216.95,2164.77,1214.45z"/>
</g>
<g>
	<polygon class="st9" points="669.19,1112.3 669.19,1180.88 669.19,1187.12 669.19,1221.06 678.41,1221.06 678.41,1187.12 
		678.41,1180.88 678.41,1112.3 	"/>
	<polygon class="st9" points="850.09,1112.3 850.09,1180.88 850.09,1187.12 850.09,1221.06 859.32,1221.06 859.32,1187.12 
		859.32,1180.88 859.32,1112.3 	"/>
	<rect x="638.25" y="1164.71" class="st20" width="252.88" height="10.59"/>
	<rect x="638.25" y="1142.63" class="st21" width="252.88" height="14.17"/>
	<rect x="638.25" y="1125.01" class="st21" width="252.88" height="14.17"/>
	<rect x="638.25" y="1105.68" class="st21" width="252.88" height="14.17"/>
	<circle class="st1" cx="673.8" cy="1153.79" r="1.24"/>
	<circle class="st1" cx="673.8" cy="1145.69" r="1.24"/>
	<circle class="st1" cx="673.8" cy="1136.14" r="1.24"/>
	<circle class="st1" cx="673.8" cy="1128.05" r="1.24"/>
	<circle class="st1" cx="673.8" cy="1116.81" r="1.24"/>
	<circle class="st1" cx="673.8" cy="1108.71" r="1.24"/>
	<circle class="st1" cx="854.71" cy="1153.79" r="1.24"/>
	<circle class="st1" cx="854.71" cy="1145.69" r="1.24"/>
	<circle class="st1" cx="854.71" cy="1136.14" r="1.24"/>
	<circle class="st1" cx="854.71" cy="1128.05" r="1.24"/>
	<circle class="st1" cx="854.71" cy="1116.81" r="1.24"/>
	<circle class="st1" cx="854.71" cy="1108.71" r="1.24"/>
</g>
<circle cx="337.76" cy="1157.91" r="23.97"/>
<path class="st8" d="M354.83,1156.06l-0.18-0.19c-2.78-2.91-5.98-5.39-9.58-7.31c-3.6-1.93-7.38-3.17-11.22-3.81l-0.25-0.04
	c-4.01-0.47-8.33,2.39-10.14,7.35c-1.75,4.78-0.37,10.12,3.2,12.4c3.2,2.05,7.2,1.27,10.12-1.47c0.45-0.53,1.12-0.73,1.67-0.44
	c0.14,0.07,0.25,0.18,0.35,0.29c0.26,0.31,0.39,0.74,0.35,1.19l-0.01,0.1c-0.5,4.06,1.76,8.61,5.65,9.94
	c3.75,1.28,8.2-0.78,10.6-4.9C358.03,1164.64,357.59,1159.22,354.83,1156.06z"/>
<path class="st23" d="M328.26,1153.92c0,0,6.6-3.04,7.75,4.14"/>
<path class="st23" d="M344.19,1162.43c0,0,6.6-3.04,7.75,4.14"/>
<g>
	<path class="st19" d="M356.81,1214.45c-0.07-1.45-0.36-2.91-0.85-4.3c2.04-3.29,3.19-7.1,3.01-11.11
		c-0.42-9.41-6.22-17.66-14.73-20.69c-1.92-7.48-7.33-13.62-14.62-15.95c-2.53-9.48-10.67-16.74-21.12-16.74
		c-4.17,0-8.27,1.33-11.78,3.6c-3.8-6.3-10.48-10.59-18.51-10.59c-2.24,0-4.45,0.39-6.57,1.09c-3.61-2.86-8.15-4.59-13.24-4.59
		c-6.98,0-13.78,3.74-17.91,9.33c-4.15,0.09-8.21,1.48-11.67,3.8c-1.17-0.2-2.38-0.31-3.63-0.31c-11.47,0-22.45,10.08-21.92,21.92
		c0,0.1,0.01,0.2,0.02,0.31c-2.24-0.8-4.66-1.25-7.23-1.25c-11.47,0-22.45,10.08-21.92,21.92c0.19,4.29,1.51,8.34,3.69,11.77
		c-4.04,2.56-6.92,7.22-6.71,11.92c0.11,2.46,0.75,4.69,1.8,6.61h182.22C356.28,1219.22,356.92,1216.95,356.81,1214.45z"/>
</g>
<path d="M333.88,1125.99c-0.32-1-0.78-1.93-1.36-2.78c-2.03,2.01-3.14,4.71-3.02,7.54c-1.04-1.47-2.5-2.66-4.32-3.41
	c-0.97-0.4-1.99-0.64-3.01-0.73c0.32,3.7,2.52,6.98,6.14,8.46c0.9,0.37,1.84,0.6,2.79,0.71c0.07,0.11,0.13,0.23,0.2,0.34
	C333.95,1133.51,335.06,1129.72,333.88,1125.99z"/>
<g>
	<circle cx="1364.18" cy="1067.65" r="23.97"/>
	<path class="st8" d="M1382.89,1077.01c2.3-4.17,1.79-9.05-1.23-11.61c-3.14-2.66-8.2-2.27-11.43,0.24l-0.08,0.06
		c-0.37,0.26-0.81,0.37-1.21,0.31c-0.15-0.03-0.3-0.07-0.43-0.15c-0.53-0.32-0.7-1-0.48-1.66c0.86-3.92-0.53-7.75-3.93-9.44
		c-3.79-1.89-9.08-0.35-12.29,3.61c-3.33,4.1-3.57,9.27-1.11,12.47l0.16,0.19c2.52,2.97,5.52,5.57,9.03,7.68
		c3.5,2.11,7.27,3.58,11.19,4.48l0.25,0.06C1375.47,1084,1380.35,1081.6,1382.89,1077.01z"/>
	<path d="M1334.78,1080.68c-1.02,0.24-2.06,0.32-3.09,0.26c0.68-2.77,2.43-5.11,4.93-6.46c-1.8-0.14-3.57-0.78-5.14-1.96
		c-0.84-0.63-1.56-1.38-2.17-2.21c3.34-1.62,7.28-1.42,10.41,0.94c0.78,0.59,1.46,1.28,2.04,2.04c0.13,0,0.27-0.01,0.4,0
		C1341.28,1076.88,1338.6,1079.78,1334.78,1080.68z"/>
	
		<ellipse transform="matrix(0.5994 -0.8004 0.8004 0.5994 -307.7771 1514.354)" class="st9" cx="1359.13" cy="1064.68" rx="4.16" ry="2.45"/>
	
		<ellipse transform="matrix(0.5994 -0.8004 0.8004 0.5994 -308.9396 1529.7821)" class="st9" cx="1373.96" cy="1073.56" rx="4.16" ry="2.45"/>
</g>
<g>
	<g>
		<polyline class="st24" points="1429.41,1221.74 1429.41,1056.1 1399.69,1056.1 1399.69,1221.74 		"/>
	</g>
	<path class="st25" d="M1479.6,975.72c0-5.8-3.17-11.23-8.7-15.91c5.53-4.68,8.7-10.12,8.7-15.91c0-4.12-1.6-8.06-4.52-11.68
		c0.4-1.82,0.62-3.69,0.62-5.6c0-14.05-11.26-25.96-26.87-30.18c-6.76-9.66-19.57-16.19-34.27-16.19
		c-14.73,0-27.57,6.55-34.31,16.24c-15.51,4.27-26.67,16.14-26.67,30.12c0,1.86,0.21,3.67,0.59,5.44c-3,3.66-4.65,7.65-4.65,11.84
		c0,5.8,3.17,11.23,8.7,15.91c-5.53,4.68-8.7,10.12-8.7,15.91s3.17,11.23,8.7,15.91c-5.53,4.68-8.7,10.12-8.7,15.91
		s3.17,11.23,8.7,15.91c-5.53,4.68-8.7,10.12-8.7,15.91c0,17.58,29.12,31.82,65.05,31.82s65.05-14.25,65.05-31.82
		c0-5.8-3.17-11.23-8.7-15.91c5.53-4.68,8.7-10.12,8.7-15.91s-3.17-11.23-8.7-15.91C1476.43,986.95,1479.6,981.52,1479.6,975.72z"/>
</g>
<line class="st26" x1="0" y1="1225.42" x2="2416.97" y2="1225.42"/>
</svg>
