<?xml version="1.0" encoding="utf-8"?>
<!-- Generator: Adobe Illustrator 23.1.1, SVG Export Plug-In . SVG Version: 6.00 Build 0)  -->
<svg version="1.1" id="Layer_1" xmlns="http://www.w3.org/2000/svg" xmlns:xlink="http://www.w3.org/1999/xlink" x="0px" y="0px"
	 viewBox="0 0 1157.08 636.18" style="enable-background:new 0 0 1157.08 636.18;" xml:space="preserve">
<style type="text/css">
	.st0{fill:#002740;stroke:#F0A16F;stroke-width:7;stroke-miterlimit:10;}
	.st1{fill:#FFFFFF;}
</style>
<g>
	<rect x="21.24" y="21.34" class="st0" width="1114.7" height="593.6"/>
	<path class="st1" d="M37.64,2.04c0,0,1.2,6.5-5.2,8.6c-2.3,0.7-4.2,0.3-5.6-0.5c-1.7-1.5-2-2.1-3-4.5c-1-2.6-4.2-5-7-5.5
		c-2.6-0.4-7.8-0.1-12.8,3.2c-0.7,0.4-1.4,0.9-2.1,1.5c0,0,6.5-1.2,8.6,5.2c0.8,2.4,0.3,4.4-0.6,5.8l-0.6,0.6
		c-0.6,0.5-1.2,1-1.7,1.3s-1.1,0.5-2,0.9c-2.6,1-5,4.2-5.5,7c-0.4,2.6-0.1,7.8,3.2,12.9c0.4,0.7,0.9,1.4,1.4,2c0,0-1.2-6.5,5.2-8.6
		c2.3-0.7,4.2-0.3,5.6,0.5c1.7,1.5,2,2.1,3,4.5c1,2.6,4.2,5,7,5.5c2.6,0.4,7.8,0.1,12.8-3.2c0.7-0.4,1.4-0.9,2.1-1.5
		c0,0-6.5,1.2-8.6-5.2c-0.8-2.4-0.3-4.4,0.6-5.8l0.6-0.7c0.6-0.5,1.2-1,1.7-1.3s1.1-0.5,2-0.9c2.6-1,5-4.2,5.5-7
		c0.4-2.6,0.1-7.8-3.2-12.9C38.74,3.44,38.24,2.74,37.64,2.04z M25.04,24.44c-1.6,1.9-4.6,2.2-6.5,0.5c-1.9-1.6-2.2-4.6-0.5-6.5
		c1.6-1.9,4.6-2.2,6.5-0.5C26.44,19.54,26.64,22.44,25.04,24.44z"/>
	<path class="st1" d="M37.64,595.64c0,0,1.2,6.5-5.2,8.6c-2.3,0.7-4.2,0.3-5.6-0.5c-1.7-1.5-2-2.1-3-4.5c-1-2.6-4.2-5-7-5.5
		c-2.6-0.4-7.8-0.1-12.8,3.2c-0.7,0.4-1.4,0.9-2.1,1.5c0,0,6.5-1.2,8.6,5.2c0.8,2.4,0.3,4.4-0.6,5.8l-0.6,0.6
		c-0.6,0.5-1.2,1-1.7,1.3s-1.1,0.5-2,0.9c-2.6,1-5,4.2-5.5,7c-0.4,2.6-0.1,7.8,3.2,12.9c0.4,0.7,0.9,1.4,1.4,2c0,0-1.2-6.5,5.2-8.6
		c2.3-0.7,4.2-0.3,5.6,0.5c1.7,1.5,2,2.1,3,4.5c1,2.6,4.2,5,7,5.5c2.6,0.4,7.8,0.1,12.8-3.2c0.7-0.4,1.4-0.9,2.1-1.5
		c0,0-6.5,1.2-8.6-5.2c-0.8-2.4-0.3-4.4,0.6-5.8l0.6-0.7c0.6-0.5,1.2-1,1.7-1.3s1.1-0.5,2-0.9c2.6-1,5-4.2,5.5-7
		c0.4-2.6,0.1-7.8-3.2-12.9C38.74,597.04,38.24,596.34,37.64,595.64z M25.04,618.04c-1.6,1.9-4.6,2.2-6.5,0.5
		c-1.9-1.6-2.2-4.6-0.5-6.5c1.6-1.9,4.6-2.2,6.5-0.5C26.44,613.14,26.64,616.04,25.04,618.04z"/>
	<path class="st1" d="M1152.34,595.64c0,0,1.2,6.5-5.2,8.6c-2.3,0.7-4.2,0.3-5.6-0.5c-1.7-1.5-2-2.1-3-4.5c-1-2.6-4.2-5-7-5.5
		c-2.6-0.4-7.8-0.1-12.8,3.2c-0.7,0.4-1.4,0.9-2.1,1.5c0,0,6.5-1.2,8.6,5.2c0.8,2.4,0.3,4.4-0.6,5.8l-0.6,0.6
		c-0.6,0.5-1.2,1-1.7,1.3s-1.1,0.5-2,0.9c-2.6,1-5,4.2-5.5,7c-0.4,2.6-0.1,7.8,3.2,12.9c0.4,0.7,0.9,1.4,1.4,2c0,0-1.2-6.5,5.2-8.6
		c2.3-0.7,4.2-0.3,5.6,0.5c1.7,1.5,2,2.1,3,4.5c1,2.6,4.2,5,7,5.5c2.6,0.4,7.8,0.1,12.8-3.2c0.7-0.4,1.4-0.9,2.1-1.5
		c0,0-6.5,1.2-8.6-5.2c-0.8-2.4-0.3-4.4,0.6-5.8l0.6-0.7c0.6-0.5,1.2-1,1.7-1.3s1.1-0.5,2-0.9c2.6-1,5-4.2,5.5-7
		c0.4-2.6,0.1-7.8-3.2-12.9C1153.34,597.04,1152.84,596.34,1152.34,595.64z M1139.64,618.04c-1.6,1.9-4.6,2.2-6.5,0.5
		c-1.9-1.6-2.2-4.6-0.5-6.5c1.6-1.9,4.6-2.2,6.5-0.5C1141.04,613.14,1141.34,616.04,1139.64,618.04z"/>
	<path class="st1" d="M1152.34,2.27c0,0,1.2,6.5-5.2,8.6c-2.3,0.7-4.2,0.3-5.6-0.5c-1.7-1.5-2-2.1-3-4.5c-1-2.6-4.2-5-7-5.5
		c-2.6-0.4-7.8-0.1-12.8,3.2c-0.7,0.4-1.4,0.9-2.1,1.5c0,0,6.5-1.2,8.6,5.2c0.8,2.4,0.3,4.4-0.6,5.8l-0.6,0.6
		c-0.6,0.5-1.2,1-1.7,1.3s-1.1,0.5-2,0.9c-2.6,1-5,4.2-5.5,7c-0.4,2.6-0.1,7.8,3.2,12.9c0.4,0.7,0.9,1.4,1.4,2c0,0-1.2-6.5,5.2-8.6
		c2.3-0.7,4.2-0.3,5.6,0.5c1.7,1.5,2,2.1,3,4.5c1,2.6,4.2,5,7,5.5c2.6,0.4,7.8,0.1,12.8-3.2c0.7-0.4,1.4-0.9,2.1-1.5
		c0,0-6.5,1.2-8.6-5.2c-0.8-2.4-0.3-4.4,0.6-5.8l0.6-0.7c0.6-0.5,1.2-1,1.7-1.3s1.1-0.5,2-0.9c2.6-1,5-4.2,5.5-7
		c0.4-2.6,0.1-7.8-3.2-12.9C1153.34,3.57,1152.84,2.87,1152.34,2.27z M1139.64,24.57c-1.6,1.9-4.6,2.2-6.5,0.5
		c-1.9-1.6-2.2-4.6-0.5-6.5c1.6-1.9,4.6-2.2,6.5-0.5C1141.04,19.67,1141.34,22.67,1139.64,24.57z"/>
</g>
</svg>
