<svg width="406" height="569" viewBox="0 0 406 569" fill="none" xmlns="http://www.w3.org/2000/svg">
<path d="M217.749 330.146L284.15 217.162L169.913 296.4L217.749 330.146Z" stroke="white"/>
<path d="M104.372 291.778L156.009 287.685L284.151 217.161L104.372 291.778Z" stroke="white"/>
<path d="M164.911 331.106L155.778 287.351L284.15 217.161L169.448 296.442L164.911 331.106Z" stroke="white"/>
<path d="M164.923 330.63L187.715 308.694" stroke="white"/>
<path d="M213.119 164.795L240.975 117.984L193.258 150.568L213.119 164.795Z" stroke="white" stroke-width="0.4"/>
<path d="M165.972 148.405L187.483 146.888L240.975 117.984L165.972 148.405Z" stroke="white" stroke-width="0.4"/>
<path d="M191.113 165.003L187.388 146.748L240.975 117.984L193.065 150.584L191.113 165.003Z" stroke="white" stroke-width="0.4"/>
<path d="M191.119 164.805L200.65 155.752" stroke="white" stroke-width="0.4"/>
<line y1="-0.25" x2="240.468" y2="-0.25" transform="matrix(-0.918438 0.395565 -0.208734 -0.977973 234.854 202)" stroke="#A6A6A6" stroke-width="0.5"/>
<line y1="-0.25" x2="204.592" y2="-0.25" transform="matrix(-0.918438 0.395565 -0.208734 -0.977973 187.905 423.399)" stroke="#A6A6A6" stroke-width="0.5"/>
<line y1="-0.25" x2="138.657" y2="-0.25" transform="matrix(-0.918438 0.395565 -0.208734 -0.977973 359.061 390.352)" stroke="#A6A6A6" stroke-width="0.5"/>
<line y1="-0.25" x2="110.538" y2="-0.25" transform="matrix(-0.918438 0.395565 -0.208734 -0.977973 111.591 145.798)" stroke="#A6A6A6" stroke-width="0.5"/>
<line y1="-0.25" x2="80.4791" y2="-0.25" transform="matrix(-0.918438 0.395565 -0.208734 -0.977973 288.878 51.9419)" stroke="#A6A6A6" stroke-width="0.5"/>
<line y1="-0.25" x2="151.262" y2="-0.25" transform="matrix(-0.918438 0.395565 -0.208734 -0.977973 398.925 327)" stroke="#A6A6A6" stroke-width="0.5"/>
<line y1="-0.25" x2="55.2688" y2="-0.25" transform="matrix(-0.918438 0.395565 -0.208734 -0.977973 118.033 10.9624)" stroke="#A6A6A6" stroke-width="0.5"/>
<line y1="-0.25" x2="55.2688" y2="-0.25" transform="matrix(-0.918438 0.395565 -0.208734 -0.977973 189.761 47)" stroke="#A6A6A6" stroke-width="0.5"/>
<line y1="-0.25" x2="26.18" y2="-0.25" transform="matrix(-0.918438 0.395565 -0.208734 -0.977973 383.247 181.489)" stroke="#A6A6A6" stroke-width="0.5"/>
<line y1="-0.25" x2="26.18" y2="-0.25" transform="matrix(-0.918438 0.395565 -0.208734 -0.977973 91.0464 556.913)" stroke="#A6A6A6" stroke-width="0.5"/>
<line y1="-0.25" x2="26.18" y2="-0.25" transform="matrix(-0.918438 0.395565 -0.208734 -0.977973 383.247 476.276)" stroke="#A6A6A6" stroke-width="0.5"/>
<line y1="-0.25" x2="26.18" y2="-0.25" transform="matrix(-0.918438 0.395565 -0.208734 -0.977973 405.581 358.625)" stroke="#A6A6A6" stroke-width="0.5"/>
<line y1="-0.25" x2="26.18" y2="-0.25" transform="matrix(-0.918438 0.395565 -0.208734 -0.977973 405.581 551.625)" stroke="#A6A6A6" stroke-width="0.5"/>
<line y1="-0.25" x2="26.18" y2="-0.25" transform="matrix(-0.918438 0.395565 -0.208734 -0.977973 359.052 10.9624)" stroke="#A6A6A6" stroke-width="0.5"/>
<line y1="-0.25" x2="80.4791" y2="-0.25" transform="matrix(-0.918438 0.395565 -0.208734 -0.977973 214.915 374)" stroke="#A6A6A6" stroke-width="0.5"/>
<line y1="-0.25" x2="80.4791" y2="-0.25" transform="matrix(-0.918438 0.395565 -0.208734 -0.977973 130.915 357)" stroke="#A6A6A6" stroke-width="0.5"/>
<line y1="-0.25" x2="80.4791" y2="-0.25" transform="matrix(-0.918438 0.395565 -0.208734 -0.977973 130.915 357)" stroke="#A6A6A6" stroke-width="0.5"/>
<line y1="-0.25" x2="80.4791" y2="-0.25" transform="matrix(-0.918438 0.395565 -0.208734 -0.977973 384.915 284)" stroke="#A6A6A6" stroke-width="0.5"/>
<line y1="-0.25" x2="80.4791" y2="-0.25" transform="matrix(-0.918438 0.395565 -0.208734 -0.977973 107.915 197)" stroke="#A6A6A6" stroke-width="0.5"/>
<line y1="-0.25" x2="80.4791" y2="-0.25" transform="matrix(-0.918438 0.395565 -0.208734 -0.977973 365.915 418)" stroke="#A6A6A6" stroke-width="0.5"/>
<line y1="-0.25" x2="80.4791" y2="-0.25" transform="matrix(-0.918438 0.395565 -0.208734 -0.977973 368.915 536)" stroke="#A6A6A6" stroke-width="0.5"/>
<line y1="-0.25" x2="80.4791" y2="-0.25" transform="matrix(-0.918438 0.395565 -0.208734 -0.977973 192.915 475)" stroke="#A6A6A6" stroke-width="0.5"/>
<line y1="-0.25" x2="80.4791" y2="-0.25" transform="matrix(-0.918438 0.395565 -0.208734 -0.977973 129.915 97)" stroke="#A6A6A6" stroke-width="0.5"/>
<line y1="-0.25" x2="26.18" y2="-0.25" transform="matrix(-0.918438 0.395565 -0.208734 -0.977973 46.0444 58)" stroke="#A6A6A6" stroke-width="0.5"/>
<line y1="-0.25" x2="26.18" y2="-0.25" transform="matrix(-0.918438 0.395565 -0.208734 -0.977973 34.2812 404.893)" stroke="#A6A6A6" stroke-width="0.5"/>
<line y1="-0.25" x2="26.18" y2="-0.25" transform="matrix(-0.918438 0.395565 -0.208734 -0.977973 318.106 244.941)" stroke="#A6A6A6" stroke-width="0.5"/>
<line y1="-0.25" x2="26.18" y2="-0.25" transform="matrix(-0.918438 0.395565 -0.208734 -0.977973 316.045 166)" stroke="#A6A6A6" stroke-width="0.5"/>
<line y1="-0.25" x2="26.18" y2="-0.25" transform="matrix(-0.918438 0.395565 -0.208734 -0.977973 51.0444 516)" stroke="#A6A6A6" stroke-width="0.5"/>
<line y1="-0.25" x2="26.18" y2="-0.25" transform="matrix(-0.918438 0.395565 -0.208734 -0.977973 304.148 0.387207)" stroke="#A6A6A6" stroke-width="0.5"/>
<line y1="-0.25" x2="26.18" y2="-0.25" transform="matrix(-0.918438 0.395565 -0.208734 -0.977973 353.045 118)" stroke="#A6A6A6" stroke-width="0.5"/>
<line y1="-0.25" x2="26.18" y2="-0.25" transform="matrix(-0.918438 0.395565 -0.208734 -0.977973 124.045 224)" stroke="#A6A6A6" stroke-width="0.5"/>
<line y1="-0.25" x2="178.412" y2="-0.25" transform="matrix(-0.918438 0.395565 -0.208734 -0.977973 320.197 497.426)" stroke="#A6A6A6" stroke-width="0.5"/>
</svg>
