<svg width="397" height="222" viewBox="0 0 397 222" fill="none" xmlns="http://www.w3.org/2000/svg">
<g clip-path="url(#clip0)">
<path d="M397.016 0H0V95.7771H397.016V0Z" fill="#28011C"/>
<path d="M315.246 124.495H74.2388C67.3222 124.495 61.6351 118.843 61.6351 111.969V79.7378C61.6351 72.8638 67.3222 67.2119 74.2388 67.2119H315.246C322.163 67.2119 327.85 72.8638 327.85 79.7378V112.122C327.85 118.843 322.163 124.495 315.246 124.495Z" fill="#CCCCCB"/>
<path d="M267.751 43.5348H120.965C118.505 43.5348 116.507 41.549 116.507 39.1049V37.5773C116.507 35.1333 118.505 33.1475 120.965 33.1475H267.751C270.211 33.1475 272.209 35.1333 272.209 37.5773V39.1049C272.209 41.549 270.211 43.5348 267.751 43.5348Z" fill="#8A8A8A"/>
<path d="M106.824 145.117H64.7092C63.0185 145.117 61.6351 143.742 61.6351 142.062V140.993C61.6351 139.312 63.0185 137.938 64.7092 137.938H106.824C108.515 137.938 109.898 139.312 109.898 140.993V142.062C109.898 143.742 108.515 145.117 106.824 145.117Z" fill="#8A8A8A"/>
<path d="M218.105 53.0057H170.611C169.381 53.0057 168.459 52.0892 168.459 50.8672V50.1034C168.459 48.8814 169.381 47.9648 170.611 47.9648H218.105C219.335 47.9648 220.257 48.8814 220.257 50.1034V50.8672C220.411 52.0892 219.335 53.0057 218.105 53.0057Z" fill="#CCCCCB"/>
<path d="M114.817 157.49H63.787C62.5574 157.49 61.6351 156.574 61.6351 155.352V154.588C61.6351 153.366 62.5574 152.449 63.787 152.449H114.817C116.046 152.449 116.968 153.366 116.968 154.588V155.352C117.122 156.421 116.046 157.49 114.817 157.49Z" fill="#CCCCCB"/>
<path d="M120.965 165.739H63.787C62.5574 165.739 61.6351 164.822 61.6351 163.6V162.836C61.6351 161.614 62.5574 160.698 63.787 160.698H120.965C122.194 160.698 123.117 161.614 123.117 162.836V163.6C123.117 164.822 122.194 165.739 120.965 165.739Z" fill="#CCCCCB"/>
<path d="M100.368 174.14H63.787C62.5574 174.14 61.6351 173.223 61.6351 172.001V171.238C61.6351 170.016 62.5574 169.099 63.787 169.099H100.368C101.598 169.099 102.52 170.016 102.52 171.238V172.001C102.52 173.071 101.598 174.14 100.368 174.14Z" fill="#CCCCCB"/>
<path d="M174.915 145.117H132.954C131.263 145.117 129.879 143.742 129.879 142.062V140.993C129.879 139.312 131.263 137.938 132.954 137.938H175.068C176.759 137.938 178.142 139.312 178.142 140.993V142.062C178.142 143.742 176.759 145.117 174.915 145.117Z" fill="#8A8A8A"/>
<path d="M183.061 157.49H132.031C130.802 157.49 129.879 156.574 129.879 155.352V154.588C129.879 153.366 130.802 152.449 132.031 152.449H183.061C184.29 152.449 185.213 153.366 185.213 154.588V155.352C185.213 156.421 184.29 157.49 183.061 157.49Z" fill="#CCCCCB"/>
<path d="M189.209 165.739H132.031C130.802 165.739 129.879 164.822 129.879 163.6V162.836C129.879 161.614 130.802 160.698 132.031 160.698H189.209C190.439 160.698 191.361 161.614 191.361 162.836V163.6C191.361 164.822 190.439 165.739 189.209 165.739Z" fill="#CCCCCB"/>
<path d="M168.459 174.14H132.031C130.802 174.14 129.879 173.223 129.879 172.001V171.238C129.879 170.016 130.802 169.099 132.031 169.099H168.613C169.842 169.099 170.765 170.016 170.765 171.238V172.001C170.765 173.071 169.689 174.14 168.459 174.14Z" fill="#CCCCCB"/>
<path d="M243.159 145.117H201.044C199.353 145.117 197.97 143.742 197.97 142.062V140.993C197.97 139.312 199.353 137.938 201.044 137.938H243.159C244.85 137.938 246.233 139.312 246.233 140.993V142.062C246.233 143.742 244.85 145.117 243.159 145.117Z" fill="#8A8A8A"/>
<path d="M247.616 198.581H142.176C140.485 198.581 139.102 197.206 139.102 195.526V194.456C139.102 192.776 140.485 191.401 142.176 191.401H247.616C249.307 191.401 250.69 192.776 250.69 194.456V195.526C250.69 197.206 249.307 198.581 247.616 198.581Z" fill="#8A8A8A"/>
<path d="M251.305 157.49H200.276C199.046 157.49 198.124 156.574 198.124 155.352V154.588C198.124 153.366 199.046 152.449 200.276 152.449H251.305C252.535 152.449 253.457 153.366 253.457 154.588V155.352C253.457 156.421 252.535 157.49 251.305 157.49Z" fill="#CCCCCB"/>
<path d="M257.3 165.739H200.122C198.892 165.739 197.97 164.822 197.97 163.6V162.836C197.97 161.614 198.892 160.698 200.122 160.698H257.3C258.529 160.698 259.451 161.614 259.451 162.836V163.6C259.605 164.822 258.529 165.739 257.3 165.739Z" fill="#CCCCCB"/>
<path d="M236.703 174.14H200.122C198.892 174.14 197.97 173.223 197.97 172.001V171.238C197.97 170.016 198.892 169.099 200.122 169.099H236.703C237.933 169.099 238.855 170.016 238.855 171.238V172.001C239.009 173.071 237.933 174.14 236.703 174.14Z" fill="#CCCCCB"/>
<path d="M215.185 211.718H174.607C173.224 211.718 172.148 210.649 172.148 209.274V208.51C172.148 207.135 173.224 206.066 174.607 206.066H215.185C216.568 206.066 217.644 207.135 217.644 208.51V209.274C217.644 210.649 216.568 211.718 215.185 211.718Z" fill="#CCCCCB"/>
<path d="M311.403 145.117H269.288C267.598 145.117 266.214 143.742 266.214 142.062V140.993C266.214 139.312 267.598 137.938 269.288 137.938H311.403C313.094 137.938 314.477 139.312 314.477 140.993V142.062C314.477 143.742 313.094 145.117 311.403 145.117Z" fill="#8A8A8A"/>
<path d="M319.549 157.49H268.52C267.29 157.49 266.368 156.574 266.368 155.352V154.588C266.368 153.366 267.29 152.449 268.52 152.449H319.549C320.779 152.449 321.701 153.366 321.701 154.588V155.352C321.701 156.421 320.625 157.49 319.549 157.49Z" fill="#CCCCCB"/>
<path d="M325.544 165.739H268.366C267.137 165.739 266.214 164.822 266.214 163.6V162.836C266.214 161.614 267.137 160.698 268.366 160.698H325.544C326.774 160.698 327.696 161.614 327.696 162.836V163.6C327.696 164.822 326.774 165.739 325.544 165.739Z" fill="#CCCCCB"/>
<path d="M304.948 174.14H268.366C267.137 174.14 266.214 173.223 266.214 172.001V171.238C266.214 170.016 267.137 169.099 268.366 169.099H304.948C306.177 169.099 307.1 170.016 307.1 171.238V172.001C307.1 173.071 306.177 174.14 304.948 174.14Z" fill="#CCCCCB"/>
<path d="M379.648 15.8866H350.29C349.061 15.8866 348.138 14.9701 348.138 13.748V12.9843C348.138 11.7622 349.061 10.8457 350.29 10.8457H379.648C380.877 10.8457 381.799 11.7622 381.799 12.9843V13.748C381.953 14.9701 380.877 15.8866 379.648 15.8866Z" fill="#8A8A8A"/>
<path d="M104.518 16.0392H93.4517C91.9147 16.0392 90.6851 14.8172 90.6851 13.2896C90.6851 11.7621 91.9147 10.54 93.4517 10.54H104.518C106.055 10.54 107.285 11.7621 107.285 13.2896C107.285 14.8172 106.055 16.0392 104.518 16.0392Z" fill="#8A8A8A"/>
<path d="M78.5425 16.0392H67.4758C65.9388 16.0392 64.7092 14.8172 64.7092 13.2896C64.7092 11.7621 65.9388 10.54 67.4758 10.54H78.5425C80.0795 10.54 81.3091 11.7621 81.3091 13.2896C81.3091 14.8172 80.0795 16.0392 78.5425 16.0392Z" fill="#8A8A8A"/>
<path d="M52.5666 16.0393H41.4999C39.9629 16.0393 38.7333 14.8172 38.7333 13.2897C38.7333 11.9149 39.9629 10.6929 41.4999 10.6929H52.5666C54.1036 10.6929 55.3332 11.9149 55.3332 13.4425C55.3332 14.8172 54.1036 16.0393 52.5666 16.0393Z" fill="#8A8A8A"/>
<path d="M26.5907 16.0393H15.3704C13.8333 16.0393 12.6037 14.8172 12.6037 13.2897C12.6037 11.9149 13.8333 10.6929 15.3704 10.6929H26.437C27.974 10.6929 29.2037 11.9149 29.2037 13.4425C29.3574 14.8172 28.1277 16.0393 26.5907 16.0393Z" fill="#8A8A8A"/>
</g>
<rect x="0.5" y="0.5" width="396" height="221" stroke="black"/>
<defs>
<clipPath id="clip0">
</clipPath>
</defs>
</svg>
