<svg width="370" height="250" viewBox="0 0 370 250" fill="none" xmlns="http://www.w3.org/2000/svg">
<path d="M357.754 248.596H19.2729C12.6479 248.596 7.22736 243.179 7.22736 236.557V32.5043C7.22736 25.8832 12.6479 20.4658 19.2729 20.4658H357.754C364.379 20.4658 369.799 25.8832 369.799 32.5043V236.758C369.799 243.179 364.379 248.596 357.754 248.596Z" fill="#28011C"/>
<path d="M148.161 66.2121H44.3679C40.1519 66.2121 36.5383 62.8012 36.5383 58.3871C36.5383 54.1736 39.9512 50.562 44.3679 50.562H148.161C152.377 50.562 155.99 53.9729 155.99 58.3871C155.99 62.6005 152.377 66.2121 148.161 66.2121Z" fill="#EFE3CB"/>
<path opacity="0.43" d="M83.1145 152.087H44.1671C39.3489 152.087 35.5345 148.275 35.5345 143.459V91.8942C35.5345 87.0788 39.3489 83.2666 44.1671 83.2666H83.3153C88.1335 83.2666 91.9479 87.0788 91.9479 91.8942V143.459C91.7472 148.275 87.9327 152.087 83.1145 152.087Z" fill="#5D96B5"/>
<path opacity="0.43" d="M147.358 152.087H108.41C103.592 152.087 99.7776 148.275 99.7776 143.459V91.8942C99.7776 87.0788 103.592 83.2666 108.41 83.2666H147.558C152.377 83.2666 156.191 87.0788 156.191 91.8942V143.459C155.99 148.275 152.176 152.087 147.358 152.087Z" fill="#5D96B5"/>
<path opacity="0.43" d="M83.1145 228.933H44.1671C39.3489 228.933 35.5345 225.12 35.5345 220.305V168.74C35.5345 163.924 39.3489 160.112 44.1671 160.112H83.3153C88.1335 160.112 91.9479 163.924 91.9479 168.74V220.305C91.7472 224.92 87.9327 228.933 83.1145 228.933Z" fill="#5D96B5"/>
<path opacity="0.43" d="M147.358 228.933H108.41C103.592 228.933 99.7776 225.12 99.7776 220.305V168.74C99.7776 163.924 103.592 160.112 108.41 160.112H147.558C152.377 160.112 156.191 163.924 156.191 168.74V220.305C155.99 224.92 152.176 228.933 147.358 228.933Z" fill="#5D96B5"/>
<path opacity="0.43" d="M191.525 143.86H251.351" stroke="#5D96B5" stroke-width="3" stroke-miterlimit="10" stroke-linecap="round"/>
<path opacity="0.43" d="M191.525 161.918H251.351" stroke="#5D96B5" stroke-width="3" stroke-miterlimit="10" stroke-linecap="round"/>
<path opacity="0.43" d="M191.525 179.976H251.351" stroke="#5D96B5" stroke-width="3" stroke-miterlimit="10" stroke-linecap="round"/>
<path opacity="0.43" d="M191.525 198.034H251.351" stroke="#5D96B5" stroke-width="3" stroke-miterlimit="10" stroke-linecap="round"/>
<path opacity="0.43" d="M191.525 216.092H251.351" stroke="#5D96B5" stroke-width="3" stroke-miterlimit="10" stroke-linecap="round"/>
<path d="M344.102 110.554H188.513C188.513 110.554 200.76 43.3389 204.574 43.3389C208.389 43.3389 220.434 81.6615 226.256 81.6615C232.078 81.6615 234.889 64.2056 244.324 64.2056C253.76 64.2056 258.378 87.4801 266.207 87.4801C274.037 87.4801 277.651 71.2281 285.681 71.2281C293.711 71.2281 299.132 101.926 312.784 101.926C326.435 101.926 323.223 86.2763 333.863 86.2763C344.704 86.0756 344.102 110.554 344.102 110.554Z" fill="#9D1E58"/>
<path d="M297.726 172.352L295.92 150.682C295.719 147.071 292.105 144.663 288.692 145.666C287.889 145.867 287.086 146.268 286.283 146.469C272.23 151.686 263.597 165.329 264.2 179.575C264.4 183.788 268.416 186.597 272.632 185.594L292.507 179.976C295.719 179.174 298.128 175.963 297.726 172.352Z" fill="#CBEDEF"/>
<path d="M336.473 171.349C332.257 157.705 320.212 148.877 307.162 147.673C303.95 147.472 301.34 150.081 301.742 153.291L303.749 177.97C303.749 177.97 303.95 181.782 301.742 182.384L273.836 190.209L273.234 190.41C272.632 190.61 272.23 191.012 272.029 191.614C271.829 192.215 271.829 192.617 271.829 193.219C271.829 193.419 271.829 193.419 272.029 193.62C272.029 193.62 272.029 193.62 272.029 193.821C278.855 211.878 299.533 220.907 317.401 213.082C333.261 206.26 341.693 188.002 336.473 171.349Z" fill="#EFE3CB"/>
<path d="M48.4673 20C48.4673 20 -66.5491 249 61.4918 249C91.5484 249 108.38 241.354 119 230.178" stroke="#EFE3CB" stroke-miterlimit="10" stroke-dasharray="5 5"/>
<path d="M266.408 20.4656C266.408 20.4656 338.079 -2.80888 351.129 60.3934C368.193 143.259 326.435 256.019 369.799 248.596" stroke="#EFE3CB" stroke-miterlimit="10" stroke-dasharray="5 5"/>
</svg>
