<svg width="38" height="62" viewBox="0 0 22 34" fill="none" xmlns="http://www.w3.org/2000/svg">
    <g clip-path="url(#clip0)">
        <path d="M18.9538 0H6.80957V3.69138L9.88024 7.34087L21.9522 7.48446V2.21363L18.9538 0Z" fill="#9D1757"/>
        <path d="M11.247 14.4543H8.82658L4.90094 17.5355L9.07946 21.514L13.2158 21.5559L18.442 21.5918L18.4661 17.7389L11.247 14.4543Z" fill="#9D1757"/>
        <path d="M8.00168 22.3995L3.79908 18.385L0.216632 21.1909L0.20459 33.5274H1.62553L8.00168 26.2823V22.3995Z" fill="#9D1757"/>
        <path d="M7.08048 14.1193L0.252757 10.6792L0.20459 19.3243L7.08048 14.1193Z" fill="#9D1757"/>
        <path d="M1.93862 0.0179483L0.20459 0L0.258778 9.12374L8.092 13.0724L8.13414 7.35284L1.93862 0.0179483Z" fill="#9D1757"/>
    </g>
    <defs>
        <clipPath id="clip0">
            <rect width="21.7476" height="33.5275" fill="#9D1757" transform="translate(0.20459)"/>
        </clipPath>
    </defs>
</svg>
