<svg width="43" height="15" viewBox="0 0 43 15" fill="none" xmlns="http://www.w3.org/2000/svg">
<path d="M20.7806 6.1739C21.0915 6.03954 21.4313 5.96565 21.7856 5.96565C22.1327 5.96565 22.4653 6.03282 22.7834 6.16718C23.1016 6.29482 23.398 6.48292 23.6511 6.71805L25.2924 5.15279C24.8514 4.74971 24.3235 4.41382 23.7379 4.17198C23.145 3.93014 22.487 3.78906 21.8001 3.78906C21.0843 3.78906 20.4046 3.94357 19.79 4.21229C18.8717 4.61536 18.1125 5.28043 17.5847 6.09329C17.0569 6.90615 16.7532 7.87352 16.7532 8.90807C16.7532 10.2852 17.2882 11.5482 18.1848 12.4752C18.6331 12.9388 19.1754 13.3284 19.79 13.5971C20.4046 13.8658 21.0843 14.0203 21.8001 14.0203C22.4364 14.0203 23.051 13.8994 23.6222 13.671C24.1934 13.4426 24.7068 13.1 25.1406 12.6835L23.4486 11.1653C23.21 11.3937 22.957 11.5616 22.6822 11.6691C22.4074 11.7766 22.1182 11.837 21.8001 11.837C21.4458 11.837 21.1132 11.7632 20.795 11.6288C20.3251 11.4205 19.8985 11.0645 19.5948 10.5942C19.2911 10.124 19.1031 9.54626 19.1031 8.91478C19.1031 8.06833 19.4357 7.32265 19.9346 6.79866C20.1732 6.51651 20.4697 6.31497 20.7806 6.1739Z" fill="#181D26"/>
<path d="M33.6003 4.19862C32.9857 3.9299 32.306 3.77539 31.5902 3.77539C30.8744 3.77539 30.1947 3.9299 29.5801 4.19862C28.6618 4.60169 27.9026 5.26675 27.3748 6.07961C26.847 6.89247 26.5433 7.85984 26.5433 8.89439C26.5433 10.2716 27.0783 11.5345 27.9749 12.4616C28.4232 12.9251 28.9655 13.3147 29.5801 13.5835C30.1947 13.8522 30.8744 14.0067 31.5902 14.0067V11.8234C31.2359 11.8234 30.9033 11.7495 30.5851 11.6151C30.1152 11.4069 29.6886 11.0508 29.3849 10.5806C29.0812 10.1103 28.8932 9.53259 28.8932 8.90111C28.8932 8.05466 29.2258 7.30898 29.7247 6.78499C29.9778 6.52299 30.267 6.32146 30.5779 6.18038C30.8888 6.04602 31.2287 5.97213 31.583 5.97213C31.9373 5.97213 32.2699 6.04602 32.588 6.18038C33.058 6.38863 33.4846 6.74468 33.7883 7.21493C33.904 7.39631 34.0052 7.59785 34.0847 7.8061H31.583V9.9894H36.6299V8.90111C36.6299 7.52395 36.0948 6.261 35.1982 5.33393C34.7499 4.85696 34.2076 4.46733 33.6003 4.19862Z" fill="#181D26"/>
<path d="M13.2319 4.5681C13.015 4.42702 12.7836 4.3061 12.545 4.19862C11.9304 3.9299 11.2507 3.77539 10.5349 3.77539C9.8191 3.77539 9.13943 3.9299 8.52483 4.19862C7.60655 4.60169 6.84735 5.26675 6.31952 6.07961C5.79892 6.89247 5.49524 7.85984 5.49524 8.88767C5.49524 10.2648 6.0303 11.5278 6.92689 12.4549C7.37518 12.9184 7.91747 13.308 8.53206 13.5767C9.14666 13.8454 9.82633 14 10.5422 14C11.2507 14 11.9376 13.8454 12.5522 13.5767C12.7908 13.4692 13.0222 13.3483 13.2391 13.2073V13.7044H15.5891V3.98364H13.2319V4.5681ZM12.4004 11.0038C12.1473 11.2658 11.8581 11.4673 11.5472 11.6084C11.2363 11.7428 10.8964 11.8167 10.5422 11.8167C10.1879 11.8167 9.85525 11.7428 9.53711 11.6084C9.06712 11.4001 8.64052 11.0441 8.33684 10.5739C8.03316 10.1036 7.84516 9.52587 7.84516 8.89439C7.84516 8.04794 8.17777 7.30226 8.67667 6.77827C8.92974 6.51627 9.21896 6.31474 9.52988 6.17366C9.84079 6.03931 10.1806 5.96541 10.5349 5.96541C10.8892 5.96541 11.2218 6.03931 11.54 6.17366C12.0099 6.38192 12.4366 6.73796 12.7402 7.20821C13.0439 7.67846 13.2319 8.2562 13.2319 8.88767C13.2391 9.73412 12.9065 10.4798 12.4004 11.0038Z" fill="#181D26"/>
<path d="M2.0607 0.819578C1.58349 1.18906 1.22919 1.67274 0.997814 2.21017C0.773667 2.75432 0.665209 3.35221 0.665209 3.9904C0.665209 4.17179 0.665209 4.41363 0.665209 4.68906H0V6.87236H0.67244C0.67244 9.82822 0.67244 13.7044 0.67244 13.7044H3.02236C3.02236 13.7044 3.02236 9.82822 3.02236 6.87236H4.18648V4.68906H3.02236C3.02236 4.40691 3.02236 4.17179 3.02236 3.9904C3.02236 3.6142 3.08021 3.3119 3.15974 3.08349C3.22482 2.91555 3.29712 2.78119 3.38389 2.6737C3.51404 2.51919 3.65865 2.41171 3.86834 2.32438C4.07802 2.23704 4.36724 2.17658 4.75046 2.17658V0C4.17925 0 3.62973 0.0806142 3.11636 0.255278C2.73314 0.389635 2.37162 0.577735 2.0607 0.819578Z" fill="#181D26"/>
<path d="M41.3659 4.68898C41.3659 3.27151 41.3659 2.10261 41.3659 1.57861H39.016C39.016 2.10261 39.016 3.27151 39.016 4.68898H37.3819V6.87228H39.016C39.016 10.1707 39.016 13.7043 39.016 13.7043H41.3659C41.3659 13.7043 41.3659 10.1707 41.3659 6.87228H43V4.68898H41.3659Z" fill="#181D26"/>
</svg>
