<svg width="282" height="146" viewBox="0 0 282 146" fill="none" xmlns="http://www.w3.org/2000/svg">
<rect width="282" height="146" fill="#171B22"/>
<rect x="6" y="74" width="269" height="60" rx="10" fill="#C4DDF2"/>
<path d="M19.803 90.217V89.557L24.148 87.467V88.27L20.639 89.887L24.148 91.504V92.307L19.803 90.217ZM27.6293 90.393C28.1427 90.5103 28.524 90.668 28.7733 90.866C29.0227 91.064 29.1473 91.3793 29.1473 91.812C29.1473 92.23 28.9897 92.5527 28.6743 92.78C28.359 93 27.9703 93.11 27.5083 93.11C27.2223 93.11 26.9547 93.0697 26.7053 92.989C26.4633 92.9083 26.2653 92.7947 26.1113 92.648V93H25.3413V91.526H26.0453L26.0893 91.988C26.2213 92.1347 26.3937 92.2483 26.6063 92.329C26.8263 92.4097 27.05 92.45 27.2773 92.45C27.5267 92.45 27.7283 92.4023 27.8823 92.307C28.0437 92.2043 28.1243 92.0687 28.1243 91.9C28.1243 91.7093 28.0583 91.5737 27.9263 91.493C27.7943 91.405 27.556 91.3243 27.2113 91.251L26.6833 91.13C26.214 91.02 25.8693 90.8697 25.6493 90.679C25.4367 90.481 25.3303 90.1913 25.3303 89.81C25.3303 89.414 25.477 89.1023 25.7703 88.875C26.071 88.6477 26.4633 88.534 26.9473 88.534C27.1747 88.534 27.3983 88.567 27.6183 88.633C27.8457 88.699 28.0327 88.7907 28.1793 88.908V88.633H28.9603V90.085H28.2563L28.1903 89.568C28.073 89.458 27.919 89.37 27.7283 89.304C27.5377 89.238 27.347 89.205 27.1563 89.205C26.9363 89.205 26.7493 89.2527 26.5953 89.348C26.4487 89.436 26.3753 89.5643 26.3753 89.733C26.3753 89.8797 26.4303 89.9933 26.5403 90.074C26.6577 90.1473 26.8447 90.217 27.1013 90.283L27.6293 90.393ZM34.2781 92.241C33.7721 92.8203 33.0937 93.11 32.2431 93.11C31.7737 93.11 31.3557 93.011 30.9891 92.813C30.6297 92.615 30.3474 92.34 30.1421 91.988C29.9367 91.636 29.8341 91.2363 29.8341 90.789C29.8341 90.349 29.9294 89.9603 30.1201 89.623C30.3181 89.2783 30.5857 89.0107 30.9231 88.82C31.2677 88.6293 31.6527 88.534 32.0781 88.534C32.3787 88.534 32.6427 88.5853 32.8701 88.688C33.1047 88.7907 33.2917 88.93 33.4311 89.106V88.633H34.2451V90.283H33.4971C33.4384 89.975 33.3064 89.7367 33.1011 89.568C32.8957 89.3993 32.6317 89.315 32.3091 89.315C31.8984 89.315 31.5611 89.4507 31.2971 89.722C31.0404 89.986 30.9121 90.327 30.9121 90.745C30.9121 91.1997 31.0477 91.57 31.3191 91.856C31.5904 92.1347 31.9461 92.274 32.3861 92.274C32.7087 92.274 32.9874 92.2153 33.2221 92.098C33.4567 91.9807 33.6804 91.8083 33.8931 91.581L34.2781 92.241ZM37.9943 88.578C38.273 88.578 38.5627 88.6477 38.8633 88.787L38.6213 89.733C38.3573 89.5717 38.086 89.491 37.8073 89.491C37.5433 89.491 37.3197 89.59 37.1363 89.788C36.953 89.986 36.8613 90.2647 36.8613 90.624L36.8503 92.285H37.5763V93H35.0243V92.285H35.7723V89.359H35.0243V88.644H36.8503V89.469C37.107 88.875 37.4883 88.578 37.9943 88.578ZM40.4204 87.753C40.2151 87.753 40.0428 87.6907 39.9034 87.566C39.7714 87.434 39.7054 87.269 39.7054 87.071C39.7054 86.873 39.7714 86.7117 39.9034 86.587C40.0428 86.455 40.2151 86.389 40.4204 86.389C40.6258 86.389 40.7944 86.455 40.9264 86.587C41.0658 86.7117 41.1354 86.873 41.1354 87.071C41.1354 87.269 41.0658 87.434 40.9264 87.566C40.7944 87.6907 40.6258 87.753 40.4204 87.753ZM39.2434 92.285H39.9914V89.359H39.2544V88.644H41.0804V92.285H41.7844V93H39.2434V92.285ZM45.3865 88.534C45.7898 88.534 46.1455 88.6257 46.4535 88.809C46.7688 88.985 47.0145 89.2417 47.1905 89.579C47.3665 89.9163 47.4545 90.3123 47.4545 90.767C47.4545 91.2437 47.3555 91.6617 47.1575 92.021C46.9668 92.373 46.7065 92.6443 46.3765 92.835C46.0538 93.0183 45.6908 93.11 45.2875 93.11C45.0308 93.11 44.7888 93.0733 44.5615 93C44.3342 92.9193 44.1472 92.8167 44.0005 92.692V94.045H44.7925V94.76H42.2075V94.045H42.9115V89.359H42.2185V88.644H43.9235L43.9455 89.029C44.3782 88.699 44.8585 88.534 45.3865 88.534ZM44.9905 92.296C45.3865 92.296 45.7055 92.1677 45.9475 91.911C46.1968 91.6543 46.3215 91.2913 46.3215 90.822C46.3215 90.3747 46.2005 90.0227 45.9585 89.766C45.7238 89.502 45.4158 89.37 45.0345 89.37C44.8805 89.37 44.7082 89.403 44.5175 89.469C44.3268 89.5277 44.1545 89.6157 44.0005 89.733V91.966C44.3012 92.186 44.6312 92.296 44.9905 92.296ZM49.8916 93C49.0189 93 48.5826 92.571 48.5826 91.713V89.359H47.9226V88.644H48.5826V87.192L49.6826 86.895V88.644H50.7716V89.359H49.6826V91.592C49.6826 91.8413 49.7229 92.0173 49.8036 92.12C49.8916 92.2227 50.0383 92.274 50.2436 92.274H50.8486V93H49.8916ZM57.4174 90.393C57.9307 90.5103 58.3121 90.668 58.5614 90.866C58.8107 91.064 58.9354 91.3793 58.9354 91.812C58.9354 92.23 58.7777 92.5527 58.4624 92.78C58.1471 93 57.7584 93.11 57.2964 93.11C57.0104 93.11 56.7427 93.0697 56.4934 92.989C56.2514 92.9083 56.0534 92.7947 55.8994 92.648V93H55.1294V91.526H55.8334L55.8774 91.988C56.0094 92.1347 56.1817 92.2483 56.3944 92.329C56.6144 92.4097 56.8381 92.45 57.0654 92.45C57.3147 92.45 57.5164 92.4023 57.6704 92.307C57.8317 92.2043 57.9124 92.0687 57.9124 91.9C57.9124 91.7093 57.8464 91.5737 57.7144 91.493C57.5824 91.405 57.3441 91.3243 56.9994 91.251L56.4714 91.13C56.0021 91.02 55.6574 90.8697 55.4374 90.679C55.2247 90.481 55.1184 90.1913 55.1184 89.81C55.1184 89.414 55.2651 89.1023 55.5584 88.875C55.8591 88.6477 56.2514 88.534 56.7354 88.534C56.9627 88.534 57.1864 88.567 57.4064 88.633C57.6337 88.699 57.8207 88.7907 57.9674 88.908V88.633H58.7484V90.085H58.0444L57.9784 89.568C57.8611 89.458 57.7071 89.37 57.5164 89.304C57.3257 89.238 57.1351 89.205 56.9444 89.205C56.7244 89.205 56.5374 89.2527 56.3834 89.348C56.2367 89.436 56.1634 89.5643 56.1634 89.733C56.1634 89.8797 56.2184 89.9933 56.3284 90.074C56.4457 90.1473 56.6327 90.217 56.8894 90.283L57.4174 90.393ZM62.6691 88.578C62.9478 88.578 63.2375 88.6477 63.5381 88.787L63.2961 89.733C63.0321 89.5717 62.7608 89.491 62.4821 89.491C62.2181 89.491 61.9945 89.59 61.8111 89.788C61.6278 89.986 61.5361 90.2647 61.5361 90.624L61.5251 92.285H62.2511V93H59.6991V92.285H60.4471V89.359H59.6991V88.644H61.5251V89.469C61.7818 88.875 62.1631 88.578 62.6691 88.578ZM68.3952 92.241C67.8892 92.8203 67.2109 93.11 66.3602 93.11C65.8909 93.11 65.4729 93.011 65.1062 92.813C64.7469 92.615 64.4646 92.34 64.2592 91.988C64.0539 91.636 63.9512 91.2363 63.9512 90.789C63.9512 90.349 64.0466 89.9603 64.2372 89.623C64.4352 89.2783 64.7029 89.0107 65.0402 88.82C65.3849 88.6293 65.7699 88.534 66.1952 88.534C66.4959 88.534 66.7599 88.5853 66.9872 88.688C67.2219 88.7907 67.4089 88.93 67.5482 89.106V88.633H68.3622V90.283H67.6142C67.5556 89.975 67.4236 89.7367 67.2182 89.568C67.0129 89.3993 66.7489 89.315 66.4262 89.315C66.0156 89.315 65.6782 89.4507 65.4142 89.722C65.1576 89.986 65.0292 90.327 65.0292 90.745C65.0292 91.1997 65.1649 91.57 65.4362 91.856C65.7076 92.1347 66.0632 92.274 66.5032 92.274C66.8259 92.274 67.1046 92.2153 67.3392 92.098C67.5739 91.9807 67.7976 91.8083 68.0102 91.581L68.3952 92.241ZM69.6145 88.567H74.2125V89.26H69.6145V88.567ZM69.6145 90.481H74.2125V91.174H69.6145V90.481ZM75.5598 85.982H76.6158L76.4288 88.347H75.7798L75.5598 85.982ZM77.0448 85.982H78.1008L77.9138 88.347H77.2648L77.0448 85.982ZM84.3274 92.285V93H81.8854V92.285H82.5234V90.206C82.5234 89.9347 82.4574 89.722 82.3254 89.568C82.1934 89.414 82.0137 89.337 81.7864 89.337C81.4124 89.337 81.0164 89.4727 80.5984 89.744V92.285H81.2144V93H78.7724V92.285H79.4984V87.346H78.7834V86.642H80.5984V89.084C81.1484 88.7173 81.669 88.534 82.1604 88.534C82.593 88.534 82.9414 88.6697 83.2054 88.941C83.4767 89.205 83.6124 89.5643 83.6124 90.019V92.285H84.3274ZM86.6299 93C85.7572 93 85.3209 92.571 85.3209 91.713V89.359H84.6609V88.644H85.3209V87.192L86.4209 86.895V88.644H87.5099V89.359H86.4209V91.592C86.4209 91.8413 86.4612 92.0173 86.5419 92.12C86.6299 92.2227 86.7766 92.274 86.9819 92.274H87.5869V93H86.6299ZM90.0352 93C89.1625 93 88.7262 92.571 88.7262 91.713V89.359H88.0662V88.644H88.7262V87.192L89.8262 86.895V88.644H90.9152V89.359H89.8262V91.592C89.8262 91.8413 89.8665 92.0173 89.9472 92.12C90.0352 92.2227 90.1818 92.274 90.3872 92.274H90.9922V93H90.0352ZM94.6394 88.534C95.0428 88.534 95.3984 88.6257 95.7064 88.809C96.0218 88.985 96.2674 89.2417 96.4434 89.579C96.6194 89.9163 96.7074 90.3123 96.7074 90.767C96.7074 91.2437 96.6084 91.6617 96.4104 92.021C96.2198 92.373 95.9594 92.6443 95.6294 92.835C95.3068 93.0183 94.9438 93.11 94.5404 93.11C94.2838 93.11 94.0418 93.0733 93.8144 93C93.5871 92.9193 93.4001 92.8167 93.2534 92.692V94.045H94.0454V94.76H91.4604V94.045H92.1644V89.359H91.4714V88.644H93.1764L93.1984 89.029C93.6311 88.699 94.1114 88.534 94.6394 88.534ZM94.2434 92.296C94.6394 92.296 94.9584 92.1677 95.2004 91.911C95.4498 91.6543 95.5744 91.2913 95.5744 90.822C95.5744 90.3747 95.4534 90.0227 95.2114 89.766C94.9768 89.502 94.6688 89.37 94.2874 89.37C94.1334 89.37 93.9611 89.403 93.7704 89.469C93.5798 89.5277 93.4074 89.6157 93.2534 89.733V91.966C93.5541 92.186 93.8841 92.296 94.2434 92.296ZM99.8705 90.393C100.384 90.5103 100.765 90.668 101.015 90.866C101.264 91.064 101.389 91.3793 101.389 91.812C101.389 92.23 101.231 92.5527 100.916 92.78C100.6 93 100.212 93.11 99.7495 93.11C99.4635 93.11 99.1959 93.0697 98.9465 92.989C98.7045 92.9083 98.5065 92.7947 98.3525 92.648V93H97.5825V91.526H98.2865L98.3305 91.988C98.4625 92.1347 98.6349 92.2483 98.8475 92.329C99.0675 92.4097 99.2912 92.45 99.5185 92.45C99.7679 92.45 99.9695 92.4023 100.124 92.307C100.285 92.2043 100.366 92.0687 100.366 91.9C100.366 91.7093 100.3 91.5737 100.168 91.493C100.036 91.405 99.7972 91.3243 99.4525 91.251L98.9245 91.13C98.4552 91.02 98.1105 90.8697 97.8905 90.679C97.6779 90.481 97.5715 90.1913 97.5715 89.81C97.5715 89.414 97.7182 89.1023 98.0115 88.875C98.3122 88.6477 98.7045 88.534 99.1885 88.534C99.4159 88.534 99.6395 88.567 99.8595 88.633C100.087 88.699 100.274 88.7907 100.421 88.908V88.633H101.202V90.085H100.498L100.432 89.568C100.314 89.458 100.16 89.37 99.9695 89.304C99.7789 89.238 99.5882 89.205 99.3975 89.205C99.1775 89.205 98.9905 89.2527 98.8365 89.348C98.6899 89.436 98.6165 89.5643 98.6165 89.733C98.6165 89.8797 98.6715 89.9933 98.7815 90.074C98.8989 90.1473 99.0859 90.217 99.3425 90.283L99.8705 90.393ZM102.482 91.856H103.659V93H102.482V91.856ZM102.482 88.655H103.659V89.799H102.482V88.655ZM107.763 86.422H108.676L105.563 94.54H104.65L107.763 86.422ZM111.587 86.422H112.5L109.387 94.54H108.474L111.587 86.422ZM117.149 92.285V93H115.598L115.521 92.604C115.294 92.78 115.063 92.912 114.828 93C114.601 93.0807 114.344 93.121 114.058 93.121C113.618 93.121 113.263 93 112.991 92.758C112.72 92.516 112.584 92.208 112.584 91.834C112.584 91.3647 112.746 91.02 113.068 90.8C113.391 90.58 113.809 90.47 114.322 90.47C114.689 90.47 115.063 90.5177 115.444 90.613V90.25C115.444 89.9347 115.36 89.7 115.191 89.546C115.03 89.3847 114.795 89.304 114.487 89.304C114.275 89.304 114.036 89.337 113.772 89.403C113.516 89.469 113.263 89.5643 113.013 89.689L112.727 89.029C113.013 88.8677 113.325 88.7467 113.662 88.666C114 88.578 114.322 88.534 114.63 88.534C115.224 88.534 115.686 88.6807 116.016 88.974C116.354 89.2673 116.522 89.6633 116.522 90.162V92.285H117.149ZM113.585 91.768C113.585 91.9733 113.651 92.142 113.783 92.274C113.915 92.3987 114.099 92.461 114.333 92.461C114.707 92.461 115.078 92.329 115.444 92.065V91.152C115.107 91.0713 114.792 91.031 114.498 91.031C114.234 91.031 114.014 91.0897 113.838 91.207C113.67 91.3243 113.585 91.5113 113.585 91.768ZM120.668 88.534C121.071 88.534 121.427 88.6257 121.735 88.809C122.05 88.985 122.296 89.2417 122.472 89.579C122.648 89.9163 122.736 90.3123 122.736 90.767C122.736 91.2437 122.637 91.6617 122.439 92.021C122.248 92.373 121.988 92.6443 121.658 92.835C121.335 93.0183 120.972 93.11 120.569 93.11C120.312 93.11 120.07 93.0733 119.843 93C119.615 92.9193 119.428 92.8167 119.282 92.692V94.045H120.074V94.76H117.489V94.045H118.193V89.359H117.5V88.644H119.205L119.227 89.029C119.659 88.699 120.14 88.534 120.668 88.534ZM120.272 92.296C120.668 92.296 120.987 92.1677 121.229 91.911C121.478 91.6543 121.603 91.2913 121.603 90.822C121.603 90.3747 121.482 90.0227 121.24 89.766C121.005 89.502 120.697 89.37 120.316 89.37C120.162 89.37 119.989 89.403 119.799 89.469C119.608 89.5277 119.436 89.6157 119.282 89.733V91.966C119.582 92.186 119.912 92.296 120.272 92.296ZM124.403 87.753C124.198 87.753 124.025 87.6907 123.886 87.566C123.754 87.434 123.688 87.269 123.688 87.071C123.688 86.873 123.754 86.7117 123.886 86.587C124.025 86.455 124.198 86.389 124.403 86.389C124.608 86.389 124.777 86.455 124.909 86.587C125.048 86.7117 125.118 86.873 125.118 87.071C125.118 87.269 125.048 87.434 124.909 87.566C124.777 87.6907 124.608 87.753 124.403 87.753ZM123.226 92.285H123.974V89.359H123.237V88.644H125.063V92.285H125.767V93H123.226V92.285ZM126.663 91.856H127.84V93H126.663V91.856ZM129.084 92.285H129.854V89.359H129.095V88.644H129.854V87.852C129.854 87.3973 129.982 87.038 130.239 86.774C130.495 86.5027 130.88 86.367 131.394 86.367C131.804 86.367 132.134 86.4623 132.384 86.653C132.633 86.8363 132.776 87.1187 132.813 87.5L131.977 87.698C131.947 87.4927 131.892 87.3387 131.812 87.236C131.738 87.126 131.621 87.071 131.46 87.071C131.115 87.071 130.943 87.3313 130.943 87.852V88.644H132.186V89.359H130.943V92.285H131.944V93H129.084V92.285ZM137.173 92.285V93H135.622L135.545 92.604C135.318 92.78 135.087 92.912 134.852 93C134.625 93.0807 134.368 93.121 134.082 93.121C133.642 93.121 133.286 93 133.015 92.758C132.744 92.516 132.608 92.208 132.608 91.834C132.608 91.3647 132.769 91.02 133.092 90.8C133.415 90.58 133.833 90.47 134.346 90.47C134.713 90.47 135.087 90.5177 135.468 90.613V90.25C135.468 89.9347 135.384 89.7 135.215 89.546C135.054 89.3847 134.819 89.304 134.511 89.304C134.298 89.304 134.06 89.337 133.796 89.403C133.539 89.469 133.286 89.5643 133.037 89.689L132.751 89.029C133.037 88.8677 133.349 88.7467 133.686 88.666C134.023 88.578 134.346 88.534 134.654 88.534C135.248 88.534 135.71 88.6807 136.04 88.974C136.377 89.2673 136.546 89.6633 136.546 90.162V92.285H137.173ZM133.609 91.768C133.609 91.9733 133.675 92.142 133.807 92.274C133.939 92.3987 134.122 92.461 134.357 92.461C134.731 92.461 135.101 92.329 135.468 92.065V91.152C135.131 91.0713 134.815 91.031 134.522 91.031C134.258 91.031 134.038 91.0897 133.862 91.207C133.693 91.3243 133.609 91.5113 133.609 91.768ZM142.022 92.241C141.516 92.8203 140.838 93.11 139.987 93.11C139.518 93.11 139.1 93.011 138.733 92.813C138.374 92.615 138.092 92.34 137.886 91.988C137.681 91.636 137.578 91.2363 137.578 90.789C137.578 90.349 137.674 89.9603 137.864 89.623C138.062 89.2783 138.33 89.0107 138.667 88.82C139.012 88.6293 139.397 88.534 139.822 88.534C140.123 88.534 140.387 88.5853 140.614 88.688C140.849 88.7907 141.036 88.93 141.175 89.106V88.633H141.989V90.283H141.241C141.183 89.975 141.051 89.7367 140.845 89.568C140.64 89.3993 140.376 89.315 140.053 89.315C139.643 89.315 139.305 89.4507 139.041 89.722C138.785 89.986 138.656 90.327 138.656 90.745C138.656 91.1997 138.792 91.57 139.063 91.856C139.335 92.1347 139.69 92.274 140.13 92.274C140.453 92.274 140.732 92.2153 140.966 92.098C141.201 91.9807 141.425 91.8083 141.637 91.581L142.022 92.241ZM147.168 91.031H143.78C143.832 91.427 143.986 91.7387 144.242 91.966C144.499 92.186 144.822 92.296 145.21 92.296C145.504 92.296 145.782 92.241 146.046 92.131C146.318 92.021 146.556 91.8707 146.761 91.68L147.102 92.34C146.875 92.5747 146.596 92.7653 146.266 92.912C145.936 93.0513 145.57 93.121 145.166 93.121C144.69 93.121 144.264 93.0293 143.89 92.846C143.516 92.6553 143.223 92.3877 143.01 92.043C142.798 91.691 142.691 91.284 142.691 90.822C142.691 90.3673 142.79 89.9677 142.988 89.623C143.194 89.2783 143.472 89.0107 143.824 88.82C144.176 88.6293 144.572 88.534 145.012 88.534C145.68 88.534 146.204 88.7393 146.585 89.15C146.974 89.5607 147.168 90.1033 147.168 90.778V91.031ZM146.123 90.448C146.123 90.0887 146.021 89.8063 145.815 89.601C145.61 89.3883 145.339 89.282 145.001 89.282C144.671 89.282 144.396 89.3883 144.176 89.601C143.956 89.8063 143.824 90.0887 143.78 90.448H146.123ZM149.654 93C148.782 93 148.345 92.571 148.345 91.713V89.359H147.685V88.644H148.345V87.192L149.445 86.895V88.644H150.534V89.359H149.445V91.592C149.445 91.8413 149.486 92.0173 149.566 92.12C149.654 92.2227 149.801 92.274 150.006 92.274H150.611V93H149.654ZM151.553 91.856H152.73V93H151.553V91.856ZM159.352 92.285V93H156.91V92.285H157.537V90.206C157.537 89.9347 157.471 89.722 157.339 89.568C157.207 89.414 157.024 89.337 156.789 89.337C156.452 89.337 156.078 89.4617 155.667 89.711V92.285H156.338V93H153.83V92.285H154.578V89.359H153.83V88.644H155.623L155.634 89.062C156.177 88.71 156.69 88.534 157.174 88.534C157.607 88.534 157.955 88.6697 158.219 88.941C158.491 89.205 158.626 89.5643 158.626 90.019V92.285H159.352ZM160.797 87.753C160.592 87.753 160.42 87.6907 160.28 87.566C160.148 87.434 160.082 87.269 160.082 87.071C160.082 86.873 160.148 86.7117 160.28 86.587C160.42 86.455 160.592 86.389 160.797 86.389C161.003 86.389 161.171 86.455 161.303 86.587C161.443 86.7117 161.512 86.873 161.512 87.071C161.512 87.269 161.443 87.434 161.303 87.566C161.171 87.6907 161.003 87.753 160.797 87.753ZM159.62 92.285H160.368V89.359H159.631V88.644H161.457V92.285H162.161V93H159.62V92.285ZM168.139 92.285V93H165.697V92.285H166.324V90.206C166.324 89.9347 166.258 89.722 166.126 89.568C165.994 89.414 165.811 89.337 165.576 89.337C165.239 89.337 164.865 89.4617 164.454 89.711V92.285H165.125V93H162.617V92.285H163.365V89.359H162.617V88.644H164.41L164.421 89.062C164.964 88.71 165.477 88.534 165.961 88.534C166.394 88.534 166.742 88.6697 167.006 88.941C167.278 89.205 167.413 89.5643 167.413 90.019V92.285H168.139ZM169.783 87.753C169.577 87.753 169.405 87.6907 169.266 87.566C169.134 87.434 169.068 87.2653 169.068 87.06C169.068 86.862 169.134 86.7007 169.266 86.576C169.405 86.4513 169.577 86.389 169.783 86.389C169.995 86.389 170.168 86.4513 170.3 86.576C170.432 86.7007 170.498 86.862 170.498 87.06C170.505 87.2653 170.439 87.434 170.3 87.566C170.168 87.6907 169.995 87.753 169.783 87.753ZM168.199 93.891H168.65C168.936 93.891 169.134 93.8213 169.244 93.682C169.354 93.55 169.409 93.3263 169.409 93.011V89.392H168.55V88.644H170.509V92.802C170.509 93.4547 170.38 93.935 170.124 94.243C169.867 94.5583 169.394 94.716 168.705 94.716H168.199V93.891ZM176.07 92.285V93H174.519L174.442 92.604C174.215 92.78 173.984 92.912 173.749 93C173.522 93.0807 173.265 93.121 172.979 93.121C172.539 93.121 172.184 93 171.912 92.758C171.641 92.516 171.505 92.208 171.505 91.834C171.505 91.3647 171.667 91.02 171.989 90.8C172.312 90.58 172.73 90.47 173.243 90.47C173.61 90.47 173.984 90.5177 174.365 90.613V90.25C174.365 89.9347 174.281 89.7 174.112 89.546C173.951 89.3847 173.716 89.304 173.408 89.304C173.196 89.304 172.957 89.337 172.693 89.403C172.437 89.469 172.184 89.5643 171.934 89.689L171.648 89.029C171.934 88.8677 172.246 88.7467 172.583 88.666C172.921 88.578 173.243 88.534 173.551 88.534C174.145 88.534 174.607 88.6807 174.937 88.974C175.275 89.2673 175.443 89.6633 175.443 90.162V92.285H176.07ZM172.506 91.768C172.506 91.9733 172.572 92.142 172.704 92.274C172.836 92.3987 173.02 92.461 173.254 92.461C173.628 92.461 173.999 92.329 174.365 92.065V91.152C174.028 91.0713 173.713 91.031 173.419 91.031C173.155 91.031 172.935 91.0897 172.759 91.207C172.591 91.3243 172.506 91.5113 172.506 91.768ZM179.446 86.422H180.359L177.246 94.54H176.333L179.446 86.422ZM180.41 92.285H181.18V89.359H180.421V88.644H181.18V87.852C181.18 87.3973 181.308 87.038 181.565 86.774C181.822 86.5027 182.207 86.367 182.72 86.367C183.131 86.367 183.461 86.4623 183.71 86.653C183.959 86.8363 184.102 87.1187 184.139 87.5L183.303 87.698C183.274 87.4927 183.219 87.3387 183.138 87.236C183.065 87.126 182.947 87.071 182.786 87.071C182.441 87.071 182.269 87.3313 182.269 87.852V88.644H183.512V89.359H182.269V92.285H183.27V93H180.41V92.285ZM188.499 92.285V93H186.948L186.871 92.604C186.644 92.78 186.413 92.912 186.178 93C185.951 93.0807 185.694 93.121 185.408 93.121C184.968 93.121 184.612 93 184.341 92.758C184.07 92.516 183.934 92.208 183.934 91.834C183.934 91.3647 184.095 91.02 184.418 90.8C184.741 90.58 185.159 90.47 185.672 90.47C186.039 90.47 186.413 90.5177 186.794 90.613V90.25C186.794 89.9347 186.71 89.7 186.541 89.546C186.38 89.3847 186.145 89.304 185.837 89.304C185.624 89.304 185.386 89.337 185.122 89.403C184.865 89.469 184.612 89.5643 184.363 89.689L184.077 89.029C184.363 88.8677 184.675 88.7467 185.012 88.666C185.349 88.578 185.672 88.534 185.98 88.534C186.574 88.534 187.036 88.6807 187.366 88.974C187.703 89.2673 187.872 89.6633 187.872 90.162V92.285H188.499ZM184.935 91.768C184.935 91.9733 185.001 92.142 185.133 92.274C185.265 92.3987 185.448 92.461 185.683 92.461C186.057 92.461 186.427 92.329 186.794 92.065V91.152C186.457 91.0713 186.141 91.031 185.848 91.031C185.584 91.031 185.364 91.0897 185.188 91.207C185.019 91.3243 184.935 91.5113 184.935 91.768ZM193.348 92.241C192.842 92.8203 192.164 93.11 191.313 93.11C190.844 93.11 190.426 93.011 190.059 92.813C189.7 92.615 189.418 92.34 189.212 91.988C189.007 91.636 188.904 91.2363 188.904 90.789C188.904 90.349 189 89.9603 189.19 89.623C189.388 89.2783 189.656 89.0107 189.993 88.82C190.338 88.6293 190.723 88.534 191.148 88.534C191.449 88.534 191.713 88.5853 191.94 88.688C192.175 88.7907 192.362 88.93 192.501 89.106V88.633H193.315V90.283H192.567C192.509 89.975 192.377 89.7367 192.171 89.568C191.966 89.3993 191.702 89.315 191.379 89.315C190.969 89.315 190.631 89.4507 190.367 89.722C190.111 89.986 189.982 90.327 189.982 90.745C189.982 91.1997 190.118 91.57 190.389 91.856C190.661 92.1347 191.016 92.274 191.456 92.274C191.779 92.274 192.058 92.2153 192.292 92.098C192.527 91.9807 192.751 91.8083 192.963 91.581L193.348 92.241ZM198.495 91.031H195.107C195.158 91.427 195.312 91.7387 195.569 91.966C195.825 92.186 196.148 92.296 196.537 92.296C196.83 92.296 197.109 92.241 197.373 92.131C197.644 92.021 197.882 91.8707 198.088 91.68L198.429 92.34C198.201 92.5747 197.923 92.7653 197.593 92.912C197.263 93.0513 196.896 93.121 196.493 93.121C196.016 93.121 195.591 93.0293 195.217 92.846C194.843 92.6553 194.549 92.3877 194.337 92.043C194.124 91.691 194.018 91.284 194.018 90.822C194.018 90.3673 194.117 89.9677 194.315 89.623C194.52 89.2783 194.799 89.0107 195.151 88.82C195.503 88.6293 195.899 88.534 196.339 88.534C197.006 88.534 197.53 88.7393 197.912 89.15C198.3 89.5607 198.495 90.1033 198.495 90.778V91.031ZM197.45 90.448C197.45 90.0887 197.347 89.8063 197.142 89.601C196.936 89.3883 196.665 89.282 196.328 89.282C195.998 89.282 195.723 89.3883 195.503 89.601C195.283 89.8063 195.151 90.0887 195.107 90.448H197.45ZM200.98 93C200.108 93 199.671 92.571 199.671 91.713V89.359H199.011V88.644H199.671V87.192L200.771 86.895V88.644H201.86V89.359H200.771V91.592C200.771 91.8413 200.812 92.0173 200.892 92.12C200.98 92.2227 201.127 92.274 201.332 92.274H201.937V93H200.98ZM202.879 91.856H204.056V93H202.879V91.856ZM210.679 92.285V93H208.237V92.285H208.864V90.206C208.864 89.9347 208.798 89.722 208.666 89.568C208.534 89.414 208.35 89.337 208.116 89.337C207.778 89.337 207.404 89.4617 206.994 89.711V92.285H207.665V93H205.157V92.285H205.905V89.359H205.157V88.644H206.95L206.961 89.062C207.503 88.71 208.017 88.534 208.501 88.534C208.933 88.534 209.282 88.6697 209.546 88.941C209.817 89.205 209.953 89.5643 209.953 90.019V92.285H210.679ZM212.124 87.753C211.918 87.753 211.746 87.6907 211.607 87.566C211.475 87.434 211.409 87.269 211.409 87.071C211.409 86.873 211.475 86.7117 211.607 86.587C211.746 86.455 211.918 86.389 212.124 86.389C212.329 86.389 212.498 86.455 212.63 86.587C212.769 86.7117 212.839 86.873 212.839 87.071C212.839 87.269 212.769 87.434 212.63 87.566C212.498 87.6907 212.329 87.753 212.124 87.753ZM210.947 92.285H211.695V89.359H210.958V88.644H212.784V92.285H213.488V93H210.947V92.285ZM219.466 92.285V93H217.024V92.285H217.651V90.206C217.651 89.9347 217.585 89.722 217.453 89.568C217.321 89.414 217.137 89.337 216.903 89.337C216.565 89.337 216.191 89.4617 215.781 89.711V92.285H216.452V93H213.944V92.285H214.692V89.359H213.944V88.644H215.737L215.748 89.062C216.29 88.71 216.804 88.534 217.288 88.534C217.72 88.534 218.069 88.6697 218.333 88.941C218.604 89.205 218.74 89.5643 218.74 90.019V92.285H219.466ZM221.109 87.753C220.903 87.753 220.731 87.6907 220.592 87.566C220.46 87.434 220.394 87.2653 220.394 87.06C220.394 86.862 220.46 86.7007 220.592 86.576C220.731 86.4513 220.903 86.389 221.109 86.389C221.321 86.389 221.494 86.4513 221.626 86.576C221.758 86.7007 221.824 86.862 221.824 87.06C221.831 87.2653 221.765 87.434 221.626 87.566C221.494 87.6907 221.321 87.753 221.109 87.753ZM219.525 93.891H219.976C220.262 93.891 220.46 93.8213 220.57 93.682C220.68 93.55 220.735 93.3263 220.735 93.011V89.392H219.877V88.644H221.835V92.802C221.835 93.4547 221.706 93.935 221.45 94.243C221.193 94.5583 220.72 94.716 220.031 94.716H219.525V93.891ZM227.397 92.285V93H225.846L225.769 92.604C225.541 92.78 225.31 92.912 225.076 93C224.848 93.0807 224.592 93.121 224.306 93.121C223.866 93.121 223.51 93 223.239 92.758C222.967 92.516 222.832 92.208 222.832 91.834C222.832 91.3647 222.993 91.02 223.316 90.8C223.638 90.58 224.056 90.47 224.57 90.47C224.936 90.47 225.31 90.5177 225.692 90.613V90.25C225.692 89.9347 225.607 89.7 225.439 89.546C225.277 89.3847 225.043 89.304 224.735 89.304C224.522 89.304 224.284 89.337 224.02 89.403C223.763 89.469 223.51 89.5643 223.261 89.689L222.975 89.029C223.261 88.8677 223.572 88.7467 223.91 88.666C224.247 88.578 224.57 88.534 224.878 88.534C225.472 88.534 225.934 88.6807 226.264 88.974C226.601 89.2673 226.77 89.6633 226.77 90.162V92.285H227.397ZM223.833 91.768C223.833 91.9733 223.899 92.142 224.031 92.274C224.163 92.3987 224.346 92.461 224.581 92.461C224.955 92.461 225.325 92.329 225.692 92.065V91.152C225.354 91.0713 225.039 91.031 224.746 91.031C224.482 91.031 224.262 91.0897 224.086 91.207C223.917 91.3243 223.833 91.5113 223.833 91.768ZM19.66 104.856H20.837V106H19.66V104.856ZM23.3128 100.753C23.1074 100.753 22.9351 100.691 22.7958 100.566C22.6638 100.434 22.5978 100.265 22.5978 100.06C22.5978 99.862 22.6638 99.7007 22.7958 99.576C22.9351 99.4513 23.1074 99.389 23.3128 99.389C23.5254 99.389 23.6978 99.4513 23.8298 99.576C23.9618 99.7007 24.0278 99.862 24.0278 100.06C24.0351 100.265 23.9691 100.434 23.8298 100.566C23.6978 100.691 23.5254 100.753 23.3128 100.753ZM21.7288 106.891H22.1798C22.4658 106.891 22.6638 106.821 22.7738 106.682C22.8838 106.55 22.9388 106.326 22.9388 106.011V102.392H22.0808V101.644H24.0388V105.802C24.0388 106.455 23.9104 106.935 23.6538 107.243C23.3971 107.558 22.9241 107.716 22.2348 107.716H21.7288V106.891ZM27.5326 103.393C28.046 103.51 28.4273 103.668 28.6766 103.866C28.926 104.064 29.0506 104.379 29.0506 104.812C29.0506 105.23 28.893 105.553 28.5776 105.78C28.2623 106 27.8736 106.11 27.4116 106.11C27.1256 106.11 26.858 106.07 26.6086 105.989C26.3666 105.908 26.1686 105.795 26.0146 105.648V106H25.2446V104.526H25.9486L25.9926 104.988C26.1246 105.135 26.297 105.248 26.5096 105.329C26.7296 105.41 26.9533 105.45 27.1806 105.45C27.43 105.45 27.6316 105.402 27.7856 105.307C27.947 105.204 28.0276 105.069 28.0276 104.9C28.0276 104.709 27.9616 104.574 27.8296 104.493C27.6976 104.405 27.4593 104.324 27.1146 104.251L26.5866 104.13C26.1173 104.02 25.7726 103.87 25.5526 103.679C25.34 103.481 25.2336 103.191 25.2336 102.81C25.2336 102.414 25.3803 102.102 25.6736 101.875C25.9743 101.648 26.3666 101.534 26.8506 101.534C27.078 101.534 27.3016 101.567 27.5216 101.633C27.749 101.699 27.936 101.791 28.0826 101.908V101.633H28.8636V103.085H28.1596L28.0936 102.568C27.9763 102.458 27.8223 102.37 27.6316 102.304C27.441 102.238 27.2503 102.205 27.0596 102.205C26.8396 102.205 26.6526 102.253 26.4986 102.348C26.352 102.436 26.2786 102.564 26.2786 102.733C26.2786 102.88 26.3336 102.993 26.4436 103.074C26.561 103.147 26.748 103.217 27.0046 103.283L27.5326 103.393ZM31.1124 104.152C31.1124 103.785 31.1784 103.488 31.3104 103.261C31.4424 103.026 31.6697 102.748 31.9924 102.425C32.2417 102.176 32.414 101.959 32.5094 101.776C32.612 101.593 32.6634 101.38 32.6634 101.138C32.6634 100.859 32.5864 100.647 32.4324 100.5C32.2784 100.346 32.0657 100.269 31.7944 100.269C31.4937 100.269 31.259 100.357 31.0904 100.533C30.929 100.702 30.8447 100.944 30.8374 101.259H29.7374C29.7594 100.658 29.9647 100.203 30.3534 99.895C30.7494 99.5797 31.2444 99.422 31.8384 99.422C32.4544 99.422 32.942 99.5723 33.3014 99.873C33.668 100.166 33.8514 100.555 33.8514 101.039C33.8514 101.347 33.7744 101.618 33.6204 101.853C33.4664 102.088 33.217 102.366 32.8724 102.689C32.5717 102.975 32.3737 103.21 32.2784 103.393C32.183 103.569 32.1354 103.822 32.1354 104.152V104.251H31.1124V104.152ZM31.6184 106.088C31.435 106.088 31.2774 106.029 31.1454 105.912C31.0207 105.787 30.9584 105.637 30.9584 105.461C30.9584 105.285 31.0207 105.138 31.1454 105.021C31.2774 104.896 31.435 104.834 31.6184 104.834C31.8164 104.834 31.9777 104.896 32.1024 105.021C32.2344 105.138 32.3004 105.285 32.3004 105.461C32.3004 105.637 32.2344 105.787 32.1024 105.912C31.9777 106.029 31.8164 106.088 31.6184 106.088ZM35.5865 100.753C35.3811 100.753 35.2088 100.691 35.0695 100.566C34.9375 100.434 34.8715 100.269 34.8715 100.071C34.8715 99.873 34.9375 99.7117 35.0695 99.587C35.2088 99.455 35.3811 99.389 35.5865 99.389C35.7918 99.389 35.9605 99.455 36.0925 99.587C36.2318 99.7117 36.3015 99.873 36.3015 100.071C36.3015 100.269 36.2318 100.434 36.0925 100.566C35.9605 100.691 35.7918 100.753 35.5865 100.753ZM34.4095 105.285H35.1575V102.359H34.4205V101.644H36.2465V105.285H36.9505V106H34.4095V105.285ZM42.6865 105.285V106H40.9925L40.9815 105.692C40.5929 105.978 40.1382 106.121 39.6175 106.121C39.2142 106.121 38.8475 106.029 38.5175 105.846C38.1949 105.655 37.9382 105.388 37.7475 105.043C37.5569 104.691 37.4615 104.28 37.4615 103.811C37.4615 103.349 37.5532 102.946 37.7365 102.601C37.9199 102.256 38.1692 101.992 38.4845 101.809C38.8072 101.626 39.1629 101.534 39.5515 101.534C40.0649 101.534 40.5342 101.688 40.9595 101.996V100.346H40.2115V99.642H42.0485V105.285H42.6865ZM38.5945 103.866C38.5945 104.313 38.7192 104.665 38.9685 104.922C39.2252 105.171 39.5479 105.296 39.9365 105.296C40.2959 105.296 40.6369 105.186 40.9595 104.966V102.722C40.6002 102.48 40.2372 102.359 39.8705 102.359C39.4892 102.359 39.1812 102.491 38.9465 102.755C38.7119 103.019 38.5945 103.389 38.5945 103.866ZM43.6936 101.567H48.2916V102.26H43.6936V101.567ZM43.6936 103.481H48.2916V104.174H43.6936V103.481ZM49.5619 105.23H50.3319V100.522H49.5619V99.752H53.0599C53.7565 99.752 54.3505 99.895 54.8419 100.181C55.3332 100.46 55.6999 100.834 55.9419 101.303C56.1839 101.765 56.3049 102.271 56.3049 102.821C56.3049 103.452 56.1839 104.005 55.9419 104.482C55.6999 104.959 55.3369 105.333 54.8529 105.604C54.3689 105.868 53.7749 106 53.0709 106H49.5619V105.23ZM52.8949 105.23C53.6209 105.23 54.1562 105.014 54.5009 104.581C54.8529 104.148 55.0289 103.569 55.0289 102.843C55.0289 102.176 54.8529 101.622 54.5009 101.182C54.1489 100.742 53.6245 100.522 52.9279 100.522H51.5639V105.23H52.8949ZM60.729 106.121C60.047 106.121 59.4457 105.982 58.925 105.703C58.4043 105.417 58.001 105.028 57.715 104.537C57.429 104.046 57.286 103.499 57.286 102.898C57.286 102.297 57.429 101.747 57.715 101.248C58.001 100.749 58.4043 100.357 58.925 100.071C59.4457 99.785 60.047 99.642 60.729 99.642C61.4037 99.642 62.0013 99.785 62.522 100.071C63.0427 100.357 63.446 100.749 63.732 101.248C64.018 101.739 64.161 102.286 64.161 102.887C64.161 103.488 64.018 104.038 63.732 104.537C63.4533 105.028 63.0537 105.417 62.533 105.703C62.0123 105.982 61.411 106.121 60.729 106.121ZM60.729 105.252C61.1617 105.252 61.5393 105.149 61.862 104.944C62.192 104.731 62.4413 104.445 62.61 104.086C62.786 103.727 62.874 103.323 62.874 102.876C62.874 102.429 62.786 102.025 62.61 101.666C62.4413 101.307 62.192 101.024 61.862 100.819C61.5393 100.606 61.1617 100.5 60.729 100.5C60.289 100.5 59.9077 100.606 59.585 100.819C59.2623 101.024 59.013 101.31 58.837 101.677C58.6683 102.036 58.584 102.44 58.584 102.887C58.584 103.334 58.6683 103.738 58.837 104.097C59.013 104.456 59.2623 104.739 59.585 104.944C59.9077 105.149 60.289 105.252 60.729 105.252ZM65.138 105.23H65.897V100.522H65.138V99.752H67.58L69.395 103.778L71.133 99.752H73.553V100.522H72.794V105.23H73.553V106H70.891V105.23H71.628V100.797L69.483 105.703H69.021L66.843 100.797V105.23H67.58V106H65.138V105.23ZM74.3075 105.23H75.0445L76.7605 100.522H76.0895V99.752H79.5765V100.522H78.8945L80.6545 105.23H81.3585V106H78.5975V105.23H79.3785L78.8395 103.657H76.6945L76.1665 105.23H76.9145V106H74.3075V105.23ZM78.6195 102.92L77.8165 100.533H77.7505L76.9255 102.92H78.6195ZM82.2092 105.23H82.9902V100.522H82.2092V99.752H85.0032V100.522H84.2222V105.23H85.0032V106H82.2092V105.23ZM86.0209 105.23H86.8239V100.522H86.0209V99.752H88.2319L91.4769 104.416V100.522H90.6519V99.752H93.1379V100.522H92.3569V106H91.1359L87.6819 101.006V105.23H88.5069V106H86.0209V105.23ZM97.4468 103.558C97.2782 103.558 97.1095 103.532 96.9408 103.481C96.7795 103.422 96.5888 103.342 96.3688 103.239C96.1782 103.151 96.0168 103.085 95.8848 103.041C95.7528 102.99 95.6245 102.964 95.4998 102.964C95.1992 102.964 95.0342 103.122 95.0048 103.437H94.2678C94.2972 103.041 94.4182 102.744 94.6308 102.546C94.8435 102.341 95.1112 102.238 95.4338 102.238C95.6172 102.238 95.7858 102.264 95.9398 102.315C96.1012 102.366 96.2955 102.447 96.5228 102.557C96.7135 102.652 96.8712 102.722 96.9958 102.766C97.1278 102.81 97.2562 102.832 97.3808 102.832C97.6742 102.832 97.8428 102.674 97.8868 102.359H98.6238C98.5945 102.748 98.4698 103.045 98.2498 103.25C98.0372 103.455 97.7695 103.558 97.4468 103.558ZM99.889 105.23H100.648V100.522H99.889V99.752H102.331L104.146 103.778L105.884 99.752H108.304V100.522H107.545V105.23H108.304V106H105.642V105.23H106.379V100.797L104.234 105.703H103.772L101.594 100.797V105.23H102.331V106H99.889V105.23ZM113.546 106H109.223L109.234 105.296L111.071 103.481C111.577 102.975 111.922 102.586 112.105 102.315C112.296 102.036 112.391 101.736 112.391 101.413C112.391 101.127 112.307 100.892 112.138 100.709C111.977 100.518 111.731 100.423 111.401 100.423C111.057 100.423 110.785 100.526 110.587 100.731C110.389 100.936 110.29 101.219 110.29 101.578C110.29 101.754 110.32 101.97 110.378 102.227H109.399C109.326 101.97 109.289 101.736 109.289 101.523C109.289 100.958 109.484 100.504 109.872 100.159C110.268 99.8143 110.815 99.642 111.511 99.642C112.127 99.642 112.611 99.7923 112.963 100.093C113.315 100.394 113.491 100.793 113.491 101.292C113.491 101.585 113.425 101.868 113.293 102.139C113.169 102.403 112.985 102.671 112.743 102.942C112.501 103.213 112.16 103.558 111.72 103.976L110.444 105.23H112.699V104.119H113.535L113.546 106ZM119.975 107.639C118.934 107.639 118.123 107.118 117.544 106.077C116.95 106.018 116.429 105.842 115.982 105.549C115.535 105.256 115.19 104.878 114.948 104.416C114.706 103.954 114.585 103.448 114.585 102.898C114.585 102.297 114.728 101.747 115.014 101.248C115.3 100.749 115.703 100.357 116.224 100.071C116.745 99.785 117.346 99.642 118.028 99.642C118.703 99.642 119.3 99.785 119.821 100.071C120.342 100.357 120.745 100.749 121.031 101.248C121.317 101.739 121.46 102.286 121.46 102.887C121.46 103.43 121.343 103.932 121.108 104.394C120.881 104.849 120.551 105.223 120.118 105.516C119.693 105.809 119.19 105.996 118.611 106.077C118.963 106.598 119.429 106.858 120.008 106.858C120.228 106.858 120.477 106.818 120.756 106.737L120.767 107.507C120.518 107.595 120.254 107.639 119.975 107.639ZM118.028 105.252C118.461 105.252 118.838 105.149 119.161 104.944C119.491 104.731 119.74 104.445 119.909 104.086C120.085 103.727 120.173 103.323 120.173 102.876C120.173 102.429 120.085 102.025 119.909 101.666C119.74 101.307 119.491 101.024 119.161 100.819C118.838 100.606 118.461 100.5 118.028 100.5C117.588 100.5 117.207 100.606 116.884 100.819C116.561 101.024 116.312 101.31 116.136 101.677C115.967 102.036 115.883 102.44 115.883 102.887C115.883 103.334 115.967 103.738 116.136 104.097C116.312 104.456 116.561 104.739 116.884 104.944C117.207 105.149 117.588 105.252 118.028 105.252ZM122.525 102.359H122.019V101.644H124.076V102.359H123.548L124.461 105.021L125.363 102.359H124.824V101.644H126.947V102.359H126.397L127.343 105.021L128.19 102.359H127.651V101.644H129.697V102.359H129.169L127.882 106H126.859L125.858 103.217L124.868 106H123.845L122.525 102.359ZM130.257 105.23H131.016V100.522H130.257V99.752H132.699L134.514 103.778L136.252 99.752H138.672V100.522H137.913V105.23H138.672V106H136.01V105.23H136.747V100.797L134.602 105.703H134.14L131.962 100.797V105.23H132.699V106H130.257V105.23ZM139.614 105.23H140.384V100.522H139.614V99.752H143.112C143.808 99.752 144.402 99.895 144.894 100.181C145.385 100.46 145.752 100.834 145.994 101.303C146.236 101.765 146.357 102.271 146.357 102.821C146.357 103.452 146.236 104.005 145.994 104.482C145.752 104.959 145.389 105.333 144.905 105.604C144.421 105.868 143.827 106 143.123 106H139.614V105.23ZM142.947 105.23C143.673 105.23 144.208 105.014 144.553 104.581C144.905 104.148 145.081 103.569 145.081 102.843C145.081 102.176 144.905 101.622 144.553 101.182C144.201 100.742 143.676 100.522 142.98 100.522H141.616V105.23H142.947ZM147.723 100.522H147.008V99.752H149.78V100.522H148.988L150.583 104.658L152.134 100.522H151.364V99.752H153.883V100.522H153.19L150.979 106H150.022L147.723 100.522ZM159.748 105.285V106H157.306V105.285H157.944V103.206C157.944 102.935 157.878 102.722 157.746 102.568C157.614 102.414 157.435 102.337 157.207 102.337C156.833 102.337 156.437 102.473 156.019 102.744V105.285H156.635V106H154.193V105.285H154.919V100.346H154.204V99.642H156.019V102.084C156.569 101.717 157.09 101.534 157.581 101.534C158.014 101.534 158.362 101.67 158.626 101.941C158.898 102.205 159.033 102.564 159.033 103.019V105.285H159.748ZM160.357 105.23H161.16V100.522H160.357V99.752H162.568L165.813 104.416V100.522H164.988V99.752H167.474V100.522H166.693V106H165.472L162.018 101.006V105.23H162.843V106H160.357V105.23ZM169.396 100.753C169.19 100.753 169.018 100.691 168.879 100.566C168.747 100.434 168.681 100.265 168.681 100.06C168.681 99.862 168.747 99.7007 168.879 99.576C169.018 99.4513 169.19 99.389 169.396 99.389C169.608 99.389 169.781 99.4513 169.913 99.576C170.045 99.7007 170.111 99.862 170.111 100.06C170.118 100.265 170.052 100.434 169.913 100.566C169.781 100.691 169.608 100.753 169.396 100.753ZM167.812 106.891H168.263C168.549 106.891 168.747 106.821 168.857 106.682C168.967 106.55 169.022 106.326 169.022 106.011V102.392H168.164V101.644H170.122V105.802C170.122 106.455 169.993 106.935 169.737 107.243C169.48 107.558 169.007 107.716 168.318 107.716H167.812V106.891ZM171.273 105.23H172.054V100.522H171.273V99.752H174.067V100.522H173.286V105.23H174.067V106H171.273V105.23ZM176.778 106C175.906 106 175.469 105.571 175.469 104.713V102.359H174.809V101.644H175.469V100.192L176.569 99.895V101.644H177.658V102.359H176.569V104.592C176.569 104.841 176.61 105.017 176.69 105.12C176.778 105.223 176.925 105.274 177.13 105.274H177.735V106H176.778ZM178.49 105.23H179.249V100.522H178.49V99.752H180.932L182.747 103.778L184.485 99.752H186.905V100.522H186.146V105.23H186.905V106H184.243V105.23H184.98V100.797L182.835 105.703H182.373L180.195 100.797V105.23H180.932V106H178.49V105.23ZM188.968 100.753C188.763 100.753 188.59 100.691 188.451 100.566C188.319 100.434 188.253 100.265 188.253 100.06C188.253 99.862 188.319 99.7007 188.451 99.576C188.59 99.4513 188.763 99.389 188.968 99.389C189.181 99.389 189.353 99.4513 189.485 99.576C189.617 99.7007 189.683 99.862 189.683 100.06C189.69 100.265 189.624 100.434 189.485 100.566C189.353 100.691 189.181 100.753 188.968 100.753ZM187.384 106.891H187.835C188.121 106.891 188.319 106.821 188.429 106.682C188.539 106.55 188.594 106.326 188.594 106.011V102.392H187.736V101.644H189.694V105.802C189.694 106.455 189.566 106.935 189.309 107.243C189.052 107.558 188.579 107.716 187.89 107.716H187.384V106.891ZM196.18 107.639C195.139 107.639 194.328 107.118 193.749 106.077C193.155 106.018 192.634 105.842 192.187 105.549C191.74 105.256 191.395 104.878 191.153 104.416C190.911 103.954 190.79 103.448 190.79 102.898C190.79 102.297 190.933 101.747 191.219 101.248C191.505 100.749 191.908 100.357 192.429 100.071C192.95 99.785 193.551 99.642 194.233 99.642C194.908 99.642 195.505 99.785 196.026 100.071C196.547 100.357 196.95 100.749 197.236 101.248C197.522 101.739 197.665 102.286 197.665 102.887C197.665 103.43 197.548 103.932 197.313 104.394C197.086 104.849 196.756 105.223 196.323 105.516C195.898 105.809 195.395 105.996 194.816 106.077C195.168 106.598 195.634 106.858 196.213 106.858C196.433 106.858 196.682 106.818 196.961 106.737L196.972 107.507C196.723 107.595 196.459 107.639 196.18 107.639ZM194.233 105.252C194.666 105.252 195.043 105.149 195.366 104.944C195.696 104.731 195.945 104.445 196.114 104.086C196.29 103.727 196.378 103.323 196.378 102.876C196.378 102.429 196.29 102.025 196.114 101.666C195.945 101.307 195.696 101.024 195.366 100.819C195.043 100.606 194.666 100.5 194.233 100.5C193.793 100.5 193.412 100.606 193.089 100.819C192.766 101.024 192.517 101.31 192.341 101.677C192.172 102.036 192.088 102.44 192.088 102.887C192.088 103.334 192.172 103.738 192.341 104.097C192.517 104.456 192.766 104.739 193.089 104.944C193.412 105.149 193.793 105.252 194.233 105.252ZM201.271 101.974C201.931 101.974 202.441 102.161 202.8 102.535C203.16 102.902 203.339 103.393 203.339 104.009C203.339 104.662 203.119 105.179 202.679 105.56C202.247 105.934 201.678 106.121 200.974 106.121C200.087 106.121 199.306 105.791 198.631 105.131L199.181 104.427C199.438 104.691 199.706 104.893 199.984 105.032C200.263 105.171 200.571 105.241 200.908 105.241C201.334 105.241 201.664 105.131 201.898 104.911C202.14 104.691 202.261 104.398 202.261 104.031C202.261 103.664 202.151 103.375 201.931 103.162C201.711 102.942 201.407 102.832 201.018 102.832C200.534 102.832 200.105 103.012 199.731 103.371L198.917 103.063L198.994 99.752H202.998V101.358H202.129V100.533H199.852L199.797 102.414C200.208 102.121 200.699 101.974 201.271 101.974ZM204.292 105.23H205.095V100.522H204.292V99.752H206.503L209.748 104.416V100.522H208.923V99.752H211.409V100.522H210.628V106H209.407L205.953 101.006V105.23H206.778V106H204.292V105.23ZM213.133 100.753C212.928 100.753 212.756 100.691 212.616 100.566C212.484 100.434 212.418 100.269 212.418 100.071C212.418 99.873 212.484 99.7117 212.616 99.587C212.756 99.455 212.928 99.389 213.133 99.389C213.339 99.389 213.507 99.455 213.639 99.587C213.779 99.7117 213.848 99.873 213.848 100.071C213.848 100.269 213.779 100.434 213.639 100.566C213.507 100.691 213.339 100.753 213.133 100.753ZM211.956 105.285H212.704V102.359H211.967V101.644H213.793V105.285H214.497V106H211.956V105.285ZM217.758 106.121C216.959 106.121 216.35 105.842 215.932 105.285C215.514 104.72 215.305 103.91 215.305 102.854C215.305 101.842 215.514 101.054 215.932 100.489C216.35 99.9243 216.959 99.642 217.758 99.642C218.55 99.642 219.155 99.9243 219.573 100.489C219.999 101.046 220.211 101.835 220.211 102.854C220.211 103.903 220.002 104.709 219.584 105.274C219.166 105.839 218.558 106.121 217.758 106.121ZM217.758 105.307C218.198 105.307 218.528 105.102 218.748 104.691C218.976 104.273 219.089 103.661 219.089 102.854C219.089 102.062 218.976 101.464 218.748 101.061C218.528 100.65 218.198 100.445 217.758 100.445C217.318 100.445 216.985 100.65 216.757 101.061C216.537 101.464 216.427 102.062 216.427 102.854C216.427 103.661 216.537 104.273 216.757 104.691C216.985 105.102 217.318 105.307 217.758 105.307ZM223.806 106.121C223.007 106.121 222.398 105.842 221.98 105.285C221.562 104.72 221.353 103.91 221.353 102.854C221.353 101.842 221.562 101.054 221.98 100.489C222.398 99.9243 223.007 99.642 223.806 99.642C224.598 99.642 225.203 99.9243 225.621 100.489C226.047 101.046 226.259 101.835 226.259 102.854C226.259 103.903 226.05 104.709 225.632 105.274C225.214 105.839 224.606 106.121 223.806 106.121ZM223.806 105.307C224.246 105.307 224.576 105.102 224.796 104.691C225.024 104.273 225.137 103.661 225.137 102.854C225.137 102.062 225.024 101.464 224.796 101.061C224.576 100.65 224.246 100.445 223.806 100.445C223.366 100.445 223.033 100.65 222.805 101.061C222.585 101.464 222.475 102.062 222.475 102.854C222.475 103.661 222.585 104.273 222.805 104.691C223.033 105.102 223.366 105.307 223.806 105.307ZM228.952 105.23H229.799V103.448L227.731 100.522H226.972V99.752H229.81V100.522H229.062L230.536 102.678L231.955 100.522H231.207V99.752H233.792V100.522H233.022L231.02 103.437V105.23H231.867V106H228.952V105.23ZM234.875 100.522H234.171V99.752H236.723V100.522H235.986L237.163 104.405L238.659 99.884H239.484L240.98 104.405L242.146 100.522H241.387V99.752H243.818V100.522H243.114L241.409 106H240.496L239.022 101.666L237.548 106H236.646L234.875 100.522ZM21.123 118.23H21.97V116.448L19.902 113.522H19.143V112.752H21.981V113.522H21.233L22.707 115.678L24.126 113.522H23.378V112.752H25.963V113.522H25.193L23.191 116.437V118.23H24.038V119H21.123V118.23ZM29.2353 114.974C29.8953 114.974 30.405 115.161 30.7643 115.535C31.1237 115.902 31.3033 116.393 31.3033 117.009C31.3033 117.662 31.0833 118.179 30.6433 118.56C30.2107 118.934 29.6423 119.121 28.9383 119.121C28.051 119.121 27.27 118.791 26.5953 118.131L27.1453 117.427C27.402 117.691 27.6697 117.893 27.9483 118.032C28.227 118.171 28.535 118.241 28.8723 118.241C29.2977 118.241 29.6277 118.131 29.8623 117.911C30.1043 117.691 30.2253 117.398 30.2253 117.031C30.2253 116.664 30.1153 116.375 29.8953 116.162C29.6753 115.942 29.371 115.832 28.9823 115.832C28.4983 115.832 28.0693 116.012 27.6953 116.371L26.8813 116.063L26.9583 112.752H30.9623V114.358H30.0933V113.533H27.8163L27.7613 115.414C28.172 115.121 28.6633 114.974 29.2353 114.974ZM32.2452 118.23H33.0262V113.489H32.2452V112.752H35.0282V113.489H34.2472V118.23H36.5352V116.404H37.4482V119H32.2452V118.23ZM38.6586 113.522H37.9546V112.752H40.5066V113.522H39.7696L40.9466 117.405L42.4426 112.884H43.2676L44.7636 117.405L45.9296 113.522H45.1706V112.752H47.6016V113.522H46.8976L45.1926 119H44.2796L42.8056 114.666L41.3316 119H40.4296L38.6586 113.522ZM48.294 118.23H49.075V113.522H48.294V112.752H53.893V114.71H53.046V113.522H50.307V115.403H51.902V114.699H52.518V116.866H51.913V116.162H50.307V118.23H53.101V116.976H53.948V119H48.294V118.23ZM57.6162 114.974C58.2762 114.974 58.7859 115.161 59.1452 115.535C59.5045 115.902 59.6842 116.393 59.6842 117.009C59.6842 117.662 59.4642 118.179 59.0242 118.56C58.5915 118.934 58.0232 119.121 57.3192 119.121C56.4319 119.121 55.6509 118.791 54.9762 118.131L55.5262 117.427C55.7829 117.691 56.0505 117.893 56.3292 118.032C56.6079 118.171 56.9159 118.241 57.2532 118.241C57.6785 118.241 58.0085 118.131 58.2432 117.911C58.4852 117.691 58.6062 117.398 58.6062 117.031C58.6062 116.664 58.4962 116.375 58.2762 116.162C58.0562 115.942 57.7519 115.832 57.3632 115.832C56.8792 115.832 56.4502 116.012 56.0762 116.371L55.2622 116.063L55.3392 112.752H59.3432V114.358H58.4742V113.533H56.1972L56.1422 115.414C56.5529 115.121 57.0442 114.974 57.6162 114.974ZM60.7581 118.285L64.3771 113.511H61.7481V114.897H60.9011V112.752H65.9501V113.423L62.3091 118.241H65.1801V116.745H66.0381V119H60.7581V118.285ZM68.1614 113.753C67.9561 113.753 67.7837 113.691 67.6444 113.566C67.5124 113.434 67.4464 113.265 67.4464 113.06C67.4464 112.862 67.5124 112.701 67.6444 112.576C67.7837 112.451 67.9561 112.389 68.1614 112.389C68.3741 112.389 68.5464 112.451 68.6784 112.576C68.8104 112.701 68.8764 112.862 68.8764 113.06C68.8837 113.265 68.8177 113.434 68.6784 113.566C68.5464 113.691 68.3741 113.753 68.1614 113.753ZM66.5774 119.891H67.0284C67.3144 119.891 67.5124 119.821 67.6224 119.682C67.7324 119.55 67.7874 119.326 67.7874 119.011V115.392H66.9294V114.644H68.8874V118.802C68.8874 119.455 68.7591 119.935 68.5024 120.243C68.2457 120.558 67.7727 120.716 67.0834 120.716H66.5774V119.891ZM73.2503 119.11C72.3483 119.11 71.6736 118.901 71.2263 118.483C70.7789 118.058 70.5553 117.475 70.5553 116.734V113.522H69.8073V112.752H72.5573V113.522H71.7763V116.811C71.7763 117.273 71.9119 117.636 72.1833 117.9C72.4546 118.157 72.8323 118.285 73.3163 118.285C73.8296 118.285 74.2293 118.157 74.5153 117.9C74.8013 117.636 74.9443 117.269 74.9443 116.8V113.522H74.2293V112.752H76.6933V113.522H75.9233V116.778C75.9233 117.541 75.6849 118.12 75.2083 118.516C74.7389 118.912 74.0863 119.11 73.2503 119.11ZM79.1104 119C78.2377 119 77.8014 118.571 77.8014 117.713V115.359H77.1414V114.644H77.8014V113.192L78.9014 112.895V114.644H79.9904V115.359H78.9014V117.592C78.9014 117.841 78.9417 118.017 79.0224 118.12C79.1104 118.223 79.257 118.274 79.4624 118.274H80.0674V119H79.1104ZM80.8216 118.23H81.5806V113.522H80.8216V112.752H83.2636L85.0786 116.778L86.8166 112.752H89.2366V113.522H88.4776V118.23H89.2366V119H86.5746V118.23H87.3116V113.797L85.1666 118.703H84.7046L82.5266 113.797V118.23H83.2636V119H80.8216V118.23ZM90.1891 118.351L92.8291 115.337H90.9701V116.195H90.2331V114.644H94.1051V115.326L91.4431 118.329H93.4231V117.361H94.1711V119H90.1891V118.351ZM94.8898 119.385H95.4618C95.7258 119.385 95.9054 119.308 96.0008 119.154C96.1034 119 96.1548 118.765 96.1548 118.45V113.489H95.3518V112.752H98.1128V113.489H97.3758V118.406C97.3758 119.066 97.2438 119.546 96.9798 119.847C96.7158 120.155 96.2831 120.309 95.6818 120.309H94.8898V119.385ZM100.001 113.753C99.7959 113.753 99.6236 113.691 99.4843 113.566C99.3523 113.434 99.2863 113.265 99.2863 113.06C99.2863 112.862 99.3523 112.701 99.4843 112.576C99.6236 112.451 99.7959 112.389 100.001 112.389C100.214 112.389 100.386 112.451 100.518 112.576C100.65 112.701 100.716 112.862 100.716 113.06C100.724 113.265 100.658 113.434 100.518 113.566C100.386 113.691 100.214 113.753 100.001 113.753ZM98.4173 119.891H98.8683C99.1543 119.891 99.3523 119.821 99.4623 119.682C99.5723 119.55 99.6273 119.326 99.6273 119.011V115.392H98.7692V114.644H100.727V118.802C100.727 119.455 100.599 119.935 100.342 120.243C100.086 120.558 99.6126 120.716 98.9233 120.716H98.4173V119.891ZM101.801 118.23H102.604V113.522H101.801V112.752H104.012L107.257 117.416V113.522H106.432V112.752H108.918V113.522H108.137V119H106.916L103.462 114.006V118.23H104.287V119H101.801V118.23ZM110.18 113.522H109.476V112.752H112.028V113.522H111.291L112.468 117.405L113.964 112.884H114.789L116.285 117.405L117.451 113.522H116.692V112.752H119.123V113.522H118.419L116.714 119H115.801L114.327 114.666L112.853 119H111.951L110.18 113.522ZM120.234 113.522H119.519V112.752H122.291V113.522H121.499L123.094 117.658L124.645 113.522H123.875V112.752H126.394V113.522H125.701L123.49 119H122.533L120.234 113.522ZM127.98 113.753C127.775 113.753 127.602 113.691 127.463 113.566C127.331 113.434 127.265 113.269 127.265 113.071C127.265 112.873 127.331 112.712 127.463 112.587C127.602 112.455 127.775 112.389 127.98 112.389C128.185 112.389 128.354 112.455 128.486 112.587C128.625 112.712 128.695 112.873 128.695 113.071C128.695 113.269 128.625 113.434 128.486 113.566C128.354 113.691 128.185 113.753 127.98 113.753ZM126.803 118.285H127.551V115.359H126.814V114.644H128.64V118.285H129.344V119H126.803V118.285ZM130.053 118.23H130.812V113.522H130.053V112.752H132.495L134.31 116.778L136.048 112.752H138.468V113.522H137.709V118.23H138.468V119H135.806V118.23H136.543V113.797L134.398 118.703H133.936L131.758 113.797V118.23H132.495V119H130.053V118.23ZM140.763 118.23H141.566V113.511H140.07V114.974H139.212V112.752H145.108V114.974H144.261V113.511H142.787V118.23H143.59V119H140.763V118.23ZM151.278 120.639C150.236 120.639 149.426 120.118 148.847 119.077C148.253 119.018 147.732 118.842 147.285 118.549C146.837 118.256 146.493 117.878 146.251 117.416C146.009 116.954 145.888 116.448 145.888 115.898C145.888 115.297 146.031 114.747 146.317 114.248C146.603 113.749 147.006 113.357 147.527 113.071C148.047 112.785 148.649 112.642 149.331 112.642C150.005 112.642 150.603 112.785 151.124 113.071C151.644 113.357 152.048 113.749 152.334 114.248C152.62 114.739 152.763 115.286 152.763 115.887C152.763 116.43 152.645 116.932 152.411 117.394C152.183 117.849 151.853 118.223 151.421 118.516C150.995 118.809 150.493 118.996 149.914 119.077C150.266 119.598 150.731 119.858 151.311 119.858C151.531 119.858 151.78 119.818 152.059 119.737L152.07 120.507C151.82 120.595 151.556 120.639 151.278 120.639ZM149.331 118.252C149.763 118.252 150.141 118.149 150.464 117.944C150.794 117.731 151.043 117.445 151.212 117.086C151.388 116.727 151.476 116.323 151.476 115.876C151.476 115.429 151.388 115.025 151.212 114.666C151.043 114.307 150.794 114.024 150.464 113.819C150.141 113.606 149.763 113.5 149.331 113.5C148.891 113.5 148.509 113.606 148.187 113.819C147.864 114.024 147.615 114.31 147.439 114.677C147.27 115.036 147.186 115.44 147.186 115.887C147.186 116.334 147.27 116.738 147.439 117.097C147.615 117.456 147.864 117.739 148.187 117.944C148.509 118.149 148.891 118.252 149.331 118.252ZM153.718 118.263H154.697V113.61L153.718 113.764L153.685 113.049L155.83 112.752V118.263H156.776V119H153.718V118.263ZM157.642 118.285L161.261 113.511H158.632V114.897H157.785V112.752H162.834V113.423L159.193 118.241H162.064V116.745H162.922V119H157.642V118.285ZM165.045 113.753C164.84 113.753 164.668 113.691 164.528 113.566C164.396 113.434 164.33 113.265 164.33 113.06C164.33 112.862 164.396 112.701 164.528 112.576C164.668 112.451 164.84 112.389 165.045 112.389C165.258 112.389 165.43 112.451 165.562 112.576C165.694 112.701 165.76 112.862 165.76 113.06C165.768 113.265 165.702 113.434 165.562 113.566C165.43 113.691 165.258 113.753 165.045 113.753ZM163.461 119.891H163.912C164.198 119.891 164.396 119.821 164.506 119.682C164.616 119.55 164.671 119.326 164.671 119.011V115.392H163.813V114.644H165.771V118.802C165.771 119.455 165.643 119.935 165.386 120.243C165.13 120.558 164.657 120.716 163.967 120.716H163.461V119.891ZM166.845 118.23H167.604V113.522H166.845V112.752H169.287L171.102 116.778L172.84 112.752H175.26V113.522H174.501V118.23H175.26V119H172.598V118.23H173.335V113.797L171.19 118.703H170.728L168.55 113.797V118.23H169.287V119H166.845V118.23ZM177.775 118.263H178.787V117.273H175.938L175.839 116.657L178.798 112.752H179.832V116.58H180.778V117.273H179.832V118.263H180.591V119H177.775V118.263ZM178.787 116.58V113.885L176.763 116.58H178.787ZM181.693 111.982H182.749L182.562 114.347H181.913L181.693 111.982ZM183.178 111.982H184.234L184.047 114.347H183.398L183.178 111.982ZM185.367 117.504L188.876 115.887L185.367 114.27V113.467L189.712 115.557V116.217L185.367 118.307V117.504ZM191.324 116.217V115.557L195.669 113.467V114.27L192.16 115.887L195.669 117.504V118.307L191.324 116.217ZM199.48 112.422H200.393L197.28 120.54H196.367L199.48 112.422ZM202.974 116.393C203.487 116.51 203.869 116.668 204.118 116.866C204.367 117.064 204.492 117.379 204.492 117.812C204.492 118.23 204.334 118.553 204.019 118.78C203.704 119 203.315 119.11 202.853 119.11C202.567 119.11 202.299 119.07 202.05 118.989C201.808 118.908 201.61 118.795 201.456 118.648V119H200.686V117.526H201.39L201.434 117.988C201.566 118.135 201.738 118.248 201.951 118.329C202.171 118.41 202.395 118.45 202.622 118.45C202.871 118.45 203.073 118.402 203.227 118.307C203.388 118.204 203.469 118.069 203.469 117.9C203.469 117.709 203.403 117.574 203.271 117.493C203.139 117.405 202.901 117.324 202.556 117.251L202.028 117.13C201.559 117.02 201.214 116.87 200.994 116.679C200.781 116.481 200.675 116.191 200.675 115.81C200.675 115.414 200.822 115.102 201.115 114.875C201.416 114.648 201.808 114.534 202.292 114.534C202.519 114.534 202.743 114.567 202.963 114.633C203.19 114.699 203.377 114.791 203.524 114.908V114.633H204.305V116.085H203.601L203.535 115.568C203.418 115.458 203.264 115.37 203.073 115.304C202.882 115.238 202.692 115.205 202.501 115.205C202.281 115.205 202.094 115.253 201.94 115.348C201.793 115.436 201.72 115.564 201.72 115.733C201.72 115.88 201.775 115.993 201.885 116.074C202.002 116.147 202.189 116.217 202.446 116.283L202.974 116.393ZM209.623 118.241C209.117 118.82 208.438 119.11 207.588 119.11C207.118 119.11 206.7 119.011 206.334 118.813C205.974 118.615 205.692 118.34 205.487 117.988C205.281 117.636 205.179 117.236 205.179 116.789C205.179 116.349 205.274 115.96 205.465 115.623C205.663 115.278 205.93 115.011 206.268 114.82C206.612 114.629 206.997 114.534 207.423 114.534C207.723 114.534 207.987 114.585 208.215 114.688C208.449 114.791 208.636 114.93 208.776 115.106V114.633H209.59V116.283H208.842C208.783 115.975 208.651 115.737 208.446 115.568C208.24 115.399 207.976 115.315 207.654 115.315C207.243 115.315 206.906 115.451 206.642 115.722C206.385 115.986 206.257 116.327 206.257 116.745C206.257 117.2 206.392 117.57 206.664 117.856C206.935 118.135 207.291 118.274 207.731 118.274C208.053 118.274 208.332 118.215 208.567 118.098C208.801 117.981 209.025 117.808 209.238 117.581L209.623 118.241ZM213.339 114.578C213.618 114.578 213.907 114.648 214.208 114.787L213.966 115.733C213.702 115.572 213.431 115.491 213.152 115.491C212.888 115.491 212.664 115.59 212.481 115.788C212.298 115.986 212.206 116.265 212.206 116.624L212.195 118.285H212.921V119H210.369V118.285H211.117V115.359H210.369V114.644H212.195V115.469C212.452 114.875 212.833 114.578 213.339 114.578ZM215.765 113.753C215.56 113.753 215.387 113.691 215.248 113.566C215.116 113.434 215.05 113.269 215.05 113.071C215.05 112.873 215.116 112.712 215.248 112.587C215.387 112.455 215.56 112.389 215.765 112.389C215.97 112.389 216.139 112.455 216.271 112.587C216.41 112.712 216.48 112.873 216.48 113.071C216.48 113.269 216.41 113.434 216.271 113.566C216.139 113.691 215.97 113.753 215.765 113.753ZM214.588 118.285H215.336V115.359H214.599V114.644H216.425V118.285H217.129V119H214.588V118.285ZM220.731 114.534C221.135 114.534 221.49 114.626 221.798 114.809C222.114 114.985 222.359 115.242 222.535 115.579C222.711 115.916 222.799 116.312 222.799 116.767C222.799 117.244 222.7 117.662 222.502 118.021C222.312 118.373 222.051 118.644 221.721 118.835C221.399 119.018 221.036 119.11 220.632 119.11C220.376 119.11 220.134 119.073 219.906 119C219.679 118.919 219.492 118.817 219.345 118.692V120.045H220.137V120.76H217.552V120.045H218.256V115.359H217.563V114.644H219.268L219.29 115.029C219.723 114.699 220.203 114.534 220.731 114.534ZM220.335 118.296C220.731 118.296 221.05 118.168 221.292 117.911C221.542 117.654 221.666 117.291 221.666 116.822C221.666 116.375 221.545 116.023 221.303 115.766C221.069 115.502 220.761 115.37 220.379 115.37C220.225 115.37 220.053 115.403 219.862 115.469C219.672 115.528 219.499 115.616 219.345 115.733V117.966C219.646 118.186 219.976 118.296 220.335 118.296ZM225.236 119C224.364 119 223.927 118.571 223.927 117.713V115.359H223.267V114.644H223.927V113.192L225.027 112.895V114.644H226.116V115.359H225.027V117.592C225.027 117.841 225.068 118.017 225.148 118.12C225.236 118.223 225.383 118.274 225.588 118.274H226.193V119H225.236ZM227.058 117.504L230.567 115.887L227.058 114.27V113.467L231.403 115.557V116.217L227.058 118.307V117.504Z" fill="#4A4E59"/>
<path d="M260.543 85.1665H257.457C256.321 85.1665 255.4 85.9247 255.4 86.8601C255.4 87.7954 256.321 88.5536 257.457 88.5536H260.543C261.679 88.5536 262.6 87.7954 262.6 86.8601C262.6 85.9247 261.679 85.1665 260.543 85.1665Z" fill="#181D26"/>
<rect x="253" y="86.333" width="12" height="11.6667" rx="2" fill="#181D26"/>
<path d="M260.543 84.6667H257.457C256.556 84.6667 255.929 85.4739 255.929 86.3333C255.929 87.1928 256.556 88 257.457 88H260.543C261.445 88 262.072 87.1928 262.072 86.3333C262.072 85.4739 261.445 84.6667 260.543 84.6667ZM255.9 86.3333C255.9 85.2598 256.655 84.5 257.457 84.5H260.543C261.346 84.5 262.1 85.2598 262.1 86.3333C262.1 87.4069 261.346 88.1667 260.543 88.1667H257.457C256.655 88.1667 255.9 87.4069 255.9 86.3333Z" stroke="#C4DDF2"/>
<path d="M210 13C208.022 13 206.089 13.5865 204.444 14.6853C202.8 15.7841 201.518 17.3459 200.761 19.1732C200.004 21.0004 199.806 23.0111 200.192 24.9509C200.578 26.8907 201.53 28.6725 202.929 30.0711C204.327 31.4696 206.109 32.422 208.049 32.8079C209.989 33.1937 212 32.9957 213.827 32.2388C215.654 31.4819 217.216 30.2002 218.315 28.5557C219.414 26.9112 220 24.9778 220 23C220 21.6868 219.741 20.3864 219.239 19.1732C218.736 17.9599 218 16.8575 217.071 15.9289C216.142 15.0003 215.04 14.2638 213.827 13.7612C212.614 13.2587 211.313 13 210 13V13ZM210 31C208.418 31 206.871 30.5308 205.555 29.6518C204.24 28.7727 203.214 27.5233 202.609 26.0615C202.003 24.5997 201.845 22.9911 202.154 21.4393C202.462 19.8874 203.224 18.462 204.343 17.3431C205.462 16.2243 206.887 15.4624 208.439 15.1537C209.991 14.845 211.6 15.0035 213.061 15.609C214.523 16.2145 215.773 17.2398 216.652 18.5554C217.531 19.871 218 21.4177 218 23C218 25.1217 217.157 27.1566 215.657 28.6569C214.157 30.1571 212.122 31 210 31V31Z" fill="#8B8E93"/>
<path d="M210 20C210.552 20 211 19.5523 211 19C211 18.4477 210.552 18 210 18C209.448 18 209 18.4477 209 19C209 19.5523 209.448 20 210 20Z" fill="#8B8E93"/>
<path d="M210 21C209.735 21 209.48 21.1054 209.293 21.2929C209.105 21.4804 209 21.7348 209 22V27C209 27.2652 209.105 27.5196 209.293 27.7071C209.48 27.8946 209.735 28 210 28C210.265 28 210.52 27.8946 210.707 27.7071C210.895 27.5196 211 27.2652 211 27V22C211 21.7348 210.895 21.4804 210.707 21.2929C210.52 21.1054 210.265 21 210 21Z" fill="#8B8E93"/>
<path d="M245.292 17.2498C245.568 17.2498 245.833 17.1401 246.028 16.9447C246.224 16.7494 246.333 16.4844 246.333 16.2082C246.333 15.9319 246.224 15.667 246.028 15.4716C245.833 15.2763 245.568 15.1665 245.292 15.1665H243.208C242.932 15.1665 242.667 15.2763 242.472 15.4716C242.276 15.667 242.167 15.9319 242.167 16.2082V30.7915C242.167 31.0678 242.276 31.3327 242.472 31.5281C242.667 31.7234 242.932 31.8332 243.208 31.8332H245.292C245.568 31.8332 245.833 31.7234 246.028 31.5281C246.224 31.3327 246.333 31.0678 246.333 30.7915C246.333 30.5152 246.224 30.2503 246.028 30.0549C245.833 29.8596 245.568 29.7498 245.292 29.7498H244.25V17.2498H245.292Z" fill="#8B8E93"/>
<path d="M259.688 22.8957L256.75 18.729C256.591 18.5044 256.349 18.3521 256.078 18.3052C255.806 18.2584 255.527 18.3209 255.302 18.479C255.189 18.558 255.094 18.6584 255.02 18.7746C254.946 18.8909 254.896 19.0205 254.873 19.1561C254.85 19.2917 254.854 19.4305 254.884 19.5646C254.915 19.6987 254.972 19.8254 255.052 19.9373L256.844 22.4582H248.417C248.14 22.4582 247.875 22.5679 247.68 22.7633C247.485 22.9586 247.375 23.2236 247.375 23.4998C247.375 23.7761 247.485 24.0411 247.68 24.2364C247.875 24.4318 248.14 24.5415 248.417 24.5415H256.75L254.875 27.0415C254.793 27.1509 254.733 27.2755 254.699 27.408C254.665 27.5405 254.658 27.6784 254.677 27.8138C254.696 27.9492 254.742 28.0795 254.812 28.1972C254.882 28.3149 254.974 28.4178 255.083 28.4998C255.264 28.6351 255.483 28.7082 255.708 28.7082C255.87 28.7082 256.03 28.6705 256.174 28.5982C256.319 28.5259 256.445 28.4209 256.542 28.2915L259.667 24.1248C259.8 23.9487 259.874 23.7346 259.878 23.5137C259.881 23.2927 259.815 23.0763 259.688 22.8957V22.8957Z" fill="#8B8E93"/>
<path d="M56.2119 19.7537C56.7686 19.4979 57.3772 19.3573 58.0116 19.3573C58.6331 19.3573 59.2287 19.4852 59.7984 19.741C60.3681 19.984 60.8989 20.3421 61.3521 20.7897L64.2912 17.8097C63.5014 17.0423 62.5562 16.4028 61.5075 15.9424C60.4458 15.482 59.2675 15.2134 58.0375 15.2134C56.7557 15.2134 55.5386 15.5075 54.438 16.0191C52.7937 16.7865 51.4342 18.0527 50.489 19.6003C49.5438 21.1478 49 22.9896 49 24.9592C49 27.5811 49.9581 29.9855 51.5636 31.7505C52.3664 32.633 53.3375 33.3748 54.438 33.8864C55.5386 34.398 56.7557 34.6922 58.0375 34.6922C59.1769 34.6922 60.2774 34.462 61.3003 34.0271C62.3232 33.5923 63.2425 32.94 64.0193 32.147L60.9896 29.2565C60.5623 29.6914 60.1091 30.0111 59.6171 30.2158C59.1251 30.4204 58.6072 30.5355 58.0375 30.5355C57.4031 30.5355 56.8075 30.3948 56.2378 30.139C55.3962 29.7425 54.6323 29.0647 54.0884 28.1694C53.5446 27.2741 53.208 26.1742 53.208 24.972C53.208 23.3605 53.8036 21.9408 54.697 20.9432C55.1243 20.406 55.6551 20.0223 56.2119 19.7537Z" fill="#8B8E93"/>
<path d="M79.168 15.9937C78.0674 15.4822 76.8503 15.188 75.5685 15.188C74.2867 15.188 73.0696 15.4822 71.969 15.9937C70.3247 16.7611 68.9652 18.0273 68.02 19.5749C67.0748 21.1224 66.531 22.9642 66.531 24.9338C66.531 27.5557 67.4891 29.9602 69.0947 31.7251C69.8974 32.6076 70.8685 33.3494 71.969 33.861C73.0696 34.3726 74.2867 34.6668 75.5685 34.6668V30.5101C74.9341 30.5101 74.3385 30.3694 73.7688 30.1136C72.9272 29.7172 72.1633 29.0393 71.6195 28.144C71.0756 27.2487 70.739 26.1488 70.739 24.9466C70.739 23.3351 71.3346 21.9154 72.228 20.9178C72.6812 20.419 73.1991 20.0353 73.7558 19.7667C74.3126 19.5109 74.9211 19.3702 75.5556 19.3702C76.19 19.3702 76.7856 19.5109 77.3553 19.7667C78.1969 20.1632 78.9608 20.8411 79.5046 21.7363C79.7118 22.0817 79.893 22.4654 80.0355 22.8618H75.5556V27.0185H84.5931V24.9466C84.5931 22.3247 83.6349 19.9202 82.0294 18.1552C81.2267 17.2471 80.2556 16.5053 79.168 15.9937Z" fill="#8B8E93"/>
<path d="M42.6944 16.6972C42.3059 16.4286 41.8916 16.1984 41.4643 15.9937C40.3638 15.4822 39.1467 15.188 37.8649 15.188C36.5831 15.188 35.366 15.4822 34.2654 15.9937C32.6211 16.7611 31.2616 18.0273 30.3164 19.5749C29.3841 21.1224 28.8403 22.9642 28.8403 24.921C28.8403 27.5429 29.7985 29.9474 31.404 31.7123C32.2067 32.5948 33.1778 33.3366 34.2784 33.8482C35.3789 34.3598 36.596 34.654 37.8778 34.654C39.1467 34.654 40.3767 34.3598 41.4773 33.8482C41.9046 33.6436 42.3189 33.4134 42.7073 33.1448V34.0912H46.9153V15.5845H42.6944V16.6972ZM41.2054 28.9498C40.7522 29.4486 40.2343 29.8323 39.6776 30.1008C39.1208 30.3566 38.5123 30.4973 37.8778 30.4973C37.2434 30.4973 36.6478 30.3566 36.0781 30.1008C35.2365 29.7044 34.4726 29.0265 33.9288 28.1312C33.385 27.2359 33.0483 26.136 33.0483 24.9338C33.0483 23.3223 33.6439 21.9026 34.5373 20.905C34.9905 20.4062 35.5084 20.0225 36.0652 19.7539C36.6219 19.4981 37.2304 19.3574 37.8649 19.3574C38.4993 19.3574 39.0949 19.4981 39.6646 19.7539C40.5062 20.1504 41.2701 20.8283 41.8139 21.7236C42.3577 22.6188 42.6944 23.7188 42.6944 24.921C42.7073 26.5325 42.1117 27.9522 41.2054 28.9498Z" fill="#8B8E93"/>
<path d="M22.6901 9.56035C21.8355 10.2638 21.2011 11.1846 20.7868 12.2078C20.3854 13.2438 20.1912 14.3821 20.1912 15.5971C20.1912 15.9424 20.1912 16.4029 20.1912 16.9273H19V21.0839H20.2041C20.2041 26.7114 20.2041 34.0911 20.2041 34.0911H24.4121C24.4121 34.0911 24.4121 26.7114 24.4121 21.0839H26.4967V16.9273H24.4121C24.4121 16.3901 24.4121 15.9424 24.4121 15.5971C24.4121 14.8809 24.5157 14.3054 24.6581 13.8705C24.7747 13.5508 24.9042 13.295 25.0595 13.0903C25.2926 12.7962 25.5515 12.5915 25.927 12.4253C26.3025 12.259 26.8204 12.1439 27.5066 12.1439V8C26.4838 8 25.4998 8.15348 24.5805 8.48601C23.8942 8.74181 23.2468 9.09992 22.6901 9.56035Z" fill="#8B8E93"/>
<path d="M93.0739 16.927C93.0739 14.2284 93.0739 12.003 93.0739 11.0054H88.8659C88.8659 12.003 88.8659 14.2284 88.8659 16.927H85.9397V21.0837H88.8659C88.8659 27.3635 88.8659 34.0909 88.8659 34.0909H93.0739C93.0739 34.0909 93.0739 27.3635 93.0739 21.0837H96.0001V16.927H93.0739Z" fill="#8B8E93"/>
<line y1="57.5" x2="282" y2="57.5" stroke="#8B8E93"/>
</svg>
