<svg width="104" height="36" viewBox="0 0 52 18" fill="none" xmlns="http://www.w3.org/2000/svg">
<g clip-path="url(#clip0)">
<path d="M24.9737 7.74751C25.3406 7.58228 25.7416 7.4914 26.1597 7.4914C26.5693 7.4914 26.9618 7.57402 27.3373 7.73924C27.7127 7.89621 28.0626 8.12753 28.3612 8.41668L30.2981 6.49177C29.7776 5.99608 29.1547 5.58301 28.4636 5.2856C27.7639 4.98819 26.9874 4.8147 26.1768 4.8147C25.3321 4.8147 24.53 5.00471 23.8047 5.33517C22.721 5.83085 21.8251 6.64873 21.2022 7.64837C20.5793 8.648 20.2209 9.83765 20.2209 11.1099C20.2209 12.8035 20.8524 14.3567 21.9104 15.4967C22.4395 16.0668 23.0794 16.5459 23.8047 16.8764C24.53 17.2068 25.3321 17.3969 26.1768 17.3969C26.9277 17.3969 27.653 17.2482 28.3271 16.9673C29.0012 16.6864 29.607 16.265 30.1189 15.7528L28.1223 13.8857C27.8407 14.1666 27.5421 14.3732 27.2178 14.5054C26.8936 14.6375 26.5523 14.7119 26.1768 14.7119C25.7587 14.7119 25.3662 14.621 24.9908 14.4558C24.4361 14.1997 23.9327 13.7618 23.5743 13.1835C23.2159 12.6052 22.9941 11.8947 22.9941 11.1182C22.9941 10.0772 23.3866 9.16021 23.9754 8.51582C24.2569 8.16884 24.6068 7.921 24.9737 7.74751Z" fill="black"/>
<path d="M40.1023 5.31857C39.377 4.98811 38.5749 4.7981 37.7302 4.7981C36.8854 4.7981 36.0833 4.98811 35.3581 5.31857C34.2744 5.81425 33.3785 6.63213 32.7556 7.63177C32.1327 8.6314 31.7743 9.82105 31.7743 11.0933C31.7743 12.7869 32.4057 14.34 33.4638 15.4801C33.9928 16.0502 34.6328 16.5293 35.3581 16.8598C36.0833 17.1902 36.8854 17.3803 37.7302 17.3803V14.6953C37.3121 14.6953 36.9195 14.6044 36.5441 14.4392C35.9895 14.1831 35.486 13.7452 35.1277 13.1669C34.7693 12.5886 34.5474 11.8781 34.5474 11.1016C34.5474 10.0606 34.9399 9.14361 35.5287 8.49922C35.8274 8.17702 36.1687 7.92918 36.5356 7.75569C36.9025 7.59046 37.3035 7.49958 37.7216 7.49958C38.1397 7.49958 38.5322 7.59046 38.9077 7.75569C39.4623 8.01179 39.9657 8.44965 40.3241 9.02795C40.4606 9.25101 40.5801 9.49885 40.674 9.75495H37.7216V12.4399H43.6775V11.1016C43.6775 9.40797 43.0461 7.85483 41.988 6.71475C41.459 6.12819 40.819 5.64902 40.1023 5.31857Z" fill="black"/>
<path d="M16.0655 5.77294C15.8096 5.59945 15.5365 5.45075 15.2549 5.31857C14.5296 4.98811 13.7276 4.7981 12.8828 4.7981C12.0381 4.7981 11.236 4.98811 10.5107 5.31857C9.42705 5.81425 8.53111 6.63213 7.90822 7.63177C7.29386 8.6314 6.93549 9.82105 6.93549 11.085C6.93549 12.7786 7.56691 14.3318 8.62497 15.4719C9.154 16.0419 9.79396 16.5211 10.5192 16.8515C11.2445 17.182 12.0466 17.372 12.8914 17.372C13.7276 17.372 14.5382 17.182 15.2635 16.8515C15.545 16.7193 15.8181 16.5706 16.0741 16.3971V17.0085H18.8472V5.0542H16.0655V5.77294ZM15.0843 13.6874C14.7856 14.0096 14.4443 14.2574 14.0774 14.4309C13.7105 14.5962 13.3095 14.687 12.8914 14.687C12.4732 14.687 12.0807 14.5962 11.7053 14.4309C11.1507 14.1748 10.6472 13.737 10.2889 13.1587C9.93048 12.5804 9.70863 11.8699 9.70863 11.0933C9.70863 10.0524 10.1011 9.13535 10.6899 8.49096C10.9885 8.16876 11.3299 7.92092 11.6968 7.74743C12.0637 7.5822 12.4647 7.49132 12.8828 7.49132C13.3009 7.49132 13.6934 7.5822 14.0689 7.74743C14.6235 8.00353 15.1269 8.44139 15.4853 9.01969C15.8437 9.59799 16.0655 10.3085 16.0655 11.085C16.0741 12.126 15.6816 13.043 15.0843 13.6874Z" fill="black"/>
<path d="M2.8824 1.16317C2.31924 1.61755 1.90113 2.21237 1.62808 2.87329C1.36357 3.54246 1.23558 4.27773 1.23558 5.06257C1.23558 5.28562 1.23558 5.58304 1.23558 5.92176H0.450562V8.60672H1.24411C1.24411 12.2418 1.24411 17.0086 1.24411 17.0086H4.01726C4.01726 17.0086 4.01726 12.2418 4.01726 8.60672H5.39103V5.92176H4.01726C4.01726 5.57477 4.01726 5.28562 4.01726 5.06257C4.01726 4.59993 4.08552 4.22816 4.17938 3.94727C4.25617 3.74074 4.3415 3.57551 4.44389 3.44332C4.59748 3.25331 4.76814 3.12113 5.01559 3.01373C5.26304 2.90633 5.60435 2.83198 6.05659 2.83198V0.155273C5.3825 0.155273 4.73401 0.254411 4.12818 0.469208C3.67595 0.634437 3.24931 0.865757 2.8824 1.16317Z" fill="black"/>
<path d="M49.2665 5.92172C49.2665 4.17856 49.2665 2.74107 49.2665 2.09668H46.4933C46.4933 2.74107 46.4933 4.17856 46.4933 5.92172H44.5649V8.60669H46.4933C46.4933 12.6631 46.4933 17.0086 46.4933 17.0086H49.2665C49.2665 17.0086 49.2665 12.6631 49.2665 8.60669H51.1949V5.92172H49.2665Z" fill="black"/>
</g>
<defs>
<clipPath id="clip0">
<rect width="50.7443" height="17.2168" fill="black" transform="translate(0.450562 0.155273)"/>
</clipPath>
</defs>
</svg>
