<svg width="25" height="25" viewBox="0 0 25 25" fill="none" xmlns="http://www.w3.org/2000/svg">
<path d="M12.3529 1.02939C9.38151 0.999193 6.51965 2.15001 4.39634 4.22893C2.27303 6.30784 1.062 9.14474 1.02941 12.1162C1.04086 14.4644 1.79626 16.7486 3.18712 18.6407C4.57798 20.5328 6.53272 21.9354 8.77059 22.647C9.33677 22.75 9.54265 22.4103 9.54265 22.1117V20.2279C6.39265 20.897 5.72353 18.7456 5.72353 18.7456C5.51383 18.0702 5.06803 17.4928 4.46765 17.1191C3.43824 16.4397 4.55 16.45 4.55 16.45C4.90582 16.4975 5.24625 16.6251 5.54576 16.8229C5.84527 17.0208 6.09609 17.284 6.27941 17.5926C6.59887 18.1466 7.12305 18.5529 7.73913 18.7243C8.35521 18.8956 9.01393 18.8183 9.57353 18.5088C9.63108 17.9451 9.88636 17.4199 10.2941 17.0264C7.78235 16.7485 5.14706 15.8014 5.14706 11.55C5.1246 10.441 5.53437 9.36671 6.28971 8.55439C5.9457 7.60225 5.98632 6.55353 6.40294 5.63086C6.40294 5.63086 7.36029 5.33233 9.49118 6.76321C11.3461 6.26893 13.2981 6.26893 15.1529 6.76321C17.3147 5.33233 18.2412 5.63086 18.2412 5.63086C18.6578 6.55353 18.6984 7.60225 18.3544 8.55439C19.1273 9.35182 19.5593 10.4189 19.5588 11.5294C19.5588 15.7911 16.9029 16.7279 14.4118 17.0059C14.6845 17.2707 14.8952 17.5927 15.0287 17.9487C15.1622 18.3046 15.2152 18.6858 15.1838 19.0647V22.1014C15.1838 22.4617 15.3897 22.75 15.9559 22.6367C18.1874 21.9207 20.1356 20.5178 21.5221 18.6284C22.9087 16.7389 23.6627 14.4597 23.6765 12.1162C23.6439 9.14474 22.4329 6.30784 20.3095 4.22893C18.1862 2.15001 15.3244 0.999193 12.3529 1.02939Z" fill="#9D1757"/>
</svg>
