<svg width="526" height="296" viewBox="0 0 526 296" fill="none" xmlns="http://www.w3.org/2000/svg">
<g clip-path="url(#clip0)">
<path d="M526.021 0H0V127.703H526.021V0Z" fill="#EBEBEC"/>
<path d="M526.021 124.851H0V295.733H526.021V124.851Z" fill="white"/>
<path d="M417.681 165.993H98.3617C89.1976 165.993 81.6627 158.457 81.6627 149.292V106.317C81.6627 97.1516 89.1976 89.6157 98.3617 89.6157H417.681C426.845 89.6157 434.38 97.1516 434.38 106.317V149.496C434.38 158.457 426.845 165.993 417.681 165.993Z" fill="#CCCCCB"/>
<path d="M354.754 58.0465H160.271C157.012 58.0465 154.365 55.3988 154.365 52.14V50.1033C154.365 46.8445 157.012 44.1968 160.271 44.1968H354.754C358.012 44.1968 360.66 46.8445 360.66 50.1033V52.14C360.66 55.3988 358.012 58.0465 354.754 58.0465Z" fill="#6B6B6B"/>
<path d="M141.535 193.489H85.7356C83.4955 193.489 81.6627 191.656 81.6627 189.415V187.99C81.6627 185.749 83.4955 183.916 85.7356 183.916H141.535C143.775 183.916 145.608 185.749 145.608 187.99V189.415C145.608 191.656 143.775 193.489 141.535 193.489Z" fill="#6B6B6B"/>
<path d="M288.976 70.6743H226.049C224.419 70.6743 223.198 69.4523 223.198 67.8229V66.8045C223.198 65.1752 224.419 63.9531 226.049 63.9531H288.976C290.605 63.9531 291.827 65.1752 291.827 66.8045V67.8229C292.03 69.4523 290.605 70.6743 288.976 70.6743Z" fill="#CCCCCB"/>
<path d="M152.125 209.986H84.5137C82.8845 209.986 81.6627 208.764 81.6627 207.135V206.117C81.6627 204.487 82.8845 203.265 84.5137 203.265H152.125C153.754 203.265 154.976 204.487 154.976 206.117V207.135C155.179 208.561 153.754 209.986 152.125 209.986Z" fill="#CCCCCB"/>
<path d="M160.271 220.985H84.5137C82.8845 220.985 81.6627 219.763 81.6627 218.133V217.115C81.6627 215.485 82.8845 214.263 84.5137 214.263H160.271C161.9 214.263 163.122 215.485 163.122 217.115V218.133C163.122 219.763 161.9 220.985 160.271 220.985Z" fill="#CCCCCB"/>
<path d="M132.982 232.187H84.5137C82.8845 232.187 81.6627 230.964 81.6627 229.335V228.317C81.6627 226.687 82.8845 225.465 84.5137 225.465H132.982C134.611 225.465 135.833 226.687 135.833 228.317V229.335C135.833 230.761 134.611 232.187 132.982 232.187Z" fill="#CCCCCB"/>
<path d="M231.751 193.489H176.155C173.915 193.489 172.082 191.656 172.082 189.415V187.99C172.082 185.749 173.915 183.916 176.155 183.916H231.954C234.195 183.916 236.027 185.749 236.027 187.99V189.415C236.027 191.656 234.195 193.489 231.751 193.489Z" fill="#6B6B6B"/>
<path d="M242.544 209.986H174.933C173.304 209.986 172.082 208.764 172.082 207.135V206.117C172.082 204.487 173.304 203.265 174.933 203.265H242.544C244.173 203.265 245.395 204.487 245.395 206.117V207.135C245.395 208.561 244.173 209.986 242.544 209.986Z" fill="#CCCCCB"/>
<path d="M250.69 220.985H174.933C173.304 220.985 172.082 219.763 172.082 218.133V217.115C172.082 215.485 173.304 214.263 174.933 214.263H250.69C252.319 214.263 253.541 215.485 253.541 217.115V218.133C253.541 219.763 252.319 220.985 250.69 220.985Z" fill="#CCCCCB"/>
<path d="M223.198 232.187H174.933C173.304 232.187 172.082 230.964 172.082 229.335V228.317C172.082 226.687 173.304 225.465 174.933 225.465H223.401C225.03 225.465 226.252 226.687 226.252 228.317V229.335C226.252 230.761 224.827 232.187 223.198 232.187Z" fill="#CCCCCB"/>
<path d="M322.17 193.489H266.371C264.131 193.489 262.298 191.656 262.298 189.415V187.99C262.298 185.749 264.131 183.916 266.371 183.916H322.17C324.41 183.916 326.243 185.749 326.243 187.99V189.415C326.243 191.656 324.41 193.489 322.17 193.489Z" fill="#6B6B6B"/>
<path d="M328.076 264.774H188.374C186.134 264.774 184.301 262.941 184.301 260.701V259.275C184.301 257.035 186.134 255.202 188.374 255.202H328.076C330.316 255.202 332.149 257.035 332.149 259.275V260.701C332.149 262.941 330.316 264.774 328.076 264.774Z" fill="#6B6B6B"/>
<path d="M332.964 209.986H265.353C263.723 209.986 262.502 208.764 262.502 207.135V206.117C262.502 204.487 263.723 203.265 265.353 203.265H332.964C334.593 203.265 335.815 204.487 335.815 206.117V207.135C335.815 208.561 334.593 209.986 332.964 209.986Z" fill="#CCCCCB"/>
<path d="M340.906 220.985H265.149C263.52 220.985 262.298 219.763 262.298 218.133V217.115C262.298 215.485 263.52 214.263 265.149 214.263H340.906C342.535 214.263 343.757 215.485 343.757 217.115V218.133C343.961 219.763 342.535 220.985 340.906 220.985Z" fill="#CCCCCB"/>
<path d="M313.617 232.187H265.149C263.52 232.187 262.298 230.964 262.298 229.335V228.317C262.298 226.687 263.52 225.465 265.149 225.465H313.617C315.246 225.465 316.468 226.687 316.468 228.317V229.335C316.672 230.761 315.246 232.187 313.617 232.187Z" fill="#CCCCCB"/>
<path d="M285.106 282.29H231.343C229.511 282.29 228.085 280.865 228.085 279.032V278.013C228.085 276.18 229.511 274.754 231.343 274.754H285.106C286.939 274.754 288.365 276.18 288.365 278.013V279.032C288.365 280.865 286.939 282.29 285.106 282.29Z" fill="#CCCCCB"/>
<path d="M412.59 193.489H356.79C354.55 193.489 352.717 191.656 352.717 189.415V187.99C352.717 185.749 354.55 183.916 356.79 183.916H412.59C414.83 183.916 416.663 185.749 416.663 187.99V189.415C416.663 191.656 414.83 193.489 412.59 193.489Z" fill="#6B6B6B"/>
<path d="M423.383 209.986H355.772C354.143 209.986 352.921 208.764 352.921 207.135V206.117C352.921 204.487 354.143 203.265 355.772 203.265H423.383C425.012 203.265 426.234 204.487 426.234 206.117V207.135C426.234 208.561 424.809 209.986 423.383 209.986Z" fill="#CCCCCB"/>
<path d="M431.325 220.985H355.568C353.939 220.985 352.717 219.763 352.717 218.133V217.115C352.717 215.485 353.939 214.263 355.568 214.263H431.325C432.954 214.263 434.176 215.485 434.176 217.115V218.133C434.176 219.763 432.954 220.985 431.325 220.985Z" fill="#CCCCCB"/>
<path d="M404.036 232.187H355.568C353.939 232.187 352.717 230.964 352.717 229.335V228.317C352.717 226.687 353.939 225.465 355.568 225.465H404.036C405.666 225.465 406.888 226.687 406.888 228.317V229.335C406.888 230.761 405.666 232.187 404.036 232.187Z" fill="#CCCCCB"/>
<path d="M503.009 21.1821H464.112C462.483 21.1821 461.261 19.9601 461.261 18.3307V17.3124C461.261 15.683 462.483 14.4609 464.112 14.4609H503.009C504.638 14.4609 505.86 15.683 505.86 17.3124V18.3307C506.064 19.9601 504.638 21.1821 503.009 21.1821Z" fill="#6B6B6B"/>
<path d="M138.48 21.3854H123.818C121.781 21.3854 120.152 19.7561 120.152 17.7193C120.152 15.6826 121.781 14.0532 123.818 14.0532H138.48C140.517 14.0532 142.146 15.6826 142.146 17.7193C142.146 19.7561 140.517 21.3854 138.48 21.3854Z" fill="#6B6B6B"/>
<path d="M104.064 21.3854H89.4013C87.3648 21.3854 85.7356 19.7561 85.7356 17.7193C85.7356 15.6826 87.3648 14.0532 89.4013 14.0532H104.064C106.1 14.0532 107.73 15.6826 107.73 17.7193C107.73 19.7561 106.1 21.3854 104.064 21.3854Z" fill="#6B6B6B"/>
<path d="M69.6474 21.3854H54.9848C52.9483 21.3854 51.3192 19.756 51.3192 17.7193C51.3192 15.8862 52.9483 14.2568 54.9848 14.2568H69.6474C71.6839 14.2568 73.3131 15.8862 73.3131 17.9229C73.3131 19.756 71.6839 21.3854 69.6474 21.3854Z" fill="#6B6B6B"/>
<path d="M35.231 21.3854H20.3648C18.3283 21.3854 16.6991 19.756 16.6991 17.7193C16.6991 15.8862 18.3283 14.2568 20.3648 14.2568H35.0274C37.0638 14.2568 38.693 15.8862 38.693 17.9229C38.8967 19.756 37.2675 21.3854 35.231 21.3854Z" fill="#6B6B6B"/>
</g>
<defs>
<clipPath id="clip0">
<rect width="526" height="296" fill="white"/>
</clipPath>
</defs>
</svg>
