<svg width="152" height="25" viewBox="0 0 152 25" fill="none" xmlns="http://www.w3.org/2000/svg">
<g clip-path="url(#clip0)">
<path d="M63.5898 8.78384C62.8376 8.17573 61.812 7.83789 60.6496 7.83789C60.0342 7.83789 59.4188 8.2433 58.8718 9.12167C58.6667 9.39194 58.5299 9.72978 58.3248 10.1352C58.3248 9.79735 58.188 9.45951 57.9829 9.18924C57.7778 8.78384 57.4359 8.6487 57.094 8.6487C56.6154 8.6487 55.2479 9.39194 53.1282 10.8784C51.9658 11.6892 50.8034 12.5001 49.641 13.3784C49.5727 12.8379 49.5043 12.2973 49.5043 11.8244C49.3675 10.8109 49.2308 10.0001 48.9573 9.45951C48.6154 8.6487 48.2051 8.2433 47.6581 8.2433C47.3846 8.2433 46.906 8.91897 46.2222 10.2028C45.6752 11.2163 45.1282 12.5001 44.5128 13.919C43.9658 15.2703 43.6923 15.946 43.6923 16.0811C43.6923 16.419 43.6923 16.6217 43.7607 16.7568C43.8291 17.0271 44.1026 17.1622 44.4445 17.1622C44.5812 17.1622 44.7863 17.0271 45.0598 16.6892C45.3333 16.3514 45.4701 16.0811 45.5385 15.8784C45.9487 14.6622 46.1539 13.9865 46.2222 13.7838C46.4957 12.973 46.8376 12.2973 47.2479 11.7568C48 14.2568 48.7522 15.473 49.4359 15.473C50.0513 15.473 51.2821 14.7298 53.0598 13.3109C54.0855 12.4325 55.1795 11.5541 56.2051 10.6757L56.2735 10.6082C56.2735 10.6082 56.2735 10.6757 56.2051 10.8109L54.1539 17.6352C54.1539 17.7028 54.0855 17.7703 54.0855 17.8379C54.0855 18.1082 54.1539 18.3109 54.359 18.5811C54.5641 18.8514 54.7692 18.919 54.9744 18.919C55.6581 18.919 56 18.5136 56 17.7703C56 17.6352 56 17.3649 55.9316 17.0946C55.9316 16.8244 55.8633 16.5541 55.8633 16.4865C55.8633 16.3514 55.8633 16.2838 55.8633 16.2163C56 15.8109 56.3419 14.8649 57.0257 13.3784C57.2992 12.8379 57.5043 12.3649 57.641 12.0271C57.3675 12.8379 57.2992 13.446 57.2992 13.7838C57.2992 14.6622 57.5727 15.4055 58.1197 15.946C58.6667 16.4865 59.4188 16.8244 60.4445 16.8244C61.6752 16.8244 62.7692 16.2838 63.7265 15.1352C64.547 14.1217 64.9573 13.0406 64.9573 11.8919C64.8205 10.4055 64.4103 9.45951 63.5898 8.78384ZM62.5641 11.6892C62.4957 12.0271 62.4957 12.2298 62.4957 12.1622C62.4957 12.6352 62.2906 13.1757 61.8804 13.8514C61.3333 14.7298 60.718 15.1352 60.0342 15.1352C59.5556 15.1352 59.2137 14.8649 59.0086 14.3919C58.8034 14.1892 58.8034 13.919 58.8034 13.5811C58.8034 13.0406 59.0086 12.2298 59.4188 11.2163C59.8974 10.0001 60.4445 9.32438 61.0598 9.25681C62.1539 9.18924 62.7009 9.66221 62.7009 10.7433C62.7009 11.0136 62.6325 11.3514 62.5641 11.6892Z" fill="#283E41"/>
<path d="M71.5898 8.8514C71.5898 8.58113 71.3846 8.2433 70.9744 7.83789H70.359C69.9487 8.98654 69.5385 10.1352 69.1282 11.2163C68.2393 13.446 67.4188 14.5271 66.6667 14.5271C66.5299 14.5271 66.3932 14.3919 66.2564 14.1217C66.1197 13.8514 66.0513 13.5811 66.0513 13.3109C66.0513 13.2433 66.188 12.6352 66.5299 11.5541C66.8034 10.473 67.0086 9.86492 67.0086 9.79735C67.0086 8.6487 66.5983 8.10816 65.8462 8.10816C65.7778 8.10816 65.641 8.10816 65.5043 8.17573C65.3675 8.2433 65.2992 8.2433 65.2992 8.2433C65.2308 8.8514 65.1624 9.86492 65.0257 11.2838C64.8889 12.5001 64.8205 13.1757 64.8205 13.2433C64.8205 13.7163 64.9573 14.3244 65.1624 15.0001C65.5043 15.946 65.9145 16.4865 66.5299 16.4865C67.4188 16.4865 68.3077 15.946 69.1966 14.7973C69.8804 13.919 70.4957 12.7703 70.9744 11.419C71.3846 10.1352 71.5898 9.32438 71.5898 8.8514Z" fill="#283E41"/>
<path d="M89.2308 8.9863C89.7094 8.71603 89.9829 8.51333 89.9829 8.31063L89.9145 8.17549C89.7094 7.90522 89.5727 7.77009 89.4359 7.70252C89.2308 7.56738 88.8205 7.56738 88.2735 7.56738L81.8462 8.51333C81.7778 8.51333 81.7094 8.51333 81.5727 8.51333C81.4359 8.51333 81.3675 8.51333 81.3675 8.51333H81.2992C81.2992 8.37819 81.2992 8.24306 81.2992 8.24306C81.2308 8.04036 81.094 7.97279 80.8889 7.97279C80.4103 7.97279 79.8633 8.44576 79.3162 9.45927C79.1795 9.72954 78.906 10.2701 78.5641 11.216C77.9487 12.7025 77.4017 13.7836 76.9915 14.4593C76.7863 14.2566 76.6496 14.1214 76.5128 14.0539C76.3077 11.8917 75.8291 10.135 75.0086 8.85117C74.9402 8.85117 74.7351 8.91873 74.4615 8.91873C74.2564 8.9863 74.1197 8.9863 74.0513 9.05387C73.641 9.45927 73.2308 10.135 72.7521 10.9458C72 12.3647 71.3846 13.4458 71.1111 14.2566C70.9744 14.5944 70.906 14.9322 70.906 15.2701C70.906 15.5404 70.9744 15.7431 71.1111 16.0133C71.2479 16.2836 71.5214 16.4187 71.8633 16.4187C72 16.4187 72.2051 16.3512 72.4103 16.1485C72.6838 16.0133 72.8205 15.8106 72.8205 15.6755C73.3675 13.7836 73.8462 12.3647 74.2564 11.4863C74.3932 11.9593 74.5983 12.3647 74.7351 12.8377C75.0769 13.716 75.4188 14.4593 75.6923 14.9322C76.1026 15.6755 76.5128 16.0133 76.9231 16.0133C77.4017 16.0133 77.9487 15.4052 78.7009 14.2566C79.3162 13.3106 79.8633 12.162 80.4786 10.8106C80.6154 10.5404 80.6838 10.3377 80.7521 10.135C80.8205 10.2025 80.8889 10.2025 80.9573 10.2025L82.8718 9.72954C82.9402 9.79711 83.0086 9.86468 83.0086 9.99982C83.0086 10.2701 82.9402 10.8106 82.8034 11.689C82.6667 12.4998 82.5983 12.9728 82.5299 13.1079C82.4615 13.3782 82.3248 13.8512 82.188 14.3917C82.0513 15.0674 81.9829 15.5404 81.9829 15.8782C81.9829 16.4863 82.188 16.8241 82.5983 16.8241C83.1453 16.8241 83.4872 16.7566 83.5556 16.5539V15.0674C83.5556 14.7295 83.6923 13.8512 84.0342 12.4322C84.3077 11.1485 84.5128 10.4052 84.5128 10.3377C84.5812 10.2025 84.6496 9.99981 84.6496 9.93225C84.6496 9.86468 84.6496 9.72954 84.6496 9.59441C85.0598 9.45927 85.6752 9.39171 86.359 9.39171C87.3162 9.39171 87.9316 9.32414 88.3419 9.32414C88.547 9.25657 88.8889 9.189 89.2308 8.9863Z" fill="#283E41"/>
<path d="M97.4359 11.9596H95.9316L96.1368 9.32443C96.1368 8.91902 96.1368 8.64875 96.0684 8.58119C96 8.31092 95.7265 8.17578 95.3846 8.17578C94.7692 8.17578 94.359 8.31092 94.0855 8.58119C92.718 9.72983 91.4188 10.9461 90.0513 12.0947C87.7949 14.1217 86.6325 15.4055 86.6325 15.8785C86.6325 16.419 86.906 16.6893 87.5214 16.6893C87.9316 16.6893 88.2735 16.4866 88.6154 16.1488C88.8889 15.7433 89.1624 15.4055 89.4359 15.0677C89.7094 14.7298 89.9145 14.4596 90.0513 14.2569C90.5299 14.1217 91.2137 13.9866 92.1026 13.8515C92.8547 13.7163 93.265 13.6488 93.4017 13.6488C93.4701 13.6488 93.5385 13.6488 93.7436 13.5812C93.9487 13.5136 94.0171 13.5136 94.0171 13.5812C94.0171 13.5812 93.9487 13.8515 93.8803 14.392C93.7436 14.9325 93.7436 15.4055 93.7436 15.7433C93.7436 16.419 93.9487 16.7569 94.2906 16.7569C94.7692 16.7569 95.1111 16.2163 95.3846 15.2028C95.453 14.5947 95.5897 14.0542 95.6581 13.4461C95.7949 13.5136 96.0684 13.5136 96.3419 13.5136C96.8205 13.5136 97.1624 13.4461 97.2992 13.3109C97.5043 13.1758 97.641 12.8379 97.7778 12.2974C97.7094 12.0271 97.641 11.892 97.4359 11.9596ZM94.2906 11.7569L91.6239 12.2974C91.9658 11.892 92.2393 11.4866 92.5812 11.1488C93.0598 10.6082 93.4017 10.2704 93.6752 10.0677C93.7436 10.1352 93.812 10.1352 94.0171 10.2028C94.1539 10.2028 94.2222 10.2704 94.2222 10.4731C94.359 10.6082 94.359 11.0812 94.2906 11.7569Z" fill="#283E41"/>
<path d="M100.923 7.97314C100.786 7.97314 100.581 8.04071 100.444 8.17585C100.171 8.91909 99.6239 10.338 98.7351 12.5002C98.2564 13.6488 97.9829 14.5948 97.9829 15.4056C97.9829 16.0813 98.1881 16.4191 98.6667 16.4191C98.8034 16.4191 99.0086 16.3515 99.2821 16.1488C99.4188 15.4056 99.6239 14.5272 99.9658 13.5137C100.308 12.6353 100.581 11.7569 100.923 10.8785C101.197 9.86504 101.333 8.98666 101.333 8.10828C101.197 8.04071 101.06 7.97314 100.923 7.97314Z" fill="#283E41"/>
<path d="M125.333 8.91901C125.675 7.83793 125.812 7.22982 125.812 7.16225C125.812 6.95955 125.675 6.75685 125.47 6.62171C125.265 6.48658 124.991 6.41901 124.718 6.41901C124.513 6.41901 124.308 6.55415 124.034 6.75685C123.829 6.95955 123.692 7.16225 123.624 7.29739C123.145 10.2028 122.667 11.7568 122.325 12.0271C121.915 11.1487 121.641 10.5406 121.436 10.2704C120.957 9.52712 120.41 9.18928 119.863 9.18928C119.179 9.18928 118.154 9.86496 116.855 11.1487C116.034 12.0271 115.214 12.9055 114.393 13.7839C114.188 13.1758 113.915 12.0271 113.504 10.4055C113.162 8.98658 112.821 7.83793 112.615 7.02712C112.547 6.89198 112.342 6.68928 112 6.48658C111.658 6.28388 111.385 6.21631 111.248 6.21631C110.974 6.21631 110.769 6.41901 110.564 6.75685C110.427 7.02712 110.291 7.22982 110.291 7.36496C110.291 7.56766 110.359 7.9055 110.564 8.24334C110.359 8.51361 110.154 8.78388 109.88 9.18928C109.744 9.45955 109.47 10.0001 109.128 10.946C108.513 12.4325 107.966 13.5136 107.556 14.1893C107.35 13.9866 107.214 13.8514 107.077 13.7839C106.872 11.6217 106.393 9.86496 105.573 8.58117C105.504 8.58117 105.299 8.64874 105.026 8.64874C104.821 8.71631 104.684 8.71631 104.615 8.78388C104.205 9.18928 103.795 9.86496 103.316 10.6758C102.564 12.0947 101.949 13.1758 101.675 13.9866C101.538 14.3244 101.47 14.6623 101.47 15.0001C101.47 15.2704 101.538 15.4731 101.675 15.7433C101.812 16.0136 102.085 16.1487 102.427 16.1487C102.564 16.1487 102.769 16.0812 102.974 15.8785C103.248 15.7433 103.385 15.5406 103.385 15.4055C103.932 13.5136 104.41 12.0947 104.821 11.2163C104.957 11.6893 105.162 12.0947 105.299 12.5677C105.641 13.446 105.983 14.1893 106.256 14.6623C106.667 15.4055 107.077 15.7433 107.487 15.7433C107.966 15.7433 108.513 15.1352 109.265 13.9866C109.88 13.0406 110.427 11.892 111.043 10.5406C111.111 10.4055 111.179 10.2704 111.248 10.1352C111.385 10.8785 111.521 11.6893 111.727 12.6352C112.068 14.5947 112.205 15.6758 112.274 15.946C112.342 16.1487 112.547 16.2839 112.889 16.4866C113.231 16.6217 113.436 16.6893 113.573 16.6893C114.12 16.6893 115.145 16.0136 116.513 14.5947C117.333 13.7163 118.222 12.7704 119.111 11.892C119.453 12.7028 119.795 13.5136 120.137 14.3244C120.752 15.4731 121.368 16.0812 121.983 16.0812C122.393 16.0812 122.598 16.0136 122.735 15.8785C123.145 15.2028 123.487 14.392 123.829 13.446C123.966 13.0406 124.171 12.365 124.513 11.2839C124.581 11.2839 124.855 10.4055 125.333 8.91901Z" fill="#283E41"/>
<path d="M135.248 11.9596H133.744L133.949 9.32443C133.949 8.91902 133.949 8.64875 133.88 8.58119C133.812 8.31092 133.538 8.17578 133.197 8.17578C132.581 8.17578 132.171 8.31092 131.897 8.58119C130.53 9.72983 129.231 10.9461 127.863 12.0947C125.607 14.1217 124.444 15.4055 124.444 15.8785C124.444 16.419 124.718 16.6893 125.333 16.6893C125.744 16.6893 126.085 16.4866 126.427 16.1488C126.701 15.7433 126.974 15.4055 127.248 15.0677C127.521 14.7298 127.727 14.4596 127.863 14.2569C128.342 14.1217 129.026 13.9866 129.915 13.8515C130.667 13.7163 131.077 13.6488 131.214 13.6488C131.282 13.6488 131.35 13.6488 131.556 13.5812C131.761 13.5136 131.829 13.5136 131.829 13.5812C131.829 13.5812 131.761 13.8515 131.692 14.392C131.556 14.9325 131.556 15.4055 131.556 15.7433C131.556 16.419 131.761 16.7569 132.103 16.7569C132.581 16.7569 132.923 16.2163 133.197 15.2028C133.265 14.5947 133.402 14.0542 133.47 13.4461C133.607 13.5136 133.88 13.5136 134.154 13.5136C134.632 13.5136 134.974 13.4461 135.111 13.3109C135.316 13.1758 135.453 12.8379 135.59 12.2974C135.521 12.0271 135.385 11.892 135.248 11.9596ZM132.103 11.7569L129.436 12.2974C129.778 11.892 130.051 11.4866 130.393 11.1488C130.872 10.6082 131.214 10.2704 131.487 10.0677C131.556 10.1352 131.624 10.1352 131.829 10.2028C131.966 10.2028 132.034 10.2704 132.034 10.4731C132.103 10.6082 132.103 11.0812 132.103 11.7569Z" fill="#283E41"/>
<path d="M142.496 14.5271C141.744 14.4595 140.923 14.3919 139.966 14.3919C140.103 14.3919 139.282 14.5271 137.573 14.7973C138.462 12.6352 138.872 10.5406 138.872 8.58112C138.735 8.44599 138.598 8.37842 138.462 8.37842C138.12 8.37842 137.983 8.51355 137.915 8.85139C137.573 10.8784 137.231 12.5 136.821 13.7163C136.684 14.1892 136.479 14.7298 136.137 15.4054C135.863 16.0136 135.727 16.2838 135.727 16.2838C135.727 16.4865 135.795 16.6892 135.932 16.7568C136 16.8244 136.205 16.8244 136.479 16.8244C137.026 16.8244 137.778 16.6892 138.872 16.4865C139.966 16.2838 140.923 16.1487 141.744 16.1487C142.291 16.1487 142.838 16.2163 143.248 16.2838C143.726 16.3514 143.932 16.419 143.932 16.419C144.137 16.419 144.274 16.2838 144.479 15.946C144.684 15.6757 144.752 15.473 144.752 15.3379C144.752 14.9325 144 14.6622 142.496 14.5271Z" fill="#283E41"/>
<path d="M152 11.1489C152 11.0137 151.932 10.811 151.863 10.6083C151.795 10.4056 151.658 10.2705 151.59 10.2705C151.179 10.2705 150.564 10.4732 149.744 10.9462C148.786 11.5543 148.034 11.8921 147.556 12.0273C147.556 11.8245 147.761 11.3516 148.034 10.6083C148.376 9.86509 148.513 9.32455 148.513 8.91914C148.513 8.85158 148.444 8.71644 148.376 8.58131C148.239 8.44617 148.103 8.31104 147.897 8.31104C147.487 8.31104 147.009 9.05428 146.462 10.5408C146.051 11.6218 145.573 13.0408 145.094 14.73C144.684 16.1489 144.479 16.9597 144.479 17.0948C144.479 17.5002 144.615 17.7029 144.957 17.7029C145.094 17.7029 145.231 17.6354 145.368 17.5678C145.846 16.2164 146.188 15.2029 146.462 14.5948C146.94 14.7975 147.692 15.0002 148.65 15.2029C149.744 15.4732 150.427 15.6083 150.906 15.6083C150.974 15.6083 151.111 15.5408 151.179 15.4056C151.316 15.2029 151.385 15.0002 151.385 14.73C151.385 14.6624 151.316 14.5948 151.111 14.5273C151.043 14.4597 150.906 14.3921 150.769 14.3245L147.556 13.4462C148.376 13.1083 149.197 12.7029 150.085 12.3651C151.385 11.9597 152 11.4867 152 11.1489Z" fill="#283E41"/>
<path d="M25.2305 0.405405C24.8887 -0.135135 24.0681 -0.135135 23.7946 0.405405L19.7605 8.10811C19.4186 8.71622 18.5981 8.71622 18.2562 8.10811L14.1536 0.472973C13.8117 -0.135135 12.9912 -0.135135 12.6493 0.472973L0.0681462 23.7838C-0.205358 24.3243 0.204898 25 0.820283 25H38.0169C38.6322 25 39.0425 24.3243 38.769 23.7838L25.2305 0.405405ZM24.2733 0.743243C24.41 0.540541 24.6835 0.540541 24.7519 0.743243L26.3929 3.71622L25.7775 3.31081L25.0938 3.37838L24.8203 3.58108L24.3416 3.37838L23.7946 3.24324L22.6322 3.91892L24.2733 0.743243ZM12.9912 1.01351C13.128 0.675676 13.6066 0.743243 13.7434 1.01351L16.41 6.01351L14.5639 4.93243L13.675 5.06757L12.9912 5.40541L12.581 5.06757L11.5553 4.93243L10.5981 5.54054L12.9912 1.01351ZM26.7348 9.05405L22.222 21.3514C22.1536 21.5541 22.0169 21.6892 21.8801 21.8243C21.7434 21.9595 21.5382 22.027 21.3331 22.027C21.128 22.027 20.9228 21.9595 20.7861 21.8243C20.6493 21.6892 20.5126 21.5541 20.4442 21.3514L18.9399 17.2973L17.4357 21.3514C17.3673 21.5541 17.2305 21.6892 17.0938 21.8243C16.957 21.9595 16.7519 22.027 16.5468 22.027C16.3416 22.027 16.1365 21.9595 15.9998 21.8243C15.863 21.6892 15.7263 21.5541 15.6579 21.3514L11.0767 9.05405C11.0083 8.98649 11.0767 8.85135 11.0767 8.78378C11.1451 8.71622 11.2134 8.64865 11.2818 8.64865L11.9656 8.51351C12.1023 8.51351 12.3075 8.58108 12.3758 8.71622L16.4784 19.8649L17.9827 15.8108C18.051 15.6081 18.1878 15.473 18.3246 15.3378C18.4613 15.2027 18.6664 15.1351 18.8716 15.1351C19.0767 15.1351 19.2818 15.2027 19.4186 15.3378C19.5553 15.473 19.6921 15.6081 19.7605 15.8108L21.2647 19.8649L25.3673 8.71622C25.4357 8.58108 25.5724 8.44595 25.7775 8.51351L26.4613 8.64865C26.5297 8.64865 26.6664 8.71622 26.6664 8.78378C26.7348 8.85135 26.7348 8.98649 26.7348 9.05405Z" fill="#283E41"/>
<path d="M26.6667 8.78345C26.5983 8.71589 26.5299 8.64832 26.4615 8.64832L26.1197 8.58075C25.7778 8.51318 25.4359 8.71589 25.2992 9.05372L21.6068 18.9186C21.4701 19.2564 21.0598 19.2564 20.9231 18.9186L19.7607 15.8105C19.6923 15.6078 19.5556 15.4726 19.4188 15.3375C19.2821 15.2024 19.0769 15.1348 18.8718 15.1348C18.6667 15.1348 18.4615 15.2024 18.3248 15.3375C18.188 15.4726 18.0513 15.6078 17.9829 15.8105L16.8205 18.9186C16.6838 19.2564 16.2735 19.2564 16.1368 18.9186L12.4445 8.98616C12.3077 8.64832 11.9658 8.51318 11.6239 8.51318L11.2137 8.58075C11.1453 8.58075 11.0086 8.64832 11.0086 8.71589C10.9402 8.78345 10.9402 8.91859 11.0086 8.98616L15.5898 21.2835C15.6581 21.4862 15.7265 21.6213 15.9316 21.7564C16.0684 21.8916 16.2735 21.9591 16.4786 21.9591C16.6838 21.9591 16.8889 21.8916 17.0257 21.7564C17.1624 21.6213 17.2992 21.4862 17.3675 21.2835L18.5299 18.1753C18.6667 17.8375 19.0769 17.8375 19.2137 18.1753L20.3761 21.2835C20.4445 21.4862 20.5812 21.6213 20.718 21.7564C20.8547 21.8916 21.0598 21.9591 21.265 21.9591C21.4701 21.9591 21.6752 21.8916 21.812 21.7564C21.9487 21.6213 22.0855 21.4862 22.1539 21.2835L26.6667 8.98616C26.7351 8.98616 26.7351 8.85102 26.6667 8.78345Z" fill="white"/>
<path d="M12.4445 5.13513L12.9231 5.4054L13.6068 5.06756L14.4957 4.93243L16.4103 6.01351L13.812 0.945939C13.6068 0.675668 13.1282 0.675668 12.9915 1.01351L10.4615 5.6081L11.4188 4.99999L12.4445 5.13513Z" fill="white"/>
<path d="M24.3419 3.3106L24.8205 3.5133L25.094 3.3106L25.7778 3.24303L26.3932 3.64844L24.7522 0.675465C24.6154 0.472762 24.3419 0.472762 24.2735 0.675465L22.6325 3.85114L23.7949 3.17546L24.3419 3.3106Z" fill="white"/>
</g>
<defs>
<clipPath id="clip0">
<rect width="152" height="25" fill="white"/>
</clipPath>
</defs>
</svg>
