<svg width="379" height="262" viewBox="0 0 379 262" fill="none" xmlns="http://www.w3.org/2000/svg">
<path d="M166 211L67 203.2V115H166V211Z" fill="#751547"/>
<path d="M325 203.2L166 211V115H325V203.2Z" fill="#9D1E58"/>
<path d="M128.264 159L34 154.337L67.7316 115H166L128.264 159Z" fill="#9D1E58"/>
<path d="M351 155.652L193.681 159L166 115H325.318L351 155.652Z" fill="#CE207C"/>
<path d="M67 115L232.681 110L325 115H67Z" fill="#560031"/>
<path d="M253 0H136V115H253V0Z" fill="#320618"/>
<path d="M245.614 8.43994H142.953V34.8601H245.614V8.43994Z" fill="#751547"/>
<path d="M213.05 16.5127H148.84V26.7872H213.05V16.5127Z" fill="#9D1E58"/>
<path d="M221.513 26.0533C223.951 26.0533 225.928 24.0819 225.928 21.6499C225.928 19.218 223.951 17.2466 221.513 17.2466C219.074 17.2466 217.097 19.218 217.097 21.6499C217.097 24.0819 219.074 26.0533 221.513 26.0533Z" fill="#CE207C"/>
<path d="M235.311 26.0533C237.75 26.0533 239.727 24.0819 239.727 21.6499C239.727 19.218 237.75 17.2466 235.311 17.2466C232.873 17.2466 230.896 19.218 230.896 21.6499C230.896 24.0819 232.873 26.0533 235.311 26.0533Z" fill="#CE207C"/>
<path d="M245.614 44.0337H142.953V70.4539H245.614V44.0337Z" fill="#751547"/>
<path d="M213.05 52.1064H148.84V62.381H213.05V52.1064Z" fill="#9D1E58"/>
<path d="M221.513 61.6471C223.951 61.6471 225.928 59.6756 225.928 57.2437C225.928 54.8118 223.951 52.8403 221.513 52.8403C219.074 52.8403 217.097 54.8118 217.097 57.2437C217.097 59.6756 219.074 61.6471 221.513 61.6471Z" fill="#CE207C"/>
<path d="M235.311 61.6471C237.75 61.6471 239.727 59.6756 239.727 57.2437C239.727 54.8118 237.75 52.8403 235.311 52.8403C232.873 52.8403 230.896 54.8118 230.896 57.2437C230.896 59.6756 232.873 61.6471 235.311 61.6471Z" fill="#CE207C"/>
<path d="M245.614 79.6274H142.953V106.048H245.614V79.6274Z" fill="#751547"/>
<path d="M213.05 87.7002H148.84V97.9747H213.05V87.7002Z" fill="#9D1E58"/>
<path d="M221.513 97.2408C223.951 97.2408 225.928 95.2694 225.928 92.8374C225.928 90.4055 223.951 88.4341 221.513 88.4341C219.074 88.4341 217.097 90.4055 217.097 92.8374C217.097 95.2694 219.074 97.2408 221.513 97.2408Z" fill="#CE207C"/>
<path d="M235.311 97.2408C237.75 97.2408 239.727 95.2694 239.727 92.8374C239.727 90.4055 237.75 88.4341 235.311 88.4341C232.873 88.4341 230.896 90.4055 230.896 92.8374C230.896 95.2694 232.873 97.2408 235.311 97.2408Z" fill="#CE207C"/>
</svg>
