<svg width="214" height="307" viewBox="0 0 214 307" fill="none" xmlns="http://www.w3.org/2000/svg">
<rect x="0.25" y="0.25" width="213.5" height="306.5" fill="white" fill-opacity="0.07" stroke="black" stroke-width="0.5"/>
<rect y="123" width="214" height="184" fill="black"/>
<path d="M42.9461 22.2944C43.3141 22.136 43.7163 22.0489 44.1356 22.0489C44.5463 22.0489 44.9399 22.128 45.3164 22.2864C45.6929 22.4369 46.0438 22.6587 46.3433 22.9358L48.2857 21.0906C47.7637 20.6154 47.1391 20.2194 46.4459 19.9343C45.7443 19.6492 44.9656 19.4829 44.1527 19.4829C43.3055 19.4829 42.5012 19.6651 41.7738 19.9818C40.6871 20.457 39.7886 21.2411 39.1639 22.1993C38.5393 23.1576 38.1799 24.298 38.1799 25.5176C38.1799 27.1411 38.8131 28.63 39.8742 29.7229C40.4047 30.2694 41.0465 30.7287 41.7738 31.0455C42.5012 31.3623 43.3055 31.5444 44.1527 31.5444C44.9057 31.5444 45.633 31.4019 46.309 31.1326C46.985 30.8633 47.5926 30.4594 48.106 29.9684L46.1037 28.1786C45.8213 28.4479 45.5218 28.6459 45.1966 28.7726C44.8715 28.8993 44.5292 28.9706 44.1527 28.9706C43.7334 28.9706 43.3397 28.8835 42.9632 28.7251C42.407 28.4796 41.9022 28.0598 41.5428 27.5054C41.1834 26.9511 40.9609 26.27 40.9609 25.5255C40.9609 24.5277 41.3545 23.6486 41.945 23.0309C42.2273 22.6983 42.5782 22.4607 42.9461 22.2944Z" fill="#11141B"/>
<path d="M58.1177 19.9657C57.3904 19.6489 56.586 19.4668 55.7388 19.4668C54.8917 19.4668 54.0873 19.6489 53.36 19.9657C52.2733 20.4409 51.3748 21.2249 50.7501 22.1832C50.1254 23.1415 49.7661 24.2819 49.7661 25.5015C49.7661 27.125 50.3993 28.6139 51.4603 29.7068C51.9909 30.2533 52.6327 30.7126 53.36 31.0294C54.0873 31.3462 54.8917 31.5283 55.7388 31.5283V28.9545C55.3196 28.9545 54.9259 28.8673 54.5494 28.7089C53.9932 28.4634 53.4884 28.0437 53.129 27.4893C52.7696 26.935 52.5471 26.2539 52.5471 25.5094C52.5471 24.5116 52.9407 23.6325 53.5311 23.0148C53.8306 22.7059 54.1729 22.4683 54.5409 22.302C54.9088 22.1436 55.311 22.0565 55.7303 22.0565C56.1496 22.0565 56.5432 22.1436 56.9197 22.302C57.4759 22.5475 57.9808 22.9673 58.3402 23.5216C58.4771 23.7354 58.5969 23.973 58.691 24.2185H55.7303V26.7924H61.7031V25.5094C61.7031 23.8859 61.0699 22.397 60.0088 21.3041C59.4783 20.7418 58.8365 20.2825 58.1177 19.9657Z" fill="#11141B"/>
<path d="M34.0126 20.4013C33.7559 20.235 33.4821 20.0924 33.1997 19.9657C32.4723 19.6489 31.668 19.4668 30.8208 19.4668C29.9737 19.4668 29.1693 19.6489 28.442 19.9657C27.3552 20.4409 26.4568 21.2249 25.8321 22.1832C25.216 23.1415 24.8566 24.2819 24.8566 25.4936C24.8566 27.1171 25.4898 28.606 26.5509 29.6989C27.0814 30.2453 27.7232 30.7047 28.4505 31.0215C29.1779 31.3382 29.9823 31.5204 30.8294 31.5204C31.668 31.5204 32.4809 31.3382 33.2082 31.0215C33.4906 30.8947 33.7645 30.7522 34.0212 30.5859V31.1719H36.8022V19.7123H34.0126V20.4013ZM33.0285 27.9883C32.7291 28.2971 32.3868 28.5347 32.0188 28.701C31.6509 28.8594 31.2487 28.9465 30.8294 28.9465C30.4101 28.9465 30.0165 28.8594 29.64 28.701C29.0838 28.4555 28.5789 28.0358 28.2195 27.4814C27.8601 26.927 27.6376 26.246 27.6376 25.5015C27.6376 24.5036 28.0313 23.6246 28.6217 23.0068C28.9212 22.698 29.2635 22.4604 29.6314 22.2941C29.9994 22.1357 30.4015 22.0486 30.8208 22.0486C31.2401 22.0486 31.6338 22.1357 32.0103 22.2941C32.5665 22.5396 33.0713 22.9593 33.4307 23.5137C33.7901 24.0681 34.0126 24.7492 34.0126 25.4936C34.0212 26.4915 33.6275 27.3705 33.0285 27.9883Z" fill="#11141B"/>
<path d="M20.792 15.9823C20.2273 16.4179 19.808 16.9881 19.5341 17.6217C19.2689 18.2631 19.1405 18.968 19.1405 19.7203C19.1405 19.9342 19.1405 20.2193 19.1405 20.544H18.3533V23.1178H19.1491C19.1491 26.6025 19.1491 31.1721 19.1491 31.1721H21.9301C21.9301 31.1721 21.9301 26.6025 21.9301 23.1178H23.3078V20.544H21.9301C21.9301 20.2114 21.9301 19.9342 21.9301 19.7203C21.9301 19.2768 21.9986 18.9205 22.0927 18.6512C22.1697 18.4532 22.2553 18.2948 22.358 18.1681C22.512 17.986 22.6831 17.8592 22.9313 17.7563C23.1794 17.6533 23.5217 17.5821 23.9752 17.5821V15.0161C23.2992 15.0161 22.6489 15.1111 22.0413 15.3171C21.5878 15.4754 21.16 15.6972 20.792 15.9823Z" fill="#11141B"/>
<path d="M67.308 20.5442C67.308 18.8732 67.308 17.4952 67.308 16.8774H64.5269C64.5269 17.4952 64.5269 18.8732 64.5269 20.5442H62.593V23.1181H64.5269C64.5269 27.0066 64.5269 31.1723 64.5269 31.1723H67.308C67.308 31.1723 67.308 27.0066 67.308 23.1181H69.2419V20.5442H67.308Z" fill="#11141B"/>
<rect x="16.6848" y="160.174" width="196.88" height="27.3213" fill="black"/>
<path d="M39.5247 183.867H38.556V178.414H32.056V183.867H31.095V172.492H32.056V177.602H38.556V172.492H39.5247V183.867ZM41.6888 179.516C41.6888 178.703 41.845 177.971 42.1575 177.32C42.4752 176.669 42.9206 176.164 43.4935 175.805C44.0716 175.44 44.7252 175.258 45.4544 175.258C46.5794 175.258 47.4909 175.654 48.1888 176.445C48.8867 177.232 49.2357 178.276 49.2357 179.578V179.773C49.2357 180.591 49.0768 181.328 48.7591 181.984C48.4466 182.635 48.0039 183.138 47.431 183.492C46.8581 183.846 46.2044 184.023 45.47 184.023C44.3502 184.023 43.4388 183.63 42.7357 182.844C42.0377 182.052 41.6888 181.005 41.6888 179.703V179.516ZM42.6263 179.773C42.6263 180.784 42.8867 181.615 43.4075 182.266C43.9336 182.911 44.6211 183.234 45.47 183.234C46.3138 183.234 46.9961 182.911 47.5169 182.266C48.0429 181.615 48.306 180.758 48.306 179.695V179.516C48.306 178.87 48.1862 178.279 47.9466 177.742C47.707 177.206 47.3711 176.792 46.9388 176.5C46.5065 176.203 46.0117 176.055 45.4544 176.055C44.6211 176.055 43.9414 176.383 43.4153 177.039C42.8893 177.69 42.6263 178.544 42.6263 179.602V179.773ZM52.0247 175.414L52.056 176.789C52.3685 176.279 52.7591 175.896 53.2278 175.641C53.6966 175.385 54.2174 175.258 54.7903 175.258C56.1237 175.258 56.97 175.805 57.3294 176.898C57.6315 176.372 58.0351 175.969 58.5403 175.688C59.0456 175.401 59.6028 175.258 60.2122 175.258C62.0247 175.258 62.9492 176.247 62.9857 178.227V183.867H62.0482V178.297C62.0429 177.542 61.8789 176.982 61.556 176.617C61.2383 176.253 60.7174 176.07 59.9935 176.07C59.3216 176.081 58.7539 176.299 58.2903 176.727C57.8268 177.148 57.569 177.664 57.5169 178.273V183.867H56.5794V178.227C56.5742 177.503 56.4023 176.964 56.0638 176.609C55.7304 176.25 55.2148 176.07 54.5169 176.07C53.9284 176.07 53.4232 176.24 53.0013 176.578C52.5794 176.911 52.2669 177.409 52.0638 178.07V183.867H51.1263V175.414H52.0247ZM68.6341 184.023C67.9153 184.023 67.2643 183.846 66.681 183.492C66.1028 183.138 65.6523 182.646 65.3294 182.016C65.0065 181.38 64.845 180.669 64.845 179.883V179.547C64.845 178.734 65.0013 178.003 65.3138 177.352C65.6315 176.701 66.0716 176.19 66.6341 175.82C67.1966 175.445 67.806 175.258 68.4622 175.258C69.4883 175.258 70.3008 175.609 70.8997 176.312C71.5039 177.01 71.806 177.966 71.806 179.18V179.703H65.7747V179.883C65.7747 180.841 66.0482 181.641 66.595 182.281C67.1471 182.917 67.8398 183.234 68.6732 183.234C69.1732 183.234 69.6133 183.143 69.9935 182.961C70.3789 182.779 70.7278 182.487 71.0403 182.086L71.6263 182.531C70.9388 183.526 69.9414 184.023 68.6341 184.023ZM68.4622 176.055C67.7591 176.055 67.1653 176.312 66.681 176.828C66.2018 177.344 65.9101 178.036 65.806 178.906H70.8763V178.805C70.8502 177.992 70.6185 177.331 70.181 176.82C69.7435 176.31 69.1706 176.055 68.4622 176.055Z" fill="white"/>
<rect x="16.6848" y="187.495" width="196.88" height="27.3213" fill="black"/>
<path d="M37.2357 208.001H32.0716L30.8997 211.188H29.8919L34.1966 199.813H35.1107L39.4153 211.188H38.4153L37.2357 208.001ZM32.3685 207.181H36.931L34.6497 200.985L32.3685 207.181ZM47.681 207.048C47.681 208.366 47.3893 209.412 46.806 210.188C46.2226 210.959 45.4388 211.345 44.4544 211.345C43.2773 211.345 42.3867 210.907 41.7825 210.032L41.7435 211.188H40.8685V199.188H41.7982V203.962C42.3919 203.04 43.2721 202.579 44.4388 202.579C45.4388 202.579 46.2278 202.962 46.806 203.728C47.3893 204.488 47.681 205.548 47.681 206.907V207.048ZM46.7435 206.884C46.7435 205.769 46.5273 204.91 46.095 204.306C45.6627 203.696 45.0534 203.392 44.2669 203.392C43.6679 203.392 43.1601 203.54 42.7435 203.837C42.3268 204.129 42.0117 204.558 41.7982 205.126V208.938C42.2669 210.001 43.095 210.532 44.2825 210.532C45.0534 210.532 45.6549 210.228 46.0872 209.618C46.5247 209.009 46.7435 208.097 46.7435 206.884ZM49.2357 206.837C49.2357 206.024 49.3919 205.293 49.7044 204.642C50.0221 203.991 50.4674 203.485 51.0403 203.126C51.6185 202.761 52.2721 202.579 53.0013 202.579C54.1263 202.579 55.0377 202.975 55.7357 203.767C56.4336 204.553 56.7825 205.597 56.7825 206.899V207.095C56.7825 207.912 56.6237 208.649 56.306 209.306C55.9935 209.957 55.5508 210.459 54.9778 210.813C54.4049 211.168 53.7513 211.345 53.0169 211.345C51.8971 211.345 50.9857 210.951 50.2825 210.165C49.5846 209.373 49.2357 208.326 49.2357 207.024V206.837ZM50.1732 207.095C50.1732 208.105 50.4336 208.936 50.9544 209.587C51.4804 210.233 52.1679 210.556 53.0169 210.556C53.8607 210.556 54.5429 210.233 55.0638 209.587C55.5898 208.936 55.8528 208.079 55.8528 207.017V206.837C55.8528 206.191 55.7331 205.6 55.4935 205.063C55.2539 204.527 54.9179 204.113 54.4857 203.821C54.0534 203.524 53.5586 203.376 53.0013 203.376C52.1679 203.376 51.4883 203.704 50.9622 204.36C50.4362 205.011 50.1732 205.866 50.1732 206.923V207.095ZM64.1575 210.118C63.595 210.936 62.6966 211.345 61.4622 211.345C60.5612 211.345 59.8763 211.084 59.4075 210.563C58.9388 210.037 58.6992 209.261 58.6888 208.235V202.735H59.6185V208.118C59.6185 209.728 60.2695 210.532 61.5716 210.532C62.9258 210.532 63.7825 209.972 64.1419 208.853V202.735H65.0794V211.188H64.1732L64.1575 210.118ZM68.97 200.571V202.735H70.72V203.501H68.97V209.134C68.97 209.603 69.0534 209.951 69.22 210.181C69.3919 210.41 69.6758 210.524 70.0716 210.524C70.2278 210.524 70.4804 210.498 70.8294 210.446L70.8685 211.212C70.6237 211.3 70.2903 211.345 69.8685 211.345C69.2278 211.345 68.7617 211.16 68.47 210.79C68.1784 210.415 68.0325 209.866 68.0325 209.142V203.501H66.4778V202.735H68.0325V200.571H68.97Z" fill="white"/>
<rect x="16.6848" y="214.816" width="196.88" height="27.3213" fill="black"/>
<path d="M31.4701 238.51V227.135H34.8295C36.0482 227.135 36.9727 227.387 37.6029 227.893C38.2331 228.393 38.5482 229.132 38.5482 230.111C38.5482 230.7 38.3868 231.213 38.0639 231.65C37.7462 232.083 37.3087 232.393 36.7514 232.58C37.4128 232.726 37.9441 233.051 38.3451 233.557C38.7514 234.062 38.9545 234.645 38.9545 235.307C38.9545 236.312 38.629 237.098 37.9779 237.666C37.3321 238.229 36.4311 238.51 35.2748 238.51H31.4701ZM32.4311 233.041V237.697H35.3139C36.1368 237.697 36.7878 237.489 37.267 237.072C37.7514 236.65 37.9936 236.067 37.9936 235.322C37.9936 234.619 37.7618 234.064 37.2982 233.658C36.8399 233.247 36.2045 233.041 35.392 233.041H32.4311ZM32.4311 232.236H35.0561C35.8581 232.221 36.4779 232.033 36.9154 231.674C37.3581 231.309 37.5795 230.781 37.5795 230.088C37.5795 229.359 37.3503 228.822 36.892 228.479C36.4389 228.13 35.7514 227.955 34.8295 227.955H32.4311V232.236ZM42.1107 238.51H41.1732V226.51H42.1107V238.51ZM44.142 234.158C44.142 233.346 44.2982 232.614 44.6107 231.963C44.9285 231.312 45.3738 230.807 45.9467 230.447C46.5248 230.083 47.1785 229.9 47.9076 229.9C49.0326 229.9 49.9441 230.296 50.642 231.088C51.3399 231.874 51.6889 232.919 51.6889 234.221V234.416C51.6889 235.234 51.53 235.971 51.2123 236.627C50.8998 237.278 50.4571 237.781 49.8842 238.135C49.3113 238.489 48.6576 238.666 47.9232 238.666C46.8035 238.666 45.892 238.273 45.1889 237.486C44.491 236.695 44.142 235.648 44.142 234.346V234.158ZM45.0795 234.416C45.0795 235.426 45.3399 236.257 45.8607 236.908C46.3868 237.554 47.0743 237.877 47.9232 237.877C48.767 237.877 49.4493 237.554 49.9701 236.908C50.4962 236.257 50.7592 235.4 50.7592 234.338V234.158C50.7592 233.512 50.6394 232.921 50.3998 232.385C50.1602 231.848 49.8243 231.434 49.392 231.143C48.9597 230.846 48.4649 230.697 47.9076 230.697C47.0743 230.697 46.3946 231.025 45.8686 231.682C45.3425 232.333 45.0795 233.187 45.0795 234.244V234.416ZM53.2514 234.205C53.2514 232.882 53.543 231.835 54.1264 231.064C54.7149 230.288 55.5118 229.9 56.517 229.9C57.668 229.9 58.543 230.359 59.142 231.275L59.1889 230.057H60.0639V238.338C60.0639 239.426 59.7592 240.288 59.1498 240.924C58.5404 241.559 57.7149 241.877 56.6732 241.877C56.0847 241.877 55.5222 241.744 54.9857 241.479C54.4545 241.218 54.0352 240.869 53.7279 240.432L54.2514 239.869C54.9128 240.682 55.6993 241.088 56.6107 241.088C57.392 241.088 58.0014 240.856 58.4389 240.393C58.8764 239.934 59.1029 239.296 59.1186 238.479V237.416C58.5196 238.249 57.6472 238.666 56.5014 238.666C55.5222 238.666 54.7357 238.275 54.142 237.494C53.5482 236.713 53.2514 235.658 53.2514 234.33V234.205ZM54.1967 234.369C54.1967 235.447 54.4128 236.299 54.8451 236.924C55.2774 237.544 55.8868 237.854 56.6732 237.854C57.8243 237.854 58.6394 237.338 59.1186 236.307V232.377C58.8998 231.835 58.5847 231.424 58.1732 231.143C57.7618 230.856 57.267 230.713 56.6889 230.713C55.9024 230.713 55.2904 231.023 54.8529 231.643C54.4154 232.257 54.1967 233.166 54.1967 234.369Z" fill="white"/>
<rect x="16.6848" y="242.138" width="196.88" height="27.3213" fill="black"/>
<path d="M39.5248 262.284C39.3946 263.482 38.9649 264.399 38.2357 265.034C37.5118 265.67 36.5456 265.987 35.3373 265.987C34.4936 265.987 33.7462 265.776 33.0951 265.354C32.4493 264.933 31.9493 264.336 31.5951 263.565C31.241 262.789 31.0613 261.904 31.0561 260.909V259.433C31.0561 258.422 31.2331 257.526 31.5873 256.745C31.9415 255.964 32.4493 255.362 33.1107 254.94C33.7774 254.513 34.543 254.3 35.4076 254.3C36.6264 254.3 37.5873 254.631 38.2904 255.292C38.9988 255.948 39.4102 256.857 39.5248 258.019H38.5561C38.3165 256.086 37.267 255.12 35.4076 255.12C34.3764 255.12 33.5535 255.506 32.9389 256.276C32.3295 257.047 32.0248 258.112 32.0248 259.472V260.862C32.0248 262.175 32.3217 263.222 32.9154 264.003C33.5144 264.784 34.3217 265.175 35.3373 265.175C36.3425 265.175 37.1003 264.935 37.6107 264.456C38.1212 263.972 38.4363 263.248 38.5561 262.284H39.5248ZM41.1264 261.479C41.1264 260.667 41.2826 259.935 41.5951 259.284C41.9128 258.633 42.3581 258.128 42.9311 257.769C43.5092 257.404 44.1628 257.222 44.892 257.222C46.017 257.222 46.9285 257.618 47.6264 258.409C48.3243 259.196 48.6732 260.24 48.6732 261.542V261.737C48.6732 262.555 48.5144 263.292 48.1967 263.948C47.8842 264.599 47.4415 265.102 46.8686 265.456C46.2956 265.81 45.642 265.987 44.9076 265.987C43.7878 265.987 42.8764 265.594 42.1732 264.808C41.4753 264.016 41.1264 262.969 41.1264 261.667V261.479ZM42.0639 261.737C42.0639 262.748 42.3243 263.578 42.8451 264.229C43.3712 264.875 44.0587 265.198 44.9076 265.198C45.7514 265.198 46.4337 264.875 46.9545 264.229C47.4805 263.578 47.7436 262.722 47.7436 261.659V261.479C47.7436 260.834 47.6238 260.243 47.3842 259.706C47.1446 259.17 46.8087 258.756 46.3764 258.464C45.9441 258.167 45.4493 258.019 44.892 258.019C44.0587 258.019 43.379 258.347 42.8529 259.003C42.3269 259.654 42.0639 260.508 42.0639 261.565V261.737ZM51.5014 257.378L51.5326 258.823C51.8503 258.302 52.2462 257.907 52.7201 257.636C53.1941 257.36 53.7175 257.222 54.2904 257.222C55.1967 257.222 55.8712 257.477 56.3139 257.987C56.7566 258.498 56.9805 259.263 56.9857 260.284V265.831H56.0561V260.276C56.0509 259.521 55.8894 258.959 55.5717 258.589C55.2592 258.219 54.7566 258.034 54.0639 258.034C53.4857 258.034 52.9727 258.216 52.5248 258.581C52.0821 258.94 51.754 259.427 51.5404 260.042V265.831H50.6107V257.378H51.5014ZM60.8607 255.214V257.378H62.6107V258.144H60.8607V263.776C60.8607 264.245 60.9441 264.594 61.1107 264.823C61.2826 265.052 61.5665 265.167 61.9623 265.167C62.1186 265.167 62.3712 265.141 62.7201 265.089L62.7592 265.854C62.5144 265.943 62.1811 265.987 61.7592 265.987C61.1186 265.987 60.6524 265.802 60.3607 265.433C60.0691 265.058 59.9232 264.508 59.9232 263.784V258.144H58.3686V257.378H59.9232V255.214H60.8607ZM69.8842 265.831C69.7904 265.565 69.7305 265.172 69.7045 264.651C69.3764 265.078 68.9571 265.409 68.4467 265.644C67.9415 265.873 67.405 265.987 66.8373 265.987C66.0248 265.987 65.366 265.761 64.8607 265.308C64.3607 264.854 64.1107 264.282 64.1107 263.589C64.1107 262.766 64.4519 262.115 65.1342 261.636C65.8217 261.157 66.7774 260.917 68.0014 260.917H69.6967V259.956C69.6967 259.352 69.5092 258.878 69.1342 258.534C68.7644 258.185 68.2227 258.011 67.5092 258.011C66.8581 258.011 66.3191 258.177 65.892 258.511C65.4649 258.844 65.2514 259.245 65.2514 259.714L64.3139 259.706C64.3139 259.034 64.6264 258.453 65.2514 257.964C65.8764 257.469 66.6446 257.222 67.5561 257.222C68.4988 257.222 69.241 257.459 69.7826 257.933C70.3295 258.401 70.6107 259.058 70.6264 259.901V263.901C70.6264 264.719 70.7123 265.331 70.8842 265.737V265.831H69.8842ZM66.9467 265.159C67.5717 265.159 68.129 265.008 68.6186 264.706C69.1134 264.404 69.4727 264 69.6967 263.495V261.636H68.0248C67.0925 261.646 66.3634 261.818 65.8373 262.151C65.3113 262.479 65.0482 262.933 65.0482 263.511C65.0482 263.985 65.2227 264.378 65.5717 264.69C65.9259 265.003 66.3842 265.159 66.9467 265.159ZM76.2514 265.198C76.9024 265.198 77.4467 265.016 77.8842 264.651C78.3269 264.282 78.5665 263.805 78.6029 263.222H79.5014C79.4753 263.737 79.3139 264.209 79.017 264.636C78.7201 265.058 78.3243 265.388 77.8295 265.628C77.3399 265.868 76.8139 265.987 76.2514 265.987C75.142 265.987 74.2618 265.602 73.6107 264.831C72.9649 264.06 72.642 263.024 72.642 261.722V261.44C72.642 260.607 72.7878 259.87 73.0795 259.229C73.3712 258.589 73.7878 258.094 74.3295 257.745C74.8764 257.396 75.5144 257.222 76.2436 257.222C77.1706 257.222 77.9337 257.498 78.5326 258.05C79.1368 258.602 79.4597 259.328 79.5014 260.229H78.6029C78.5613 259.568 78.3217 259.034 77.8842 258.628C77.4519 258.222 76.905 258.019 76.2436 258.019C75.3998 258.019 74.7436 258.323 74.2748 258.933C73.8113 259.542 73.5795 260.396 73.5795 261.495V261.769C73.5795 262.847 73.8113 263.688 74.2748 264.292C74.7436 264.896 75.4024 265.198 76.2514 265.198ZM82.8295 255.214V257.378H84.5795V258.144H82.8295V263.776C82.8295 264.245 82.9128 264.594 83.0795 264.823C83.2514 265.052 83.5352 265.167 83.9311 265.167C84.0873 265.167 84.3399 265.141 84.6889 265.089L84.7279 265.854C84.4831 265.943 84.1498 265.987 83.7279 265.987C83.0873 265.987 82.6212 265.802 82.3295 265.433C82.0378 265.058 81.892 264.508 81.892 263.784V258.144H80.3373V257.378H81.892V255.214H82.8295Z" fill="white"/>
<rect x="2.5" y="125.5" width="209" height="33" fill="black" stroke="white"/>
<circle cx="202.72" cy="135.981" r="1.66848" fill="white"/>
<circle cx="202.72" cy="141.821" r="1.66848" fill="white"/>
<circle cx="202.72" cy="147.66" r="1.66848" fill="white"/>
<path d="M20.7768 136.625L24.4956 145.906L28.2143 136.625H30.1596V148H28.6596V143.57L28.8003 138.789L25.0659 148H23.9174L20.1909 138.812L20.3393 143.57V148H18.8393V136.625H20.7768ZM36.0893 148.156C34.9435 148.156 34.0112 147.781 33.2924 147.031C32.5737 146.276 32.2143 145.268 32.2143 144.008V143.742C32.2143 142.904 32.3732 142.156 32.6909 141.5C33.0138 140.839 33.4617 140.323 34.0346 139.953C34.6128 139.578 35.2378 139.391 35.9096 139.391C37.0086 139.391 37.8628 139.753 38.4721 140.477C39.0815 141.201 39.3862 142.237 39.3862 143.586V144.188H33.6596C33.6805 145.021 33.9227 145.695 34.3862 146.211C34.8549 146.721 35.4487 146.977 36.1674 146.977C36.6779 146.977 37.1102 146.872 37.4643 146.664C37.8185 146.456 38.1284 146.18 38.394 145.836L39.2768 146.523C38.5685 147.612 37.506 148.156 36.0893 148.156ZM35.9096 140.578C35.3263 140.578 34.8367 140.792 34.4409 141.219C34.0451 141.641 33.8003 142.234 33.7065 143H37.9409V142.891C37.8992 142.156 37.7013 141.589 37.3471 141.188C36.993 140.781 36.5138 140.578 35.9096 140.578ZM42.4331 139.547L42.4799 140.609C43.1258 139.797 43.9695 139.391 45.0112 139.391C46.7977 139.391 47.6987 140.398 47.7143 142.414V148H46.269V142.406C46.2638 141.797 46.1232 141.346 45.8471 141.055C45.5763 140.763 45.1518 140.617 44.5737 140.617C44.1049 140.617 43.6935 140.742 43.3393 140.992C42.9852 141.242 42.7091 141.57 42.5112 141.977V148H41.0659V139.547H42.4331ZM55.1128 147.164C54.5503 147.826 53.7247 148.156 52.6362 148.156C51.7352 148.156 51.0477 147.896 50.5737 147.375C50.1049 146.849 49.868 146.073 49.8628 145.047V139.547H51.3081V145.008C51.3081 146.289 51.8289 146.93 52.8706 146.93C53.9747 146.93 54.7091 146.518 55.0737 145.695V139.547H56.519V148H55.144L55.1128 147.164Z" fill="white"/>
<path d="M9.17662 140.986L12.5136 140.986L10.8451 143.489L9.17662 140.986Z" fill="white"/>
<rect width="16.6848" height="16.6848" transform="translate(149.329 133.478)" fill="#DADADA"/>
<path d="M164.533 141.473C164.088 140.701 161.641 136.829 157.483 136.954C153.639 137.051 151.414 140.43 150.81 141.473C150.749 141.579 150.716 141.699 150.716 141.821C150.716 141.943 150.749 142.062 150.81 142.168C151.248 142.926 153.59 146.687 157.685 146.687H157.859C161.703 146.59 163.935 143.211 164.533 142.168C164.594 142.062 164.626 141.943 164.626 141.821C164.626 141.699 164.594 141.579 164.533 141.473ZM157.824 145.297C154.828 145.366 152.874 142.801 152.263 141.821C152.958 140.701 154.772 138.414 157.553 138.345C160.535 138.268 162.496 140.84 163.115 141.821C162.399 142.94 160.605 145.227 157.824 145.297Z" fill="black"/>
<path d="M157.671 139.387C157.19 139.387 156.72 139.53 156.319 139.797C155.919 140.065 155.607 140.445 155.423 140.889C155.239 141.334 155.191 141.823 155.285 142.295C155.379 142.767 155.61 143.201 155.951 143.541C156.291 143.881 156.725 144.113 157.197 144.207C157.669 144.301 158.158 144.253 158.602 144.068C159.047 143.884 159.427 143.572 159.694 143.172C159.962 142.772 160.104 142.302 160.104 141.82C160.104 141.175 159.848 140.556 159.392 140.1C158.935 139.644 158.317 139.387 157.671 139.387ZM157.671 142.863C157.465 142.863 157.263 142.802 157.092 142.687C156.92 142.573 156.787 142.41 156.708 142.219C156.629 142.029 156.608 141.819 156.648 141.617C156.689 141.415 156.788 141.229 156.934 141.083C157.08 140.937 157.265 140.838 157.468 140.798C157.67 140.757 157.88 140.778 158.07 140.857C158.261 140.936 158.424 141.07 158.538 141.241C158.653 141.413 158.714 141.614 158.714 141.82C158.714 142.097 158.604 142.362 158.409 142.558C158.213 142.753 157.948 142.863 157.671 142.863Z" fill="black"/>
<path d="M176.796 135.765C176.731 135.7 176.654 135.649 176.57 135.614C176.485 135.579 176.394 135.561 176.303 135.561C176.211 135.561 176.12 135.579 176.035 135.614C175.951 135.649 175.874 135.7 175.809 135.765C175.678 135.896 175.604 136.073 175.604 136.259C175.604 136.444 175.678 136.621 175.809 136.752L179.723 140.666C179.475 141.127 179.383 141.655 179.459 142.172C179.535 142.69 179.776 143.169 180.146 143.539C180.515 143.909 180.994 144.149 181.512 144.226C182.029 144.302 182.558 144.209 183.018 143.961L186.932 147.875C186.997 147.941 187.074 147.992 187.158 148.028C187.243 148.063 187.334 148.081 187.426 148.081C187.517 148.081 187.608 148.063 187.693 148.028C187.778 147.992 187.855 147.941 187.919 147.875C187.984 147.811 188.036 147.734 188.071 147.649C188.107 147.564 188.125 147.474 188.125 147.382C188.125 147.29 188.107 147.199 188.071 147.114C188.036 147.03 187.984 146.953 187.919 146.888L176.796 135.765ZM181.864 142.863C181.588 142.863 181.322 142.753 181.127 142.558C180.931 142.362 180.821 142.097 180.821 141.82V141.772L181.906 142.856L181.864 142.863Z" fill="white"/>
<path d="M182.017 145.296C179.028 145.366 177.067 142.801 176.455 141.82C176.891 141.126 177.414 140.49 178.013 139.929L176.998 138.949C176.213 139.689 175.541 140.539 175.003 141.473C174.942 141.578 174.909 141.698 174.909 141.82C174.909 141.942 174.942 142.062 175.003 142.168C175.44 142.926 177.783 146.687 181.878 146.687H182.052C182.822 146.664 183.582 146.506 184.297 146.221L183.199 145.123C182.813 145.224 182.416 145.282 182.017 145.296Z" fill="white"/>
<path d="M188.726 141.473C188.281 140.701 185.827 136.829 181.676 136.954C180.906 136.977 180.146 137.135 179.431 137.42L180.529 138.518C180.916 138.417 181.312 138.358 181.711 138.345C184.694 138.268 186.654 140.84 187.273 141.821C186.827 142.517 186.291 143.153 185.681 143.711L186.731 144.692C187.525 143.954 188.207 143.104 188.754 142.168C188.81 142.06 188.838 141.939 188.833 141.817C188.828 141.695 188.791 141.576 188.726 141.473Z" fill="white"/>
<path d="M194.638 93.8721L189.769 89.0033C189.202 88.436 188.434 88.1169 187.632 88.1162H180.404C179.602 88.1162 178.833 88.4348 178.266 89.002C177.699 89.5691 177.38 90.3383 177.38 91.1403V103.237C177.38 104.039 177.699 104.808 178.266 105.375C178.833 105.942 179.602 106.261 180.404 106.261H192.501C193.303 106.261 194.072 105.942 194.639 105.375C195.206 104.808 195.525 104.039 195.525 103.237V96.0092C195.524 95.2074 195.205 94.4387 194.638 93.8721ZM184.436 104.245V102.229H188.469V104.245H184.436ZM193.509 103.237C193.509 103.504 193.403 103.761 193.213 103.95C193.024 104.139 192.768 104.245 192.501 104.245H190.485V101.221C190.485 100.953 190.378 100.697 190.189 100.508C190 100.319 189.744 100.213 189.477 100.213H183.428C183.161 100.213 182.905 100.319 182.716 100.508C182.526 100.697 182.42 100.953 182.42 101.221V104.245H180.404C180.137 104.245 179.88 104.139 179.691 103.95C179.502 103.761 179.396 103.504 179.396 103.237V91.1403C179.396 90.873 179.502 90.6166 179.691 90.4275C179.88 90.2385 180.137 90.1323 180.404 90.1323H182.42V95.1725C182.42 95.4398 182.526 95.6962 182.716 95.8853C182.905 96.0743 183.161 96.1805 183.428 96.1805H187.46C187.728 96.1805 187.984 96.0743 188.173 95.8853C188.362 95.6962 188.469 95.4398 188.469 95.1725C188.469 94.9051 188.362 94.6487 188.173 94.4597C187.984 94.2706 187.728 94.1644 187.46 94.1644H184.436V90.1323H187.632C187.899 90.136 188.154 90.2404 188.348 90.4246L193.216 95.2934C193.31 95.3876 193.384 95.4993 193.434 95.6222C193.484 95.745 193.509 95.8765 193.509 96.0092V103.237Z" fill="#11141B"/>
<path d="M182.698 18.3535C182.92 18.3535 183.132 18.2656 183.288 18.1092C183.445 17.9527 183.533 17.7406 183.533 17.5193C183.533 17.298 183.445 17.0859 183.288 16.9294C183.132 16.773 182.92 16.6851 182.698 16.6851H181.03C180.809 16.6851 180.596 16.773 180.44 16.9294C180.284 17.0859 180.196 17.298 180.196 17.5193V29.1986C180.196 29.4199 180.284 29.6321 180.44 29.7885C180.596 29.945 180.809 30.0329 181.03 30.0329H182.698C182.92 30.0329 183.132 29.945 183.288 29.7885C183.445 29.6321 183.533 29.4199 183.533 29.1986C183.533 28.9774 183.445 28.7652 183.288 28.6087C183.132 28.4523 182.92 28.3644 182.698 28.3644H181.864V18.3535H182.698Z" fill="#11141B"/>
<path d="M194.228 22.875L191.875 19.5381C191.747 19.3582 191.554 19.2362 191.336 19.1987C191.119 19.1612 190.896 19.2112 190.715 19.3379C190.625 19.4011 190.548 19.4816 190.489 19.5746C190.43 19.6677 190.39 19.7715 190.372 19.8801C190.353 19.9887 190.356 20.0999 190.381 20.2073C190.406 20.3147 190.451 20.4161 190.515 20.5058L191.95 22.5247H185.201C184.98 22.5247 184.768 22.6126 184.611 22.769C184.455 22.9255 184.367 23.1376 184.367 23.3589C184.367 23.5802 184.455 23.7923 184.611 23.9488C184.768 24.1052 184.98 24.1931 185.201 24.1931H191.875L190.373 26.1953C190.308 26.283 190.26 26.3827 190.233 26.4888C190.205 26.5949 190.199 26.7054 190.215 26.8138C190.23 26.9223 190.267 27.0266 190.323 27.1209C190.379 27.2152 190.453 27.2975 190.54 27.3632C190.685 27.4715 190.86 27.5301 191.041 27.5301C191.17 27.5301 191.298 27.4999 191.414 27.442C191.53 27.3841 191.63 27.3 191.708 27.1964L194.211 23.8594C194.318 23.7183 194.377 23.5469 194.38 23.37C194.383 23.193 194.33 23.0197 194.228 22.875Z" fill="#11141B"/>
<path d="M98.2086 90.5575H98.9962V104.382C98.9962 105.716 100.089 106.883 101.517 106.883H109.909C111.497 106.883 112.833 105.558 112.833 103.982V90.5575H113.621H113.721V90.4575V89.4371H113.878V89.3371V89.2371H113.621H113.521H108.799V87.4165V87.3165H108.699H103.212H103.112V87.4165V89.2371H98.2086H98.1086V89.3371V90.4575V90.5575H98.2086ZM111.504 103.982V104.082H111.582C111.533 104.936 110.87 105.562 109.99 105.562H101.517C100.845 105.562 100.326 105.046 100.326 104.382V90.5575H111.504V103.982ZM104.118 88.3168H107.792V89.2371H104.118V88.3168Z" fill="#11141B" stroke="#11141B" stroke-width="0.2"/>
<path d="M103.392 92.6182V92.5182H103.292H102.082H101.982V92.6182V103.502V103.602H102.082H103.292H103.392V103.502V92.6182Z" fill="#11141B" stroke="#11141B" stroke-width="0.2"/>
<path d="M106.62 92.6182V92.5182H106.52H105.31H105.21V92.6182V103.502V103.602H105.31H106.52H106.62V103.502V92.6182Z" fill="#11141B" stroke="#11141B" stroke-width="0.2"/>
<path d="M109.848 92.6182V92.5182H109.748H108.537H108.437V92.6182V103.502V103.602H108.537H109.748H109.848V103.502V92.6182Z" fill="#11141B" stroke="#11141B" stroke-width="0.2"/>
<g clip-path="url(#clip0)">
<path d="M29.9364 87.5952H23.0378V89.6739L24.8026 91.7525L31.7011 91.9124V88.8744L29.9364 87.5952Z" fill="#11141B"/>
<path d="M25.6047 95.9102H24.1609L21.9148 97.669L24.3213 99.9076H26.7277H29.7759V97.669L25.6047 95.9102Z" fill="#11141B"/>
<path d="M23.6796 100.387L21.2731 98.1484L19.1875 99.7474V106.783H19.9897L23.6796 102.626V100.387Z" fill="#11141B"/>
<path d="M23.1983 95.7495L19.1875 93.6709V98.6277L23.1983 95.7495Z" fill="#11141B"/>
<path d="M20.1501 87.5952H19.1875V92.8718L23.6796 95.1103V91.9124L20.1501 87.5952Z" fill="#11141B"/>
</g>
<rect x="16.8348" y="44.3648" width="182.398" height="21.3902" rx="3.85" fill="white" stroke="black" stroke-width="0.3"/>
<path d="M22.3347 52.6479L23.8631 53.2656V53.7441L21.866 52.8188V52.4624L23.8631 51.5396V52.0181L22.3347 52.6479ZM26.114 53.5195C26.114 53.3975 26.0677 53.3031 25.9749 53.2363C25.8837 53.168 25.7234 53.1094 25.4939 53.0605C25.2661 53.0117 25.0846 52.9531 24.9495 52.8848C24.816 52.8164 24.7167 52.735 24.6516 52.6406C24.5882 52.5462 24.5564 52.4339 24.5564 52.3037C24.5564 52.0872 24.6476 51.9041 24.8299 51.7544C25.0138 51.6047 25.2482 51.5298 25.533 51.5298C25.8325 51.5298 26.075 51.6071 26.2605 51.7617C26.4477 51.9163 26.5413 52.1141 26.5413 52.355H26.0872C26.0872 52.2313 26.0343 52.1247 25.9285 52.0352C25.8243 51.9456 25.6925 51.9009 25.533 51.9009C25.3686 51.9009 25.24 51.9367 25.1472 52.0083C25.0545 52.0799 25.0081 52.1735 25.0081 52.2891C25.0081 52.3981 25.0512 52.4803 25.1375 52.5356C25.2237 52.591 25.3792 52.6439 25.6038 52.6943C25.83 52.7448 26.0131 52.805 26.1531 52.875C26.2931 52.945 26.3964 53.0296 26.4632 53.1289C26.5315 53.2266 26.5657 53.3462 26.5657 53.4878C26.5657 53.7238 26.4713 53.9134 26.2825 54.0566C26.0937 54.1982 25.8487 54.269 25.5476 54.269C25.336 54.269 25.1489 54.2316 24.9861 54.1567C24.8234 54.0819 24.6956 53.9777 24.6028 53.8442C24.5117 53.7091 24.4661 53.5635 24.4661 53.4072H24.9178C24.9259 53.5586 24.9861 53.679 25.0984 53.7686C25.2124 53.8564 25.3621 53.9004 25.5476 53.9004C25.7185 53.9004 25.8553 53.8662 25.9578 53.7979C26.062 53.7279 26.114 53.6351 26.114 53.5195ZM28.2137 53.9004C28.3748 53.9004 28.5156 53.8516 28.636 53.7539C28.7565 53.6562 28.8232 53.5342 28.8362 53.3877H29.2635C29.2553 53.5391 29.2032 53.6831 29.1072 53.8198C29.0112 53.9565 28.8826 54.0656 28.7215 54.147C28.562 54.2284 28.3927 54.269 28.2137 54.269C27.854 54.269 27.5675 54.1494 27.3543 53.9102C27.1427 53.6693 27.0369 53.3405 27.0369 52.9238V52.8481C27.0369 52.591 27.0841 52.3623 27.1785 52.1621C27.2729 51.9619 27.408 51.8065 27.5838 51.6958C27.7612 51.5851 27.9703 51.5298 28.2112 51.5298C28.5074 51.5298 28.7532 51.6185 28.9485 51.7959C29.1455 51.9733 29.2504 52.2036 29.2635 52.4868H28.8362C28.8232 52.3159 28.7581 52.1759 28.6409 52.0669C28.5253 51.9562 28.3821 51.9009 28.2112 51.9009C27.9817 51.9009 27.8035 51.9839 27.6765 52.1499C27.5512 52.3143 27.4886 52.5527 27.4886 52.8652V52.9507C27.4886 53.255 27.5512 53.4894 27.6765 53.6538C27.8019 53.8182 27.9809 53.9004 28.2137 53.9004ZM31.0481 51.9839C30.9798 51.9725 30.9057 51.9668 30.826 51.9668C30.5297 51.9668 30.3287 52.0929 30.2229 52.3452V54.2202H29.7713V51.5786H30.2107L30.218 51.8838C30.3662 51.6478 30.5761 51.5298 30.8479 51.5298C30.9358 51.5298 31.0026 51.5412 31.0481 51.564V51.9839ZM31.9563 54.2202H31.5047V51.5786H31.9563V54.2202ZM31.468 50.8779C31.468 50.8047 31.49 50.7428 31.534 50.6924C31.5795 50.6419 31.6463 50.6167 31.7342 50.6167C31.8221 50.6167 31.8888 50.6419 31.9344 50.6924C31.9799 50.7428 32.0027 50.8047 32.0027 50.8779C32.0027 50.9512 31.9799 51.0122 31.9344 51.061C31.8888 51.1099 31.8221 51.1343 31.7342 51.1343C31.6463 51.1343 31.5795 51.1099 31.534 51.061C31.49 51.0122 31.468 50.9512 31.468 50.8779ZM34.9129 52.9287C34.9129 53.3307 34.8209 53.6546 34.637 53.9004C34.4531 54.1462 34.2041 54.269 33.8899 54.269C33.5693 54.269 33.317 54.1673 33.1331 53.9639V55.2358H32.6814V51.5786H33.094L33.116 51.8716C33.2999 51.6437 33.5555 51.5298 33.8826 51.5298C34.2 51.5298 34.4506 51.6494 34.6346 51.8887C34.8201 52.1279 34.9129 52.4608 34.9129 52.8872V52.9287ZM34.4612 52.8774C34.4612 52.5796 34.3977 52.3444 34.2708 52.1719C34.1438 51.9993 33.9697 51.9131 33.7483 51.9131C33.4749 51.9131 33.2698 52.0343 33.1331 52.2769V53.5391C33.2682 53.7799 33.4749 53.9004 33.7532 53.9004C33.9697 53.9004 34.1414 53.8149 34.2683 53.644C34.3969 53.4715 34.4612 53.216 34.4612 52.8774ZM36.1018 50.939V51.5786H36.595V51.9277H36.1018V53.5659C36.1018 53.6717 36.1238 53.7515 36.1678 53.8052C36.2117 53.8573 36.2866 53.8833 36.3924 53.8833C36.4444 53.8833 36.5161 53.8735 36.6072 53.854V54.2202C36.4884 54.2528 36.3728 54.269 36.2605 54.269C36.0587 54.269 35.9065 54.208 35.804 54.0859C35.7014 53.9639 35.6502 53.7905 35.6502 53.5659V51.9277H35.1692V51.5786H35.6502V50.939H36.1018ZM39.9031 53.5195C39.9031 53.3975 39.8567 53.3031 39.7639 53.2363C39.6728 53.168 39.5125 53.1094 39.283 53.0605C39.0551 53.0117 38.8736 52.9531 38.7386 52.8848C38.6051 52.8164 38.5058 52.735 38.4407 52.6406C38.3772 52.5462 38.3455 52.4339 38.3455 52.3037C38.3455 52.0872 38.4366 51.9041 38.6189 51.7544C38.8028 51.6047 39.0372 51.5298 39.3221 51.5298C39.6215 51.5298 39.864 51.6071 40.0496 51.7617C40.2368 51.9163 40.3304 52.1141 40.3304 52.355H39.8763C39.8763 52.2313 39.8234 52.1247 39.7176 52.0352C39.6134 51.9456 39.4816 51.9009 39.3221 51.9009C39.1577 51.9009 39.0291 51.9367 38.9363 52.0083C38.8435 52.0799 38.7971 52.1735 38.7971 52.2891C38.7971 52.3981 38.8403 52.4803 38.9265 52.5356C39.0128 52.591 39.1682 52.6439 39.3929 52.6943C39.6191 52.7448 39.8022 52.805 39.9422 52.875C40.0821 52.945 40.1855 53.0296 40.2522 53.1289C40.3206 53.2266 40.3548 53.3462 40.3548 53.4878C40.3548 53.7238 40.2604 53.9134 40.0716 54.0566C39.8828 54.1982 39.6378 54.269 39.3367 54.269C39.1251 54.269 38.9379 54.2316 38.7752 54.1567C38.6124 54.0819 38.4846 53.9777 38.3919 53.8442C38.3007 53.7091 38.2552 53.5635 38.2552 53.4072H38.7068C38.715 53.5586 38.7752 53.679 38.8875 53.7686C39.0014 53.8564 39.1512 53.9004 39.3367 53.9004C39.5076 53.9004 39.6443 53.8662 39.7469 53.7979C39.851 53.7279 39.9031 53.6351 39.9031 53.5195ZM42.22 51.9839C42.1516 51.9725 42.0776 51.9668 41.9978 51.9668C41.7016 51.9668 41.5006 52.0929 41.3948 52.3452V54.2202H40.9431V51.5786H41.3826L41.3899 51.8838C41.538 51.6478 41.748 51.5298 42.0198 51.5298C42.1077 51.5298 42.1744 51.5412 42.22 51.564V51.9839ZM43.6482 53.9004C43.8094 53.9004 43.9501 53.8516 44.0706 53.7539C44.191 53.6562 44.2578 53.5342 44.2708 53.3877H44.698C44.6899 53.5391 44.6378 53.6831 44.5418 53.8198C44.4457 53.9565 44.3172 54.0656 44.156 54.147C43.9965 54.2284 43.8273 54.269 43.6482 54.269C43.2885 54.269 43.0021 54.1494 42.7888 53.9102C42.5773 53.6693 42.4715 53.3405 42.4715 52.9238V52.8481C42.4715 52.591 42.5187 52.3623 42.6131 52.1621C42.7075 51.9619 42.8426 51.8065 43.0183 51.6958C43.1957 51.5851 43.4049 51.5298 43.6458 51.5298C43.942 51.5298 44.1878 51.6185 44.3831 51.7959C44.58 51.9733 44.685 52.2036 44.698 52.4868H44.2708C44.2578 52.3159 44.1927 52.1759 44.0755 52.0669C43.9599 51.9562 43.8167 51.9009 43.6458 51.9009C43.4163 51.9009 43.2381 51.9839 43.1111 52.1499C42.9858 52.3143 42.9231 52.5527 42.9231 52.8652V52.9507C42.9231 53.255 42.9858 53.4894 43.1111 53.6538C43.2364 53.8182 43.4155 53.9004 43.6482 53.9004ZM47.2713 52.2329H45.2351V51.8398H47.2713V52.2329ZM47.2713 53.2461H45.2351V52.8555H47.2713V53.2461ZM48.2845 50.8022L48.2112 51.6763H47.9402L47.9427 50.4702H48.2845V50.8022ZM48.9436 50.8022L48.8704 51.6763H48.5994L48.6018 50.4702H48.9436V50.8022ZM50.0032 51.8984C50.2034 51.6527 50.4638 51.5298 50.7845 51.5298C51.3427 51.5298 51.6243 51.8447 51.6292 52.4746V54.2202H51.1775V52.4722C51.1759 52.2817 51.1319 52.141 51.0457 52.0498C50.961 51.9587 50.8284 51.9131 50.6477 51.9131C50.5013 51.9131 50.3727 51.9521 50.262 52.0303C50.1513 52.1084 50.0651 52.2109 50.0032 52.3379V54.2202H49.5515V50.4702H50.0032V51.8984ZM52.9182 50.939V51.5786H53.4114V51.9277H52.9182V53.5659C52.9182 53.6717 52.9402 53.7515 52.9842 53.8052C53.0281 53.8573 53.103 53.8833 53.2088 53.8833C53.2609 53.8833 53.3325 53.8735 53.4236 53.854V54.2202C53.3048 54.2528 53.1892 54.269 53.0769 54.269C52.8751 54.269 52.7229 54.208 52.6204 54.0859C52.5179 53.9639 52.4666 53.7905 52.4666 53.5659V51.9277H51.9856V51.5786H52.4666V50.939H52.9182ZM54.554 50.939V51.5786H55.0471V51.9277H54.554V53.5659C54.554 53.6717 54.576 53.7515 54.6199 53.8052C54.6638 53.8573 54.7387 53.8833 54.8445 53.8833C54.8966 53.8833 54.9682 53.8735 55.0594 53.854V54.2202C54.9405 54.2528 54.825 54.269 54.7127 54.269C54.5109 54.269 54.3587 54.208 54.2561 54.0859C54.1536 53.9639 54.1023 53.7905 54.1023 53.5659V51.9277H53.6214V51.5786H54.1023V50.939H54.554ZM57.8084 52.9287C57.8084 53.3307 57.7164 53.6546 57.5325 53.9004C57.3486 54.1462 57.0996 54.269 56.7854 54.269C56.4648 54.269 56.2125 54.1673 56.0286 53.9639V55.2358H55.5769V51.5786H55.9895L56.0115 51.8716C56.1954 51.6437 56.451 51.5298 56.7781 51.5298C57.0955 51.5298 57.3461 51.6494 57.5301 51.8887C57.7156 52.1279 57.8084 52.4608 57.8084 52.8872V52.9287ZM57.3567 52.8774C57.3567 52.5796 57.2932 52.3444 57.1663 52.1719C57.0393 51.9993 56.8652 51.9131 56.6438 51.9131C56.3704 51.9131 56.1653 52.0343 56.0286 52.2769V53.5391C56.1637 53.7799 56.3704 53.9004 56.6487 53.9004C56.8652 53.9004 57.0369 53.8149 57.1638 53.644C57.2924 53.4715 57.3567 53.216 57.3567 52.8774ZM59.9226 53.5195C59.9226 53.3975 59.8763 53.3031 59.7835 53.2363C59.6923 53.168 59.532 53.1094 59.3025 53.0605C59.0747 53.0117 58.8932 52.9531 58.7581 52.8848C58.6246 52.8164 58.5253 52.735 58.4602 52.6406C58.3968 52.5462 58.365 52.4339 58.365 52.3037C58.365 52.0872 58.4562 51.9041 58.6385 51.7544C58.8224 51.6047 59.0568 51.5298 59.3416 51.5298C59.6411 51.5298 59.8836 51.6071 60.0691 51.7617C60.2563 51.9163 60.3499 52.1141 60.3499 52.355H59.8958C59.8958 52.2313 59.8429 52.1247 59.7371 52.0352C59.6329 51.9456 59.5011 51.9009 59.3416 51.9009C59.1772 51.9009 59.0486 51.9367 58.9558 52.0083C58.8631 52.0799 58.8167 52.1735 58.8167 52.2891C58.8167 52.3981 58.8598 52.4803 58.9461 52.5356C59.0323 52.591 59.1878 52.6439 59.4124 52.6943C59.6386 52.7448 59.8217 52.805 59.9617 52.875C60.1017 52.945 60.205 53.0296 60.2718 53.1289C60.3401 53.2266 60.3743 53.3462 60.3743 53.4878C60.3743 53.7238 60.2799 53.9134 60.0911 54.0566C59.9023 54.1982 59.6573 54.269 59.3562 54.269C59.1446 54.269 58.9575 54.2316 58.7947 54.1567C58.6319 54.0819 58.5042 53.9777 58.4114 53.8442C58.3203 53.7091 58.2747 53.5635 58.2747 53.4072H58.7263C58.7345 53.5586 58.7947 53.679 58.907 53.7686C59.0209 53.8564 59.1707 53.9004 59.3562 53.9004C59.5271 53.9004 59.6638 53.8662 59.7664 53.7979C59.8706 53.7279 59.9226 53.6351 59.9226 53.5195ZM60.948 53.9834C60.948 53.9053 60.9708 53.8402 61.0164 53.7881C61.0636 53.736 61.1336 53.71 61.2263 53.71C61.3191 53.71 61.3891 53.736 61.4363 53.7881C61.4851 53.8402 61.5096 53.9053 61.5096 53.9834C61.5096 54.0583 61.4851 54.1209 61.4363 54.1714C61.3891 54.2218 61.3191 54.2471 61.2263 54.2471C61.1336 54.2471 61.0636 54.2218 61.0164 54.1714C60.9708 54.1209 60.948 54.0583 60.948 53.9834ZM60.9505 51.8276C60.9505 51.7495 60.9733 51.6844 61.0188 51.6323C61.066 51.5802 61.136 51.5542 61.2288 51.5542C61.3216 51.5542 61.3916 51.5802 61.4388 51.6323C61.4876 51.6844 61.512 51.7495 61.512 51.8276C61.512 51.9025 61.4876 51.9652 61.4388 52.0156C61.3916 52.0661 61.3216 52.0913 61.2288 52.0913C61.136 52.0913 61.066 52.0661 61.0188 52.0156C60.9733 51.9652 60.9505 51.9025 60.9505 51.8276ZM62.2639 54.5254H61.8758L63.3601 50.6655H63.7459L62.2639 54.5254ZM63.7776 54.5254H63.3894L64.8738 50.6655H65.2596L63.7776 54.5254ZM67.3787 54.2202C67.3527 54.1681 67.3315 54.0754 67.3152 53.9419C67.1053 54.16 66.8546 54.269 66.5633 54.269C66.3028 54.269 66.0888 54.1958 65.9212 54.0493C65.7552 53.9012 65.6721 53.714 65.6721 53.4878C65.6721 53.2127 65.7763 52.9995 65.9846 52.8481C66.1946 52.6951 66.4892 52.6187 66.8684 52.6187H67.3079V52.4111C67.3079 52.2533 67.2607 52.1279 67.1663 52.0352C67.0719 51.9408 66.9327 51.8936 66.7488 51.8936C66.5877 51.8936 66.4526 51.9342 66.3435 52.0156C66.2345 52.097 66.18 52.1955 66.18 52.311H65.7259C65.7259 52.1792 65.7722 52.0522 65.865 51.9302C65.9594 51.8065 66.0864 51.7088 66.2459 51.6372C66.407 51.5656 66.5836 51.5298 66.7757 51.5298C67.08 51.5298 67.3185 51.6063 67.491 51.7593C67.6635 51.9106 67.753 52.1198 67.7596 52.3867V53.6025C67.7596 53.8451 67.7905 54.0379 67.8523 54.1812V54.2202H67.3787ZM66.6292 53.876C66.7708 53.876 66.9051 53.8394 67.032 53.7661C67.159 53.6929 67.2509 53.5977 67.3079 53.4805V52.9385H66.9539C66.4005 52.9385 66.1238 53.1004 66.1238 53.4243C66.1238 53.5659 66.171 53.6766 66.2654 53.7563C66.3598 53.8361 66.4811 53.876 66.6292 53.876ZM70.699 52.9287C70.699 53.3307 70.607 53.6546 70.4231 53.9004C70.2392 54.1462 69.9902 54.269 69.6761 54.269C69.3554 54.269 69.1031 54.1673 68.9192 53.9639V55.2358H68.4676V51.5786H68.8802L68.9021 51.8716C69.086 51.6437 69.3416 51.5298 69.6687 51.5298C69.9861 51.5298 70.2368 51.6494 70.4207 51.8887C70.6062 52.1279 70.699 52.4608 70.699 52.8872V52.9287ZM70.2473 52.8774C70.2473 52.5796 70.1839 52.3444 70.0569 52.1719C69.93 51.9993 69.7558 51.9131 69.5345 51.9131C69.261 51.9131 69.0559 52.0343 68.9192 52.2769V53.5391C69.0543 53.7799 69.261 53.9004 69.5393 53.9004C69.7558 53.9004 69.9275 53.8149 70.0545 53.644C70.1831 53.4715 70.2473 53.216 70.2473 52.8774ZM71.7659 54.2202H71.3142V51.5786H71.7659V54.2202ZM71.2776 50.8779C71.2776 50.8047 71.2996 50.7428 71.3435 50.6924C71.3891 50.6419 71.4558 50.6167 71.5437 50.6167C71.6316 50.6167 71.6984 50.6419 71.7439 50.6924C71.7895 50.7428 71.8123 50.8047 71.8123 50.8779C71.8123 50.9512 71.7895 51.0122 71.7439 51.061C71.6984 51.1099 71.6316 51.1343 71.5437 51.1343C71.4558 51.1343 71.3891 51.1099 71.3435 51.061C71.2996 51.0122 71.2776 50.9512 71.2776 50.8779ZM72.5008 53.9834C72.5008 53.9053 72.5235 53.8402 72.5691 53.7881C72.6163 53.736 72.6863 53.71 72.7791 53.71C72.8719 53.71 72.9418 53.736 72.989 53.7881C73.0379 53.8402 73.0623 53.9053 73.0623 53.9834C73.0623 54.0583 73.0379 54.1209 72.989 54.1714C72.9418 54.2218 72.8719 54.2471 72.7791 54.2471C72.6863 54.2471 72.6163 54.2218 72.5691 54.1714C72.5235 54.1209 72.5008 54.0583 72.5008 53.9834ZM74.0315 54.2202V51.9277H73.614V51.5786H74.0315V51.3076C74.0315 51.0244 74.1072 50.8055 74.2586 50.6509C74.4099 50.4963 74.624 50.4189 74.9007 50.4189C75.0048 50.4189 75.1082 50.4328 75.2107 50.4604L75.1863 50.8267C75.1098 50.812 75.0284 50.8047 74.9422 50.8047C74.7957 50.8047 74.6826 50.8478 74.6028 50.9341C74.5231 51.0187 74.4832 51.1408 74.4832 51.3003V51.5786H75.0471V51.9277H74.4832V54.2202H74.0315ZM77.1785 54.2202C77.1525 54.1681 77.1313 54.0754 77.115 53.9419C76.9051 54.16 76.6544 54.269 76.3631 54.269C76.1027 54.269 75.8886 54.1958 75.721 54.0493C75.555 53.9012 75.472 53.714 75.472 53.4878C75.472 53.2127 75.5761 52.9995 75.7845 52.8481C75.9944 52.6951 76.289 52.6187 76.6682 52.6187H77.1077V52.4111C77.1077 52.2533 77.0605 52.1279 76.9661 52.0352C76.8717 51.9408 76.7325 51.8936 76.5486 51.8936C76.3875 51.8936 76.2524 51.9342 76.1433 52.0156C76.0343 52.097 75.9798 52.1955 75.9798 52.311H75.5257C75.5257 52.1792 75.5721 52.0522 75.6648 51.9302C75.7592 51.8065 75.8862 51.7088 76.0457 51.6372C76.2068 51.5656 76.3834 51.5298 76.5755 51.5298C76.8798 51.5298 77.1183 51.6063 77.2908 51.7593C77.4633 51.9106 77.5528 52.1198 77.5594 52.3867V53.6025C77.5594 53.8451 77.5903 54.0379 77.6521 54.1812V54.2202H77.1785ZM76.429 53.876C76.5706 53.876 76.7049 53.8394 76.8318 53.7661C76.9588 53.6929 77.0507 53.5977 77.1077 53.4805V52.9385H76.7537C76.2003 52.9385 75.9236 53.1004 75.9236 53.4243C75.9236 53.5659 75.9708 53.6766 76.0652 53.7563C76.1596 53.8361 76.2809 53.876 76.429 53.876ZM79.3269 53.9004C79.4881 53.9004 79.6289 53.8516 79.7493 53.7539C79.8697 53.6562 79.9365 53.5342 79.9495 53.3877H80.3767C80.3686 53.5391 80.3165 53.6831 80.2205 53.8198C80.1245 53.9565 79.9959 54.0656 79.8347 54.147C79.6752 54.2284 79.506 54.269 79.3269 54.269C78.9672 54.269 78.6808 54.1494 78.4676 53.9102C78.256 53.6693 78.1502 53.3405 78.1502 52.9238V52.8481C78.1502 52.591 78.1974 52.3623 78.2918 52.1621C78.3862 51.9619 78.5213 51.8065 78.6971 51.6958C78.8745 51.5851 79.0836 51.5298 79.3245 51.5298C79.6207 51.5298 79.8665 51.6185 80.0618 51.7959C80.2587 51.9733 80.3637 52.2036 80.3767 52.4868H79.9495C79.9365 52.3159 79.8714 52.1759 79.7542 52.0669C79.6386 51.9562 79.4954 51.9009 79.3245 51.9009C79.095 51.9009 78.9168 51.9839 78.7898 52.1499C78.6645 52.3143 78.6018 52.5527 78.6018 52.8652V52.9507C78.6018 53.255 78.6645 53.4894 78.7898 53.6538C78.9152 53.8182 79.0942 53.9004 79.3269 53.9004ZM81.9807 54.269C81.6227 54.269 81.3313 54.1519 81.1067 53.9175C80.8821 53.6815 80.7698 53.3665 80.7698 52.9727V52.8896C80.7698 52.6276 80.8194 52.394 80.9187 52.189C81.0196 51.9823 81.1596 51.8211 81.3387 51.7056C81.5193 51.5884 81.7146 51.5298 81.9246 51.5298C82.268 51.5298 82.5349 51.6429 82.7254 51.8691C82.9158 52.0954 83.011 52.4193 83.011 52.8408V53.0288H81.2215C81.228 53.2892 81.3037 53.5 81.4485 53.6611C81.595 53.8206 81.7805 53.9004 82.0052 53.9004C82.1647 53.9004 82.2998 53.8678 82.4104 53.8027C82.5211 53.7376 82.618 53.6514 82.701 53.5439L82.9768 53.7588C82.7555 54.099 82.4235 54.269 81.9807 54.269ZM81.9246 51.9009C81.7423 51.9009 81.5893 51.9676 81.4656 52.1011C81.3419 52.2329 81.2654 52.4185 81.2361 52.6577H82.5594V52.6235C82.5463 52.394 82.4845 52.2166 82.3738 52.0913C82.2631 51.9644 82.1134 51.9009 81.9246 51.9009ZM84.1487 50.939V51.5786H84.6419V51.9277H84.1487V53.5659C84.1487 53.6717 84.1707 53.7515 84.2146 53.8052C84.2586 53.8573 84.3334 53.8833 84.4392 53.8833C84.4913 53.8833 84.5629 53.8735 84.6541 53.854V54.2202C84.5353 54.2528 84.4197 54.269 84.3074 54.269C84.1056 54.269 83.9534 54.208 83.8509 54.0859C83.7483 53.9639 83.6971 53.7905 83.6971 53.5659V51.9277H83.2161V51.5786H83.6971V50.939H84.1487ZM85.1814 53.9834C85.1814 53.9053 85.2042 53.8402 85.2498 53.7881C85.297 53.736 85.367 53.71 85.4597 53.71C85.5525 53.71 85.6225 53.736 85.6697 53.7881C85.7185 53.8402 85.743 53.9053 85.743 53.9834C85.743 54.0583 85.7185 54.1209 85.6697 54.1714C85.6225 54.2218 85.5525 54.2471 85.4597 54.2471C85.367 54.2471 85.297 54.2218 85.2498 54.1714C85.2042 54.1209 85.1814 54.0583 85.1814 53.9834ZM86.9173 51.5786L86.9319 51.9106C87.1337 51.6567 87.3974 51.5298 87.7229 51.5298C88.2812 51.5298 88.5628 51.8447 88.5677 52.4746V54.2202H88.116V52.4722C88.1144 52.2817 88.0704 52.141 87.9842 52.0498C87.8995 51.9587 87.7669 51.9131 87.5862 51.9131C87.4397 51.9131 87.3111 51.9521 87.2005 52.0303C87.0898 52.1084 87.0035 52.2109 86.9417 52.3379V54.2202H86.49V51.5786H86.9173ZM89.7395 54.2202H89.2879V51.5786H89.7395V54.2202ZM89.2513 50.8779C89.2513 50.8047 89.2732 50.7428 89.3172 50.6924C89.3627 50.6419 89.4295 50.6167 89.5174 50.6167C89.6053 50.6167 89.672 50.6419 89.7176 50.6924C89.7631 50.7428 89.7859 50.8047 89.7859 50.8779C89.7859 50.9512 89.7631 51.0122 89.7176 51.061C89.672 51.1099 89.6053 51.1343 89.5174 51.1343C89.4295 51.1343 89.3627 51.1099 89.3172 51.061C89.2732 51.0122 89.2513 50.9512 89.2513 50.8779ZM90.8919 51.5786L90.9065 51.9106C91.1083 51.6567 91.372 51.5298 91.6975 51.5298C92.2558 51.5298 92.5374 51.8447 92.5423 52.4746V54.2202H92.0906V52.4722C92.089 52.2817 92.045 52.141 91.9588 52.0498C91.8741 51.9587 91.7415 51.9131 91.5608 51.9131C91.4143 51.9131 91.2858 51.9521 91.1751 52.0303C91.0644 52.1084 90.9781 52.2109 90.9163 52.3379V54.2202H90.4646V51.5786H90.8919ZM93.6897 51.5786V54.5254C93.6897 55.0332 93.4594 55.2871 92.9988 55.2871C92.8995 55.2871 92.8076 55.2725 92.7229 55.2432V54.8818C92.775 54.8949 92.8434 54.9014 92.928 54.9014C93.0289 54.9014 93.1054 54.8737 93.1575 54.8184C93.2112 54.7646 93.2381 54.6702 93.2381 54.5352V51.5786H93.6897ZM93.1917 50.8779C93.1917 50.8063 93.2137 50.7453 93.2576 50.6948C93.3032 50.6427 93.3691 50.6167 93.4554 50.6167C93.5432 50.6167 93.61 50.6419 93.6555 50.6924C93.7011 50.7428 93.7239 50.8047 93.7239 50.8779C93.7239 50.9512 93.7011 51.0122 93.6555 51.061C93.61 51.1099 93.5432 51.1343 93.4554 51.1343C93.3675 51.1343 93.3015 51.1099 93.2576 51.061C93.2137 51.0122 93.1917 50.9512 93.1917 50.8779ZM96.0506 54.2202C96.0245 54.1681 96.0034 54.0754 95.9871 53.9419C95.7771 54.16 95.5265 54.269 95.2351 54.269C94.9747 54.269 94.7607 54.1958 94.593 54.0493C94.427 53.9012 94.344 53.714 94.344 53.4878C94.344 53.2127 94.4482 52.9995 94.6565 52.8481C94.8665 52.6951 95.1611 52.6187 95.5403 52.6187H95.9798V52.4111C95.9798 52.2533 95.9326 52.1279 95.8382 52.0352C95.7438 51.9408 95.6046 51.8936 95.4207 51.8936C95.2596 51.8936 95.1245 51.9342 95.0154 52.0156C94.9064 52.097 94.8518 52.1955 94.8518 52.311H94.3977C94.3977 52.1792 94.4441 52.0522 94.5369 51.9302C94.6313 51.8065 94.7582 51.7088 94.9178 51.6372C95.0789 51.5656 95.2555 51.5298 95.4475 51.5298C95.7519 51.5298 95.9903 51.6063 96.1629 51.7593C96.3354 51.9106 96.4249 52.1198 96.4314 52.3867V53.6025C96.4314 53.8451 96.4624 54.0379 96.5242 54.1812V54.2202H96.0506ZM95.3011 53.876C95.4427 53.876 95.5769 53.8394 95.7039 53.7661C95.8308 53.6929 95.9228 53.5977 95.9798 53.4805V52.9385H95.6258C95.0724 52.9385 94.7957 53.1004 94.7957 53.4243C94.7957 53.5659 94.8429 53.6766 94.9373 53.7563C95.0317 53.8361 95.1529 53.876 95.3011 53.876ZM97.2298 54.5254H96.8416L98.326 50.6655H98.7117L97.2298 54.5254ZM99.4221 54.2202V51.9277H99.0047V51.5786H99.4221V51.3076C99.4221 51.0244 99.4978 50.8055 99.6492 50.6509C99.8006 50.4963 100.015 50.4189 100.291 50.4189C100.395 50.4189 100.499 50.4328 100.601 50.4604L100.577 50.8267C100.5 50.812 100.419 50.8047 100.333 50.8047C100.186 50.8047 100.073 50.8478 99.9934 50.9341C99.9137 51.0187 99.8738 51.1408 99.8738 51.3003V51.5786H100.438V51.9277H99.8738V54.2202H99.4221ZM102.569 54.2202C102.543 54.1681 102.522 54.0754 102.506 53.9419C102.296 54.16 102.045 54.269 101.754 54.269C101.493 54.269 101.279 54.1958 101.112 54.0493C100.946 53.9012 100.863 53.714 100.863 53.4878C100.863 53.2127 100.967 52.9995 101.175 52.8481C101.385 52.6951 101.68 52.6187 102.059 52.6187H102.498V52.4111C102.498 52.2533 102.451 52.1279 102.357 52.0352C102.262 51.9408 102.123 51.8936 101.939 51.8936C101.778 51.8936 101.643 51.9342 101.534 52.0156C101.425 52.097 101.37 52.1955 101.37 52.311H100.916C100.916 52.1792 100.963 52.0522 101.055 51.9302C101.15 51.8065 101.277 51.7088 101.436 51.6372C101.597 51.5656 101.774 51.5298 101.966 51.5298C102.27 51.5298 102.509 51.6063 102.681 51.7593C102.854 51.9106 102.943 52.1198 102.95 52.3867V53.6025C102.95 53.8451 102.981 54.0379 103.043 54.1812V54.2202H102.569ZM101.82 53.876C101.961 53.876 102.095 53.8394 102.222 53.7661C102.349 53.6929 102.441 53.5977 102.498 53.4805V52.9385H102.144C101.591 52.9385 101.314 53.1004 101.314 53.4243C101.314 53.5659 101.361 53.6766 101.456 53.7563C101.55 53.8361 101.671 53.876 101.82 53.876ZM104.718 53.9004C104.879 53.9004 105.019 53.8516 105.14 53.7539C105.26 53.6562 105.327 53.5342 105.34 53.3877H105.767C105.759 53.5391 105.707 53.6831 105.611 53.8198C105.515 53.9565 105.387 54.0656 105.225 54.147C105.066 54.2284 104.897 54.269 104.718 54.269C104.358 54.269 104.071 54.1494 103.858 53.9102C103.647 53.6693 103.541 53.3405 103.541 52.9238V52.8481C103.541 52.591 103.588 52.3623 103.682 52.1621C103.777 51.9619 103.912 51.8065 104.088 51.6958C104.265 51.5851 104.474 51.5298 104.715 51.5298C105.011 51.5298 105.257 51.6185 105.452 51.7959C105.649 51.9733 105.754 52.2036 105.767 52.4868H105.34C105.327 52.3159 105.262 52.1759 105.145 52.0669C105.029 51.9562 104.886 51.9009 104.715 51.9009C104.486 51.9009 104.307 51.9839 104.18 52.1499C104.055 52.3143 103.992 52.5527 103.992 52.8652V52.9507C103.992 53.255 104.055 53.4894 104.18 53.6538C104.306 53.8182 104.485 53.9004 104.718 53.9004ZM107.371 54.269C107.013 54.269 106.722 54.1519 106.497 53.9175C106.273 53.6815 106.16 53.3665 106.16 52.9727V52.8896C106.16 52.6276 106.21 52.394 106.309 52.189C106.41 51.9823 106.55 51.8211 106.729 51.7056C106.91 51.5884 107.105 51.5298 107.315 51.5298C107.659 51.5298 107.926 51.6429 108.116 51.8691C108.306 52.0954 108.402 52.4193 108.402 52.8408V53.0288H106.612C106.619 53.2892 106.694 53.5 106.839 53.6611C106.986 53.8206 107.171 53.9004 107.396 53.9004C107.555 53.9004 107.69 53.8678 107.801 53.8027C107.912 53.7376 108.009 53.6514 108.092 53.5439L108.367 53.7588C108.146 54.099 107.814 54.269 107.371 54.269ZM107.315 51.9009C107.133 51.9009 106.98 51.9676 106.856 52.1011C106.733 52.2329 106.656 52.4185 106.627 52.6577H107.95V52.6235C107.937 52.394 107.875 52.2166 107.764 52.0913C107.654 51.9644 107.504 51.9009 107.315 51.9009ZM109.539 50.939V51.5786H110.033V51.9277H109.539V53.5659C109.539 53.6717 109.561 53.7515 109.605 53.8052C109.649 53.8573 109.724 53.8833 109.83 53.8833C109.882 53.8833 109.954 53.8735 110.045 53.854V54.2202C109.926 54.2528 109.81 54.269 109.698 54.269C109.496 54.269 109.344 54.208 109.241 54.0859C109.139 53.9639 109.088 53.7905 109.088 53.5659V51.9277H108.607V51.5786H109.088V50.939H109.539ZM110.572 53.9834C110.572 53.9053 110.595 53.8402 110.64 53.7881C110.688 53.736 110.758 53.71 110.85 53.71C110.943 53.71 111.013 53.736 111.06 53.7881C111.109 53.8402 111.134 53.9053 111.134 53.9834C111.134 54.0583 111.109 54.1209 111.06 54.1714C111.013 54.2218 110.943 54.2471 110.85 54.2471C110.758 54.2471 110.688 54.2218 110.64 54.1714C110.595 54.1209 110.572 54.0583 110.572 53.9834ZM112.308 51.5786L112.323 51.9106C112.524 51.6567 112.788 51.5298 113.114 51.5298C113.672 51.5298 113.953 51.8447 113.958 52.4746V54.2202H113.507V52.4722C113.505 52.2817 113.461 52.141 113.375 52.0498C113.29 51.9587 113.158 51.9131 112.977 51.9131C112.83 51.9131 112.702 51.9521 112.591 52.0303C112.48 52.1084 112.394 52.2109 112.332 52.3379V54.2202H111.881V51.5786H112.308ZM115.13 54.2202H114.678V51.5786H115.13V54.2202ZM114.642 50.8779C114.642 50.8047 114.664 50.7428 114.708 50.6924C114.753 50.6419 114.82 50.6167 114.908 50.6167C114.996 50.6167 115.063 50.6419 115.108 50.6924C115.154 50.7428 115.177 50.8047 115.177 50.8779C115.177 50.9512 115.154 51.0122 115.108 51.061C115.063 51.1099 114.996 51.1343 114.908 51.1343C114.82 51.1343 114.753 51.1099 114.708 51.061C114.664 51.0122 114.642 50.9512 114.642 50.8779ZM116.283 51.5786L116.297 51.9106C116.499 51.6567 116.763 51.5298 117.088 51.5298C117.646 51.5298 117.928 51.8447 117.933 52.4746V54.2202H117.481V52.4722C117.48 52.2817 117.436 52.141 117.349 52.0498C117.265 51.9587 117.132 51.9131 116.951 51.9131C116.805 51.9131 116.676 51.9521 116.566 52.0303C116.455 52.1084 116.369 52.2109 116.307 52.3379V54.2202H115.855V51.5786H116.283ZM119.08 51.5786V54.5254C119.08 55.0332 118.85 55.2871 118.389 55.2871C118.29 55.2871 118.198 55.2725 118.114 55.2432V54.8818C118.166 54.8949 118.234 54.9014 118.319 54.9014C118.42 54.9014 118.496 54.8737 118.548 54.8184C118.602 54.7646 118.629 54.6702 118.629 54.5352V51.5786H119.08ZM118.582 50.8779C118.582 50.8063 118.604 50.7453 118.648 50.6948C118.694 50.6427 118.76 50.6167 118.846 50.6167C118.934 50.6167 119.001 50.6419 119.046 50.6924C119.092 50.7428 119.115 50.8047 119.115 50.8779C119.115 50.9512 119.092 51.0122 119.046 51.061C119.001 51.1099 118.934 51.1343 118.846 51.1343C118.758 51.1343 118.692 51.1099 118.648 51.061C118.604 51.0122 118.582 50.9512 118.582 50.8779ZM121.441 54.2202C121.415 54.1681 121.394 54.0754 121.378 53.9419C121.168 54.16 120.917 54.269 120.626 54.269C120.365 54.269 120.151 54.1958 119.984 54.0493C119.818 53.9012 119.735 53.714 119.735 53.4878C119.735 53.2127 119.839 52.9995 120.047 52.8481C120.257 52.6951 120.552 52.6187 120.931 52.6187H121.37V52.4111C121.37 52.2533 121.323 52.1279 121.229 52.0352C121.134 51.9408 120.995 51.8936 120.811 51.8936C120.65 51.8936 120.515 51.9342 120.406 52.0156C120.297 52.097 120.242 52.1955 120.242 52.311H119.788C119.788 52.1792 119.835 52.0522 119.928 51.9302C120.022 51.8065 120.149 51.7088 120.308 51.6372C120.47 51.5656 120.646 51.5298 120.838 51.5298C121.143 51.5298 121.381 51.6063 121.553 51.7593C121.726 51.9106 121.816 52.1198 121.822 52.3867V53.6025C121.822 53.8451 121.853 54.0379 121.915 54.1812V54.2202H121.441ZM120.692 53.876C120.833 53.876 120.968 53.8394 121.095 53.7661C121.221 53.6929 121.313 53.5977 121.37 53.4805V52.9385H121.016C120.463 52.9385 120.186 53.1004 120.186 53.4243C120.186 53.5659 120.234 53.6766 120.328 53.7563C120.422 53.8361 120.544 53.876 120.692 53.876ZM122.54 53.9834C122.54 53.9053 122.563 53.8402 122.608 53.7881C122.655 53.736 122.725 53.71 122.818 53.71C122.911 53.71 122.981 53.736 123.028 53.7881C123.077 53.8402 123.101 53.9053 123.101 53.9834C123.101 54.0583 123.077 54.1209 123.028 54.1714C122.981 54.2218 122.911 54.2471 122.818 54.2471C122.725 54.2471 122.655 54.2218 122.608 54.1714C122.563 54.1209 122.54 54.0583 122.54 53.9834ZM124.315 51.5786V54.5254C124.315 55.0332 124.084 55.2871 123.624 55.2871C123.525 55.2871 123.433 55.2725 123.348 55.2432V54.8818C123.4 54.8949 123.468 54.9014 123.553 54.9014C123.654 54.9014 123.73 54.8737 123.783 54.8184C123.836 54.7646 123.863 54.6702 123.863 54.5352V51.5786H124.315ZM123.817 50.8779C123.817 50.8063 123.839 50.7453 123.883 50.6948C123.928 50.6427 123.994 50.6167 124.08 50.6167C124.168 50.6167 124.235 50.6419 124.281 50.6924C124.326 50.7428 124.349 50.8047 124.349 50.8779C124.349 50.9512 124.326 51.0122 124.281 51.061C124.235 51.1099 124.168 51.1343 124.08 51.1343C123.992 51.1343 123.927 51.1099 123.883 51.061C123.839 51.0122 123.817 50.9512 123.817 50.8779ZM126.583 53.5195C126.583 53.3975 126.536 53.3031 126.444 53.2363C126.352 53.168 126.192 53.1094 125.963 53.0605C125.735 53.0117 125.553 52.9531 125.418 52.8848C125.285 52.8164 125.185 52.735 125.12 52.6406C125.057 52.5462 125.025 52.4339 125.025 52.3037C125.025 52.0872 125.116 51.9041 125.299 51.7544C125.483 51.6047 125.717 51.5298 126.002 51.5298C126.301 51.5298 126.544 51.6071 126.729 51.7617C126.916 51.9163 127.01 52.1141 127.01 52.355H126.556C126.556 52.2313 126.503 52.1247 126.397 52.0352C126.293 51.9456 126.161 51.9009 126.002 51.9009C125.837 51.9009 125.709 51.9367 125.616 52.0083C125.523 52.0799 125.477 52.1735 125.477 52.2891C125.477 52.3981 125.52 52.4803 125.606 52.5356C125.692 52.591 125.848 52.6439 126.073 52.6943C126.299 52.7448 126.482 52.805 126.622 52.875C126.762 52.945 126.865 53.0296 126.932 53.1289C127 53.2266 127.034 53.3462 127.034 53.4878C127.034 53.7238 126.94 53.9134 126.751 54.0566C126.562 54.1982 126.317 54.269 126.016 54.269C125.805 54.269 125.618 54.2316 125.455 54.1567C125.292 54.0819 125.164 53.9777 125.072 53.8442C124.98 53.7091 124.935 53.5635 124.935 53.4072H125.387C125.395 53.5586 125.455 53.679 125.567 53.7686C125.681 53.8564 125.831 53.9004 126.016 53.9004C126.187 53.9004 126.324 53.8662 126.427 53.7979C126.531 53.7279 126.583 53.6351 126.583 53.5195ZM128.153 53.2192C128.156 53.0256 128.178 52.8726 128.219 52.7603C128.259 52.6479 128.342 52.5234 128.468 52.3867L128.787 52.0571C128.924 51.9025 128.992 51.7365 128.992 51.5591C128.992 51.3882 128.948 51.2547 128.858 51.1587C128.769 51.061 128.638 51.0122 128.468 51.0122C128.302 51.0122 128.168 51.0562 128.067 51.144C127.966 51.2319 127.916 51.3499 127.916 51.498H127.464C127.467 51.2344 127.561 51.022 127.745 50.8608C127.93 50.6981 128.171 50.6167 128.468 50.6167C128.775 50.6167 129.014 50.6997 129.185 50.8657C129.358 51.0301 129.444 51.2563 129.444 51.5444C129.444 51.8293 129.312 52.11 129.049 52.3867L128.783 52.6504C128.664 52.7822 128.604 52.9718 128.604 53.2192H128.153ZM128.133 53.9932C128.133 53.9199 128.155 53.8589 128.199 53.8101C128.245 53.7596 128.311 53.7344 128.399 53.7344C128.487 53.7344 128.554 53.7596 128.599 53.8101C128.645 53.8589 128.668 53.9199 128.668 53.9932C128.668 54.0664 128.645 54.1274 128.599 54.1763C128.554 54.2235 128.487 54.2471 128.399 54.2471C128.311 54.2471 128.245 54.2235 128.199 54.1763C128.155 54.1274 128.133 54.0664 128.133 53.9932ZM130.477 54.2202H130.025V51.5786H130.477V54.2202ZM129.989 50.8779C129.989 50.8047 130.011 50.7428 130.054 50.6924C130.1 50.6419 130.167 50.6167 130.255 50.6167C130.343 50.6167 130.409 50.6419 130.455 50.6924C130.5 50.7428 130.523 50.8047 130.523 50.8779C130.523 50.9512 130.5 51.0122 130.455 51.061C130.409 51.1099 130.343 51.1343 130.255 51.1343C130.167 51.1343 130.1 51.1099 130.054 51.061C130.011 51.0122 129.989 50.9512 129.989 50.8779ZM131.092 52.8774C131.092 52.4722 131.188 52.1466 131.38 51.9009C131.572 51.6535 131.824 51.5298 132.135 51.5298C132.444 51.5298 132.689 51.6356 132.869 51.8472V50.4702H133.321V54.2202H132.906L132.884 53.937C132.703 54.1584 132.452 54.269 132.13 54.269C131.824 54.269 131.574 54.1437 131.38 53.8931C131.188 53.6424 131.092 53.3153 131.092 52.9116V52.8774ZM131.544 52.9287C131.544 53.2282 131.606 53.4626 131.729 53.6318C131.853 53.8011 132.024 53.8857 132.242 53.8857C132.528 53.8857 132.738 53.7572 132.869 53.5V52.2866C132.734 52.0376 132.527 51.9131 132.247 51.9131C132.026 51.9131 131.853 51.9985 131.729 52.1694C131.606 52.3403 131.544 52.5934 131.544 52.9287ZM136.09 52.2329H134.053V51.8398H136.09V52.2329ZM136.09 53.2461H134.053V52.8555H136.09V53.2461ZM136.839 54.2202V50.6655H137.843C138.152 50.6655 138.425 50.7339 138.663 50.8706C138.901 51.0073 139.084 51.2018 139.212 51.4541C139.342 51.7064 139.408 51.9961 139.41 52.3232V52.5503C139.41 52.8856 139.345 53.1794 139.215 53.4316C139.086 53.6839 138.901 53.8776 138.66 54.0127C138.421 54.1478 138.142 54.217 137.823 54.2202H136.839ZM137.308 51.0513V53.8369H137.801C138.162 53.8369 138.443 53.7246 138.643 53.5C138.845 53.2754 138.946 52.9556 138.946 52.5405V52.333C138.946 51.9294 138.851 51.616 138.66 51.3931C138.472 51.1685 138.203 51.0545 137.855 51.0513H137.308ZM142.855 52.5576C142.855 52.9059 142.796 53.2103 142.679 53.4707C142.562 53.7295 142.396 53.9272 142.181 54.064C141.966 54.2007 141.715 54.269 141.429 54.269C141.149 54.269 140.901 54.2007 140.684 54.064C140.468 53.9256 140.299 53.7295 140.179 53.4756C140.06 53.2201 139.999 52.9246 139.996 52.5894V52.333C139.996 51.9912 140.055 51.6893 140.174 51.4272C140.293 51.1652 140.461 50.965 140.677 50.8267C140.895 50.6867 141.144 50.6167 141.424 50.6167C141.709 50.6167 141.96 50.6859 142.176 50.8242C142.394 50.9609 142.562 51.1603 142.679 51.4224C142.796 51.6828 142.855 51.9863 142.855 52.333V52.5576ZM142.388 52.3281C142.388 51.9066 142.304 51.5835 142.135 51.3589C141.965 51.1326 141.728 51.0195 141.424 51.0195C141.128 51.0195 140.894 51.1326 140.723 51.3589C140.554 51.5835 140.467 51.896 140.462 52.2964V52.5576C140.462 52.9661 140.548 53.2876 140.719 53.522C140.891 53.7547 141.128 53.8711 141.429 53.8711C141.732 53.8711 141.966 53.7612 142.132 53.5415C142.298 53.3201 142.384 53.0036 142.388 52.5918V52.3281ZM144.163 50.6655L145.325 53.5659L146.488 50.6655H147.095V54.2202H146.627V52.8359L146.671 51.3418L145.504 54.2202H145.145L143.98 51.3491L144.027 52.8359V54.2202H143.558V50.6655H144.163ZM149.93 53.2925H148.441L148.106 54.2202H147.623L148.98 50.6655H149.39L150.75 54.2202H150.269L149.93 53.2925ZM148.582 52.9067H149.791L149.185 51.2441L148.582 52.9067ZM151.732 54.2202H151.263V50.6655H151.732V54.2202ZM155.323 54.2202H154.852L153.062 51.481V54.2202H152.591V50.6655H153.062L154.857 53.417V50.6655H155.323V54.2202ZM158.826 52.3232C158.826 52.5804 158.75 52.7977 158.597 52.9751C158.446 53.1509 158.258 53.2388 158.035 53.2388C157.918 53.2388 157.808 53.2176 157.703 53.1753C157.599 53.1313 157.478 53.0492 157.34 52.9287C157.203 52.8083 157.104 52.7334 157.044 52.7041C156.984 52.6748 156.92 52.6602 156.851 52.6602C156.724 52.6602 156.627 52.7041 156.558 52.792C156.49 52.8783 156.456 52.9979 156.456 53.1509L156.063 53.1558C156.063 52.8953 156.138 52.6813 156.287 52.5137C156.437 52.346 156.625 52.2622 156.851 52.2622C156.975 52.2622 157.094 52.2882 157.208 52.3403C157.322 52.3924 157.45 52.4844 157.594 52.6162C157.737 52.7464 157.86 52.8197 157.965 52.8359L158.035 52.8408C158.159 52.8408 158.259 52.7936 158.336 52.6992C158.414 52.6048 158.453 52.4803 158.453 52.3257L158.826 52.3232ZM160.164 50.6655L161.326 53.5659L162.489 50.6655H163.096V54.2202H162.628V52.8359L162.672 51.3418L161.505 54.2202H161.146L159.981 51.3491L160.028 52.8359V54.2202H159.559V50.6655H160.164ZM166.136 54.2202H163.807V53.8955L165.037 52.5283C165.22 52.3216 165.345 52.154 165.413 52.0254C165.483 51.8952 165.518 51.7609 165.518 51.6226C165.518 51.437 165.462 51.2848 165.35 51.166C165.238 51.0472 165.088 50.9878 164.901 50.9878C164.676 50.9878 164.501 51.0521 164.376 51.1807C164.252 51.3076 164.19 51.485 164.19 51.7129H163.739C163.739 51.3857 163.844 51.1213 164.053 50.9194C164.265 50.7176 164.547 50.6167 164.901 50.6167C165.231 50.6167 165.492 50.7038 165.684 50.8779C165.876 51.0505 165.972 51.2808 165.972 51.5688C165.972 51.9188 165.749 52.3354 165.303 52.8188L164.351 53.8516H166.136V54.2202ZM169.447 52.5576C169.447 52.901 169.392 53.1973 169.283 53.4463C169.174 53.6937 169.021 53.8874 168.824 54.0273L169.459 54.5254L169.139 54.8208L168.389 54.2251C168.272 54.2544 168.149 54.269 168.018 54.269C167.738 54.269 167.49 54.2007 167.274 54.064C167.057 53.9256 166.889 53.7295 166.768 53.4756C166.65 53.2201 166.588 52.9246 166.585 52.5894V52.333C166.585 51.9912 166.645 51.6893 166.763 51.4272C166.882 51.1652 167.05 50.965 167.266 50.8267C167.484 50.6867 167.734 50.6167 168.013 50.6167C168.3 50.6167 168.551 50.6859 168.768 50.8242C168.986 50.9626 169.154 51.1619 169.271 51.4224C169.388 51.6812 169.447 51.9839 169.447 52.3306V52.5576ZM168.978 52.3281C168.978 51.9098 168.894 51.5876 168.726 51.3613C168.56 51.1335 168.323 51.0195 168.013 51.0195C167.719 51.0195 167.486 51.1326 167.315 51.3589C167.146 51.5835 167.059 51.896 167.054 52.2964V52.5576C167.054 52.9645 167.139 53.2852 167.308 53.5195C167.479 53.7539 167.716 53.8711 168.018 53.8711C168.321 53.8711 168.555 53.7612 168.721 53.5415C168.887 53.3201 168.973 53.0036 168.978 52.5918V52.3281ZM172.437 53.5977L172.945 51.5786H173.397L172.628 54.2202H172.262L171.619 52.2183L170.994 54.2202H170.628L169.862 51.5786H170.311L170.831 53.5562L171.446 51.5786H171.81L172.437 53.5977ZM174.534 50.6655L175.697 53.5659L176.859 50.6655H177.467V54.2202H176.998V52.8359L177.042 51.3418L175.875 54.2202H175.516L174.351 51.3491L174.398 52.8359V54.2202H173.929V50.6655H174.534ZM178.294 54.2202V50.6655H179.298C179.607 50.6655 179.88 50.7339 180.118 50.8706C180.356 51.0073 180.539 51.2018 180.667 51.4541C180.797 51.7064 180.863 51.9961 180.865 52.3232V52.5503C180.865 52.8856 180.8 53.1794 180.67 53.4316C180.541 53.6839 180.356 53.8776 180.116 54.0127C179.876 54.1478 179.597 54.217 179.278 54.2202H178.294ZM178.763 51.0513V53.8369H179.256C179.617 53.8369 179.898 53.7246 180.098 53.5C180.3 53.2754 180.401 52.9556 180.401 52.5405V52.333C180.401 51.9294 180.306 51.616 180.116 51.3931C179.927 51.1685 179.658 51.0545 179.31 51.0513H178.763ZM23.2796 59.5977L24.2952 56.6655H24.8079L23.4895 60.2202H23.0745L21.7586 56.6655H22.2688L23.2796 59.5977ZM25.6673 57.8984C25.8675 57.6527 26.1279 57.5298 26.4485 57.5298C27.0068 57.5298 27.2884 57.8447 27.2932 58.4746V60.2202H26.8416V58.4722C26.84 58.2817 26.796 58.141 26.7097 58.0498C26.6251 57.9587 26.4925 57.9131 26.3118 57.9131C26.1653 57.9131 26.0367 57.9521 25.9261 58.0303C25.8154 58.1084 25.7291 58.2109 25.6673 58.3379V60.2202H25.2156V56.4702H25.6673V57.8984ZM30.7722 60.2202H30.3011L28.5115 57.481V60.2202H28.0403V56.6655H28.5115L30.3059 59.417V56.6655H30.7722V60.2202ZM32.0003 57.5786V60.5254C32.0003 61.0332 31.77 61.2871 31.3094 61.2871C31.2101 61.2871 31.1181 61.2725 31.0335 61.2432V60.8818C31.0856 60.8949 31.1539 60.9014 31.2386 60.9014C31.3395 60.9014 31.416 60.8737 31.468 60.8184C31.5218 60.7646 31.5486 60.6702 31.5486 60.5352V57.5786H32.0003ZM31.5022 56.8779C31.5022 56.8063 31.5242 56.7453 31.5681 56.6948C31.6137 56.6427 31.6796 56.6167 31.7659 56.6167C31.8538 56.6167 31.9205 56.6419 31.9661 56.6924C32.0117 56.7428 32.0345 56.8047 32.0345 56.8779C32.0345 56.9512 32.0117 57.0122 31.9661 57.061C31.9205 57.1099 31.8538 57.1343 31.7659 57.1343C31.678 57.1343 31.6121 57.1099 31.5681 57.061C31.5242 57.0122 31.5022 56.9512 31.5022 56.8779ZM33.304 60.2202H32.8352V56.6655H33.304V60.2202ZM34.7054 56.939V57.5786H35.1985V57.9277H34.7054V59.5659C34.7054 59.6717 34.7273 59.7515 34.7713 59.8052C34.8152 59.8573 34.8901 59.8833 34.9959 59.8833C35.048 59.8833 35.1196 59.8735 35.2107 59.854V60.2202C35.0919 60.2528 34.9763 60.269 34.864 60.269C34.6622 60.269 34.51 60.208 34.4075 60.0859C34.305 59.9639 34.2537 59.7905 34.2537 59.5659V57.9277H33.7727V57.5786H34.2537V56.939H34.7054ZM36.4046 56.6655L37.5667 59.5659L38.7288 56.6655H39.3367V60.2202H38.868V58.8359L38.9119 57.3418L37.7449 60.2202H37.386L36.2215 57.3491L36.2679 58.8359V60.2202H35.7991V56.6655H36.4046ZM40.5598 57.5786V60.5254C40.5598 61.0332 40.3295 61.2871 39.8689 61.2871C39.7696 61.2871 39.6777 61.2725 39.593 61.2432V60.8818C39.6451 60.8949 39.7135 60.9014 39.7981 60.9014C39.899 60.9014 39.9755 60.8737 40.0276 60.8184C40.0813 60.7646 40.1082 60.6702 40.1082 60.5352V57.5786H40.5598ZM40.0618 56.8779C40.0618 56.8063 40.0838 56.7453 40.1277 56.6948C40.1733 56.6427 40.2392 56.6167 40.3255 56.6167C40.4134 56.6167 40.4801 56.6419 40.5257 56.6924C40.5712 56.7428 40.594 56.8047 40.594 56.8779C40.594 56.9512 40.5712 57.0122 40.5257 57.061C40.4801 57.1099 40.4134 57.1343 40.3255 57.1343C40.2376 57.1343 40.1717 57.1099 40.1277 57.061C40.0838 57.0122 40.0618 56.9512 40.0618 56.8779ZM44.0755 58.5576C44.0755 58.901 44.0209 59.1973 43.9119 59.4463C43.8028 59.6937 43.6499 59.8874 43.4529 60.0273L44.0877 60.5254L43.7679 60.8208L43.0183 60.2251C42.9012 60.2544 42.7775 60.269 42.6472 60.269C42.3673 60.269 42.1191 60.2007 41.9026 60.064C41.6861 59.9256 41.5177 59.7295 41.3972 59.4756C41.2784 59.2201 41.2174 58.9246 41.2141 58.5894V58.333C41.2141 57.9912 41.2735 57.6893 41.3924 57.4272C41.5112 57.1652 41.6788 56.965 41.8953 56.8267C42.1134 56.6867 42.3624 56.6167 42.6424 56.6167C42.9288 56.6167 43.1803 56.6859 43.3968 56.8242C43.6149 56.9626 43.7825 57.1619 43.8997 57.4224C44.0169 57.6812 44.0755 57.9839 44.0755 58.3306V58.5576ZM43.6067 58.3281C43.6067 57.9098 43.5229 57.5876 43.3553 57.3613C43.1892 57.1335 42.9516 57.0195 42.6424 57.0195C42.3478 57.0195 42.115 57.1326 41.9441 57.3589C41.7749 57.5835 41.6878 57.896 41.6829 58.2964V58.5576C41.6829 58.9645 41.7675 59.2852 41.9368 59.5195C42.1077 59.7539 42.3445 59.8711 42.6472 59.8711C42.95 59.8711 43.1844 59.7612 43.3504 59.5415C43.5164 59.3201 43.6018 59.0036 43.6067 58.5918V58.3281ZM44.8885 58.438L45.0691 56.6655H46.8904V57.083H45.4524L45.345 58.0522C45.5192 57.9497 45.7169 57.8984 45.9383 57.8984C46.2622 57.8984 46.5193 58.0059 46.7097 58.2207C46.9002 58.4339 46.9954 58.7228 46.9954 59.0874C46.9954 59.4536 46.8961 59.7425 46.6975 59.9541C46.5006 60.1641 46.2247 60.269 45.8699 60.269C45.5558 60.269 45.2994 60.182 45.1009 60.0078C44.9023 59.8337 44.7892 59.5928 44.7615 59.2852H45.1888C45.2164 59.4886 45.2888 59.6424 45.406 59.7466C45.5232 59.8491 45.6778 59.9004 45.8699 59.9004C46.0799 59.9004 46.2443 59.8288 46.3631 59.6855C46.4835 59.5423 46.5437 59.3446 46.5437 59.0923C46.5437 58.8547 46.4786 58.6642 46.3484 58.521C46.2198 58.3761 46.0481 58.3037 45.8333 58.3037C45.6363 58.3037 45.4817 58.3468 45.3694 58.4331L45.2498 58.5308L44.8885 58.438ZM50.3377 60.2202H49.8665L48.0769 57.481V60.2202H47.6057V56.6655H48.0769L49.8714 59.417V56.6655H50.3377V60.2202ZM51.5901 60.2202H51.1385V57.5786H51.5901V60.2202ZM51.1018 56.8779C51.1018 56.8047 51.1238 56.7428 51.1678 56.6924C51.2133 56.6419 51.2801 56.6167 51.368 56.6167C51.4558 56.6167 51.5226 56.6419 51.5681 56.6924C51.6137 56.7428 51.6365 56.8047 51.6365 56.8779C51.6365 56.9512 51.6137 57.0122 51.5681 57.061C51.5226 57.1099 51.4558 57.1343 51.368 57.1343C51.2801 57.1343 51.2133 57.1099 51.1678 57.061C51.1238 57.0122 51.1018 56.9512 51.1018 56.8779ZM54.4978 58.7041C54.4978 59.2331 54.4075 59.6261 54.2268 59.8833C54.0462 60.1405 53.7638 60.269 53.3797 60.269C53.0004 60.269 52.7197 60.1437 52.5374 59.8931C52.3551 59.6408 52.2607 59.2648 52.2542 58.7651V58.1621C52.2542 57.6396 52.3445 57.2515 52.5252 56.9976C52.7058 56.7437 52.989 56.6167 53.3748 56.6167C53.7573 56.6167 54.0388 56.7396 54.2195 56.9854C54.4002 57.2295 54.493 57.6071 54.4978 58.1182V58.7041ZM54.0462 58.0864C54.0462 57.7039 53.9925 57.4256 53.885 57.2515C53.7776 57.0757 53.6075 56.9878 53.3748 56.9878C53.1437 56.9878 52.9752 57.0749 52.8694 57.249C52.7636 57.4232 52.7091 57.6909 52.7058 58.0522V58.7749C52.7058 59.159 52.7612 59.443 52.8719 59.627C52.9842 59.8092 53.1534 59.9004 53.3797 59.9004C53.6027 59.9004 53.7679 59.8141 53.8753 59.6416C53.9843 59.4691 54.0413 59.1973 54.0462 58.8262V58.0864ZM57.3055 58.7041C57.3055 59.2331 57.2151 59.6261 57.0345 59.8833C56.8538 60.1405 56.5714 60.269 56.1873 60.269C55.8081 60.269 55.5273 60.1437 55.345 59.8931C55.1627 59.6408 55.0683 59.2648 55.0618 58.7651V58.1621C55.0618 57.6396 55.1521 57.2515 55.3328 56.9976C55.5135 56.7437 55.7967 56.6167 56.1824 56.6167C56.5649 56.6167 56.8465 56.7396 57.0271 56.9854C57.2078 57.2295 57.3006 57.6071 57.3055 58.1182V58.7041ZM56.8538 58.0864C56.8538 57.7039 56.8001 57.4256 56.6927 57.2515C56.5852 57.0757 56.4152 56.9878 56.1824 56.9878C55.9513 56.9878 55.7828 57.0749 55.677 57.249C55.5712 57.4232 55.5167 57.6909 55.5135 58.0522V58.7749C55.5135 59.159 55.5688 59.443 55.6795 59.627C55.7918 59.8092 55.961 59.9004 56.1873 59.9004C56.4103 59.9004 56.5755 59.8141 56.6829 59.6416C56.7919 59.4691 56.8489 59.1973 56.8538 58.8262V58.0864ZM59.0852 58.4502L60.013 56.6655H60.5452L59.3196 58.8945V60.2202H58.8509V58.8945L57.6253 56.6655H58.1624L59.0852 58.4502ZM61.8147 59.0996L61.8831 59.5684L61.9832 59.146L62.6863 56.6655H63.0818L63.7679 59.146L63.8655 59.5757L63.9412 59.0972L64.493 56.6655H64.9641L64.1023 60.2202H63.6751L62.9427 57.6299L62.8865 57.3589L62.8304 57.6299L62.0711 60.2202H61.6438L60.7845 56.6655H61.2532L61.8147 59.0996ZM66.5706 58.4502L67.4983 56.6655H68.0305L66.805 58.8945V60.2202H66.3362V58.8945L65.1106 56.6655H65.6477L66.5706 58.4502ZM68.5799 58.438L68.7605 56.6655H70.5818V57.083H69.1438L69.0364 58.0522C69.2106 57.9497 69.4083 57.8984 69.6297 57.8984C69.9536 57.8984 70.2107 58.0059 70.4012 58.2207C70.5916 58.4339 70.6868 58.7228 70.6868 59.0874C70.6868 59.4536 70.5875 59.7425 70.3889 59.9541C70.192 60.1641 69.9161 60.269 69.5613 60.269C69.2472 60.269 68.9908 60.182 68.7923 60.0078C68.5937 59.8337 68.4806 59.5928 68.4529 59.2852H68.8802C68.9078 59.4886 68.9803 59.6424 69.0974 59.7466C69.2146 59.8491 69.3693 59.9004 69.5613 59.9004C69.7713 59.9004 69.9357 59.8288 70.0545 59.6855C70.1749 59.5423 70.2351 59.3446 70.2351 59.0923C70.2351 58.8547 70.17 58.6642 70.0398 58.521C69.9112 58.3761 69.7395 58.3037 69.5247 58.3037C69.3277 58.3037 69.1731 58.3468 69.0608 58.4331L68.9412 58.5308L68.5799 58.438ZM71.7683 59.8369H73.4529V60.2202H71.2971V56.6655H71.7683V59.8369ZM74.4026 59.0996L74.471 59.5684L74.5711 59.146L75.2742 56.6655H75.6697L76.3557 59.146L76.4534 59.5757L76.5291 59.0972L77.0808 56.6655H77.552L76.6902 60.2202H76.263L75.5305 57.6299L75.4744 57.3589L75.4182 57.6299L74.659 60.2202H74.2317L73.3723 56.6655H73.8411L74.4026 59.0996ZM80.0838 58.5771H78.5432V59.8369H80.3328V60.2202H78.0745V56.6655H80.3084V57.0513H78.5432V58.1938H80.0838V58.5771ZM81.0066 58.438L81.1873 56.6655H83.0086V57.083H81.5706L81.4632 58.0522C81.6373 57.9497 81.8351 57.8984 82.0564 57.8984C82.3803 57.8984 82.6375 58.0059 82.8279 58.2207C83.0183 58.4339 83.1136 58.7228 83.1136 59.0874C83.1136 59.4536 83.0143 59.7425 82.8157 59.9541C82.6188 60.1641 82.3429 60.269 81.9881 60.269C81.6739 60.269 81.4176 60.182 81.219 60.0078C81.0205 59.8337 80.9073 59.5928 80.8797 59.2852H81.3069C81.3346 59.4886 81.407 59.6424 81.5242 59.7466C81.6414 59.8491 81.796 59.9004 81.9881 59.9004C82.198 59.9004 82.3624 59.8288 82.4812 59.6855C82.6017 59.5423 82.6619 59.3446 82.6619 59.0923C82.6619 58.8547 82.5968 58.6642 82.4666 58.521C82.338 58.3761 82.1663 58.3037 81.9514 58.3037C81.7545 58.3037 81.5999 58.3468 81.4876 58.4331L81.368 58.5308L81.0066 58.438ZM84.0755 59.8369H86.1092V60.2202H83.5213V59.8687L85.4695 57.0513H83.553V56.6655H86.031V57.0098L84.0755 59.8369ZM87.1126 57.5786V60.5254C87.1126 61.0332 86.8823 61.2871 86.4217 61.2871C86.3224 61.2871 86.2304 61.2725 86.1458 61.2432V60.8818C86.1979 60.8949 86.2662 60.9014 86.3509 60.9014C86.4518 60.9014 86.5283 60.8737 86.5804 60.8184C86.6341 60.7646 86.6609 60.6702 86.6609 60.5352V57.5786H87.1126ZM86.6145 56.8779C86.6145 56.8063 86.6365 56.7453 86.6805 56.6948C86.726 56.6427 86.7919 56.6167 86.8782 56.6167C86.9661 56.6167 87.0328 56.6419 87.0784 56.6924C87.124 56.7428 87.1468 56.8047 87.1468 56.8779C87.1468 56.9512 87.124 57.0122 87.0784 57.061C87.0328 57.1099 86.9661 57.1343 86.8782 57.1343C86.7903 57.1343 86.7244 57.1099 86.6805 57.061C86.6365 57.0122 86.6145 56.9512 86.6145 56.8779ZM90.4158 56.6655V59.0825C90.4142 59.4178 90.3084 59.6921 90.0984 59.9053C89.8901 60.1185 89.6069 60.2381 89.2488 60.2642L89.1243 60.269C88.7353 60.269 88.4252 60.1641 88.1941 59.9541C87.963 59.7441 87.8458 59.4552 87.8426 59.0874V56.6655H88.3064V59.0728C88.3064 59.3299 88.3772 59.5301 88.5188 59.6733C88.6604 59.8149 88.8623 59.8857 89.1243 59.8857C89.3896 59.8857 89.5922 59.8149 89.7322 59.6733C89.8738 59.5317 89.9446 59.3324 89.9446 59.0752V56.6655H90.4158ZM91.6975 56.939V57.5786H92.1907V57.9277H91.6975V59.5659C91.6975 59.6717 91.7195 59.7515 91.7635 59.8052C91.8074 59.8573 91.8823 59.8833 91.9881 59.8833C92.0402 59.8833 92.1118 59.8735 92.2029 59.854V60.2202C92.0841 60.2528 91.9685 60.269 91.8562 60.269C91.6544 60.269 91.5022 60.208 91.3997 60.0859C91.2971 59.9639 91.2459 59.7905 91.2459 59.5659V57.9277H90.7649V57.5786H91.2459V56.939H91.6975ZM93.3968 56.6655L94.5589 59.5659L95.721 56.6655H96.3289V60.2202H95.8601V58.8359L95.9041 57.3418L94.7371 60.2202H94.3782L93.2137 57.3491L93.26 58.8359V60.2202H92.7913V56.6655H93.3968ZM97.5105 59.8516H99.0559V60.2202H96.9588V59.8882L98.4163 57.9521H96.9807V57.5786H98.9827V57.8984L97.5105 59.8516ZM101.126 56.6655H101.597V59.1826C101.597 59.5228 101.495 59.7889 101.29 59.981C101.086 60.173 100.815 60.269 100.474 60.269C100.121 60.269 99.8461 60.1787 99.6492 59.998C99.4523 59.8174 99.3538 59.5643 99.3538 59.2388H99.8225C99.8225 59.4422 99.8779 59.6009 99.9886 59.7148C100.101 59.8288 100.263 59.8857 100.474 59.8857C100.668 59.8857 100.824 59.8247 100.943 59.7026C101.064 59.5806 101.125 59.4097 101.126 59.1899V56.6655ZM102.791 57.5786V60.5254C102.791 61.0332 102.561 61.2871 102.1 61.2871C102.001 61.2871 101.909 61.2725 101.824 61.2432V60.8818C101.877 60.8949 101.945 60.9014 102.03 60.9014C102.13 60.9014 102.207 60.8737 102.259 60.8184C102.313 60.7646 102.34 60.6702 102.34 60.5352V57.5786H102.791ZM102.293 56.8779C102.293 56.8063 102.315 56.7453 102.359 56.6948C102.405 56.6427 102.471 56.6167 102.557 56.6167C102.645 56.6167 102.712 56.6419 102.757 56.6924C102.803 56.7428 102.825 56.8047 102.825 56.8779C102.825 56.9512 102.803 57.0122 102.757 57.061C102.712 57.1099 102.645 57.1343 102.557 57.1343C102.469 57.1343 102.403 57.1099 102.359 57.061C102.315 57.0122 102.293 56.9512 102.293 56.8779ZM106.324 60.2202H105.853L104.063 57.481V60.2202H103.592V56.6655H104.063L105.858 59.417V56.6655H106.324V60.2202ZM107.923 59.0996L107.991 59.5684L108.092 59.146L108.795 56.6655H109.19L109.876 59.146L109.974 59.5757L110.05 59.0972L110.601 56.6655H111.073L110.211 60.2202H109.783L109.051 57.6299L108.995 57.3589L108.939 57.6299L108.179 60.2202H107.752L106.893 56.6655H107.362L107.923 59.0996ZM112.772 59.5977L113.787 56.6655H114.3L112.982 60.2202H112.567L111.251 56.6655H111.761L112.772 59.5977ZM115.199 60.2202H114.747V57.5786H115.199V60.2202ZM114.71 56.8779C114.71 56.8047 114.732 56.7428 114.776 56.6924C114.822 56.6419 114.888 56.6167 114.976 56.6167C115.064 56.6167 115.131 56.6419 115.177 56.6924C115.222 56.7428 115.245 56.8047 115.245 56.8779C115.245 56.9512 115.222 57.0122 115.177 57.061C115.131 57.1099 115.064 57.1343 114.976 57.1343C114.888 57.1343 114.822 57.1099 114.776 57.061C114.732 57.0122 114.71 56.9512 114.71 56.8779ZM116.6 56.6655L117.762 59.5659L118.924 56.6655H119.532V60.2202H119.063V58.8359L119.107 57.3418L117.94 60.2202H117.581L116.417 57.3491L116.463 58.8359V60.2202H115.994V56.6655H116.6ZM122.742 57.0513H121.6V60.2202H121.134V57.0513H119.993V56.6655H122.742V57.0513ZM125.916 58.5576C125.916 58.901 125.862 59.1973 125.753 59.4463C125.644 59.6937 125.491 59.8874 125.294 60.0273L125.928 60.5254L125.609 60.8208L124.859 60.2251C124.742 60.2544 124.618 60.269 124.488 60.269C124.208 60.269 123.96 60.2007 123.743 60.064C123.527 59.9256 123.359 59.7295 123.238 59.4756C123.119 59.2201 123.058 58.9246 123.055 58.5894V58.333C123.055 57.9912 123.114 57.6893 123.233 57.4272C123.352 57.1652 123.52 56.965 123.736 56.8267C123.954 56.6867 124.203 56.6167 124.483 56.6167C124.77 56.6167 125.021 56.6859 125.238 56.8242C125.456 56.9626 125.623 57.1619 125.741 57.4224C125.858 57.6812 125.916 57.9839 125.916 58.3306V58.5576ZM125.448 58.3281C125.448 57.9098 125.364 57.5876 125.196 57.3613C125.03 57.1335 124.792 57.0195 124.483 57.0195C124.189 57.0195 123.956 57.1326 123.785 57.3589C123.616 57.5835 123.529 57.896 123.524 58.2964V58.5576C123.524 58.9645 123.608 59.2852 123.778 59.5195C123.949 59.7539 124.185 59.8711 124.488 59.8711C124.791 59.8711 125.025 59.7612 125.191 59.5415C125.357 59.3201 125.443 59.0036 125.448 58.5918V58.3281ZM128.006 60.2202H127.552V57.21L126.641 57.5444V57.1343L127.935 56.6484H128.006V60.2202ZM129.798 59.8369H131.832V60.2202H129.244V59.8687L131.192 57.0513H129.276V56.6655H131.754V57.0098L129.798 59.8369ZM132.835 57.5786V60.5254C132.835 61.0332 132.605 61.2871 132.144 61.2871C132.045 61.2871 131.953 61.2725 131.868 61.2432V60.8818C131.921 60.8949 131.989 60.9014 132.074 60.9014C132.174 60.9014 132.251 60.8737 132.303 60.8184C132.357 60.7646 132.384 60.6702 132.384 60.5352V57.5786H132.835ZM132.337 56.8779C132.337 56.8063 132.359 56.7453 132.403 56.6948C132.449 56.6427 132.515 56.6167 132.601 56.6167C132.689 56.6167 132.755 56.6419 132.801 56.6924C132.847 56.7428 132.869 56.8047 132.869 56.8779C132.869 56.9512 132.847 57.0122 132.801 57.061C132.755 57.1099 132.689 57.1343 132.601 57.1343C132.513 57.1343 132.447 57.1099 132.403 57.061C132.359 57.0122 132.337 56.9512 132.337 56.8779ZM134.241 56.6655L135.404 59.5659L136.566 56.6655H137.174V60.2202H136.705V58.8359L136.749 57.3418L135.582 60.2202H135.223L134.058 57.3491L134.105 58.8359V60.2202H133.636V56.6655H134.241ZM139.791 59.0264H140.284V59.395H139.791V60.2202H139.337V59.395H137.718V59.1289L139.31 56.6655H139.791V59.0264ZM138.231 59.0264H139.337V57.2832L139.283 57.3809L138.231 59.0264ZM141.073 56.8022L140.999 57.6763H140.728L140.731 56.4702H141.073V56.8022ZM141.732 56.8022L141.658 57.6763H141.387L141.39 56.4702H141.732V56.8022ZM143.939 58.6333L142.325 58.001V57.5371L144.41 58.46V58.8164L142.325 59.7417V59.2729L143.939 58.6333ZM145.255 58.6479L146.783 59.2656V59.7441L144.786 58.8188V58.4624L146.783 57.5396V58.0181L145.255 58.6479ZM147.586 60.5254H147.198L148.682 56.6655H149.068L147.586 60.5254ZM151.095 59.5195C151.095 59.3975 151.048 59.3031 150.955 59.2363C150.864 59.168 150.704 59.1094 150.474 59.0605C150.247 59.0117 150.065 58.9531 149.93 58.8848C149.796 58.8164 149.697 58.735 149.632 58.6406C149.569 58.5462 149.537 58.4339 149.537 58.3037C149.537 58.0872 149.628 57.9041 149.81 57.7544C149.994 57.6047 150.229 57.5298 150.513 57.5298C150.813 57.5298 151.055 57.6071 151.241 57.7617C151.428 57.9163 151.522 58.1141 151.522 58.355H151.068C151.068 58.2313 151.015 58.1247 150.909 58.0352C150.805 57.9456 150.673 57.9009 150.513 57.9009C150.349 57.9009 150.22 57.9367 150.128 58.0083C150.035 58.0799 149.989 58.1735 149.989 58.2891C149.989 58.3981 150.032 58.4803 150.118 58.5356C150.204 58.591 150.36 58.6439 150.584 58.6943C150.81 58.7448 150.994 58.805 151.134 58.875C151.274 58.945 151.377 59.0296 151.444 59.1289C151.512 59.2266 151.546 59.3462 151.546 59.4878C151.546 59.7238 151.452 59.9134 151.263 60.0566C151.074 60.1982 150.829 60.269 150.528 60.269C150.317 60.269 150.129 60.2316 149.967 60.1567C149.804 60.0819 149.676 59.9777 149.583 59.8442C149.492 59.7091 149.447 59.5635 149.447 59.4072H149.898C149.906 59.5586 149.967 59.679 150.079 59.7686C150.193 59.8564 150.343 59.9004 150.528 59.9004C150.699 59.9004 150.836 59.8662 150.938 59.7979C151.042 59.7279 151.095 59.6351 151.095 59.5195ZM153.194 59.9004C153.355 59.9004 153.496 59.8516 153.616 59.7539C153.737 59.6562 153.804 59.5342 153.817 59.3877H154.244C154.236 59.5391 154.184 59.6831 154.088 59.8198C153.992 59.9565 153.863 60.0656 153.702 60.147C153.542 60.2284 153.373 60.269 153.194 60.269C152.834 60.269 152.548 60.1494 152.335 59.9102C152.123 59.6693 152.017 59.3405 152.017 58.9238V58.8481C152.017 58.591 152.065 58.3623 152.159 58.1621C152.253 57.9619 152.388 57.8065 152.564 57.6958C152.742 57.5851 152.951 57.5298 153.192 57.5298C153.488 57.5298 153.734 57.6185 153.929 57.7959C154.126 57.9733 154.231 58.2036 154.244 58.4868H153.817C153.804 58.3159 153.739 58.1759 153.621 58.0669C153.506 57.9562 153.363 57.9009 153.192 57.9009C152.962 57.9009 152.784 57.9839 152.657 58.1499C152.532 58.3143 152.469 58.5527 152.469 58.8652V58.9507C152.469 59.255 152.532 59.4894 152.657 59.6538C152.782 59.8182 152.961 59.9004 153.194 59.9004ZM156.029 57.9839C155.96 57.9725 155.886 57.9668 155.806 57.9668C155.51 57.9668 155.309 58.0929 155.203 58.3452V60.2202H154.752V57.5786H155.191L155.199 57.8838C155.347 57.6478 155.557 57.5298 155.828 57.5298C155.916 57.5298 155.983 57.5412 156.029 57.564V57.9839ZM156.937 60.2202H156.485V57.5786H156.937V60.2202ZM156.449 56.8779C156.449 56.8047 156.47 56.7428 156.514 56.6924C156.56 56.6419 156.627 56.6167 156.715 56.6167C156.803 56.6167 156.869 56.6419 156.915 56.6924C156.96 56.7428 156.983 56.8047 156.983 56.8779C156.983 56.9512 156.96 57.0122 156.915 57.061C156.869 57.1099 156.803 57.1343 156.715 57.1343C156.627 57.1343 156.56 57.1099 156.514 57.061C156.47 57.0122 156.449 56.9512 156.449 56.8779ZM159.893 58.9287C159.893 59.3307 159.801 59.6546 159.617 59.9004C159.434 60.1462 159.185 60.269 158.87 60.269C158.55 60.269 158.297 60.1673 158.114 59.9639V61.2358H157.662V57.5786H158.074L158.096 57.8716C158.28 57.6437 158.536 57.5298 158.863 57.5298C159.18 57.5298 159.431 57.6494 159.615 57.8887C159.801 58.1279 159.893 58.4608 159.893 58.8872V58.9287ZM159.442 58.8774C159.442 58.5796 159.378 58.3444 159.251 58.1719C159.124 57.9993 158.95 57.9131 158.729 57.9131C158.455 57.9131 158.25 58.0343 158.114 58.2769V59.5391C158.249 59.7799 158.455 59.9004 158.734 59.9004C158.95 59.9004 159.122 59.8149 159.249 59.644C159.377 59.4715 159.442 59.216 159.442 58.8774ZM161.082 56.939V57.5786H161.575V57.9277H161.082V59.5659C161.082 59.6717 161.104 59.7515 161.148 59.8052C161.192 59.8573 161.267 59.8833 161.373 59.8833C161.425 59.8833 161.497 59.8735 161.588 59.854V60.2202C161.469 60.2528 161.353 60.269 161.241 60.269C161.039 60.269 160.887 60.208 160.784 60.0859C160.682 59.9639 160.631 59.7905 160.631 59.5659V57.9277H160.15V57.5786H160.631V56.939H161.082ZM163.704 58.6333L162.091 58.001V57.5371L164.176 58.46V58.8164L162.091 59.7417V59.2729L163.704 58.6333Z" fill="#383838"/>
<path fill-rule="evenodd" clip-rule="evenodd" d="M186.87 52.6267C186.87 51.6668 187.648 50.8887 188.608 50.8887H193.474C194.434 50.8887 195.212 51.6668 195.212 52.6267V57.4931C195.212 58.4529 194.434 59.2311 193.474 59.2311H188.608C187.648 59.2311 186.87 58.4529 186.87 57.4931V52.6267ZM188.608 51.5839C188.032 51.5839 187.565 52.0507 187.565 52.6267V57.4931C187.565 58.069 188.032 58.5359 188.608 58.5359H193.474C194.05 58.5359 194.517 58.069 194.517 57.4931V52.6267C194.517 52.0507 194.05 51.5839 193.474 51.5839H188.608Z" fill="#0F0F0F"/>
<path d="M192.113 50.0542H189.968C189.178 50.0542 188.538 50.6145 188.538 51.3056C188.538 51.9967 189.178 52.5569 189.968 52.5569H192.113C192.903 52.5569 193.543 51.9967 193.543 51.3056C193.543 50.6145 192.903 50.0542 192.113 50.0542Z" fill="white"/>
<path fill-rule="evenodd" clip-rule="evenodd" d="M192.113 50.6799H189.968C189.573 50.6799 189.253 50.96 189.253 51.3056C189.253 51.6511 189.573 51.9312 189.968 51.9312H192.113C192.508 51.9312 192.828 51.6511 192.828 51.3056C192.828 50.96 192.508 50.6799 192.113 50.6799ZM189.968 50.0542C189.178 50.0542 188.538 50.6145 188.538 51.3056C188.538 51.9967 189.178 52.5569 189.968 52.5569H192.113C192.903 52.5569 193.543 51.9967 193.543 51.3056C193.543 50.6145 192.903 50.0542 192.113 50.0542H189.968Z" fill="#0F0F0F"/>
<defs>
<clipPath id="clip0">
<rect width="12.5136" height="19.1875" fill="white" transform="translate(19.1875 87.5952)"/>
</clipPath>
</defs>
</svg>
