<svg width="423" height="323" viewBox="0 0 423 323" fill="none" xmlns="http://www.w3.org/2000/svg">
<g filter="url(#filter0_d)">
<path d="M211.5 280.055H24V288.773L41.691 295H211.5H381.184L399 288.773V280.055H211.5Z" fill="#28011C"/>
<path d="M211.5 280.055H174.748V283.791L178.236 286.282H211.5H244.764L248.253 283.791V280.055H211.5Z" fill="white"/>
<path d="M343.934 85.7661H74.8306C66.1096 85.7661 59.0083 92.8651 59.0083 101.583V280.055H359.88V101.708C359.756 92.9897 352.654 85.7661 343.934 85.7661Z" fill="#28011C"/>
<path opacity="0.43" d="M108.468 136.082H93.6429C89.7807 136.082 86.5415 132.968 86.5415 128.983V114.287C86.5415 110.426 89.6562 107.188 93.6429 107.188H108.468C112.331 107.188 115.57 110.301 115.57 114.287V129.107C115.445 132.968 112.331 136.082 108.468 136.082Z" fill="#5D96B5"/>
<path opacity="0.43" d="M144.847 136.082H130.146C126.284 136.082 123.045 132.968 123.045 128.983V114.287C123.045 110.426 126.159 107.188 130.146 107.188H144.847C148.709 107.188 151.949 110.301 151.949 114.287V129.107C151.949 132.968 148.834 136.082 144.847 136.082Z" fill="#5D96B5"/>
<path opacity="0.43" d="M109.465 217.035H94.6395C90.7774 217.035 87.5382 213.922 87.5382 209.936V195.116C87.5382 191.255 90.6528 188.017 94.6395 188.017H109.465C113.327 188.017 116.566 191.13 116.566 195.116V209.936C116.442 213.922 113.327 217.035 109.465 217.035Z" fill="#5D96B5"/>
<path opacity="0.43" d="M181.351 181.665H166.525C162.663 181.665 159.424 178.551 159.424 174.566V159.87C159.424 156.009 162.538 152.771 166.525 152.771H181.351C185.213 152.771 188.452 155.884 188.452 159.87V174.69C188.452 178.427 185.213 181.665 181.351 181.665Z" fill="#5D96B5"/>
<path opacity="0.43" d="M254.357 177.679H239.532C235.669 177.679 232.43 174.566 232.43 170.58V155.884C232.43 152.023 235.545 148.785 239.532 148.785H254.357C258.219 148.785 261.458 151.899 261.458 155.884V170.705C261.334 174.566 258.219 177.679 254.357 177.679Z" fill="#5D96B5"/>
<path opacity="0.43" d="M290.736 214.42H275.91C272.048 214.42 268.809 211.306 268.809 207.321V192.5C268.809 188.639 271.924 185.401 275.91 185.401H290.736C294.598 185.401 297.837 188.514 297.837 192.5V207.321C297.837 211.306 294.723 214.42 290.736 214.42Z" fill="#5D96B5"/>
<path opacity="0.43" d="M327.239 136.082H312.414C308.552 136.082 305.312 132.968 305.312 128.983V114.287C305.312 110.426 308.427 107.188 312.414 107.188H327.239C331.101 107.188 334.341 110.301 334.341 114.287V129.107C334.341 132.968 331.101 136.082 327.239 136.082Z" fill="#5D96B5"/>
<g filter="url(#filter1_d)">
<path d="M227.215 140.856C225.637 140.856 224.203 139.852 223.773 138.275L220.761 128.526H206.42H192.079L188.781 139.135C188.494 140.139 187.49 140.856 186.486 140.856C185.913 140.856 185.196 141.286 185.196 141.859C185.052 142.719 185.626 143.436 186.486 143.436H227.358C228.219 143.436 228.792 142.719 228.649 141.859C228.362 141.286 227.788 140.856 227.215 140.856Z" fill="#9D1E58"/>
<path d="M222.482 143.436H206.277H190.071C190.071 143.436 184.048 154.762 191.792 167.951C191.792 167.951 192.94 165.371 193.944 164.654C193.944 164.654 193.37 174.976 206.277 187.592C219.184 174.976 218.61 164.654 218.61 164.654C219.471 165.371 220.761 167.951 220.761 167.951C228.505 154.905 222.482 143.436 222.482 143.436Z" fill="#F15A37"/>
<path d="M217.319 143.436H206.42H195.521C192.509 155.622 196.955 159.779 196.955 159.779C196.812 158.919 198.102 158.059 198.102 158.059C199.393 166.231 206.42 171.822 206.42 171.822C206.42 171.822 213.447 166.231 214.738 158.059C214.738 158.059 216.029 158.919 215.885 159.779C215.885 159.779 220.331 155.622 217.319 143.436Z" fill="#FBE829"/>
<path d="M178.742 92.8291L157.231 104.155C154.649 105.445 152.928 108.026 152.785 111.036L152.498 114.334C152.355 117.058 154.506 119.495 157.231 119.495H178.312L178.742 92.8291Z" fill="#C0C0C0"/>
<path d="M233.668 92.8291L255.18 104.155C257.761 105.445 259.482 108.026 259.625 111.036L259.912 114.334C260.056 117.058 257.905 119.495 255.18 119.495H234.098L233.668 92.8291Z" fill="#BEBEBE"/>
<path d="M197.959 24.3009L189.211 36.2001H207.998H223.486L214.738 24.3009C210.579 18.5664 202.118 18.5664 197.959 24.3009Z" fill="#9D1E58"/>
<path d="M206.277 128.527H191.936H183.618C180.75 128.527 178.312 126.089 178.312 123.222L179.029 65.8767C179.172 57.8484 181.323 49.9634 185.339 42.9386L189.211 36.0571H206.277V128.527Z" fill="#E3E3E3"/>
<path d="M206.277 128.527H220.618H228.936C231.804 128.527 234.242 126.089 234.242 123.222L233.525 65.8767C233.381 57.8484 231.23 49.9634 227.215 42.9386L223.343 36.0571H206.277V128.527Z" fill="#CCCCCC"/>
<path d="M215.168 60.7148C215.599 62.7219 215.455 65.1591 214.595 67.883C213.017 73.9043 208.715 80.0689 203.409 84.7999C204.126 84.9433 204.699 84.9433 205.416 84.9433C213.161 84.9433 219.471 78.6353 219.471 70.8937C219.471 66.8795 217.893 63.2954 215.168 60.7148Z" fill="#05A6BD"/>
<path d="M214.595 67.8831C215.312 65.1592 215.455 62.722 215.168 60.7149C213.304 58.8512 210.866 57.7043 208.285 57.1309C208.285 57.4176 208.285 57.5609 208.285 57.8477C208.858 66.1628 202.548 72.4708 194.23 71.8973C193.226 71.8973 192.366 71.7539 191.362 71.4672C191.649 78.3487 196.812 83.9398 203.409 84.9434C208.715 80.069 213.017 73.9044 214.595 67.8831Z" fill="#26B6C2"/>
<path d="M191.362 70.8942C191.362 71.0375 191.362 71.1809 191.362 71.3242C192.223 71.611 193.226 71.7543 194.23 71.7543C202.548 72.3278 208.858 66.0198 208.285 57.7047C208.285 57.418 208.285 57.2746 208.285 56.9879C207.424 56.8445 206.42 56.7012 205.56 56.7012C197.672 56.8445 191.362 63.1525 191.362 70.8942Z" fill="#80CBC6"/>
<path d="M219.471 70.8937H218.036C218.036 74.3344 216.602 77.4884 214.308 79.7823C212.013 82.0761 208.858 83.5097 205.416 83.5097C201.975 83.5097 198.82 82.0761 196.525 79.7823C194.23 77.4884 192.796 74.3344 192.796 70.8937C192.796 67.453 194.23 64.299 196.525 62.0052C198.82 59.7114 201.975 58.2777 205.416 58.2777C208.858 58.2777 212.013 59.7114 214.308 62.0052C216.602 64.299 218.036 67.453 218.036 70.8937H219.471H220.905C220.905 66.5928 219.184 62.722 216.316 59.8547C213.447 56.9875 209.575 55.2671 205.273 55.2671C200.971 55.2671 197.099 56.9875 194.23 59.8547C191.362 62.722 189.641 66.5928 189.641 70.8937C189.641 75.1946 191.362 79.0654 194.23 81.9327C197.099 84.8 200.971 86.5203 205.273 86.5203C209.575 86.5203 213.447 84.8 216.316 81.9327C219.184 79.0654 220.905 75.1946 220.905 70.8937H219.471Z" fill="#9E1E58"/>
<path d="M174.01 119.351H178.455L178.742 92.8291L174.01 95.2663V119.351Z" fill="#A6A6A6"/>
<path d="M238.831 119.351H234.098L233.668 92.8291L238.401 95.2663L238.831 119.351Z" fill="#A6A6A6"/>
</g>
<g clip-path="url(#clip0)">
<path d="M212.07 99H204.252V101.202L206.229 103.379L214 103.465V100.32L212.07 99Z" fill="#9D1757"/>
<path d="M206.678 107.636H205.12L202.593 109.474L205.283 111.848L207.945 111.872L211.31 111.894L211.325 109.596L206.678 107.636Z" fill="#9D1757"/>
<path d="M205.019 112.362L202.314 109.967L200.008 111.641L200 119H200.915L205.019 114.678V112.362Z" fill="#9D1757"/>
<path d="M204.426 107.423L200.031 105.371L200 110.528L204.426 107.423Z" fill="#9D1757"/>
<path d="M201.116 99.0107L200 99L200.035 104.443L205.078 106.798L205.105 103.386L201.116 99.0107Z" fill="#9D1757"/>
</g>
<path d="M348.917 264.714V247.301C345.429 245.059 341.317 243.689 336.708 243.689C327.987 243.689 320.636 248.547 317.272 255.521C316.649 244.935 307.43 236.59 295.968 236.59C293.228 236.59 290.487 237.089 287.995 238.085C284.631 231.11 277.156 226.253 268.56 226.253C262.829 226.253 257.596 228.371 253.734 231.858C253.983 230.737 254.108 229.491 254.108 228.246C254.108 217.162 244.515 208.194 232.679 208.194C228.693 208.194 225.08 209.191 221.841 210.934C220.719 200.846 211.625 193 200.537 193C188.701 193 179.108 201.967 179.108 213.052C179.108 214.671 179.357 216.29 179.731 217.784C175.869 214.422 170.761 212.304 165.03 212.304C154.44 212.304 145.595 219.528 143.975 228.993C139.739 225.506 134.133 223.389 128.028 223.389C114.573 223.389 103.61 233.601 103.61 246.305C103.61 247.675 103.734 249.045 103.983 250.29C100.62 245.558 94.8887 242.444 88.4103 242.444C82.6794 242.444 77.4468 244.935 74.0831 248.671L74.0831 264.714H348.917Z" fill="white"/>
<path d="M127.405 203.958C129.607 203.958 131.392 202.174 131.392 199.973C131.392 197.772 129.607 195.987 127.405 195.987C125.204 195.987 123.419 197.772 123.419 199.973C123.419 202.174 125.204 203.958 127.405 203.958Z" fill="white"/>
<path d="M144.473 185.651C146.675 185.651 148.46 183.866 148.46 181.665C148.46 179.464 146.675 177.68 144.473 177.68C142.272 177.68 140.487 179.464 140.487 181.665C140.487 183.866 142.272 185.651 144.473 185.651Z" fill="white"/>
<path d="M318.02 212.054C320.222 212.054 322.007 210.269 322.007 208.068C322.007 205.867 320.222 204.083 318.02 204.083C315.818 204.083 314.033 205.867 314.033 208.068C314.033 210.269 315.818 212.054 318.02 212.054Z" fill="white"/>
<path d="M276.159 202.837C278.843 202.837 281.018 200.663 281.018 197.98C281.018 195.298 278.843 193.123 276.159 193.123C273.476 193.123 271.301 195.298 271.301 197.98C271.301 200.663 273.476 202.837 276.159 202.837Z" fill="white"/>
<path d="M93.1445 222.64C95.3463 222.64 97.1312 220.855 97.1312 218.654C97.1312 216.453 95.3463 214.669 93.1445 214.669C90.9427 214.669 89.1578 216.453 89.1578 218.654C89.1578 220.855 90.9427 222.64 93.1445 222.64Z" fill="white"/>
<path d="M173.502 197.109C174.259 197.109 174.872 196.495 174.872 195.739C174.872 194.982 174.259 194.369 173.502 194.369C172.745 194.369 172.131 194.982 172.131 195.739C172.131 196.495 172.745 197.109 173.502 197.109Z" fill="white"/>
<path d="M94.5149 189.262C95.2718 189.262 95.8854 188.649 95.8854 187.892C95.8854 187.135 95.2718 186.522 94.5149 186.522C93.7581 186.522 93.1445 187.135 93.1445 187.892C93.1445 188.649 93.7581 189.262 94.5149 189.262Z" fill="white"/>
<path d="M242.895 195.988C243.652 195.988 244.266 195.374 244.266 194.618C244.266 193.861 243.652 193.248 242.895 193.248C242.138 193.248 241.525 193.861 241.525 194.618C241.525 195.374 242.138 195.988 242.895 195.988Z" fill="white"/>
<path d="M331.351 197.109C332.107 197.109 332.721 196.495 332.721 195.739C332.721 194.982 332.107 194.369 331.351 194.369C330.594 194.369 329.98 194.982 329.98 195.739C329.98 196.495 330.594 197.109 331.351 197.109Z" fill="white"/>
<path d="M286.375 181.665C287.132 181.665 287.746 181.051 287.746 180.295C287.746 179.538 287.132 178.925 286.375 178.925C285.619 178.925 285.005 179.538 285.005 180.295C285.005 181.051 285.619 181.665 286.375 181.665Z" fill="white"/>
<path d="M293.975 223.262C294.732 223.262 295.346 222.649 295.346 221.892C295.346 221.136 294.732 220.522 293.975 220.522C293.218 220.522 292.605 221.136 292.605 221.892C292.605 222.649 293.218 223.262 293.975 223.262Z" fill="white"/>
</g>
<defs>
<filter id="filter0_d" x="0" y="0" width="423" height="323" filterUnits="userSpaceOnUse" color-interpolation-filters="sRGB">
<feFlood flood-opacity="0" result="BackgroundImageFix"/>
<feColorMatrix in="SourceAlpha" type="matrix" values="0 0 0 0 0 0 0 0 0 0 0 0 0 0 0 0 0 0 127 0"/>
<feOffset dy="4"/>
<feGaussianBlur stdDeviation="12"/>
<feColorMatrix type="matrix" values="0 0 0 0 0 0 0 0 0 0 0 0 0 0 0 0 0 0 0.55 0"/>
<feBlend mode="normal" in2="BackgroundImageFix" result="effect1_dropShadow"/>
<feBlend mode="normal" in="SourceGraphic" in2="effect1_dropShadow" result="shape"/>
</filter>
<filter id="filter1_d" x="141.491" y="17" width="129.428" height="189.592" filterUnits="userSpaceOnUse" color-interpolation-filters="sRGB">
<feFlood flood-opacity="0" result="BackgroundImageFix"/>
<feColorMatrix in="SourceAlpha" type="matrix" values="0 0 0 0 0 0 0 0 0 0 0 0 0 0 0 0 0 0 127 0"/>
<feOffset dy="8"/>
<feGaussianBlur stdDeviation="5.5"/>
<feColorMatrix type="matrix" values="0 0 0 0 0 0 0 0 0 0 0 0 0 0 0 0 0 0 0.25 0"/>
<feBlend mode="normal" in2="BackgroundImageFix" result="effect1_dropShadow"/>
<feBlend mode="normal" in="SourceGraphic" in2="effect1_dropShadow" result="shape"/>
</filter>
<clipPath id="clip0">
<rect width="14" height="20" fill="white" transform="translate(200 99)"/>
</clipPath>
</defs>
</svg>
