<svg width="150" height="150" viewBox="0 0 264 264" fill="none" xmlns="http://www.w3.org/2000/svg">
<path d="M258.885 5.11475L253.275 5.27975C253.275 5.27975 214.459 5.79725 177.045 24.4197C165.019 30.4247 152.927 38.6429 142.065 49.4998C128.682 62.8831 109.792 84.8416 92.565 105.6H47.52C47.3551 105.592 47.1899 105.592 47.025 105.6C46.3178 105.669 45.6319 105.879 45.0081 106.22C44.3844 106.56 43.8357 107.022 43.395 107.58L16.995 139.26C16.4435 139.948 16.0733 140.764 15.9182 141.632C15.7631 142.501 15.8279 143.394 16.1069 144.231C16.3858 145.068 16.8699 145.821 17.5151 146.423C18.1602 147.024 18.9457 147.455 19.8 147.675L51.975 155.76C51.7295 156.072 50.16 158.07 50.16 158.07L49.5 158.73L49.17 159.72C49.17 159.72 48.7202 161.571 48.84 163.35C48.884 164.004 49.0048 164.867 49.17 165.66L37.785 184.8C37.785 184.8 37.2775 185.825 37.125 186.45C36.9725 187.074 36.9422 187.829 36.96 188.595C36.9957 190.125 37.3742 191.828 38.28 193.875C40.0915 197.968 43.9812 203.368 52.305 211.695C60.6317 220.016 66.0308 223.91 70.125 225.72C72.1721 226.624 73.8738 227.005 75.405 227.04C76.1706 227.057 76.9256 227.028 77.55 226.875C78.1744 226.722 79.2 226.215 79.2 226.215L98.505 214.83C99.2334 214.975 100.042 215.119 100.65 215.16C102.428 215.279 104.28 214.83 104.28 214.83L105.27 214.5L106.095 213.84C106.095 213.84 107.977 212.398 108.24 212.19L116.325 244.2C116.545 245.054 116.975 245.84 117.577 246.485C118.178 247.13 118.932 247.614 119.769 247.893C120.606 248.172 121.499 248.237 122.367 248.082C123.236 247.926 124.052 247.556 124.74 247.005L156.42 220.605C157.038 220.11 157.537 219.482 157.88 218.768C158.223 218.054 158.4 217.272 158.4 216.48V171.27C179.295 153.896 201.409 135.024 214.5 121.935C225.314 111.104 233.419 99.007 239.415 86.9548C257.953 49.6044 258.72 10.7247 258.72 10.7247L258.885 5.11475ZM247.5 16.4997C247.059 24.4417 244.993 52.1482 230.01 82.3348C224.443 93.5251 216.969 104.601 207.075 114.51C194.195 127.387 171.561 146.68 150.48 164.175C150.049 164.447 149.66 164.781 149.325 165.165C124.633 185.63 102.371 203.334 100.98 204.435C100.365 204.365 99.3882 204.306 97.68 203.61C93.7406 202.005 86.8306 197.873 76.56 187.605C66.2837 177.326 61.9967 170.261 60.39 166.32C59.6933 164.611 59.635 163.635 59.565 163.02C60.659 161.632 78.1286 139.608 98.505 115.005C99.0517 114.549 99.5006 113.988 99.825 113.355C117.138 92.4889 136.313 70.1022 149.49 56.9248C159.431 46.989 170.491 39.5691 181.665 33.9897C211.893 18.9443 239.574 16.9156 247.5 16.4997ZM179.52 58.0798C165.002 58.0798 153.12 69.962 153.12 84.4798C153.12 98.9975 165.002 110.88 179.52 110.88C194.038 110.88 205.92 98.9975 205.92 84.4798C205.92 69.962 194.038 58.0798 179.52 58.0798ZM179.52 68.6398C188.331 68.6398 195.36 75.669 195.36 84.4798C195.36 93.2905 188.331 100.32 179.52 100.32C170.709 100.32 163.68 93.2905 163.68 84.4798C163.68 75.669 170.709 68.6398 179.52 68.6398ZM49.995 116.16H83.82C73.6839 128.519 65.351 139.011 59.235 146.685L30.525 139.425L49.995 116.16ZM54.45 177.375C57.4516 182.195 61.8829 187.941 68.97 195.03C76.0538 202.112 81.8035 206.546 86.625 209.55L75.24 216.315C75.0807 216.283 75.0955 216.286 74.415 215.985C72.255 215.03 67.5178 212.052 59.73 204.27C51.9445 196.482 48.9715 191.746 48.015 189.585C47.7136 188.904 47.7169 188.919 47.685 188.76L54.45 177.375ZM147.84 180.18V214.005L124.575 233.475L117.315 204.93C124.967 198.807 135.357 190.443 147.84 180.18ZM33.825 201.795C25.2138 208.412 17.4004 209.264 10.395 216.15C6.89228 219.593 4.1146 224.474 2.47499 231.165C0.835385 237.855 0.164993 246.472 0.164993 258.555V263.835H5.44499C29.6944 263.835 41.5682 260 48.675 252.78C55.7818 245.56 56.9764 237.523 62.37 230.175L53.79 223.905C46.9446 233.231 45.4067 240.964 41.085 245.355C37.2638 249.237 28.7704 252.083 11.22 252.78C11.4925 245.117 11.8624 237.751 12.87 233.64C14.1816 228.288 15.8064 225.719 17.82 223.74C21.8471 219.782 29.7298 218.01 40.095 210.045L33.825 201.795ZM74.415 216.81L73.92 217.14V216.975C73.92 216.975 74.2171 216.897 74.415 216.81Z" fill="#9D1757"/>
</svg>
