<svg width="445" height="178" viewBox="0 0 445 178" fill="none" xmlns="http://www.w3.org/2000/svg">
<g filter="url(#filter0_d)">
<rect x="4" width="437" height="170" rx="6" fill="#10000B"/>
<path d="M4 6C4 2.68629 6.68629 0 10 0H435C438.314 0 441 2.68629 441 6V19H4V6Z" fill="#290315"/>
<path d="M21.2754 52.3574L20.5303 53.1094L15.9365 49.2744L20.5303 45.4395L21.2754 46.1982L17.5498 49.2607L21.2754 52.3574ZM26.27 43.3408L26.0854 50.3818H25.0327L24.8276 43.3408H26.27ZM25.5522 51.3184C25.6753 51.3184 25.7915 51.3434 25.9009 51.3936C26.0102 51.4391 26.1037 51.5029 26.1811 51.585C26.2632 51.667 26.327 51.765 26.3725 51.8789C26.4227 51.9883 26.4477 52.1045 26.4477 52.2275C26.4477 52.3506 26.4227 52.4668 26.3725 52.5762C26.327 52.6855 26.2632 52.7812 26.1811 52.8633C26.1037 52.9408 26.0102 53.0023 25.9009 53.0479C25.7915 53.098 25.6753 53.123 25.5522 53.123C25.4246 53.123 25.3061 53.098 25.1968 53.0479C25.0874 53.0023 24.9917 52.9408 24.9096 52.8633C24.8276 52.7812 24.7615 52.6855 24.7114 52.5762C24.6658 52.4668 24.643 52.3506 24.643 52.2275C24.643 52.1045 24.6658 51.9883 24.7114 51.8789C24.7615 51.765 24.8276 51.667 24.9096 51.585C24.9917 51.5029 25.0874 51.4391 25.1968 51.3936C25.3061 51.3434 25.4246 51.3184 25.5522 51.3184ZM35.6328 48.4336C35.6328 48.862 35.5986 49.2721 35.5302 49.6641C35.4664 50.056 35.3616 50.4206 35.2158 50.7578C35.0699 51.0951 34.8808 51.4027 34.6484 51.6807C34.416 51.9541 34.1311 52.1888 33.7939 52.3848C33.4567 52.5807 33.0647 52.7334 32.6181 52.8428C32.1715 52.9476 31.6634 53 31.0937 53H29.1796V44.0654H31.4834C32.8779 44.0654 33.917 44.4255 34.6005 45.1455C35.2887 45.861 35.6328 46.957 35.6328 48.4336ZM34.3545 48.5225C34.3545 47.889 34.2952 47.3535 34.1767 46.916C34.0582 46.4785 33.8782 46.1253 33.6367 45.8564C33.3951 45.5876 33.0921 45.3939 32.7275 45.2754C32.3629 45.1523 31.9345 45.0908 31.4423 45.0908H30.3964V51.9473H31.3056C33.3382 51.9473 34.3545 50.8057 34.3545 48.5225ZM42.4731 48.4746C42.4731 49.2767 42.3774 49.9694 42.186 50.5527C41.9991 51.1361 41.7439 51.6191 41.4204 52.002C41.1013 52.3802 40.7254 52.6628 40.2924 52.8496C39.864 53.0319 39.4106 53.123 38.9321 53.123C38.3579 53.123 37.8565 53.0205 37.4282 52.8154C37.0043 52.6058 36.6511 52.305 36.3686 51.9131C36.0906 51.5212 35.8832 51.0449 35.7465 50.4844C35.6098 49.9193 35.5414 49.2835 35.5414 48.5771C35.5414 47.7842 35.6349 47.096 35.8217 46.5127C36.0086 45.9294 36.2615 45.4486 36.5805 45.0703C36.9041 44.6875 37.2801 44.4049 37.7084 44.2227C38.1368 44.0358 38.5903 43.9424 39.0688 43.9424C39.643 43.9424 40.142 44.0472 40.5659 44.2568C40.9942 44.4665 41.3497 44.7673 41.6323 45.1592C41.9148 45.5465 42.1245 46.0205 42.2612 46.5811C42.4024 47.1416 42.4731 47.7728 42.4731 48.4746ZM41.2084 48.5635C41.2084 48.0394 41.1674 47.5609 41.0854 47.1279C41.0079 46.6904 40.8803 46.3145 40.7026 46C40.5248 45.6855 40.2947 45.4417 40.0121 45.2686C39.7342 45.0954 39.3969 45.0088 39.0004 45.0088C38.6176 45.0088 38.2872 45.1022 38.0092 45.2891C37.7358 45.4714 37.5102 45.722 37.3325 46.041C37.1547 46.3555 37.0226 46.7269 36.936 47.1553C36.8494 47.5791 36.8061 48.0303 36.8061 48.5088C36.8061 49.0374 36.8471 49.5205 36.9291 49.958C37.0112 50.391 37.1388 50.7646 37.312 51.0791C37.4897 51.389 37.7176 51.6305 37.9955 51.8037C38.2735 51.9769 38.6085 52.0635 39.0004 52.0635C39.3832 52.0635 39.7136 51.9723 39.9916 51.79C40.2696 51.6032 40.4975 51.3525 40.6752 51.0381C40.8575 50.7191 40.992 50.3477 41.0786 49.9238C41.1651 49.5 41.2084 49.0465 41.2084 48.5635ZM48.6708 52.665C47.9553 52.9613 47.2057 53.1094 46.4218 53.1094C45.1594 53.1094 44.1887 52.7334 43.5097 51.9814C42.8352 51.2249 42.498 50.1084 42.498 48.6318C42.498 47.9163 42.5914 47.2692 42.7782 46.6904C42.9651 46.1117 43.2317 45.6217 43.578 45.2207C43.9244 44.8151 44.3437 44.5029 44.8359 44.2842C45.328 44.0654 45.8795 43.9561 46.4902 43.9561C46.9049 43.9561 47.29 43.9925 47.6454 44.0654C48.0009 44.1338 48.3427 44.2409 48.6708 44.3867V45.583C48.3473 45.4053 48.0123 45.2708 47.6659 45.1797C47.3196 45.084 46.9413 45.0361 46.5312 45.0361C46.1119 45.0361 45.7314 45.1159 45.3896 45.2754C45.0523 45.4303 44.7652 45.6582 44.5282 45.959C44.2913 46.2552 44.109 46.6198 43.9814 47.0527C43.8538 47.4811 43.79 47.971 43.79 48.5225C43.79 49.68 44.0247 50.5527 44.4941 51.1406C44.9635 51.7285 45.6516 52.0225 46.5585 52.0225C46.9413 52.0225 47.3082 51.9792 47.6591 51.8926C48.01 51.8014 48.3473 51.6761 48.6708 51.5166V52.665ZM55.6957 45.1045H53.0502V53H51.8197V45.1045H49.1742V44.0654H55.6957V45.1045ZM63.0009 44.0654L59.7675 49.8076V53H58.537V49.7803L55.3036 44.0654H56.7733L58.5507 47.333L59.2069 48.6455L59.8085 47.4561L61.6063 44.0654H63.0009ZM68.9662 46.7998C68.9662 47.1644 68.8978 47.5267 68.7611 47.8867C68.6244 48.2422 68.4125 48.5612 68.1254 48.8438C67.8382 49.1263 67.4714 49.3564 67.0248 49.5342C66.5782 49.7074 66.0449 49.7939 65.4252 49.7939H64.3177V53H63.1009V44.0654H65.6166C66.0586 44.0654 66.4824 44.1156 66.888 44.2158C67.2936 44.3115 67.6491 44.4688 67.9545 44.6875C68.2643 44.9062 68.5104 45.1888 68.6927 45.5352C68.875 45.8815 68.9662 46.3031 68.9662 46.7998ZM67.7015 46.8545C67.7015 46.2803 67.5124 45.8405 67.1341 45.5352C66.7604 45.2298 66.2364 45.0771 65.5619 45.0771H64.3177V48.7549H65.4525C66.1726 48.7549 66.7263 48.5977 67.1136 48.2832C67.5056 47.9688 67.7015 47.4925 67.7015 46.8545ZM75.1912 53H70.1121V44.0654H75.1912V45.0908H71.3289V47.8594H75.0409V48.8848H71.3289V51.9609H75.1912V53ZM88.783 53H87.5936V48.6182C87.5936 48.0895 87.4933 47.6953 87.2928 47.4355C87.0968 47.1712 86.8143 47.0391 86.4451 47.0391C86.2856 47.0391 86.1352 47.0618 85.9939 47.1074C85.8572 47.1484 85.7137 47.2236 85.5633 47.333C85.4129 47.4378 85.2488 47.5814 85.0711 47.7637C84.8934 47.946 84.6883 48.1738 84.4559 48.4473V53H83.2664V43.3408H84.4559V46.1367L84.4148 47.2168C84.6017 46.9935 84.784 46.8066 84.9617 46.6562C85.144 46.5013 85.324 46.376 85.5018 46.2803C85.684 46.1846 85.8686 46.1162 86.0555 46.0752C86.2423 46.0342 86.436 46.0137 86.6365 46.0137C87.3201 46.0137 87.8488 46.2233 88.2225 46.6426C88.5962 47.0573 88.783 47.6839 88.783 48.5225V53ZM95.5139 52.9043C95.2451 52.9727 94.9671 53.0205 94.68 53.0479C94.3929 53.0798 94.1012 53.0957 93.805 53.0957C92.9436 53.0957 92.3011 52.902 91.8772 52.5146C91.4534 52.1227 91.2415 51.5234 91.2415 50.7168V47.1348H89.3206V46.1367H91.2415V44.25L92.4309 43.9424V46.1367H95.5139V47.1348H92.4309V50.6211C92.4309 51.1133 92.5608 51.4824 92.8206 51.7285C93.0849 51.9701 93.4723 52.0908 93.9827 52.0908C94.2014 52.0908 94.4407 52.0749 94.7005 52.043C94.9602 52.0065 95.2314 51.9518 95.5139 51.8789V52.9043ZM101.595 53V48.0713C101.595 47.8571 101.586 47.6816 101.568 47.5449C101.554 47.4082 101.529 47.3011 101.493 47.2236C101.461 47.1416 101.418 47.0846 101.363 47.0527C101.313 47.0208 101.249 47.0049 101.172 47.0049C101.08 47.0049 100.996 47.0322 100.919 47.0869C100.841 47.1416 100.757 47.2305 100.666 47.3535C100.579 47.4766 100.481 47.6406 100.372 47.8457C100.267 48.0462 100.142 48.2946 99.9959 48.5908V53H98.9089V48.2012C98.9089 47.9505 98.8998 47.7477 98.8816 47.5928C98.8679 47.4378 98.8429 47.3171 98.8064 47.2305C98.7745 47.1439 98.7312 47.0846 98.6765 47.0527C98.6218 47.0208 98.5558 47.0049 98.4783 47.0049C98.3962 47.0049 98.3188 47.0277 98.2459 47.0732C98.1729 47.1188 98.0909 47.2008 97.9998 47.3193C97.9132 47.4378 97.8152 47.5996 97.7058 47.8047C97.5964 48.0098 97.4666 48.2718 97.3162 48.5908V53H96.2224V46.1367H97.1316L97.1863 47.4424C97.3048 47.1826 97.4187 46.9616 97.5281 46.7793C97.642 46.597 97.7582 46.4512 97.8767 46.3418C97.9952 46.2279 98.1205 46.1458 98.2527 46.0957C98.3894 46.041 98.5398 46.0137 98.7039 46.0137C99.073 46.0137 99.3533 46.1344 99.5447 46.376C99.7361 46.6175 99.8318 46.9912 99.8318 47.4971C99.9412 47.2601 100.048 47.0505 100.153 46.8682C100.258 46.6813 100.37 46.5264 100.488 46.4033C100.611 46.2757 100.746 46.18 100.891 46.1162C101.037 46.0479 101.206 46.0137 101.397 46.0137C102.259 46.0137 102.689 46.6768 102.689 48.0029V53H101.595ZM105.756 44.3184H103.726V43.3408H106.959V52.0088H109.003V53H103.5V52.0088H105.756V44.3184ZM110.47 46.1982L111.209 45.4395L115.802 49.2744L111.209 53.1094L110.47 52.3574L114.196 49.2881L110.47 46.1982ZM21.2754 68.3574L20.5303 69.1094L15.9365 65.2744L20.5303 61.4395L21.2754 62.1982L17.5498 65.2607L21.2754 68.3574ZM28.3276 69H27.1382V64.6182C27.1382 64.0895 27.0379 63.6953 26.8374 63.4355C26.6414 63.1712 26.3589 63.0391 25.9897 63.0391C25.8302 63.0391 25.6798 63.0618 25.5386 63.1074C25.4018 63.1484 25.2583 63.2236 25.1079 63.333C24.9575 63.4378 24.7934 63.5814 24.6157 63.7637C24.438 63.946 24.2329 64.1738 24.0005 64.4473V69H22.811V59.3408H24.0005V62.1367L23.9595 63.2168C24.1463 62.9935 24.3286 62.8066 24.5063 62.6562C24.6886 62.5013 24.8686 62.376 25.0464 62.2803C25.2287 62.1846 25.4132 62.1162 25.6001 62.0752C25.7869 62.0342 25.9806 62.0137 26.1811 62.0137C26.8647 62.0137 27.3934 62.2233 27.7671 62.6426C28.1408 63.0573 28.3276 63.6839 28.3276 64.5225V69ZM35.0586 68.9043C34.7897 68.9727 34.5117 69.0205 34.2246 69.0479C33.9375 69.0798 33.6458 69.0957 33.3496 69.0957C32.4882 69.0957 31.8457 68.902 31.4218 68.5146C30.998 68.1227 30.7861 67.5234 30.7861 66.7168V63.1348H28.8652V62.1367H30.7861V60.25L31.9755 59.9424V62.1367H35.0586V63.1348H31.9755V66.6211C31.9755 67.1133 32.1054 67.4824 32.3652 67.7285C32.6295 67.9701 33.0169 68.0908 33.5273 68.0908C33.7461 68.0908 33.9853 68.0749 34.2451 68.043C34.5048 68.0065 34.776 67.9518 35.0586 67.8789V68.9043ZM41.1401 69V64.0713C41.1401 63.8571 41.131 63.6816 41.1127 63.5449C41.0991 63.4082 41.074 63.3011 41.0375 63.2236C41.0056 63.1416 40.9623 63.0846 40.9077 63.0527C40.8575 63.0208 40.7937 63.0049 40.7162 63.0049C40.6251 63.0049 40.5408 63.0322 40.4633 63.0869C40.3858 63.1416 40.3015 63.2305 40.2104 63.3535C40.1238 63.4766 40.0258 63.6406 39.9164 63.8457C39.8116 64.0462 39.6863 64.2946 39.5405 64.5908V69H38.4536V64.2012C38.4536 63.9505 38.4444 63.7477 38.4262 63.5928C38.4125 63.4378 38.3875 63.3171 38.351 63.2305C38.3191 63.1439 38.2758 63.0846 38.2211 63.0527C38.1664 63.0208 38.1004 63.0049 38.0229 63.0049C37.9409 63.0049 37.8634 63.0277 37.7905 63.0732C37.7176 63.1188 37.6355 63.2008 37.5444 63.3193C37.4578 63.4378 37.3598 63.5996 37.2504 63.8047C37.1411 64.0098 37.0112 64.2718 36.8608 64.5908V69H35.767V62.1367H36.6762L36.7309 63.4424C36.8494 63.1826 36.9633 62.9616 37.0727 62.7793C37.1866 62.597 37.3028 62.4512 37.4213 62.3418C37.5398 62.2279 37.6651 62.1458 37.7973 62.0957C37.934 62.041 38.0844 62.0137 38.2485 62.0137C38.6176 62.0137 38.8979 62.1344 39.0893 62.376C39.2807 62.6175 39.3764 62.9912 39.3764 63.4971C39.4858 63.2601 39.5929 63.0505 39.6977 62.8682C39.8025 62.6813 39.9142 62.5264 40.0327 62.4033C40.1557 62.2757 40.2901 62.18 40.436 62.1162C40.5818 62.0479 40.7504 62.0137 40.9418 62.0137C41.8032 62.0137 42.2338 62.6768 42.2338 64.0029V69H41.1401ZM45.3007 60.3184H43.2704V59.3408H46.5038V68.0088H48.5478V69H43.0448V68.0088H45.3007V60.3184ZM50.015 62.1982L50.7533 61.4395L55.3471 65.2744L50.7533 69.1094L50.015 68.3574L53.7406 65.2881L50.015 62.1982ZM34.7099 84.3574L33.9648 85.1094L29.3711 81.2744L33.9648 77.4395L34.7099 78.1982L30.9843 81.2607L34.7099 84.3574ZM41.7621 85H40.5727V80.6182C40.5727 80.0895 40.4724 79.6953 40.2719 79.4355C40.0759 79.1712 39.7934 79.0391 39.4243 79.0391C39.2648 79.0391 39.1144 79.0618 38.9731 79.1074C38.8364 79.1484 38.6928 79.2236 38.5424 79.333C38.392 79.4378 38.228 79.5814 38.0502 79.7637C37.8725 79.946 37.6674 80.1738 37.435 80.4473V85H36.2455V75.3408H37.435V78.1367L37.394 79.2168C37.5808 78.9935 37.7631 78.8066 37.9409 78.6562C38.1232 78.5013 38.3032 78.376 38.4809 78.2803C38.6632 78.1846 38.8478 78.1162 39.0346 78.0752C39.2215 78.0342 39.4151 78.0137 39.6157 78.0137C40.2993 78.0137 40.8279 78.2233 41.2016 78.6426C41.5753 79.0573 41.7621 79.6839 41.7621 80.5225V85ZM48.7597 81.2061C48.7597 81.3747 48.7574 81.516 48.7529 81.6299C48.7483 81.7438 48.7415 81.8509 48.7323 81.9512H43.913C43.913 82.653 44.109 83.193 44.5009 83.5713C44.8928 83.945 45.4579 84.1318 46.1962 84.1318C46.3967 84.1318 46.5973 84.125 46.7978 84.1113C46.9983 84.0931 47.192 84.0703 47.3788 84.043C47.5657 84.0156 47.7434 83.986 47.912 83.9541C48.0852 83.9176 48.2447 83.8789 48.3905 83.8379V84.8154C48.067 84.9066 47.7001 84.9795 47.29 85.0342C46.8844 85.0934 46.4628 85.123 46.0253 85.123C45.4374 85.123 44.9316 85.0433 44.5077 84.8838C44.0839 84.7243 43.7353 84.4941 43.4618 84.1934C43.193 83.888 42.9924 83.5166 42.8603 83.0791C42.7327 82.637 42.6689 82.138 42.6689 81.582C42.6689 81.099 42.7372 80.6432 42.8739 80.2148C43.0152 79.7819 43.218 79.4036 43.4823 79.0801C43.7512 78.752 44.0793 78.4922 44.4667 78.3008C44.8541 78.1094 45.2939 78.0137 45.7861 78.0137C46.2646 78.0137 46.6884 78.0889 47.0575 78.2393C47.4267 78.3896 47.7366 78.6038 47.9872 78.8818C48.2424 79.1553 48.4338 79.4902 48.5614 79.8867C48.6936 80.2786 48.7597 80.7184 48.7597 81.2061ZM47.5224 81.0352C47.5361 80.7298 47.5064 80.4518 47.4335 80.2012C47.3606 79.946 47.2467 79.7272 47.0917 79.5449C46.9413 79.3626 46.7522 79.2214 46.5243 79.1211C46.2965 79.0163 46.0321 78.9639 45.7314 78.9639C45.4716 78.9639 45.2346 79.014 45.0204 79.1143C44.8062 79.2145 44.6217 79.3558 44.4667 79.5381C44.3118 79.7204 44.1864 79.9391 44.0907 80.1943C43.995 80.4495 43.9358 80.7298 43.913 81.0352H47.5224ZM54.0893 85L54.0619 84.0771C53.6882 84.4463 53.3077 84.7129 52.9203 84.877C52.5375 85.041 52.1342 85.123 51.7104 85.123C51.3184 85.123 50.9835 85.0729 50.7055 84.9727C50.4275 84.8724 50.1973 84.7357 50.015 84.5625C49.8373 84.3848 49.7051 84.1774 49.6186 83.9404C49.5365 83.7035 49.4955 83.446 49.4955 83.168C49.4955 82.4798 49.7507 81.9421 50.2611 81.5547C50.7761 81.1628 51.5349 80.9668 52.5375 80.9668H53.9594V80.3652C53.9594 79.9596 53.8295 79.6361 53.5697 79.3945C53.31 79.1484 52.9135 79.0254 52.3803 79.0254C51.9929 79.0254 51.6101 79.0687 51.2318 79.1553C50.8581 79.2419 50.4708 79.3649 50.0697 79.5244V78.4512C50.2201 78.3965 50.3865 78.3441 50.5687 78.2939C50.7556 78.2393 50.9516 78.1914 51.1566 78.1504C51.3617 78.1094 51.5759 78.0775 51.7992 78.0547C52.0225 78.0273 52.2481 78.0137 52.476 78.0137C52.8907 78.0137 53.2644 78.0592 53.5971 78.1504C53.9298 78.2415 54.21 78.3805 54.4379 78.5674C54.6703 78.7542 54.848 78.9889 54.9711 79.2715C55.0941 79.554 55.1557 79.8867 55.1557 80.2695V85H54.0893ZM53.9594 81.876H52.4486C52.1524 81.876 51.8972 81.9056 51.683 81.9648C51.4688 82.0241 51.2934 82.1084 51.1566 82.2178C51.0199 82.3271 50.9174 82.4593 50.849 82.6143C50.7852 82.7646 50.7533 82.9355 50.7533 83.127C50.7533 83.2591 50.7738 83.3867 50.8148 83.5098C50.8559 83.6283 50.9219 83.7354 51.0131 83.8311C51.1042 83.9222 51.2227 83.9951 51.3686 84.0498C51.5144 84.1045 51.6921 84.1318 51.9018 84.1318C52.1752 84.1318 52.4874 84.0498 52.8383 83.8857C53.1937 83.7171 53.5674 83.4528 53.9594 83.0928V81.876ZM56.0487 81.7119C56.0487 81.1286 56.1285 80.6113 56.288 80.1602C56.4475 79.7044 56.6731 79.3216 56.9647 79.0117C57.2609 78.6973 57.6141 78.4603 58.0243 78.3008C58.439 78.1367 58.8993 78.0547 59.4052 78.0547C59.6239 78.0547 59.8381 78.0684 60.0477 78.0957C60.2619 78.123 60.4716 78.1663 60.6766 78.2256V75.3408H61.8729V85H60.8065L60.7655 83.7012C60.4328 84.1842 60.0728 84.542 59.6854 84.7744C59.2981 85.0068 58.8788 85.123 58.4276 85.123C58.0357 85.123 57.6893 85.041 57.3886 84.877C57.0923 84.7129 56.844 84.4827 56.6434 84.1865C56.4475 83.8857 56.2994 83.5257 56.1991 83.1064C56.0988 82.6872 56.0487 82.2223 56.0487 81.7119ZM57.2655 81.6367C57.2655 82.4661 57.3863 83.0859 57.6278 83.4961C57.8739 83.9017 58.2203 84.1045 58.6669 84.1045C58.9677 84.1045 59.2844 83.9701 59.6171 83.7012C59.9543 83.4323 60.3075 83.0335 60.6766 82.5049V79.3193C60.4807 79.2282 60.2642 79.1598 60.0272 79.1143C59.7902 79.0641 59.5555 79.0391 59.3231 79.0391C58.676 79.0391 58.1701 79.2487 57.8055 79.668C57.4455 80.0872 57.2655 80.7435 57.2655 81.6367ZM63.4496 78.1982L64.1879 77.4395L68.7816 81.2744L64.1879 85.1094L63.4496 84.3574L67.1752 81.2881L63.4496 78.1982ZM48.1445 100.357L47.3993 101.109L42.8056 97.2744L47.3993 93.4395L48.1445 94.1982L44.4189 97.2607L48.1445 100.357ZM55.1146 99.127C55.1146 99.3685 55.0736 99.585 54.9916 99.7764C54.9096 99.9678 54.7979 100.139 54.6566 100.289C54.5154 100.435 54.3513 100.56 54.1645 100.665C53.9776 100.77 53.7771 100.856 53.5629 100.925C53.3533 100.993 53.1368 101.043 52.9135 101.075C52.6902 101.107 52.4714 101.123 52.2572 101.123C51.7924 101.123 51.364 101.103 50.9721 101.062C50.5847 101.021 50.2042 100.954 49.8305 100.863V99.7695C50.2315 99.8835 50.6303 99.9701 51.0268 100.029C51.4232 100.089 51.8174 100.118 52.2094 100.118C52.779 100.118 53.2006 100.041 53.474 99.8857C53.7475 99.7308 53.8842 99.5098 53.8842 99.2227C53.8842 99.0996 53.8614 98.9902 53.8158 98.8945C53.7748 98.7943 53.6973 98.7008 53.5834 98.6143C53.4695 98.5231 53.2917 98.4297 53.0502 98.334C52.8132 98.2383 52.4874 98.1289 52.0727 98.0059C51.7628 97.9147 51.4756 97.8122 51.2113 97.6982C50.9516 97.5798 50.726 97.4408 50.5346 97.2812C50.3432 97.1217 50.1928 96.9349 50.0834 96.7207C49.974 96.5065 49.9193 96.2536 49.9193 95.9619C49.9193 95.7705 49.9626 95.5609 50.0492 95.333C50.1404 95.1051 50.293 94.8932 50.5072 94.6973C50.7214 94.5013 51.0108 94.3395 51.3754 94.2119C51.74 94.0798 52.1957 94.0137 52.7426 94.0137C53.0115 94.0137 53.31 94.0296 53.6381 94.0615C53.9662 94.0889 54.308 94.139 54.6635 94.2119V95.2715C54.2898 95.1803 53.9343 95.1143 53.5971 95.0732C53.2644 95.0277 52.975 95.0049 52.7289 95.0049C52.4327 95.0049 52.182 95.0277 51.977 95.0732C51.7764 95.1188 51.6124 95.1826 51.4848 95.2646C51.3617 95.3421 51.2729 95.4355 51.2182 95.5449C51.1635 95.6497 51.1361 95.7637 51.1361 95.8867C51.1361 96.0098 51.1589 96.1214 51.2045 96.2217C51.2546 96.3219 51.3435 96.4199 51.4711 96.5156C51.6033 96.6068 51.7855 96.7002 52.018 96.7959C52.2504 96.887 52.5534 96.9873 52.9271 97.0967C53.3327 97.2152 53.6745 97.3405 53.9525 97.4727C54.2305 97.6003 54.4561 97.7438 54.6293 97.9033C54.8025 98.0628 54.9255 98.2428 54.9984 98.4434C55.0759 98.6439 55.1146 98.8717 55.1146 99.127ZM61.7294 100.747C61.4195 100.866 61.1005 100.952 60.7723 101.007C60.4488 101.066 60.1138 101.096 59.7675 101.096C58.6828 101.096 57.8466 100.802 57.2587 100.214C56.6753 99.626 56.3837 98.7669 56.3837 97.6367C56.3837 97.0944 56.468 96.6022 56.6366 96.1602C56.8052 95.7181 57.0422 95.3398 57.3475 95.0254C57.6529 94.7109 58.0175 94.4694 58.4413 94.3008C58.8651 94.1276 59.3322 94.041 59.8427 94.041C60.1981 94.041 60.5308 94.0661 60.8407 94.1162C61.1506 94.1663 61.4468 94.2484 61.7294 94.3623V95.4971C61.4331 95.3421 61.1301 95.2305 60.8202 95.1621C60.5149 95.0892 60.1981 95.0527 59.87 95.0527C59.5647 95.0527 59.2753 95.112 59.0018 95.2305C58.733 95.3444 58.496 95.5107 58.2909 95.7295C58.0858 95.9482 57.924 96.2148 57.8055 96.5293C57.6871 96.8438 57.6278 97.1992 57.6278 97.5957C57.6278 98.4251 57.8283 99.0472 58.2294 99.4619C58.635 99.8721 59.1955 100.077 59.911 100.077C60.2346 100.077 60.5468 100.041 60.8475 99.9678C61.1529 99.8949 61.4468 99.7855 61.7294 99.6396V100.747ZM63.3949 94.1367H64.4818L64.516 95.4014C64.9216 94.9137 65.3203 94.5605 65.7123 94.3418C66.1087 94.123 66.5075 94.0137 66.9086 94.0137C67.6195 94.0137 68.1573 94.2438 68.5218 94.7041C68.891 95.1644 69.0619 95.848 69.0345 96.7549H67.8314C67.8451 96.1533 67.7562 95.7181 67.5648 95.4492C67.378 95.1758 67.1022 95.0391 66.7377 95.0391C66.5782 95.0391 66.4164 95.0687 66.2523 95.1279C66.0928 95.1826 65.9265 95.2738 65.7533 95.4014C65.5847 95.5244 65.4046 95.6839 65.2132 95.8799C65.0218 96.0758 64.8168 96.3128 64.598 96.5908V101H63.3949V94.1367ZM72.1698 95.1211H70.1395V94.1367H73.3729V100.009H75.4168V101H69.9139V100.009H72.1698V95.1211ZM72.5868 91.2588C72.7189 91.2588 72.842 91.2839 72.9559 91.334C73.0698 91.3796 73.1678 91.4456 73.2498 91.5322C73.3364 91.6188 73.4025 91.7191 73.4481 91.833C73.4982 91.9424 73.5233 92.0632 73.5233 92.1953C73.5233 92.3229 73.4982 92.4437 73.4481 92.5576C73.4025 92.6715 73.3364 92.7718 73.2498 92.8584C73.1678 92.945 73.0698 93.0133 72.9559 93.0635C72.842 93.109 72.7189 93.1318 72.5868 93.1318C72.4546 93.1318 72.3315 93.109 72.2176 93.0635C72.1037 93.0133 72.0034 92.945 71.9168 92.8584C71.8348 92.7718 71.7687 92.6715 71.7186 92.5576C71.673 92.4437 71.6502 92.3229 71.6502 92.1953C71.6502 92.0632 71.673 91.9424 71.7186 91.833C71.7687 91.7191 71.8348 91.6188 71.9168 91.5322C72.0034 91.4456 72.1037 91.3796 72.2176 91.334C72.3315 91.2839 72.4546 91.2588 72.5868 91.2588ZM82.4144 97.4453C82.4144 98.056 82.3278 98.5892 82.1546 99.0449C81.986 99.5007 81.7513 99.8789 81.4505 100.18C81.1497 100.48 80.7943 100.706 80.3841 100.856C79.9739 101.007 79.5296 101.082 79.0511 101.082C78.8323 101.082 78.6136 101.071 78.3948 101.048C78.1807 101.025 77.9619 100.986 77.7386 100.932V103.803H76.5491V94.1367H77.6087L77.6839 95.2852C78.0257 94.8158 78.3903 94.4876 78.7777 94.3008C79.165 94.1094 79.5843 94.0137 80.0355 94.0137C80.4274 94.0137 80.7715 94.0957 81.0677 94.2598C81.3639 94.4238 81.6123 94.6562 81.8128 94.957C82.0133 95.2533 82.1637 95.6133 82.264 96.0371C82.3642 96.4564 82.4144 96.9258 82.4144 97.4453ZM81.1976 97.5C81.1976 97.14 81.1702 96.8096 81.1155 96.5088C81.0654 96.208 80.9834 95.9505 80.8695 95.7363C80.7555 95.5221 80.6097 95.3558 80.432 95.2373C80.2542 95.1143 80.0423 95.0527 79.7962 95.0527C79.6458 95.0527 79.4932 95.0778 79.3382 95.1279C79.1833 95.1735 79.0215 95.2533 78.8529 95.3672C78.6888 95.4766 78.5133 95.6247 78.3265 95.8115C78.1442 95.9938 77.9482 96.2217 77.7386 96.4951V99.8242C77.9573 99.9154 78.1875 99.9883 78.429 100.043C78.6706 100.093 78.9075 100.118 79.14 100.118C79.7825 100.118 80.2861 99.9017 80.6507 99.4688C81.0153 99.0312 81.1976 98.375 81.1976 97.5ZM88.7967 100.904C88.5278 100.973 88.2498 101.021 87.9627 101.048C87.6756 101.08 87.3839 101.096 87.0877 101.096C86.2264 101.096 85.5838 100.902 85.16 100.515C84.7361 100.123 84.5242 99.5234 84.5242 98.7168V95.1348H82.6033V94.1367H84.5242V92.25L85.7137 91.9424V94.1367H88.7967V95.1348H85.7137V98.6211C85.7137 99.1133 85.8436 99.4824 86.1033 99.7285C86.3676 99.9701 86.755 100.091 87.2654 100.091C87.4842 100.091 87.7234 100.075 87.9832 100.043C88.243 100.007 88.5141 99.9518 88.7967 99.8789V100.904ZM102.136 99.127C102.136 99.3685 102.094 99.585 102.012 99.7764C101.93 99.9678 101.819 100.139 101.677 100.289C101.536 100.435 101.372 100.56 101.185 100.665C100.998 100.77 100.798 100.856 100.584 100.925C100.374 100.993 100.158 101.043 99.9343 101.075C99.711 101.107 99.4923 101.123 99.2781 101.123C98.8132 101.123 98.3849 101.103 97.9929 101.062C97.6056 101.021 97.225 100.954 96.8513 100.863V99.7695C97.2524 99.8835 97.6511 99.9701 98.0476 100.029C98.4441 100.089 98.8383 100.118 99.2302 100.118C99.7999 100.118 100.221 100.041 100.495 99.8857C100.768 99.7308 100.905 99.5098 100.905 99.2227C100.905 99.0996 100.882 98.9902 100.837 98.8945C100.796 98.7943 100.718 98.7008 100.604 98.6143C100.49 98.5231 100.313 98.4297 100.071 98.334C99.8341 98.2383 99.5082 98.1289 99.0935 98.0059C98.7836 97.9147 98.4965 97.8122 98.2322 97.6982C97.9724 97.5798 97.7468 97.4408 97.5554 97.2812C97.364 97.1217 97.2136 96.9349 97.1043 96.7207C96.9949 96.5065 96.9402 96.2536 96.9402 95.9619C96.9402 95.7705 96.9835 95.5609 97.0701 95.333C97.1612 95.1051 97.3139 94.8932 97.5281 94.6973C97.7423 94.5013 98.0317 94.3395 98.3962 94.2119C98.7608 94.0798 99.2166 94.0137 99.7634 94.0137C100.032 94.0137 100.331 94.0296 100.659 94.0615C100.987 94.0889 101.329 94.139 101.684 94.2119V95.2715C101.311 95.1803 100.955 95.1143 100.618 95.0732C100.285 95.0277 99.9959 95.0049 99.7498 95.0049C99.4535 95.0049 99.2029 95.0277 98.9978 95.0732C98.7973 95.1188 98.6332 95.1826 98.5056 95.2646C98.3826 95.3421 98.2937 95.4355 98.239 95.5449C98.1843 95.6497 98.157 95.7637 98.157 95.8867C98.157 96.0098 98.1798 96.1214 98.2253 96.2217C98.2755 96.3219 98.3643 96.4199 98.492 96.5156C98.6241 96.6068 98.8064 96.7002 99.0388 96.7959C99.2712 96.887 99.5743 96.9873 99.948 97.0967C100.354 97.2152 100.695 97.3405 100.973 97.4727C101.251 97.6003 101.477 97.7438 101.65 97.9033C101.823 98.0628 101.946 98.2428 102.019 98.4434C102.097 98.6439 102.136 98.8717 102.136 99.127ZM103.698 94.1367H104.785L104.82 95.4014C105.225 94.9137 105.624 94.5605 106.016 94.3418C106.412 94.123 106.811 94.0137 107.212 94.0137C107.923 94.0137 108.461 94.2438 108.825 94.7041C109.195 95.1644 109.365 95.848 109.338 96.7549H108.135C108.149 96.1533 108.06 95.7181 107.868 95.4492C107.682 95.1758 107.406 95.0391 107.041 95.0391C106.882 95.0391 106.72 95.0687 106.556 95.1279C106.396 95.1826 106.23 95.2738 106.057 95.4014C105.888 95.5244 105.708 95.6839 105.517 95.8799C105.325 96.0758 105.12 96.3128 104.902 96.5908V101H103.698V94.1367ZM115.467 100.747C115.158 100.866 114.839 100.952 114.51 101.007C114.187 101.066 113.852 101.096 113.506 101.096C112.421 101.096 111.585 100.802 110.997 100.214C110.413 99.626 110.122 98.7669 110.122 97.6367C110.122 97.0944 110.206 96.6022 110.375 96.1602C110.543 95.7181 110.78 95.3398 111.086 95.0254C111.391 94.7109 111.756 94.4694 112.179 94.3008C112.603 94.1276 113.07 94.041 113.581 94.041C113.936 94.041 114.269 94.0661 114.579 94.1162C114.889 94.1663 115.185 94.2484 115.467 94.3623V95.4971C115.171 95.3421 114.868 95.2305 114.558 95.1621C114.253 95.0892 113.936 95.0527 113.608 95.0527C113.303 95.0527 113.013 95.112 112.74 95.2305C112.471 95.3444 112.234 95.5107 112.029 95.7295C111.824 95.9482 111.662 96.2148 111.544 96.5293C111.425 96.8438 111.366 97.1992 111.366 97.5957C111.366 98.4251 111.566 99.0472 111.967 99.4619C112.373 99.8721 112.934 100.077 113.649 100.077C113.973 100.077 114.285 100.041 114.586 99.9678C114.891 99.8949 115.185 99.7855 115.467 99.6396V100.747ZM122.547 96.584H116.668V95.5791H122.547V96.584ZM122.547 98.9629H116.668V97.958H122.547V98.9629ZM126.455 94.6289C126.651 94.638 126.844 94.6198 127.036 94.5742C127.227 94.5286 127.396 94.4603 127.542 94.3691C127.688 94.278 127.806 94.1641 127.897 94.0273C127.988 93.8861 128.034 93.7266 128.034 93.5488C128.034 93.3711 128.004 93.2298 127.945 93.125C127.886 93.0156 127.82 92.9131 127.747 92.8174C127.674 92.7217 127.608 92.6191 127.549 92.5098C127.489 92.4004 127.46 92.2568 127.46 92.0791C127.46 91.988 127.476 91.8945 127.507 91.7988C127.544 91.7031 127.596 91.6165 127.665 91.5391C127.738 91.457 127.829 91.391 127.938 91.3408C128.048 91.2861 128.177 91.2588 128.328 91.2588C128.478 91.2588 128.622 91.2907 128.758 91.3545C128.895 91.4183 129.016 91.514 129.121 91.6416C129.226 91.7646 129.308 91.9242 129.367 92.1201C129.431 92.3115 129.463 92.5371 129.463 92.7969C129.463 93.1523 129.396 93.4941 129.264 93.8223C129.137 94.1458 128.945 94.4329 128.69 94.6836C128.439 94.9342 128.127 95.1348 127.754 95.2852C127.38 95.4355 126.947 95.5107 126.455 95.5107V94.6289ZM122.866 94.6289C123.066 94.638 123.26 94.6198 123.447 94.5742C123.638 94.5286 123.807 94.4603 123.953 94.3691C124.103 94.278 124.224 94.1641 124.315 94.0273C124.406 93.8861 124.452 93.7266 124.452 93.5488C124.452 93.3711 124.422 93.2298 124.363 93.125C124.304 93.0156 124.238 92.9131 124.165 92.8174C124.092 92.7217 124.026 92.6191 123.966 92.5098C123.907 92.4004 123.878 92.2568 123.878 92.0791C123.878 91.988 123.894 91.8945 123.925 91.7988C123.962 91.7031 124.014 91.6165 124.083 91.5391C124.156 91.457 124.247 91.391 124.356 91.3408C124.466 91.2861 124.595 91.2588 124.746 91.2588C124.896 91.2588 125.04 91.2907 125.176 91.3545C125.313 91.4183 125.434 91.514 125.539 91.6416C125.644 91.7646 125.726 91.9242 125.785 92.1201C125.849 92.3115 125.881 92.5371 125.881 92.7969C125.881 93.1523 125.814 93.4941 125.682 93.8223C125.555 94.1458 125.363 94.4329 125.108 94.6836C124.857 94.9342 124.543 95.1348 124.165 95.2852C123.791 95.4355 123.358 95.5107 122.866 95.5107V94.6289ZM361.559 94.6289C361.755 94.638 361.949 94.6198 362.14 94.5742C362.332 94.5286 362.5 94.4603 362.646 94.3691C362.792 94.278 362.91 94.1641 363.001 94.0273C363.093 93.8861 363.138 93.7266 363.138 93.5488C363.138 93.3711 363.109 93.2298 363.049 93.125C362.99 93.0156 362.924 92.9131 362.851 92.8174C362.778 92.7217 362.712 92.6191 362.653 92.5098C362.594 92.4004 362.564 92.2568 362.564 92.0791C362.564 91.988 362.58 91.8945 362.612 91.7988C362.648 91.7031 362.701 91.6165 362.769 91.5391C362.842 91.457 362.933 91.391 363.042 91.3408C363.152 91.2861 363.282 91.2588 363.432 91.2588C363.582 91.2588 363.726 91.2907 363.863 91.3545C363.999 91.4183 364.12 91.514 364.225 91.6416C364.33 91.7646 364.412 91.9242 364.471 92.1201C364.535 92.3115 364.567 92.5371 364.567 92.7969C364.567 93.1523 364.501 93.4941 364.369 93.8223C364.241 94.1458 364.05 94.4329 363.794 94.6836C363.544 94.9342 363.232 95.1348 362.858 95.2852C362.484 95.4355 362.051 95.5107 361.559 95.5107V94.6289ZM357.97 94.6289C358.171 94.638 358.364 94.6198 358.551 94.5742C358.743 94.5286 358.911 94.4603 359.057 94.3691C359.207 94.278 359.328 94.1641 359.419 94.0273C359.511 93.8861 359.556 93.7266 359.556 93.5488C359.556 93.3711 359.526 93.2298 359.467 93.125C359.408 93.0156 359.342 92.9131 359.269 92.8174C359.196 92.7217 359.13 92.6191 359.071 92.5098C359.012 92.4004 358.982 92.2568 358.982 92.0791C358.982 91.988 358.998 91.8945 359.03 91.7988C359.066 91.7031 359.119 91.6165 359.187 91.5391C359.26 91.457 359.351 91.391 359.46 91.3408C359.57 91.2861 359.7 91.2588 359.85 91.2588C360 91.2588 360.144 91.2907 360.281 91.3545C360.417 91.4183 360.538 91.514 360.643 91.6416C360.748 91.7646 360.83 91.9242 360.889 92.1201C360.953 92.3115 360.985 92.5371 360.985 92.7969C360.985 93.1523 360.919 93.4941 360.787 93.8223C360.659 94.1458 360.468 94.4329 360.212 94.6836C359.962 94.9342 359.647 95.1348 359.269 95.2852C358.895 95.4355 358.462 95.5107 357.97 95.5107V94.6289ZM365.727 94.1982L366.465 93.4395L371.059 97.2744L366.465 101.109L365.727 100.357L369.452 97.2881L365.727 94.1982ZM377.29 100.357L376.545 101.109L371.952 97.2744L376.545 93.4395L377.29 94.1982L373.565 97.2607L377.29 100.357ZM384.343 91.3408L379.653 102.47H378.518L383.208 91.3408H384.343ZM390.978 99.127C390.978 99.3685 390.937 99.585 390.855 99.7764C390.773 99.9678 390.661 100.139 390.52 100.289C390.379 100.435 390.215 100.56 390.028 100.665C389.841 100.77 389.64 100.856 389.426 100.925C389.217 100.993 389 101.043 388.777 101.075C388.553 101.107 388.335 101.123 388.121 101.123C387.656 101.123 387.227 101.103 386.835 101.062C386.448 101.021 386.067 100.954 385.694 100.863V99.7695C386.095 99.8835 386.494 99.9701 386.89 100.029C387.287 100.089 387.681 100.118 388.073 100.118C388.642 100.118 389.064 100.041 389.337 99.8857C389.611 99.7308 389.747 99.5098 389.747 99.2227C389.747 99.0996 389.725 98.9902 389.679 98.8945C389.638 98.7943 389.561 98.7008 389.447 98.6143C389.333 98.5231 389.155 98.4297 388.913 98.334C388.677 98.2383 388.351 98.1289 387.936 98.0059C387.626 97.9147 387.339 97.8122 387.075 97.6982C386.815 97.5798 386.589 97.4408 386.398 97.2812C386.206 97.1217 386.056 96.9349 385.947 96.7207C385.837 96.5065 385.783 96.2536 385.783 95.9619C385.783 95.7705 385.826 95.5609 385.913 95.333C386.004 95.1051 386.156 94.8932 386.371 94.6973C386.585 94.5013 386.874 94.3395 387.239 94.2119C387.603 94.0798 388.059 94.0137 388.606 94.0137C388.875 94.0137 389.173 94.0296 389.501 94.0615C389.829 94.0889 390.171 94.139 390.527 94.2119V95.2715C390.153 95.1803 389.798 95.1143 389.46 95.0732C389.128 95.0277 388.838 95.0049 388.592 95.0049C388.296 95.0049 388.045 95.0277 387.84 95.0732C387.64 95.1188 387.476 95.1826 387.348 95.2646C387.225 95.3421 387.136 95.4355 387.081 95.5449C387.027 95.6497 386.999 95.7637 386.999 95.8867C386.999 96.0098 387.022 96.1214 387.068 96.2217C387.118 96.3219 387.207 96.4199 387.334 96.5156C387.467 96.6068 387.649 96.7002 387.881 96.7959C388.114 96.887 388.417 96.9873 388.79 97.0967C389.196 97.2152 389.538 97.3405 389.816 97.4727C390.094 97.6003 390.319 97.7438 390.493 97.9033C390.666 98.0628 390.789 98.2428 390.862 98.4434C390.939 98.6439 390.978 98.8717 390.978 99.127ZM397.593 100.747C397.283 100.866 396.964 100.952 396.636 101.007C396.312 101.066 395.977 101.096 395.631 101.096C394.546 101.096 393.71 100.802 393.122 100.214C392.539 99.626 392.247 98.7669 392.247 97.6367C392.247 97.0944 392.331 96.6022 392.5 96.1602C392.668 95.7181 392.905 95.3398 393.211 95.0254C393.516 94.7109 393.881 94.4694 394.305 94.3008C394.728 94.1276 395.196 94.041 395.706 94.041C396.061 94.041 396.394 94.0661 396.704 94.1162C397.014 94.1663 397.31 94.2484 397.593 94.3623V95.4971C397.296 95.3421 396.993 95.2305 396.683 95.1621C396.378 95.0892 396.061 95.0527 395.733 95.0527C395.428 95.0527 395.139 95.112 394.865 95.2305C394.596 95.3444 394.359 95.5107 394.154 95.7295C393.949 95.9482 393.787 96.2148 393.669 96.5293C393.55 96.8438 393.491 97.1992 393.491 97.5957C393.491 98.4251 393.692 99.0472 394.093 99.4619C394.498 99.8721 395.059 100.077 395.774 100.077C396.098 100.077 396.41 100.041 396.711 99.9678C397.016 99.8949 397.31 99.7855 397.593 99.6396V100.747ZM399.258 94.1367H400.345L400.379 95.4014C400.785 94.9137 401.184 94.5605 401.576 94.3418C401.972 94.123 402.371 94.0137 402.772 94.0137C403.483 94.0137 404.021 94.2438 404.385 94.7041C404.754 95.1644 404.925 95.848 404.898 96.7549H403.695C403.708 96.1533 403.619 95.7181 403.428 95.4492C403.241 95.1758 402.966 95.0391 402.601 95.0391C402.441 95.0391 402.28 95.0687 402.116 95.1279C401.956 95.1826 401.79 95.2738 401.617 95.4014C401.448 95.5244 401.268 95.6839 401.077 95.8799C400.885 96.0758 400.68 96.3128 400.461 96.5908V101H399.258V94.1367ZM408.033 95.1211H406.003V94.1367H409.236V100.009H411.28V101H405.777V100.009H408.033V95.1211ZM408.45 91.2588C408.582 91.2588 408.705 91.2839 408.819 91.334C408.933 91.3796 409.031 91.4456 409.113 91.5322C409.2 91.6188 409.266 91.7191 409.311 91.833C409.362 91.9424 409.387 92.0632 409.387 92.1953C409.387 92.3229 409.362 92.4437 409.311 92.5576C409.266 92.6715 409.2 92.7718 409.113 92.8584C409.031 92.945 408.933 93.0133 408.819 93.0635C408.705 93.109 408.582 93.1318 408.45 93.1318C408.318 93.1318 408.195 93.109 408.081 93.0635C407.967 93.0133 407.867 92.945 407.78 92.8584C407.698 92.7718 407.632 92.6715 407.582 92.5576C407.536 92.4437 407.514 92.3229 407.514 92.1953C407.514 92.0632 407.536 91.9424 407.582 91.833C407.632 91.7191 407.698 91.6188 407.78 91.5322C407.867 91.4456 407.967 91.3796 408.081 91.334C408.195 91.2839 408.318 91.2588 408.45 91.2588ZM418.278 97.4453C418.278 98.056 418.191 98.5892 418.018 99.0449C417.849 99.5007 417.615 99.8789 417.314 100.18C417.013 100.48 416.658 100.706 416.247 100.856C415.837 101.007 415.393 101.082 414.914 101.082C414.696 101.082 414.477 101.071 414.258 101.048C414.044 101.025 413.825 100.986 413.602 100.932V103.803H412.412V94.1367H413.472L413.547 95.2852C413.889 94.8158 414.254 94.4876 414.641 94.3008C415.028 94.1094 415.448 94.0137 415.899 94.0137C416.291 94.0137 416.635 94.0957 416.931 94.2598C417.227 94.4238 417.476 94.6562 417.676 94.957C417.877 95.2533 418.027 95.6133 418.127 96.0371C418.228 96.4564 418.278 96.9258 418.278 97.4453ZM417.061 97.5C417.061 97.14 417.034 96.8096 416.979 96.5088C416.929 96.208 416.847 95.9505 416.733 95.7363C416.619 95.5221 416.473 95.3558 416.295 95.2373C416.117 95.1143 415.906 95.0527 415.659 95.0527C415.509 95.0527 415.356 95.0778 415.201 95.1279C415.047 95.1735 414.885 95.2533 414.716 95.3672C414.552 95.4766 414.377 95.6247 414.19 95.8115C414.007 95.9938 413.812 96.2217 413.602 96.4951V99.8242C413.821 99.9154 414.051 99.9883 414.292 100.043C414.534 100.093 414.771 100.118 415.003 100.118C415.646 100.118 416.149 99.9017 416.514 99.4688C416.879 99.0312 417.061 98.375 417.061 97.5ZM424.66 100.904C424.391 100.973 424.113 101.021 423.826 101.048C423.539 101.08 423.247 101.096 422.951 101.096C422.09 101.096 421.447 100.902 421.023 100.515C420.599 100.123 420.388 99.5234 420.388 98.7168V95.1348H418.467V94.1367H420.388V92.25L421.577 91.9424V94.1367H424.66V95.1348H421.577V98.6211C421.577 99.1133 421.707 99.4824 421.967 99.7285C422.231 99.9701 422.618 100.091 423.129 100.091C423.347 100.091 423.587 100.075 423.846 100.043C424.106 100.007 424.377 99.9518 424.66 99.8789V100.904ZM426.182 94.1982L426.92 93.4395L431.514 97.2744L426.92 101.109L426.182 100.357L429.908 97.2881L426.182 94.1982ZM34.7099 116.357L33.9648 117.109L29.3711 113.274L33.9648 109.439L34.7099 110.198L30.9843 113.261L34.7099 116.357ZM41.7621 117H40.5727V112.618C40.5727 112.09 40.4724 111.695 40.2719 111.436C40.0759 111.171 39.7934 111.039 39.4243 111.039C39.2648 111.039 39.1144 111.062 38.9731 111.107C38.8364 111.148 38.6928 111.224 38.5424 111.333C38.392 111.438 38.228 111.581 38.0502 111.764C37.8725 111.946 37.6674 112.174 37.435 112.447V117H36.2455V107.341H37.435V110.137L37.394 111.217C37.5808 110.993 37.7631 110.807 37.9409 110.656C38.1232 110.501 38.3032 110.376 38.4809 110.28C38.6632 110.185 38.8478 110.116 39.0346 110.075C39.2215 110.034 39.4151 110.014 39.6157 110.014C40.2993 110.014 40.8279 110.223 41.2016 110.643C41.5753 111.057 41.7621 111.684 41.7621 112.522V117ZM48.7597 113.206C48.7597 113.375 48.7574 113.516 48.7529 113.63C48.7483 113.744 48.7415 113.851 48.7323 113.951H43.913C43.913 114.653 44.109 115.193 44.5009 115.571C44.8928 115.945 45.4579 116.132 46.1962 116.132C46.3967 116.132 46.5973 116.125 46.7978 116.111C46.9983 116.093 47.192 116.07 47.3788 116.043C47.5657 116.016 47.7434 115.986 47.912 115.954C48.0852 115.918 48.2447 115.879 48.3905 115.838V116.815C48.067 116.907 47.7001 116.979 47.29 117.034C46.8844 117.093 46.4628 117.123 46.0253 117.123C45.4374 117.123 44.9316 117.043 44.5077 116.884C44.0839 116.724 43.7353 116.494 43.4618 116.193C43.193 115.888 42.9924 115.517 42.8603 115.079C42.7327 114.637 42.6689 114.138 42.6689 113.582C42.6689 113.099 42.7372 112.643 42.8739 112.215C43.0152 111.782 43.218 111.404 43.4823 111.08C43.7512 110.752 44.0793 110.492 44.4667 110.301C44.8541 110.109 45.2939 110.014 45.7861 110.014C46.2646 110.014 46.6884 110.089 47.0575 110.239C47.4267 110.39 47.7366 110.604 47.9872 110.882C48.2424 111.155 48.4338 111.49 48.5614 111.887C48.6936 112.279 48.7597 112.718 48.7597 113.206ZM47.5224 113.035C47.5361 112.73 47.5064 112.452 47.4335 112.201C47.3606 111.946 47.2467 111.727 47.0917 111.545C46.9413 111.363 46.7522 111.221 46.5243 111.121C46.2965 111.016 46.0321 110.964 45.7314 110.964C45.4716 110.964 45.2346 111.014 45.0204 111.114C44.8062 111.215 44.6217 111.356 44.4667 111.538C44.3118 111.72 44.1864 111.939 44.0907 112.194C43.995 112.45 43.9358 112.73 43.913 113.035H47.5224ZM54.0893 117L54.0619 116.077C53.6882 116.446 53.3077 116.713 52.9203 116.877C52.5375 117.041 52.1342 117.123 51.7104 117.123C51.3184 117.123 50.9835 117.073 50.7055 116.973C50.4275 116.872 50.1973 116.736 50.015 116.562C49.8373 116.385 49.7051 116.177 49.6186 115.94C49.5365 115.703 49.4955 115.446 49.4955 115.168C49.4955 114.48 49.7507 113.942 50.2611 113.555C50.7761 113.163 51.5349 112.967 52.5375 112.967H53.9594V112.365C53.9594 111.96 53.8295 111.636 53.5697 111.395C53.31 111.148 52.9135 111.025 52.3803 111.025C51.9929 111.025 51.6101 111.069 51.2318 111.155C50.8581 111.242 50.4708 111.365 50.0697 111.524V110.451C50.2201 110.396 50.3865 110.344 50.5687 110.294C50.7556 110.239 50.9516 110.191 51.1566 110.15C51.3617 110.109 51.5759 110.077 51.7992 110.055C52.0225 110.027 52.2481 110.014 52.476 110.014C52.8907 110.014 53.2644 110.059 53.5971 110.15C53.9298 110.242 54.21 110.381 54.4379 110.567C54.6703 110.754 54.848 110.989 54.9711 111.271C55.0941 111.554 55.1557 111.887 55.1557 112.27V117H54.0893ZM53.9594 113.876H52.4486C52.1524 113.876 51.8972 113.906 51.683 113.965C51.4688 114.024 51.2934 114.108 51.1566 114.218C51.0199 114.327 50.9174 114.459 50.849 114.614C50.7852 114.765 50.7533 114.936 50.7533 115.127C50.7533 115.259 50.7738 115.387 50.8148 115.51C50.8559 115.628 50.9219 115.735 51.0131 115.831C51.1042 115.922 51.2227 115.995 51.3686 116.05C51.5144 116.104 51.6921 116.132 51.9018 116.132C52.1752 116.132 52.4874 116.05 52.8383 115.886C53.1937 115.717 53.5674 115.453 53.9594 115.093V113.876ZM56.0487 113.712C56.0487 113.129 56.1285 112.611 56.288 112.16C56.4475 111.704 56.6731 111.322 56.9647 111.012C57.2609 110.697 57.6141 110.46 58.0243 110.301C58.439 110.137 58.8993 110.055 59.4052 110.055C59.6239 110.055 59.8381 110.068 60.0477 110.096C60.2619 110.123 60.4716 110.166 60.6766 110.226V107.341H61.8729V117H60.8065L60.7655 115.701C60.4328 116.184 60.0728 116.542 59.6854 116.774C59.2981 117.007 58.8788 117.123 58.4276 117.123C58.0357 117.123 57.6893 117.041 57.3886 116.877C57.0923 116.713 56.844 116.483 56.6434 116.187C56.4475 115.886 56.2994 115.526 56.1991 115.106C56.0988 114.687 56.0487 114.222 56.0487 113.712ZM57.2655 113.637C57.2655 114.466 57.3863 115.086 57.6278 115.496C57.8739 115.902 58.2203 116.104 58.6669 116.104C58.9677 116.104 59.2844 115.97 59.6171 115.701C59.9543 115.432 60.3075 115.034 60.6766 114.505V111.319C60.4807 111.228 60.2642 111.16 60.0272 111.114C59.7902 111.064 59.5555 111.039 59.3231 111.039C58.676 111.039 58.1701 111.249 57.8055 111.668C57.4455 112.087 57.2655 112.743 57.2655 113.637ZM63.4496 110.198L64.1879 109.439L68.7816 113.274L64.1879 117.109L63.4496 116.357L67.1752 113.288L63.4496 110.198ZM21.2754 132.357L20.5303 133.109L15.9365 129.274L20.5303 125.439L21.2754 126.198L17.5498 129.261L21.2754 132.357ZM28.3276 123.341L23.6382 134.47H22.5034L27.1929 123.341H28.3276ZM35.0449 133H33.8554V128.618C33.8554 128.09 33.7552 127.695 33.5546 127.436C33.3587 127.171 33.0761 127.039 32.707 127.039C32.5475 127.039 32.3971 127.062 32.2558 127.107C32.1191 127.148 31.9755 127.224 31.8252 127.333C31.6748 127.438 31.5107 127.581 31.333 127.764C31.1552 127.946 30.9502 128.174 30.7177 128.447V133H29.5283V123.341H30.7177V126.137L30.6767 127.217C30.8636 126.993 31.0459 126.807 31.2236 126.656C31.4059 126.501 31.5859 126.376 31.7636 126.28C31.9459 126.185 32.1305 126.116 32.3173 126.075C32.5042 126.034 32.6979 126.014 32.8984 126.014C33.582 126.014 34.1106 126.223 34.4843 126.643C34.858 127.057 35.0449 127.684 35.0449 128.522V133ZM41.7758 132.904C41.5069 132.973 41.2289 133.021 40.9418 133.048C40.6547 133.08 40.3631 133.096 40.0668 133.096C39.2055 133.096 38.5629 132.902 38.1391 132.515C37.7153 132.123 37.5034 131.523 37.5034 130.717V127.135H35.5825V126.137H37.5034V124.25L38.6928 123.942V126.137H41.7758V127.135H38.6928V130.621C38.6928 131.113 38.8227 131.482 39.0825 131.729C39.3468 131.97 39.7342 132.091 40.2446 132.091C40.4633 132.091 40.7026 132.075 40.9623 132.043C41.2221 132.007 41.4933 131.952 41.7758 131.879V132.904ZM47.8573 133V128.071C47.8573 127.857 47.8482 127.682 47.83 127.545C47.8163 127.408 47.7913 127.301 47.7548 127.224C47.7229 127.142 47.6796 127.085 47.6249 127.053C47.5748 127.021 47.511 127.005 47.4335 127.005C47.3424 127.005 47.2581 127.032 47.1806 127.087C47.1031 127.142 47.0188 127.23 46.9277 127.354C46.8411 127.477 46.7431 127.641 46.6337 127.846C46.5289 128.046 46.4036 128.295 46.2577 128.591V133H45.1708V128.201C45.1708 127.951 45.1617 127.748 45.1435 127.593C45.1298 127.438 45.1047 127.317 45.0683 127.23C45.0364 127.144 44.9931 127.085 44.9384 127.053C44.8837 127.021 44.8176 127.005 44.7402 127.005C44.6581 127.005 44.5807 127.028 44.5077 127.073C44.4348 127.119 44.3528 127.201 44.2616 127.319C44.1751 127.438 44.0771 127.6 43.9677 127.805C43.8583 128.01 43.7284 128.272 43.578 128.591V133H42.4843V126.137H43.3935L43.4482 127.442C43.5667 127.183 43.6806 126.962 43.79 126.779C43.9039 126.597 44.0201 126.451 44.1386 126.342C44.2571 126.228 44.3824 126.146 44.5146 126.096C44.6513 126.041 44.8017 126.014 44.9657 126.014C45.3349 126.014 45.6152 126.134 45.8066 126.376C45.998 126.618 46.0937 126.991 46.0937 127.497C46.203 127.26 46.3101 127.05 46.415 126.868C46.5198 126.681 46.6314 126.526 46.7499 126.403C46.873 126.276 47.0074 126.18 47.1532 126.116C47.2991 126.048 47.4677 126.014 47.6591 126.014C48.5204 126.014 48.9511 126.677 48.9511 128.003V133H47.8573ZM52.018 124.318H49.9877V123.341H53.2211V132.009H55.265V133H49.7621V132.009H52.018V124.318ZM56.7323 126.198L57.4706 125.439L62.0643 129.274L57.4706 133.109L56.7323 132.357L60.4579 129.288L56.7323 126.198Z" fill="white"/>
<path d="M135.804 101H134.614V96.6182C134.614 96.0895 134.514 95.6953 134.314 95.4355C134.118 95.1712 133.835 95.0391 133.466 95.0391C133.306 95.0391 133.156 95.0618 133.015 95.1074C132.878 95.1484 132.735 95.2236 132.584 95.333C132.434 95.4378 132.27 95.5814 132.092 95.7637C131.914 95.946 131.709 96.1738 131.477 96.4473V101H130.287V91.3408H131.477V94.1367L131.436 95.2168C131.623 94.9935 131.805 94.8066 131.983 94.6562C132.165 94.5013 132.345 94.376 132.523 94.2803C132.705 94.1846 132.889 94.1162 133.076 94.0752C133.263 94.0342 133.457 94.0137 133.657 94.0137C134.341 94.0137 134.87 94.2233 135.243 94.6426C135.617 95.0573 135.804 95.6839 135.804 96.5225V101ZM142.535 100.904C142.266 100.973 141.988 101.021 141.701 101.048C141.414 101.08 141.122 101.096 140.826 101.096C139.964 101.096 139.322 100.902 138.898 100.515C138.474 100.123 138.262 99.5234 138.262 98.7168V95.1348H136.341V94.1367H138.262V92.25L139.452 91.9424V94.1367H142.535V95.1348H139.452V98.6211C139.452 99.1133 139.582 99.4824 139.841 99.7285C140.106 99.9701 140.493 100.091 141.004 100.091C141.222 100.091 141.462 100.075 141.721 100.043C141.981 100.007 142.252 99.9518 142.535 99.8789V100.904ZM149.252 100.904C148.983 100.973 148.705 101.021 148.418 101.048C148.131 101.08 147.839 101.096 147.543 101.096C146.682 101.096 146.039 100.902 145.615 100.515C145.192 100.123 144.98 99.5234 144.98 98.7168V95.1348H143.059V94.1367H144.98V92.25L146.169 91.9424V94.1367H149.252V95.1348H146.169V98.6211C146.169 99.1133 146.299 99.4824 146.559 99.7285C146.823 99.9701 147.21 100.091 147.721 100.091C147.94 100.091 148.179 100.075 148.439 100.043C148.698 100.007 148.97 99.9518 149.252 99.8789V100.904ZM156.304 97.4453C156.304 98.056 156.218 98.5892 156.045 99.0449C155.876 99.5007 155.641 99.8789 155.34 100.18C155.04 100.48 154.684 100.706 154.274 100.856C153.864 101.007 153.42 101.082 152.941 101.082C152.722 101.082 152.504 101.071 152.285 101.048C152.071 101.025 151.852 100.986 151.629 100.932V103.803H150.439V94.1367H151.499L151.574 95.2852C151.916 94.8158 152.28 94.4876 152.668 94.3008C153.055 94.1094 153.474 94.0137 153.925 94.0137C154.317 94.0137 154.661 94.0957 154.958 94.2598C155.254 94.4238 155.502 94.6562 155.703 94.957C155.903 95.2533 156.054 95.6133 156.154 96.0371C156.254 96.4564 156.304 96.9258 156.304 97.4453ZM155.087 97.5C155.087 97.14 155.06 96.8096 155.005 96.5088C154.955 96.208 154.873 95.9505 154.759 95.7363C154.645 95.5221 154.5 95.3558 154.322 95.2373C154.144 95.1143 153.932 95.0527 153.686 95.0527C153.536 95.0527 153.383 95.0778 153.228 95.1279C153.073 95.1735 152.911 95.2533 152.743 95.3672C152.579 95.4766 152.403 95.6247 152.216 95.8115C152.034 95.9938 151.838 96.2217 151.629 96.4951V99.8242C151.847 99.9154 152.077 99.9883 152.319 100.043C152.56 100.093 152.797 100.118 153.03 100.118C153.672 100.118 154.176 99.9017 154.541 99.4688C154.905 99.0312 155.087 98.375 155.087 97.5ZM162.591 99.127C162.591 99.3685 162.55 99.585 162.468 99.7764C162.386 99.9678 162.274 100.139 162.133 100.289C161.992 100.435 161.828 100.56 161.641 100.665C161.454 100.77 161.253 100.856 161.039 100.925C160.83 100.993 160.613 101.043 160.39 101.075C160.166 101.107 159.948 101.123 159.733 101.123C159.269 101.123 158.84 101.103 158.448 101.062C158.061 101.021 157.68 100.954 157.307 100.863V99.7695C157.708 99.8835 158.107 99.9701 158.503 100.029C158.899 100.089 159.294 100.118 159.686 100.118C160.255 100.118 160.677 100.041 160.95 99.8857C161.224 99.7308 161.36 99.5098 161.36 99.2227C161.36 99.0996 161.338 98.9902 161.292 98.8945C161.251 98.7943 161.174 98.7008 161.06 98.6143C160.946 98.5231 160.768 98.4297 160.526 98.334C160.289 98.2383 159.964 98.1289 159.549 98.0059C159.239 97.9147 158.952 97.8122 158.688 97.6982C158.428 97.5798 158.202 97.4408 158.011 97.2812C157.819 97.1217 157.669 96.9349 157.56 96.7207C157.45 96.5065 157.396 96.2536 157.396 95.9619C157.396 95.7705 157.439 95.5609 157.525 95.333C157.617 95.1051 157.769 94.8932 157.983 94.6973C158.198 94.5013 158.487 94.3395 158.852 94.2119C159.216 94.0798 159.672 94.0137 160.219 94.0137C160.488 94.0137 160.786 94.0296 161.114 94.0615C161.442 94.0889 161.784 94.139 162.14 94.2119V95.2715C161.766 95.1803 161.411 95.1143 161.073 95.0732C160.741 95.0277 160.451 95.0049 160.205 95.0049C159.909 95.0049 159.658 95.0277 159.453 95.0732C159.253 95.1188 159.089 95.1826 158.961 95.2646C158.838 95.3421 158.749 95.4355 158.694 95.5449C158.64 95.6497 158.612 95.7637 158.612 95.8867C158.612 96.0098 158.635 96.1214 158.681 96.2217C158.731 96.3219 158.82 96.4199 158.947 96.5156C159.08 96.6068 159.262 96.7002 159.494 96.7959C159.727 96.887 160.03 96.9873 160.403 97.0967C160.809 97.2152 161.151 97.3405 161.429 97.4727C161.707 97.6003 161.932 97.7438 162.106 97.9033C162.279 98.0628 162.402 98.2428 162.475 98.4434C162.552 98.6439 162.591 98.8717 162.591 99.127ZM166.628 94.0137C166.77 94.0137 166.904 94.0433 167.032 94.1025C167.159 94.1572 167.271 94.2324 167.367 94.3281C167.462 94.4238 167.538 94.5355 167.592 94.6631C167.652 94.7907 167.681 94.9251 167.681 95.0664C167.681 95.2122 167.652 95.349 167.592 95.4766C167.538 95.5996 167.462 95.709 167.367 95.8047C167.271 95.9004 167.159 95.9756 167.032 96.0303C166.904 96.085 166.77 96.1123 166.628 96.1123C166.483 96.1123 166.346 96.085 166.218 96.0303C166.095 95.9756 165.986 95.9004 165.89 95.8047C165.794 95.709 165.719 95.5996 165.665 95.4766C165.61 95.349 165.583 95.2122 165.583 95.0664C165.583 94.9251 165.61 94.7907 165.665 94.6631C165.719 94.5355 165.794 94.4238 165.89 94.3281C165.986 94.2324 166.095 94.1572 166.218 94.1025C166.346 94.0433 166.483 94.0137 166.628 94.0137ZM166.628 99.0244C166.77 99.0244 166.904 99.054 167.032 99.1133C167.159 99.168 167.271 99.2432 167.367 99.3389C167.462 99.4346 167.538 99.5462 167.592 99.6738C167.652 99.8014 167.681 99.9359 167.681 100.077C167.681 100.223 167.652 100.36 167.592 100.487C167.538 100.61 167.462 100.72 167.367 100.815C167.271 100.911 167.159 100.986 167.032 101.041C166.904 101.096 166.77 101.123 166.628 101.123C166.483 101.123 166.346 101.096 166.218 101.041C166.095 100.986 165.986 100.911 165.89 100.815C165.794 100.72 165.719 100.61 165.665 100.487C165.61 100.36 165.583 100.223 165.583 100.077C165.583 99.9359 165.61 99.8014 165.665 99.6738C165.719 99.5462 165.794 99.4346 165.89 99.3389C165.986 99.2432 166.095 99.168 166.218 99.1133C166.346 99.054 166.483 99.0244 166.628 99.0244ZM176.107 91.3408L171.418 102.47H170.283L174.973 91.3408H176.107ZM182.825 91.3408L178.135 102.47H177.001L181.69 91.3408H182.825ZM188.435 101L188.407 100.077C188.034 100.446 187.653 100.713 187.266 100.877C186.883 101.041 186.479 101.123 186.056 101.123C185.664 101.123 185.329 101.073 185.051 100.973C184.773 100.872 184.543 100.736 184.36 100.562C184.183 100.385 184.05 100.177 183.964 99.9404C183.882 99.7035 183.841 99.446 183.841 99.168C183.841 98.4798 184.096 97.9421 184.606 97.5547C185.121 97.1628 185.88 96.9668 186.883 96.9668H188.305V96.3652C188.305 95.9596 188.175 95.6361 187.915 95.3945C187.655 95.1484 187.259 95.0254 186.726 95.0254C186.338 95.0254 185.955 95.0687 185.577 95.1553C185.203 95.2419 184.816 95.3649 184.415 95.5244V94.4512C184.565 94.3965 184.732 94.3441 184.914 94.2939C185.101 94.2393 185.297 94.1914 185.502 94.1504C185.707 94.1094 185.921 94.0775 186.145 94.0547C186.368 94.0273 186.593 94.0137 186.821 94.0137C187.236 94.0137 187.61 94.0592 187.942 94.1504C188.275 94.2415 188.555 94.3805 188.783 94.5674C189.016 94.7542 189.193 94.9889 189.316 95.2715C189.439 95.554 189.501 95.8867 189.501 96.2695V101H188.435ZM188.305 97.876H186.794C186.498 97.876 186.243 97.9056 186.028 97.9648C185.814 98.0241 185.639 98.1084 185.502 98.2178C185.365 98.3271 185.263 98.4593 185.194 98.6143C185.131 98.7646 185.099 98.9355 185.099 99.127C185.099 99.2591 185.119 99.3867 185.16 99.5098C185.201 99.6283 185.267 99.7354 185.358 99.8311C185.45 99.9222 185.568 99.9951 185.714 100.05C185.86 100.104 186.037 100.132 186.247 100.132C186.521 100.132 186.833 100.05 187.184 99.8857C187.539 99.7171 187.913 99.4528 188.305 99.0928V97.876ZM196.608 97.4453C196.608 98.056 196.521 98.5892 196.348 99.0449C196.18 99.5007 195.945 99.8789 195.644 100.18C195.343 100.48 194.988 100.706 194.578 100.856C194.167 101.007 193.723 101.082 193.245 101.082C193.026 101.082 192.807 101.071 192.588 101.048C192.374 101.025 192.155 100.986 191.932 100.932V103.803H190.743V94.1367H191.802L191.877 95.2852C192.219 94.8158 192.584 94.4876 192.971 94.3008C193.359 94.1094 193.778 94.0137 194.229 94.0137C194.621 94.0137 194.965 94.0957 195.261 94.2598C195.557 94.4238 195.806 94.6562 196.006 94.957C196.207 95.2533 196.357 95.6133 196.458 96.0371C196.558 96.4564 196.608 96.9258 196.608 97.4453ZM195.391 97.5C195.391 97.14 195.364 96.8096 195.309 96.5088C195.259 96.208 195.177 95.9505 195.063 95.7363C194.949 95.5221 194.803 95.3558 194.625 95.2373C194.448 95.1143 194.236 95.0527 193.99 95.0527C193.839 95.0527 193.687 95.0778 193.532 95.1279C193.377 95.1735 193.215 95.2533 193.046 95.3672C192.882 95.4766 192.707 95.6247 192.52 95.8115C192.338 95.9938 192.142 96.2217 191.932 96.4951V99.8242C192.151 99.9154 192.381 99.9883 192.623 100.043C192.864 100.093 193.101 100.118 193.333 100.118C193.976 100.118 194.48 99.9017 194.844 99.4688C195.209 99.0312 195.391 98.375 195.391 97.5ZM199.798 95.1211H197.768V94.1367H201.001V100.009H203.045V101H197.542V100.009H199.798V95.1211ZM200.215 91.2588C200.347 91.2588 200.47 91.2839 200.584 91.334C200.698 91.3796 200.796 91.4456 200.878 91.5322C200.964 91.6188 201.031 91.7191 201.076 91.833C201.126 91.9424 201.151 92.0632 201.151 92.1953C201.151 92.3229 201.126 92.4437 201.076 92.5576C201.031 92.6715 200.964 92.7718 200.878 92.8584C200.796 92.945 200.698 93.0133 200.584 93.0635C200.47 93.109 200.347 93.1318 200.215 93.1318C200.083 93.1318 199.96 93.109 199.846 93.0635C199.732 93.0133 199.631 92.945 199.545 92.8584C199.463 92.7718 199.397 92.6715 199.347 92.5576C199.301 92.4437 199.278 92.3229 199.278 92.1953C199.278 92.0632 199.301 91.9424 199.347 91.833C199.397 91.7191 199.463 91.6188 199.545 91.5322C199.631 91.4456 199.732 91.3796 199.846 91.334C199.96 91.2839 200.083 91.2588 200.215 91.2588ZM206.877 98.8467C207.032 98.8467 207.178 98.8763 207.315 98.9355C207.456 98.9948 207.577 99.0768 207.677 99.1816C207.782 99.2865 207.864 99.4095 207.923 99.5508C207.983 99.6875 208.012 99.8356 208.012 99.9951C208.012 100.15 207.983 100.296 207.923 100.433C207.864 100.569 207.782 100.69 207.677 100.795C207.577 100.895 207.456 100.975 207.315 101.034C207.178 101.093 207.032 101.123 206.877 101.123C206.718 101.123 206.57 101.093 206.433 101.034C206.296 100.975 206.176 100.895 206.071 100.795C205.97 100.69 205.891 100.569 205.831 100.433C205.772 100.296 205.743 100.15 205.743 99.9951C205.743 99.8356 205.772 99.6875 205.831 99.5508C205.891 99.4095 205.97 99.2865 206.071 99.1816C206.176 99.0768 206.296 98.9948 206.433 98.9355C206.57 98.8763 206.718 98.8467 206.877 98.8467ZM216.985 92.4482C216.361 92.3161 215.823 92.25 215.372 92.25C214.301 92.25 213.766 92.8105 213.766 93.9316V95.1348H216.773V96.126H213.766V101H212.556V96.126H210.348V95.1348H212.556V94C212.556 92.1725 213.508 91.2588 215.413 91.2588C215.887 91.2588 216.411 91.3135 216.985 91.4229V92.4482ZM222.021 101L221.994 100.077C221.62 100.446 221.239 100.713 220.852 100.877C220.469 101.041 220.066 101.123 219.642 101.123C219.25 101.123 218.915 101.073 218.637 100.973C218.359 100.872 218.129 100.736 217.947 100.562C217.769 100.385 217.637 100.177 217.55 99.9404C217.468 99.7035 217.427 99.446 217.427 99.168C217.427 98.4798 217.682 97.9421 218.193 97.5547C218.708 97.1628 219.467 96.9668 220.469 96.9668H221.891V96.3652C221.891 95.9596 221.761 95.6361 221.501 95.3945C221.242 95.1484 220.845 95.0254 220.312 95.0254C219.925 95.0254 219.542 95.0687 219.163 95.1553C218.79 95.2419 218.402 95.3649 218.001 95.5244V94.4512C218.152 94.3965 218.318 94.3441 218.5 94.2939C218.687 94.2393 218.883 94.1914 219.088 94.1504C219.293 94.1094 219.508 94.0775 219.731 94.0547C219.954 94.0273 220.18 94.0137 220.408 94.0137C220.822 94.0137 221.196 94.0592 221.529 94.1504C221.861 94.2415 222.142 94.3805 222.37 94.5674C222.602 94.7542 222.78 94.9889 222.903 95.2715C223.026 95.554 223.087 95.8867 223.087 96.2695V101H222.021ZM221.891 97.876H220.38C220.084 97.876 219.829 97.9056 219.615 97.9648C219.4 98.0241 219.225 98.1084 219.088 98.2178C218.952 98.3271 218.849 98.4593 218.781 98.6143C218.717 98.7646 218.685 98.9355 218.685 99.127C218.685 99.2591 218.705 99.3867 218.746 99.5098C218.788 99.6283 218.854 99.7354 218.945 99.8311C219.036 99.9222 219.154 99.9951 219.3 100.05C219.446 100.104 219.624 100.132 219.833 100.132C220.107 100.132 220.419 100.05 220.77 99.8857C221.125 99.7171 221.499 99.4528 221.891 99.0928V97.876ZM229.661 100.747C229.351 100.866 229.032 100.952 228.704 101.007C228.38 101.066 228.045 101.096 227.699 101.096C226.614 101.096 225.778 100.802 225.19 100.214C224.607 99.626 224.315 98.7669 224.315 97.6367C224.315 97.0944 224.4 96.6022 224.568 96.1602C224.737 95.7181 224.974 95.3398 225.279 95.0254C225.585 94.7109 225.949 94.4694 226.373 94.3008C226.797 94.1276 227.264 94.041 227.774 94.041C228.13 94.041 228.462 94.0661 228.772 94.1162C229.082 94.1663 229.378 94.2484 229.661 94.3623V95.4971C229.365 95.3421 229.062 95.2305 228.752 95.1621C228.446 95.0892 228.13 95.0527 227.802 95.0527C227.496 95.0527 227.207 95.112 226.933 95.2305C226.665 95.3444 226.428 95.5107 226.223 95.7295C226.017 95.9482 225.856 96.2148 225.737 96.5293C225.619 96.8438 225.559 97.1992 225.559 97.5957C225.559 98.4251 225.76 99.0472 226.161 99.4619C226.567 99.8721 227.127 100.077 227.843 100.077C228.166 100.077 228.478 100.041 228.779 99.9678C229.085 99.8949 229.378 99.7855 229.661 99.6396V100.747ZM236.843 97.2061C236.843 97.3747 236.841 97.516 236.836 97.6299C236.832 97.7438 236.825 97.8509 236.816 97.9512H231.996C231.996 98.653 232.192 99.193 232.584 99.5713C232.976 99.945 233.541 100.132 234.28 100.132C234.48 100.132 234.681 100.125 234.881 100.111C235.082 100.093 235.275 100.07 235.462 100.043C235.649 100.016 235.827 99.986 235.995 99.9541C236.169 99.9176 236.328 99.8789 236.474 99.8379V100.815C236.15 100.907 235.784 100.979 235.373 101.034C234.968 101.093 234.546 101.123 234.109 101.123C233.521 101.123 233.015 101.043 232.591 100.884C232.167 100.724 231.819 100.494 231.545 100.193C231.276 99.888 231.076 99.5166 230.944 99.0791C230.816 98.637 230.752 98.138 230.752 97.582C230.752 97.099 230.821 96.6432 230.957 96.2148C231.099 95.7819 231.301 95.4036 231.566 95.0801C231.835 94.752 232.163 94.4922 232.55 94.3008C232.938 94.1094 233.377 94.0137 233.869 94.0137C234.348 94.0137 234.772 94.0889 235.141 94.2393C235.51 94.3896 235.82 94.6038 236.071 94.8818C236.326 95.1553 236.517 95.4902 236.645 95.8867C236.777 96.2786 236.843 96.7184 236.843 97.2061ZM235.606 97.0352C235.619 96.7298 235.59 96.4518 235.517 96.2012C235.444 95.946 235.33 95.7272 235.175 95.5449C235.025 95.3626 234.836 95.2214 234.608 95.1211C234.38 95.0163 234.116 94.9639 233.815 94.9639C233.555 94.9639 233.318 95.014 233.104 95.1143C232.89 95.2145 232.705 95.3558 232.55 95.5381C232.395 95.7204 232.27 95.9391 232.174 96.1943C232.078 96.4495 232.019 96.7298 231.996 97.0352H235.606ZM243.294 100.904C243.025 100.973 242.747 101.021 242.46 101.048C242.173 101.08 241.881 101.096 241.585 101.096C240.723 101.096 240.081 100.902 239.657 100.515C239.233 100.123 239.021 99.5234 239.021 98.7168V95.1348H237.1V94.1367H239.021V92.25L240.211 91.9424V94.1367H243.294V95.1348H240.211V98.6211C240.211 99.1133 240.341 99.4824 240.6 99.7285C240.865 99.9701 241.252 100.091 241.763 100.091C241.981 100.091 242.221 100.075 242.48 100.043C242.74 100.007 243.011 99.9518 243.294 99.8789V100.904ZM247.181 98.8467C247.336 98.8467 247.482 98.8763 247.618 98.9355C247.76 98.9948 247.881 99.0768 247.981 99.1816C248.086 99.2865 248.168 99.4095 248.227 99.5508C248.286 99.6875 248.316 99.8356 248.316 99.9951C248.316 100.15 248.286 100.296 248.227 100.433C248.168 100.569 248.086 100.69 247.981 100.795C247.881 100.895 247.76 100.975 247.618 101.034C247.482 101.093 247.336 101.123 247.181 101.123C247.021 101.123 246.873 101.093 246.737 101.034C246.6 100.975 246.479 100.895 246.374 100.795C246.274 100.69 246.194 100.569 246.135 100.433C246.076 100.296 246.046 100.15 246.046 99.9951C246.046 99.8356 246.076 99.6875 246.135 99.5508C246.194 99.4095 246.274 99.2865 246.374 99.1816C246.479 99.0768 246.6 98.9948 246.737 98.9355C246.873 98.8763 247.021 98.8467 247.181 98.8467ZM251.198 94.1367H252.258L252.305 95.2441C252.506 95.0072 252.7 94.8112 252.887 94.6562C253.073 94.4967 253.256 94.3691 253.433 94.2734C253.616 94.1777 253.8 94.1117 253.987 94.0752C254.174 94.0342 254.368 94.0137 254.568 94.0137C255.275 94.0137 255.808 94.2233 256.168 94.6426C256.532 95.0573 256.715 95.6839 256.715 96.5225V101H255.525V96.6182C255.525 96.0804 255.425 95.6839 255.224 95.4287C255.024 95.1689 254.725 95.0391 254.329 95.0391C254.183 95.0391 254.04 95.0618 253.898 95.1074C253.762 95.1484 253.618 95.2236 253.468 95.333C253.317 95.4378 253.153 95.5814 252.975 95.7637C252.802 95.946 252.606 96.1738 252.387 96.4473V101H251.198V94.1367ZM260.253 95.1211H258.223V94.1367H261.456V100.009H263.5V101H257.997V100.009H260.253V95.1211ZM260.67 91.2588C260.802 91.2588 260.925 91.2839 261.039 91.334C261.153 91.3796 261.251 91.4456 261.333 91.5322C261.42 91.6188 261.486 91.7191 261.532 91.833C261.582 91.9424 261.607 92.0632 261.607 92.1953C261.607 92.3229 261.582 92.4437 261.532 92.5576C261.486 92.6715 261.42 92.7718 261.333 92.8584C261.251 92.945 261.153 93.0133 261.039 93.0635C260.925 93.109 260.802 93.1318 260.67 93.1318C260.538 93.1318 260.415 93.109 260.301 93.0635C260.187 93.0133 260.087 92.945 260 92.8584C259.918 92.7718 259.852 92.6715 259.802 92.5576C259.756 92.4437 259.734 92.3229 259.734 92.1953C259.734 92.0632 259.756 91.9424 259.802 91.833C259.852 91.7191 259.918 91.6188 260 91.5322C260.087 91.4456 260.187 91.3796 260.301 91.334C260.415 91.2839 260.538 91.2588 260.67 91.2588ZM264.633 94.1367H265.692L265.74 95.2441C265.941 95.0072 266.134 94.8112 266.321 94.6562C266.508 94.4967 266.69 94.3691 266.868 94.2734C267.05 94.1777 267.235 94.1117 267.422 94.0752C267.608 94.0342 267.802 94.0137 268.003 94.0137C268.709 94.0137 269.242 94.2233 269.602 94.6426C269.967 95.0573 270.149 95.6839 270.149 96.5225V101H268.96V96.6182C268.96 96.0804 268.859 95.6839 268.659 95.4287C268.458 95.1689 268.16 95.0391 267.763 95.0391C267.618 95.0391 267.474 95.0618 267.333 95.1074C267.196 95.1484 267.053 95.2236 266.902 95.333C266.752 95.4378 266.588 95.5814 266.41 95.7637C266.237 95.946 266.041 96.1738 265.822 96.4473V101H264.633V94.1367ZM275.998 94.1367V100.877C275.998 101.355 275.93 101.779 275.793 102.148C275.656 102.522 275.461 102.837 275.205 103.092C274.95 103.347 274.636 103.541 274.262 103.673C273.893 103.805 273.476 103.871 273.011 103.871C272.674 103.871 272.343 103.839 272.02 103.775C271.701 103.716 271.411 103.632 271.152 103.522V102.388C271.293 102.461 271.443 102.527 271.603 102.586C271.767 102.645 271.933 102.695 272.102 102.736C272.275 102.777 272.448 102.807 272.621 102.825C272.794 102.848 272.963 102.859 273.127 102.859C273.647 102.859 274.055 102.695 274.351 102.367C274.647 102.039 274.795 101.556 274.795 100.918V95.1211H271.432V94.1367H275.998ZM275.281 91.2588C275.413 91.2588 275.536 91.2839 275.65 91.334C275.764 91.3796 275.862 91.4456 275.944 91.5322C276.03 91.6188 276.096 91.7191 276.142 91.833C276.192 91.9469 276.217 92.0677 276.217 92.1953C276.217 92.3275 276.192 92.4505 276.142 92.5645C276.096 92.6738 276.03 92.7718 275.944 92.8584C275.862 92.945 275.764 93.0133 275.65 93.0635C275.536 93.109 275.413 93.1318 275.281 93.1318C275.148 93.1318 275.025 93.109 274.911 93.0635C274.797 93.0133 274.697 92.945 274.611 92.8584C274.529 92.7718 274.462 92.6738 274.412 92.5645C274.367 92.4505 274.344 92.3275 274.344 92.1953C274.344 92.0677 274.367 91.9469 274.412 91.833C274.462 91.7191 274.529 91.6188 274.611 91.5322C274.697 91.4456 274.797 91.3796 274.911 91.334C275.025 91.2839 275.148 91.2588 275.281 91.2588ZM282.476 101L282.449 100.077C282.075 100.446 281.695 100.713 281.307 100.877C280.925 101.041 280.521 101.123 280.097 101.123C279.705 101.123 279.37 101.073 279.092 100.973C278.815 100.872 278.584 100.736 278.402 100.562C278.224 100.385 278.092 100.177 278.006 99.9404C277.924 99.7035 277.883 99.446 277.883 99.168C277.883 98.4798 278.138 97.9421 278.648 97.5547C279.163 97.1628 279.922 96.9668 280.925 96.9668H282.346V96.3652C282.346 95.9596 282.217 95.6361 281.957 95.3945C281.697 95.1484 281.301 95.0254 280.767 95.0254C280.38 95.0254 279.997 95.0687 279.619 95.1553C279.245 95.2419 278.858 95.3649 278.457 95.5244V94.4512C278.607 94.3965 278.773 94.3441 278.956 94.2939C279.143 94.2393 279.339 94.1914 279.544 94.1504C279.749 94.1094 279.963 94.0775 280.186 94.0547C280.41 94.0273 280.635 94.0137 280.863 94.0137C281.278 94.0137 281.651 94.0592 281.984 94.1504C282.317 94.2415 282.597 94.3805 282.825 94.5674C283.057 94.7542 283.235 94.9889 283.358 95.2715C283.481 95.554 283.543 95.8867 283.543 96.2695V101H282.476ZM282.346 97.876H280.836C280.539 97.876 280.284 97.9056 280.07 97.9648C279.856 98.0241 279.68 98.1084 279.544 98.2178C279.407 98.3271 279.304 98.4593 279.236 98.6143C279.172 98.7646 279.14 98.9355 279.14 99.127C279.14 99.2591 279.161 99.3867 279.202 99.5098C279.243 99.6283 279.309 99.7354 279.4 99.8311C279.491 99.9222 279.61 99.9951 279.756 100.05C279.901 100.104 280.079 100.132 280.289 100.132C280.562 100.132 280.874 100.05 281.225 99.8857C281.581 99.7171 281.954 99.4528 282.346 99.0928V97.876ZM287.485 98.8467C287.64 98.8467 287.785 98.8763 287.922 98.9355C288.063 98.9948 288.184 99.0768 288.284 99.1816C288.389 99.2865 288.471 99.4095 288.53 99.5508C288.59 99.6875 288.619 99.8356 288.619 99.9951C288.619 100.15 288.59 100.296 288.53 100.433C288.471 100.569 288.389 100.69 288.284 100.795C288.184 100.895 288.063 100.975 287.922 101.034C287.785 101.093 287.64 101.123 287.485 101.123C287.325 101.123 287.177 101.093 287.04 101.034C286.904 100.975 286.783 100.895 286.678 100.795C286.578 100.69 286.498 100.569 286.439 100.433C286.379 100.296 286.35 100.15 286.35 99.9951C286.35 99.8356 286.379 99.6875 286.439 99.5508C286.498 99.4095 286.578 99.2865 286.678 99.1816C286.783 99.0768 286.904 98.9948 287.04 98.9355C287.177 98.8763 287.325 98.8467 287.485 98.8467ZM296.15 94.1367V100.877C296.15 101.355 296.082 101.779 295.945 102.148C295.808 102.522 295.612 102.837 295.357 103.092C295.102 103.347 294.787 103.541 294.414 103.673C294.045 103.805 293.628 103.871 293.163 103.871C292.826 103.871 292.495 103.839 292.172 103.775C291.853 103.716 291.563 103.632 291.303 103.522V102.388C291.445 102.461 291.595 102.527 291.755 102.586C291.919 102.645 292.085 102.695 292.254 102.736C292.427 102.777 292.6 102.807 292.773 102.825C292.946 102.848 293.115 102.859 293.279 102.859C293.799 102.859 294.206 102.695 294.503 102.367C294.799 102.039 294.947 101.556 294.947 100.918V95.1211H291.584V94.1367H296.15ZM295.432 91.2588C295.564 91.2588 295.688 91.2839 295.801 91.334C295.915 91.3796 296.013 91.4456 296.095 91.5322C296.182 91.6188 296.248 91.7191 296.294 91.833C296.344 91.9469 296.369 92.0677 296.369 92.1953C296.369 92.3275 296.344 92.4505 296.294 92.5645C296.248 92.6738 296.182 92.7718 296.095 92.8584C296.013 92.945 295.915 93.0133 295.801 93.0635C295.688 93.109 295.564 93.1318 295.432 93.1318C295.3 93.1318 295.177 93.109 295.063 93.0635C294.949 93.0133 294.849 92.945 294.762 92.8584C294.68 92.7718 294.614 92.6738 294.564 92.5645C294.519 92.4505 294.496 92.3275 294.496 92.1953C294.496 92.0677 294.519 91.9469 294.564 91.833C294.614 91.7191 294.68 91.6188 294.762 91.5322C294.849 91.4456 294.949 91.3796 295.063 91.334C295.177 91.2839 295.3 91.2588 295.432 91.2588ZM303.653 99.127C303.653 99.3685 303.612 99.585 303.53 99.7764C303.448 99.9678 303.337 100.139 303.195 100.289C303.054 100.435 302.89 100.56 302.703 100.665C302.516 100.77 302.316 100.856 302.102 100.925C301.892 100.993 301.676 101.043 301.452 101.075C301.229 101.107 301.01 101.123 300.796 101.123C300.331 101.123 299.903 101.103 299.511 101.062C299.124 101.021 298.743 100.954 298.369 100.863V99.7695C298.77 99.8835 299.169 99.9701 299.566 100.029C299.962 100.089 300.356 100.118 300.748 100.118C301.318 100.118 301.739 100.041 302.013 99.8857C302.286 99.7308 302.423 99.5098 302.423 99.2227C302.423 99.0996 302.4 98.9902 302.355 98.8945C302.314 98.7943 302.236 98.7008 302.122 98.6143C302.008 98.5231 301.831 98.4297 301.589 98.334C301.352 98.2383 301.026 98.1289 300.611 98.0059C300.302 97.9147 300.014 97.8122 299.75 97.6982C299.49 97.5798 299.265 97.4408 299.073 97.2812C298.882 97.1217 298.732 96.9349 298.622 96.7207C298.513 96.5065 298.458 96.2536 298.458 95.9619C298.458 95.7705 298.501 95.5609 298.588 95.333C298.679 95.1051 298.832 94.8932 299.046 94.6973C299.26 94.5013 299.55 94.3395 299.914 94.2119C300.279 94.0798 300.735 94.0137 301.281 94.0137C301.55 94.0137 301.849 94.0296 302.177 94.0615C302.505 94.0889 302.847 94.139 303.202 94.2119V95.2715C302.829 95.1803 302.473 95.1143 302.136 95.0732C301.803 95.0277 301.514 95.0049 301.268 95.0049C300.972 95.0049 300.721 95.0277 300.516 95.0732C300.315 95.1188 300.151 95.1826 300.024 95.2646C299.901 95.3421 299.812 95.4355 299.757 95.5449C299.702 95.6497 299.675 95.7637 299.675 95.8867C299.675 96.0098 299.698 96.1214 299.743 96.2217C299.793 96.3219 299.882 96.4199 300.01 96.5156C300.142 96.6068 300.324 96.7002 300.557 96.7959C300.789 96.887 301.092 96.9873 301.466 97.0967C301.872 97.2152 302.213 97.3405 302.491 97.4727C302.769 97.6003 302.995 97.7438 303.168 97.9033C303.341 98.0628 303.464 98.2428 303.537 98.4434C303.615 98.6439 303.653 98.8717 303.653 99.127ZM310.145 94.376C310.145 95.1143 309.94 95.6748 309.53 96.0576C309.12 96.4359 308.525 96.6501 307.746 96.7002L307.691 98.3818H306.672L306.584 95.7637H307.383C307.661 95.7637 307.894 95.734 308.081 95.6748C308.268 95.6156 308.418 95.5312 308.532 95.4219C308.646 95.3125 308.728 95.1803 308.778 95.0254C308.828 94.8659 308.853 94.6882 308.853 94.4922C308.853 94.1595 308.785 93.8633 308.648 93.6035C308.511 93.3438 308.32 93.125 308.074 92.9473C307.828 92.7695 307.534 92.6351 307.192 92.5439C306.855 92.4528 306.486 92.4072 306.085 92.4072H305.914V91.3408H306.098C306.559 91.3408 306.978 91.3841 307.356 91.4707C307.739 91.5573 308.078 91.6758 308.375 91.8262C308.675 91.972 308.935 92.1452 309.154 92.3457C309.377 92.5462 309.562 92.7581 309.708 92.9814C309.858 93.2048 309.967 93.4372 310.036 93.6787C310.109 93.9157 310.145 94.1481 310.145 94.376ZM307.172 99.3184C307.299 99.3184 307.418 99.3434 307.527 99.3936C307.636 99.4391 307.73 99.5029 307.807 99.585C307.889 99.667 307.953 99.765 307.999 99.8789C308.044 99.9883 308.067 100.104 308.067 100.228C308.067 100.351 308.044 100.467 307.999 100.576C307.953 100.686 307.889 100.781 307.807 100.863C307.73 100.941 307.636 101.002 307.527 101.048C307.418 101.098 307.299 101.123 307.172 101.123C307.048 101.123 306.932 101.098 306.823 101.048C306.714 101.002 306.618 100.941 306.536 100.863C306.454 100.781 306.39 100.686 306.344 100.576C306.299 100.467 306.276 100.351 306.276 100.228C306.276 100.104 306.299 99.9883 306.344 99.8789C306.39 99.765 306.454 99.667 306.536 99.585C306.618 99.5029 306.714 99.4391 306.823 99.3936C306.932 99.3434 307.048 99.3184 307.172 99.3184ZM313.991 95.1211H311.961V94.1367H315.194V100.009H317.238V101H311.735V100.009H313.991V95.1211ZM314.408 91.2588C314.54 91.2588 314.664 91.2839 314.777 91.334C314.891 91.3796 314.989 91.4456 315.071 91.5322C315.158 91.6188 315.224 91.7191 315.27 91.833C315.32 91.9424 315.345 92.0632 315.345 92.1953C315.345 92.3229 315.32 92.4437 315.27 92.5576C315.224 92.6715 315.158 92.7718 315.071 92.8584C314.989 92.945 314.891 93.0133 314.777 93.0635C314.664 93.109 314.54 93.1318 314.408 93.1318C314.276 93.1318 314.153 93.109 314.039 93.0635C313.925 93.0133 313.825 92.945 313.738 92.8584C313.656 92.7718 313.59 92.6715 313.54 92.5576C313.495 92.4437 313.472 92.3229 313.472 92.1953C313.472 92.0632 313.495 91.9424 313.54 91.833C313.59 91.7191 313.656 91.6188 313.738 91.5322C313.825 91.4456 313.925 91.3796 314.039 91.334C314.153 91.2839 314.276 91.2588 314.408 91.2588ZM318.022 97.7119C318.022 97.1286 318.102 96.6113 318.261 96.1602C318.421 95.7044 318.646 95.3216 318.938 95.0117C319.234 94.6973 319.587 94.4603 319.998 94.3008C320.412 94.1367 320.873 94.0547 321.379 94.0547C321.597 94.0547 321.811 94.0684 322.021 94.0957C322.235 94.123 322.445 94.1663 322.65 94.2256V91.3408H323.846V101H322.78L322.739 99.7012C322.406 100.184 322.046 100.542 321.659 100.774C321.271 101.007 320.852 101.123 320.401 101.123C320.009 101.123 319.663 101.041 319.362 100.877C319.066 100.713 318.817 100.483 318.617 100.187C318.421 99.8857 318.273 99.5257 318.172 99.1064C318.072 98.6872 318.022 98.2223 318.022 97.7119ZM319.239 97.6367C319.239 98.4661 319.36 99.0859 319.601 99.4961C319.847 99.9017 320.194 100.104 320.64 100.104C320.941 100.104 321.258 99.9701 321.59 99.7012C321.928 99.4323 322.281 99.0335 322.65 98.5049V95.3193C322.454 95.2282 322.238 95.1598 322.001 95.1143C321.764 95.0641 321.529 95.0391 321.296 95.0391C320.649 95.0391 320.143 95.2487 319.779 95.668C319.419 96.0872 319.239 96.7435 319.239 97.6367ZM330.782 96.584H324.903V95.5791H330.782V96.584ZM330.782 98.9629H324.903V97.958H330.782V98.9629ZM336.843 103.803H336.337C335.458 103.803 334.804 103.595 334.376 103.181C333.947 102.771 333.733 102.146 333.733 101.308V98.9561C333.733 98.7327 333.708 98.5345 333.658 98.3613C333.608 98.1836 333.519 98.0355 333.391 97.917C333.268 97.7939 333.102 97.7005 332.892 97.6367C332.687 97.5729 332.427 97.541 332.113 97.541H331.819V96.5908H332.113C332.446 96.5908 332.717 96.5635 332.926 96.5088C333.136 96.4541 333.3 96.3721 333.419 96.2627C333.537 96.1488 333.619 96.0052 333.665 95.832C333.71 95.6589 333.733 95.4538 333.733 95.2168V93.5967C333.733 93.2139 333.779 92.8698 333.87 92.5645C333.961 92.2546 334.109 91.9925 334.314 91.7783C334.524 91.5596 334.793 91.3932 335.121 91.2793C335.453 91.1608 335.859 91.1016 336.337 91.1016H336.843V92.0586H336.44C335.383 92.0586 334.854 92.5713 334.854 93.5967V95.1895C334.854 96.3014 334.373 96.9281 333.412 97.0693C334.382 97.165 334.868 97.7894 334.868 98.9424V101.28C334.868 102.324 335.392 102.846 336.44 102.846H336.843V103.803ZM340.662 93.0908H338.605V92.0654H343.95V93.0908H341.893V99.9609H343.95V101H338.605V99.9609H340.662V93.0908ZM351.344 96.4336C351.344 96.862 351.31 97.2721 351.242 97.6641C351.178 98.056 351.073 98.4206 350.927 98.7578C350.781 99.0951 350.592 99.4027 350.36 99.6807C350.127 99.9541 349.843 100.189 349.505 100.385C349.168 100.581 348.776 100.733 348.33 100.843C347.883 100.948 347.375 101 346.805 101H344.891V92.0654H347.195C348.589 92.0654 349.628 92.4255 350.312 93.1455C351 93.861 351.344 94.957 351.344 96.4336ZM350.066 96.5225C350.066 95.889 350.007 95.3535 349.888 94.916C349.77 94.4785 349.59 94.1253 349.348 93.8564C349.107 93.5876 348.804 93.3939 348.439 93.2754C348.074 93.1523 347.646 93.0908 347.154 93.0908H346.108V99.9473H347.017C349.05 99.9473 350.066 98.8057 350.066 96.5225ZM352.429 91.1016H352.935C353.814 91.1016 354.468 91.3089 354.896 91.7236C355.325 92.1338 355.539 92.7581 355.539 93.5967V95.1758C355.539 95.3991 355.564 95.5996 355.614 95.7773C355.664 95.9505 355.751 96.0986 355.874 96.2217C356.002 96.3402 356.17 96.4313 356.38 96.4951C356.59 96.5589 356.852 96.5908 357.166 96.5908H357.46V97.541H357.166C356.833 97.541 356.56 97.5684 356.346 97.623C356.136 97.6777 355.972 97.762 355.854 97.876C355.735 97.9854 355.653 98.1266 355.607 98.2998C355.562 98.473 355.539 98.6781 355.539 98.915V101.308C355.539 101.69 355.493 102.035 355.402 102.34C355.311 102.65 355.163 102.912 354.958 103.126C354.753 103.345 354.484 103.511 354.151 103.625C353.819 103.743 353.413 103.803 352.935 103.803H352.429V102.846H352.839C353.892 102.846 354.418 102.333 354.418 101.308V98.9424C354.418 97.8304 354.899 97.2061 355.86 97.0693C354.89 96.9645 354.404 96.3379 354.404 95.1895V93.624C354.404 92.5804 353.882 92.0586 352.839 92.0586H352.429V91.1016Z" fill="#E0CB6A"/>
<circle cx="16" cy="11" r="3" fill="#4B0828"/>
<circle cx="26" cy="11" r="3" fill="#4B0828"/>
<circle cx="36" cy="11" r="3" fill="#4B0828"/>
</g>
<defs>
<filter id="filter0_d" x="0" y="0" width="445" height="178" filterUnits="userSpaceOnUse" color-interpolation-filters="sRGB">
<feFlood flood-opacity="0" result="BackgroundImageFix"/>
<feColorMatrix in="SourceAlpha" type="matrix" values="0 0 0 0 0 0 0 0 0 0 0 0 0 0 0 0 0 0 127 0"/>
<feOffset dy="4"/>
<feGaussianBlur stdDeviation="2"/>
<feColorMatrix type="matrix" values="0 0 0 0 0 0 0 0 0 0 0 0 0 0 0 0 0 0 0.25 0"/>
<feBlend mode="normal" in2="BackgroundImageFix" result="effect1_dropShadow"/>
<feBlend mode="normal" in="SourceGraphic" in2="effect1_dropShadow" result="shape"/>
</filter>
</defs>
</svg>
