<svg width="383" height="264" viewBox="0 0 383 264" fill="none" xmlns="http://www.w3.org/2000/svg">
<g opacity="0.6">
<path d="M284.897 147.655H260.018C251.632 147.655 244.835 140.858 244.835 132.479C244.835 124.093 251.632 117.296 260.018 117.296H284.897C293.283 117.296 300.073 124.093 300.073 132.479C300.073 140.858 293.283 147.655 284.897 147.655Z" stroke="#A3A5A8" stroke-width="3" stroke-miterlimit="10"/>
<path d="M284.897 134.504H260.118C259.002 134.504 258.093 133.595 258.093 132.479C258.093 131.363 259.002 130.454 260.118 130.454H284.897C286.013 130.454 286.922 131.363 286.922 132.479C286.922 133.595 286.013 134.504 284.897 134.504Z" fill="#CDCFD0"/>
<path d="M260.326 142.79C266.02 142.79 270.636 138.174 270.636 132.479C270.636 126.785 266.02 122.169 260.326 122.169C254.631 122.169 250.015 126.785 250.015 132.479C250.015 138.174 254.631 142.79 260.326 142.79Z" fill="#616264"/>
<path d="M260.326 123.6C265.22 123.6 269.205 127.585 269.205 132.479C269.205 137.373 265.22 141.359 260.326 141.359C255.432 141.359 251.446 137.373 251.446 132.479C251.446 127.585 255.432 123.6 260.326 123.6ZM260.326 120.738C253.843 120.738 248.584 125.997 248.584 132.479C248.584 138.962 253.843 144.221 260.326 144.221C266.808 144.221 272.067 138.962 272.067 132.479C272.067 125.997 266.808 120.738 260.326 120.738Z" fill="#C0C2C4"/>
</g>
<g opacity="0.3">
<path d="M365.751 147.655H340.872C332.486 147.655 325.689 140.858 325.689 132.479C325.689 124.093 332.486 117.296 340.872 117.296H365.751C374.136 117.296 380.927 124.093 380.927 132.479C380.927 140.858 374.136 147.655 365.751 147.655Z" stroke="#A3A5A8" stroke-width="3" stroke-miterlimit="10"/>
<path d="M365.751 134.504H340.972C339.856 134.504 338.947 133.595 338.947 132.479C338.947 131.363 339.856 130.454 340.972 130.454H365.751C366.867 130.454 367.775 131.363 367.775 132.479C367.775 133.595 366.867 134.504 365.751 134.504Z" fill="#CDCFD0"/>
<path d="M341.18 142.79C346.874 142.79 351.49 138.174 351.49 132.479C351.49 126.785 346.874 122.169 341.18 122.169C335.485 122.169 330.869 126.785 330.869 132.479C330.869 138.174 335.485 142.79 341.18 142.79Z" fill="#616264"/>
<path d="M341.18 123.6C346.074 123.6 350.059 127.585 350.059 132.479C350.059 137.373 346.074 141.359 341.18 141.359C336.285 141.359 332.3 137.373 332.3 132.479C332.3 127.585 336.285 123.6 341.18 123.6ZM341.18 120.738C334.697 120.738 329.438 125.997 329.438 132.479C329.438 138.962 334.697 144.221 341.18 144.221C347.662 144.221 352.921 138.962 352.921 132.479C352.921 125.997 347.662 120.738 341.18 120.738Z" fill="#C0C2C4"/>
</g>
<path d="M179.157 117.296L204.036 117.296C212.422 117.296 219.219 124.093 219.219 132.472C219.219 140.858 212.422 147.655 204.036 147.655L179.157 147.655C170.771 147.655 163.981 140.858 163.981 132.472C163.981 124.093 170.771 117.296 179.157 117.296Z" stroke="#08531D" stroke-width="3" stroke-miterlimit="10"/>
<path d="M179.157 130.447L203.936 130.447C205.052 130.447 205.96 131.356 205.96 132.472C205.96 133.588 205.052 134.497 203.936 134.497L179.157 134.497C178.041 134.497 177.132 133.588 177.132 132.472C177.132 131.356 178.041 130.447 179.157 130.447Z" fill="#047A25"/>
<path d="M203.728 122.161C198.034 122.161 193.417 126.778 193.417 132.472C193.417 138.167 198.034 142.783 203.728 142.783C209.422 142.783 214.039 138.167 214.039 132.472C214.039 126.778 209.422 122.161 203.728 122.161Z" fill="#047A25"/>
<path d="M203.728 141.352C198.834 141.352 194.848 137.366 194.848 132.472C194.848 127.578 198.834 123.592 203.728 123.592C208.622 123.592 212.608 127.578 212.608 132.472C212.608 137.366 208.622 141.352 203.728 141.352ZM203.728 144.214C210.211 144.214 215.47 138.955 215.47 132.472C215.47 125.989 210.211 120.73 203.728 120.73C197.245 120.73 191.986 125.989 191.986 132.472C191.986 138.955 197.245 144.214 203.728 144.214Z" fill="#50D786"/>
<g opacity="0.6">
<path d="M123.189 147.655H98.3104C89.9245 147.655 83.1271 140.858 83.1271 132.479C83.1271 124.093 89.9245 117.296 98.3104 117.296H123.189C131.575 117.296 138.365 124.093 138.365 132.479C138.365 140.858 131.575 147.655 123.189 147.655Z" stroke="#A3A5A8" stroke-width="3" stroke-miterlimit="10"/>
<path d="M123.189 134.504H98.4106C97.2944 134.504 96.3857 133.595 96.3857 132.479C96.3857 131.363 97.2944 130.454 98.4106 130.454H123.189C124.305 130.454 125.214 131.363 125.214 132.479C125.214 133.595 124.305 134.504 123.189 134.504Z" fill="#CDCFD0"/>
<path d="M98.6181 142.79C104.312 142.79 108.929 138.174 108.929 132.479C108.929 126.785 104.312 122.169 98.6181 122.169C92.9237 122.169 88.3074 126.785 88.3074 132.479C88.3074 138.174 92.9237 142.79 98.6181 142.79Z" fill="#616264"/>
<path d="M98.6181 123.6C103.512 123.6 107.498 127.585 107.498 132.479C107.498 137.373 103.512 141.359 98.6181 141.359C93.7239 141.359 89.7385 137.373 89.7385 132.479C89.7385 127.585 93.7239 123.6 98.6181 123.6ZM98.6181 120.738C92.1355 120.738 86.8764 125.997 86.8764 132.479C86.8764 138.962 92.1355 144.221 98.6181 144.221C105.101 144.221 110.36 138.962 110.36 132.479C110.36 125.997 105.101 120.738 98.6181 120.738Z" fill="#C0C2C4"/>
</g>
<g opacity="0.3">
<path d="M42.3352 147.655H17.4566C9.0707 147.655 2.27325 140.858 2.27325 132.479C2.27325 124.093 9.0707 117.296 17.4566 117.296H42.3352C50.7211 117.296 57.5114 124.093 57.5114 132.479C57.5114 140.858 50.7211 147.655 42.3352 147.655Z" stroke="#A3A5A8" stroke-width="3" stroke-miterlimit="10"/>
<path d="M42.3353 134.504H17.5568C16.4406 134.504 15.5319 133.595 15.5319 132.479C15.5319 131.363 16.4406 130.454 17.5568 130.454H42.3353C43.4515 130.454 44.3602 131.363 44.3602 132.479C44.3602 133.595 43.4515 134.504 42.3353 134.504Z" fill="#CDCFD0"/>
<path d="M17.7643 142.79C23.4587 142.79 28.0749 138.174 28.0749 132.479C28.0749 126.785 23.4587 122.169 17.7643 122.169C12.0698 122.169 7.45361 126.785 7.45361 132.479C7.45361 138.174 12.0698 142.79 17.7643 142.79Z" fill="#616264"/>
<path d="M17.7643 123.6C22.6584 123.6 26.6439 127.585 26.6439 132.479C26.6439 137.373 22.6584 141.359 17.7643 141.359C12.8701 141.359 8.88467 137.373 8.88467 132.479C8.88467 127.585 12.8701 123.6 17.7643 123.6ZM17.7643 120.738C11.2817 120.738 6.02258 125.997 6.02258 132.479C6.02258 138.962 11.2817 144.221 17.7643 144.221C24.2469 144.221 29.506 138.962 29.506 132.479C29.506 125.997 24.2469 120.738 17.7643 120.738Z" fill="#C0C2C4"/>
</g>
<g opacity="0.6">
<path d="M284.897 204.897H260.018C251.632 204.897 244.835 198.1 244.835 189.721C244.835 181.335 251.632 174.538 260.018 174.538H284.897C293.283 174.538 300.073 181.335 300.073 189.721C300.073 198.1 293.283 204.897 284.897 204.897Z" stroke="#A3A5A8" stroke-width="3" stroke-miterlimit="10"/>
<path d="M284.897 191.746H260.118C259.002 191.746 258.093 190.837 258.093 189.721C258.093 188.605 259.002 187.696 260.118 187.696H284.897C286.013 187.696 286.922 188.605 286.922 189.721C286.922 190.837 286.013 191.746 284.897 191.746Z" fill="#CDCFD0"/>
<path d="M260.326 200.032C266.02 200.032 270.636 195.415 270.636 189.721C270.636 184.026 266.02 179.41 260.326 179.41C254.631 179.41 250.015 184.026 250.015 189.721C250.015 195.415 254.631 200.032 260.326 200.032Z" fill="#616264"/>
<path d="M260.326 180.841C265.22 180.841 269.205 184.827 269.205 189.721C269.205 194.615 265.22 198.6 260.326 198.6C255.432 198.6 251.446 194.615 251.446 189.721C251.446 184.827 255.432 180.841 260.326 180.841ZM260.326 177.979C253.843 177.979 248.584 183.238 248.584 189.721C248.584 196.203 253.843 201.463 260.326 201.463C266.808 201.463 272.067 196.203 272.067 189.721C272.067 183.238 266.808 177.979 260.326 177.979Z" fill="#C0C2C4"/>
</g>
<g opacity="0.3">
<path d="M365.751 204.897H340.872C332.486 204.897 325.689 198.1 325.689 189.721C325.689 181.335 332.486 174.538 340.872 174.538H365.751C374.136 174.538 380.927 181.335 380.927 189.721C380.927 198.1 374.136 204.897 365.751 204.897Z" stroke="#A3A5A8" stroke-width="3" stroke-miterlimit="10"/>
<path d="M365.751 191.746H340.972C339.856 191.746 338.947 190.837 338.947 189.721C338.947 188.605 339.856 187.696 340.972 187.696H365.751C366.867 187.696 367.775 188.605 367.775 189.721C367.775 190.837 366.867 191.746 365.751 191.746Z" fill="#CDCFD0"/>
<path d="M341.18 200.032C346.874 200.032 351.49 195.415 351.49 189.721C351.49 184.026 346.874 179.41 341.18 179.41C335.485 179.41 330.869 184.026 330.869 189.721C330.869 195.415 335.485 200.032 341.18 200.032Z" fill="#616264"/>
<path d="M341.18 180.841C346.074 180.841 350.059 184.827 350.059 189.721C350.059 194.615 346.074 198.6 341.18 198.6C336.285 198.6 332.3 194.615 332.3 189.721C332.3 184.827 336.285 180.841 341.18 180.841ZM341.18 177.979C334.697 177.979 329.438 183.238 329.438 189.721C329.438 196.203 334.697 201.463 341.18 201.463C347.662 201.463 352.921 196.203 352.921 189.721C352.921 183.238 347.662 177.979 341.18 177.979Z" fill="#C0C2C4"/>
</g>
<g opacity="0.6">
<path d="M204.043 204.897H179.164C170.778 204.897 163.981 198.1 163.981 189.721C163.981 181.335 170.778 174.538 179.164 174.538H204.043C212.429 174.538 219.219 181.335 219.219 189.721C219.219 198.1 212.429 204.897 204.043 204.897Z" stroke="#A3A5A8" stroke-width="3" stroke-miterlimit="10"/>
<path d="M204.043 191.746H179.264C178.148 191.746 177.24 190.837 177.24 189.721C177.24 188.605 178.148 187.696 179.264 187.696H204.043C205.159 187.696 206.068 188.605 206.068 189.721C206.068 190.837 205.159 191.746 204.043 191.746Z" fill="#CDCFD0"/>
<path d="M179.472 200.032C185.166 200.032 189.783 195.415 189.783 189.721C189.783 184.026 185.166 179.41 179.472 179.41C173.777 179.41 169.161 184.026 169.161 189.721C169.161 195.415 173.777 200.032 179.472 200.032Z" fill="#616264"/>
<path d="M179.472 180.841C184.366 180.841 188.352 184.827 188.352 189.721C188.352 194.615 184.366 198.6 179.472 198.6C174.578 198.6 170.592 194.615 170.592 189.721C170.592 184.827 174.578 180.841 179.472 180.841ZM179.472 177.979C172.989 177.979 167.73 183.238 167.73 189.721C167.73 196.203 172.989 201.463 179.472 201.463C185.955 201.463 191.214 196.203 191.214 189.721C191.214 183.238 185.955 177.979 179.472 177.979Z" fill="#C0C2C4"/>
</g>
<g opacity="0.6">
<path d="M123.189 204.897H98.3104C89.9245 204.897 83.1271 198.1 83.1271 189.721C83.1271 181.335 89.9245 174.538 98.3104 174.538H123.189C131.575 174.538 138.365 181.335 138.365 189.721C138.365 198.1 131.575 204.897 123.189 204.897Z" stroke="#A3A5A8" stroke-width="3" stroke-miterlimit="10"/>
<path d="M123.189 191.746H98.4106C97.2944 191.746 96.3857 190.837 96.3857 189.721C96.3857 188.605 97.2944 187.696 98.4106 187.696H123.189C124.305 187.696 125.214 188.605 125.214 189.721C125.214 190.837 124.305 191.746 123.189 191.746Z" fill="#CDCFD0"/>
<path d="M98.6181 200.032C104.312 200.032 108.929 195.415 108.929 189.721C108.929 184.026 104.312 179.41 98.6181 179.41C92.9237 179.41 88.3074 184.026 88.3074 189.721C88.3074 195.415 92.9237 200.032 98.6181 200.032Z" fill="#616264"/>
<path d="M98.6181 180.841C103.512 180.841 107.498 184.827 107.498 189.721C107.498 194.615 103.512 198.6 98.6181 198.6C93.7239 198.6 89.7385 194.615 89.7385 189.721C89.7385 184.827 93.7239 180.841 98.6181 180.841ZM98.6181 177.979C92.1355 177.979 86.8764 183.238 86.8764 189.721C86.8764 196.203 92.1355 201.463 98.6181 201.463C105.101 201.463 110.36 196.203 110.36 189.721C110.36 183.238 105.101 177.979 98.6181 177.979Z" fill="#C0C2C4"/>
</g>
<g opacity="0.3">
<path d="M42.3352 204.897H17.4566C9.0707 204.897 2.27325 198.1 2.27325 189.721C2.27325 181.335 9.0707 174.538 17.4566 174.538H42.3352C50.7211 174.538 57.5114 181.335 57.5114 189.721C57.5114 198.1 50.7211 204.897 42.3352 204.897Z" stroke="#A3A5A8" stroke-width="3" stroke-miterlimit="10"/>
<path d="M42.3353 191.746H17.5568C16.4406 191.746 15.5319 190.837 15.5319 189.721C15.5319 188.605 16.4406 187.696 17.5568 187.696H42.3353C43.4515 187.696 44.3602 188.605 44.3602 189.721C44.3602 190.837 43.4515 191.746 42.3353 191.746Z" fill="#CDCFD0"/>
<path d="M17.7643 200.032C23.4587 200.032 28.0749 195.415 28.0749 189.721C28.0749 184.026 23.4587 179.41 17.7643 179.41C12.0698 179.41 7.45361 184.026 7.45361 189.721C7.45361 195.415 12.0698 200.032 17.7643 200.032Z" fill="#616264"/>
<path d="M17.7643 180.841C22.6584 180.841 26.6439 184.827 26.6439 189.721C26.6439 194.615 22.6584 198.6 17.7643 198.6C12.8701 198.6 8.88467 194.615 8.88467 189.721C8.88467 184.827 12.8701 180.841 17.7643 180.841ZM17.7643 177.979C11.2817 177.979 6.02258 183.238 6.02258 189.721C6.02258 196.203 11.2817 201.463 17.7643 201.463C24.2469 201.463 29.506 196.203 29.506 189.721C29.506 183.238 24.2469 177.979 17.7643 177.979Z" fill="#C0C2C4"/>
</g>
<g opacity="0.3">
<path d="M284.897 262.139H260.018C251.632 262.139 244.835 255.341 244.835 246.963C244.835 238.577 251.632 231.779 260.018 231.779H284.897C293.283 231.779 300.073 238.577 300.073 246.963C300.073 255.341 293.283 262.139 284.897 262.139Z" stroke="#A3A5A8" stroke-width="3" stroke-miterlimit="10"/>
<path d="M284.897 248.988H260.118C259.002 248.988 258.093 248.079 258.093 246.963C258.093 245.846 259.002 244.938 260.118 244.938H284.897C286.013 244.938 286.922 245.846 286.922 246.963C286.922 248.079 286.013 248.988 284.897 248.988Z" fill="#CDCFD0"/>
<path d="M260.326 257.273C266.02 257.273 270.636 252.657 270.636 246.963C270.636 241.268 266.02 236.652 260.326 236.652C254.631 236.652 250.015 241.268 250.015 246.963C250.015 252.657 254.631 257.273 260.326 257.273Z" fill="#616264"/>
<path d="M260.326 238.083C265.22 238.083 269.205 242.068 269.205 246.963C269.205 251.857 265.22 255.842 260.326 255.842C255.432 255.842 251.446 251.857 251.446 246.963C251.446 242.068 255.432 238.083 260.326 238.083ZM260.326 235.221C253.843 235.221 248.584 240.48 248.584 246.963C248.584 253.445 253.843 258.704 260.326 258.704C266.808 258.704 272.067 253.445 272.067 246.963C272.067 240.48 266.808 235.221 260.326 235.221Z" fill="#C0C2C4"/>
</g>
<g opacity="0.3">
<path d="M365.751 262.139H340.872C332.486 262.139 325.689 255.341 325.689 246.963C325.689 238.577 332.486 231.779 340.872 231.779H365.751C374.136 231.779 380.927 238.577 380.927 246.963C380.927 255.341 374.136 262.139 365.751 262.139Z" stroke="#A3A5A8" stroke-width="3" stroke-miterlimit="10"/>
<path d="M365.751 248.988H340.972C339.856 248.988 338.947 248.079 338.947 246.963C338.947 245.846 339.856 244.938 340.972 244.938H365.751C366.867 244.938 367.775 245.846 367.775 246.963C367.775 248.079 366.867 248.988 365.751 248.988Z" fill="#CDCFD0"/>
<path d="M341.18 257.273C346.874 257.273 351.49 252.657 351.49 246.963C351.49 241.268 346.874 236.652 341.18 236.652C335.485 236.652 330.869 241.268 330.869 246.963C330.869 252.657 335.485 257.273 341.18 257.273Z" fill="#616264"/>
<path d="M341.18 238.083C346.074 238.083 350.059 242.068 350.059 246.963C350.059 251.857 346.074 255.842 341.18 255.842C336.285 255.842 332.3 251.857 332.3 246.963C332.3 242.068 336.285 238.083 341.18 238.083ZM341.18 235.221C334.697 235.221 329.438 240.48 329.438 246.963C329.438 253.445 334.697 258.704 341.18 258.704C347.662 258.704 352.921 253.445 352.921 246.963C352.921 240.48 347.662 235.221 341.18 235.221Z" fill="#C0C2C4"/>
</g>
<g opacity="0.3">
<path d="M204.043 262.139H179.164C170.778 262.139 163.981 255.341 163.981 246.963C163.981 238.577 170.778 231.779 179.164 231.779H204.043C212.429 231.779 219.219 238.577 219.219 246.963C219.219 255.341 212.429 262.139 204.043 262.139Z" stroke="#A3A5A8" stroke-width="3" stroke-miterlimit="10"/>
<path d="M204.043 248.988H179.264C178.148 248.988 177.24 248.079 177.24 246.963C177.24 245.846 178.148 244.938 179.264 244.938H204.043C205.159 244.938 206.068 245.846 206.068 246.963C206.068 248.079 205.159 248.988 204.043 248.988Z" fill="#CDCFD0"/>
<path d="M179.472 257.273C185.166 257.273 189.783 252.657 189.783 246.963C189.783 241.268 185.166 236.652 179.472 236.652C173.777 236.652 169.161 241.268 169.161 246.963C169.161 252.657 173.777 257.273 179.472 257.273Z" fill="#616264"/>
<path d="M179.472 238.083C184.366 238.083 188.352 242.068 188.352 246.963C188.352 251.857 184.366 255.842 179.472 255.842C174.578 255.842 170.592 251.857 170.592 246.963C170.592 242.068 174.578 238.083 179.472 238.083ZM179.472 235.221C172.989 235.221 167.73 240.48 167.73 246.963C167.73 253.445 172.989 258.704 179.472 258.704C185.955 258.704 191.214 253.445 191.214 246.963C191.214 240.48 185.955 235.221 179.472 235.221Z" fill="#C0C2C4"/>
</g>
<g opacity="0.3">
<path d="M123.189 262.139H98.3104C89.9245 262.139 83.1271 255.341 83.1271 246.963C83.1271 238.577 89.9245 231.779 98.3104 231.779H123.189C131.575 231.779 138.365 238.577 138.365 246.963C138.365 255.341 131.575 262.139 123.189 262.139Z" stroke="#A3A5A8" stroke-width="3" stroke-miterlimit="10"/>
<path d="M123.189 248.988H98.4106C97.2944 248.988 96.3857 248.079 96.3857 246.963C96.3857 245.846 97.2944 244.938 98.4106 244.938H123.189C124.305 244.938 125.214 245.846 125.214 246.963C125.214 248.079 124.305 248.988 123.189 248.988Z" fill="#CDCFD0"/>
<path d="M98.6181 257.273C104.312 257.273 108.929 252.657 108.929 246.963C108.929 241.268 104.312 236.652 98.6181 236.652C92.9237 236.652 88.3074 241.268 88.3074 246.963C88.3074 252.657 92.9237 257.273 98.6181 257.273Z" fill="#616264"/>
<path d="M98.6181 238.083C103.512 238.083 107.498 242.068 107.498 246.963C107.498 251.857 103.512 255.842 98.6181 255.842C93.7239 255.842 89.7385 251.857 89.7385 246.963C89.7385 242.068 93.7239 238.083 98.6181 238.083ZM98.6181 235.221C92.1355 235.221 86.8764 240.48 86.8764 246.963C86.8764 253.445 92.1355 258.704 98.6181 258.704C105.101 258.704 110.36 253.445 110.36 246.963C110.36 240.48 105.101 235.221 98.6181 235.221Z" fill="#C0C2C4"/>
</g>
<g opacity="0.3">
<path d="M42.3352 262.139H17.4566C9.0707 262.139 2.27325 255.341 2.27325 246.963C2.27325 238.577 9.0707 231.779 17.4566 231.779H42.3352C50.7211 231.779 57.5114 238.577 57.5114 246.963C57.5114 255.341 50.7211 262.139 42.3352 262.139Z" stroke="#A3A5A8" stroke-width="3" stroke-miterlimit="10"/>
<path d="M42.3353 248.988H17.5568C16.4406 248.988 15.5319 248.079 15.5319 246.963C15.5319 245.846 16.4406 244.938 17.5568 244.938H42.3353C43.4515 244.938 44.3602 245.846 44.3602 246.963C44.3602 248.079 43.4515 248.988 42.3353 248.988Z" fill="#CDCFD0"/>
<path d="M17.7643 257.273C23.4587 257.273 28.0749 252.657 28.0749 246.963C28.0749 241.268 23.4587 236.652 17.7643 236.652C12.0698 236.652 7.45361 241.268 7.45361 246.963C7.45361 252.657 12.0698 257.273 17.7643 257.273Z" fill="#616264"/>
<path d="M17.7643 238.083C22.6584 238.083 26.6439 242.068 26.6439 246.963C26.6439 251.857 22.6584 255.842 17.7643 255.842C12.8701 255.842 8.88467 251.857 8.88467 246.963C8.88467 242.068 12.8701 238.083 17.7643 238.083ZM17.7643 235.221C11.2817 235.221 6.02258 240.48 6.02258 246.963C6.02258 253.445 11.2817 258.704 17.7643 258.704C24.2469 258.704 29.506 253.445 29.506 246.963C29.506 240.48 24.2469 235.221 17.7643 235.221Z" fill="#C0C2C4"/>
</g>
<g opacity="0.6">
<path d="M284.897 90.4138H260.018C251.632 90.4138 244.835 83.6164 244.835 75.2376C244.835 66.8517 251.632 60.0543 260.018 60.0543H284.897C293.283 60.0543 300.073 66.8517 300.073 75.2376C300.073 83.6164 293.283 90.4138 284.897 90.4138Z" stroke="#A3A5A8" stroke-width="3" stroke-miterlimit="10"/>
<path d="M284.897 77.2626H260.118C259.002 77.2626 258.093 76.3539 258.093 75.2376C258.093 74.1214 259.002 73.2127 260.118 73.2127H284.897C286.013 73.2127 286.922 74.1214 286.922 75.2376C286.922 76.3539 286.013 77.2626 284.897 77.2626Z" fill="#CDCFD0"/>
<path d="M260.326 85.5483C266.02 85.5483 270.636 80.9321 270.636 75.2377C270.636 69.5432 266.02 64.927 260.326 64.927C254.631 64.927 250.015 69.5432 250.015 75.2377C250.015 80.9321 254.631 85.5483 260.326 85.5483Z" fill="#616264"/>
<path d="M260.326 66.358C265.22 66.358 269.205 70.3435 269.205 75.2376C269.205 80.1318 265.22 84.1173 260.326 84.1173C255.432 84.1173 251.446 80.1318 251.446 75.2376C251.446 70.3435 255.432 66.358 260.326 66.358ZM260.326 63.496C253.843 63.496 248.584 68.755 248.584 75.2376C248.584 81.7203 253.843 86.9793 260.326 86.9793C266.808 86.9793 272.067 81.7203 272.067 75.2376C272.067 68.755 266.808 63.496 260.326 63.496Z" fill="#C0C2C4"/>
</g>
<g opacity="0.3">
<path d="M284.897 32.6507H260.018C251.632 32.6507 244.835 25.8533 244.835 17.4745C244.835 9.08863 251.632 2.29118 260.018 2.29118H284.897C293.283 2.29118 300.073 9.08863 300.073 17.4745C300.073 25.8533 293.283 32.6507 284.897 32.6507Z" stroke="#A3A5A8" stroke-width="3" stroke-miterlimit="10"/>
<path d="M284.897 19.4994H260.118C259.002 19.4994 258.093 18.5907 258.093 17.4745C258.093 16.3583 259.002 15.4496 260.118 15.4496H284.897C286.013 15.4496 286.922 16.3583 286.922 17.4745C286.922 18.5907 286.013 19.4994 284.897 19.4994Z" fill="#CDCFD0"/>
<path d="M260.326 27.7852C266.02 27.7852 270.636 23.1689 270.636 17.4745C270.636 11.7801 266.02 7.16388 260.326 7.16388C254.631 7.16388 250.015 11.7801 250.015 17.4745C250.015 23.1689 254.631 27.7852 260.326 27.7852Z" fill="#616264"/>
<path d="M260.326 8.59492C265.22 8.59492 269.205 12.5804 269.205 17.4745C269.205 22.3687 265.22 26.3541 260.326 26.3541C255.432 26.3541 251.446 22.3687 251.446 17.4745C251.446 12.5804 255.432 8.59492 260.326 8.59492ZM260.326 5.73283C253.843 5.73283 248.584 10.9919 248.584 17.4745C248.584 23.9571 253.843 29.2162 260.326 29.2162C266.808 29.2162 272.067 23.9571 272.067 17.4745C272.067 10.9919 266.808 5.73283 260.326 5.73283Z" fill="#C0C2C4"/>
</g>
<g opacity="0.3">
<path d="M365.751 90.4138H340.872C332.486 90.4138 325.689 83.6164 325.689 75.2376C325.689 66.8517 332.486 60.0543 340.872 60.0543H365.751C374.136 60.0543 380.927 66.8517 380.927 75.2376C380.927 83.6164 374.136 90.4138 365.751 90.4138Z" stroke="#A3A5A8" stroke-width="3" stroke-miterlimit="10"/>
<path d="M365.751 77.2626H340.972C339.856 77.2626 338.947 76.3539 338.947 75.2376C338.947 74.1214 339.856 73.2127 340.972 73.2127H365.751C366.867 73.2127 367.775 74.1214 367.775 75.2376C367.775 76.3539 366.867 77.2626 365.751 77.2626Z" fill="#CDCFD0"/>
<path d="M341.18 85.5483C346.874 85.5483 351.49 80.9321 351.49 75.2377C351.49 69.5432 346.874 64.927 341.18 64.927C335.485 64.927 330.869 69.5432 330.869 75.2377C330.869 80.9321 335.485 85.5483 341.18 85.5483Z" fill="#616264"/>
<path d="M341.18 66.358C346.074 66.358 350.059 70.3435 350.059 75.2376C350.059 80.1318 346.074 84.1173 341.18 84.1173C336.285 84.1173 332.3 80.1318 332.3 75.2376C332.3 70.3435 336.285 66.358 341.18 66.358ZM341.18 63.496C334.697 63.496 329.438 68.755 329.438 75.2376C329.438 81.7203 334.697 86.9793 341.18 86.9793C347.662 86.9793 352.921 81.7203 352.921 75.2376C352.921 68.755 347.662 63.496 341.18 63.496Z" fill="#C0C2C4"/>
</g>
<g opacity="0.3">
<path d="M365.751 32.6507H340.872C332.486 32.6507 325.689 25.8533 325.689 17.4745C325.689 9.08863 332.486 2.29118 340.872 2.29118H365.751C374.136 2.29118 380.927 9.08863 380.927 17.4745C380.927 25.8533 374.136 32.6507 365.751 32.6507Z" stroke="#A3A5A8" stroke-width="3" stroke-miterlimit="10"/>
<path d="M365.751 19.4994H340.972C339.856 19.4994 338.947 18.5907 338.947 17.4745C338.947 16.3583 339.856 15.4496 340.972 15.4496H365.751C366.867 15.4496 367.775 16.3583 367.775 17.4745C367.775 18.5907 366.867 19.4994 365.751 19.4994Z" fill="#CDCFD0"/>
<path d="M341.18 27.7852C346.874 27.7852 351.49 23.1689 351.49 17.4745C351.49 11.7801 346.874 7.16388 341.18 7.16388C335.485 7.16388 330.869 11.7801 330.869 17.4745C330.869 23.1689 335.485 27.7852 341.18 27.7852Z" fill="#616264"/>
<path d="M341.18 8.59492C346.074 8.59492 350.059 12.5804 350.059 17.4745C350.059 22.3687 346.074 26.3541 341.18 26.3541C336.285 26.3541 332.3 22.3687 332.3 17.4745C332.3 12.5804 336.285 8.59492 341.18 8.59492ZM341.18 5.73283C334.697 5.73283 329.438 10.9919 329.438 17.4745C329.438 23.9571 334.697 29.2162 341.18 29.2162C347.662 29.2162 352.921 23.9571 352.921 17.4745C352.921 10.9919 347.662 5.73283 341.18 5.73283Z" fill="#C0C2C4"/>
</g>
<g opacity="0.6">
<path d="M204.043 90.4138H179.164C170.778 90.4138 163.981 83.6164 163.981 75.2376C163.981 66.8517 170.778 60.0543 179.164 60.0543H204.043C212.429 60.0543 219.219 66.8517 219.219 75.2376C219.219 83.6164 212.429 90.4138 204.043 90.4138Z" stroke="#A3A5A8" stroke-width="3" stroke-miterlimit="10"/>
<path d="M204.043 77.2626H179.264C178.148 77.2626 177.24 76.3539 177.24 75.2376C177.24 74.1214 178.148 73.2127 179.264 73.2127H204.043C205.159 73.2127 206.068 74.1214 206.068 75.2376C206.068 76.3539 205.159 77.2626 204.043 77.2626Z" fill="#CDCFD0"/>
<path d="M179.472 85.5483C185.166 85.5483 189.783 80.9321 189.783 75.2377C189.783 69.5432 185.166 64.927 179.472 64.927C173.777 64.927 169.161 69.5432 169.161 75.2377C169.161 80.9321 173.777 85.5483 179.472 85.5483Z" fill="#616264"/>
<path d="M179.472 66.358C184.366 66.358 188.352 70.3435 188.352 75.2376C188.352 80.1318 184.366 84.1173 179.472 84.1173C174.578 84.1173 170.592 80.1318 170.592 75.2376C170.592 70.3435 174.578 66.358 179.472 66.358ZM179.472 63.496C172.989 63.496 167.73 68.755 167.73 75.2376C167.73 81.7203 172.989 86.9793 179.472 86.9793C185.955 86.9793 191.214 81.7203 191.214 75.2376C191.214 68.755 185.955 63.496 179.472 63.496Z" fill="#C0C2C4"/>
</g>
<g opacity="0.3">
<path d="M204.043 32.6507H179.164C170.778 32.6507 163.981 25.8533 163.981 17.4745C163.981 9.08863 170.778 2.29118 179.164 2.29118H204.043C212.429 2.29118 219.219 9.08863 219.219 17.4745C219.219 25.8533 212.429 32.6507 204.043 32.6507Z" stroke="#A3A5A8" stroke-width="3" stroke-miterlimit="10"/>
<path d="M204.043 19.4994H179.264C178.148 19.4994 177.24 18.5907 177.24 17.4745C177.24 16.3583 178.148 15.4496 179.264 15.4496H204.043C205.159 15.4496 206.068 16.3583 206.068 17.4745C206.068 18.5907 205.159 19.4994 204.043 19.4994Z" fill="#CDCFD0"/>
<path d="M179.472 27.7852C185.166 27.7852 189.783 23.1689 189.783 17.4745C189.783 11.7801 185.166 7.16388 179.472 7.16388C173.777 7.16388 169.161 11.7801 169.161 17.4745C169.161 23.1689 173.777 27.7852 179.472 27.7852Z" fill="#616264"/>
<path d="M179.472 8.59492C184.366 8.59492 188.352 12.5804 188.352 17.4745C188.352 22.3687 184.366 26.3541 179.472 26.3541C174.578 26.3541 170.592 22.3687 170.592 17.4745C170.592 12.5804 174.578 8.59492 179.472 8.59492ZM179.472 5.73283C172.989 5.73283 167.73 10.9919 167.73 17.4745C167.73 23.9571 172.989 29.2162 179.472 29.2162C185.955 29.2162 191.214 23.9571 191.214 17.4745C191.214 10.9919 185.955 5.73283 179.472 5.73283Z" fill="#C0C2C4"/>
</g>
<g opacity="0.6">
<path d="M123.189 90.4138H98.3104C89.9245 90.4138 83.1271 83.6164 83.1271 75.2376C83.1271 66.8517 89.9245 60.0543 98.3104 60.0543H123.189C131.575 60.0543 138.365 66.8517 138.365 75.2376C138.365 83.6164 131.575 90.4138 123.189 90.4138Z" stroke="#A3A5A8" stroke-width="3" stroke-miterlimit="10"/>
<path d="M123.189 77.2626H98.4106C97.2944 77.2626 96.3857 76.3539 96.3857 75.2376C96.3857 74.1214 97.2944 73.2127 98.4106 73.2127H123.189C124.305 73.2127 125.214 74.1214 125.214 75.2376C125.214 76.3539 124.305 77.2626 123.189 77.2626Z" fill="#CDCFD0"/>
<path d="M98.6181 85.5483C104.312 85.5483 108.929 80.9321 108.929 75.2377C108.929 69.5432 104.312 64.927 98.6181 64.927C92.9237 64.927 88.3074 69.5432 88.3074 75.2377C88.3074 80.9321 92.9237 85.5483 98.6181 85.5483Z" fill="#616264"/>
<path d="M98.6181 66.358C103.512 66.358 107.498 70.3435 107.498 75.2376C107.498 80.1318 103.512 84.1173 98.6181 84.1173C93.7239 84.1173 89.7385 80.1318 89.7385 75.2376C89.7385 70.3435 93.7239 66.358 98.6181 66.358ZM98.6181 63.496C92.1355 63.496 86.8764 68.755 86.8764 75.2376C86.8764 81.7203 92.1355 86.9793 98.6181 86.9793C105.101 86.9793 110.36 81.7203 110.36 75.2376C110.36 68.755 105.101 63.496 98.6181 63.496Z" fill="#C0C2C4"/>
</g>
<g opacity="0.3">
<path d="M123.189 32.6507H98.3104C89.9245 32.6507 83.1271 25.8533 83.1271 17.4745C83.1271 9.08863 89.9245 2.29118 98.3104 2.29118H123.189C131.575 2.29118 138.365 9.08863 138.365 17.4745C138.365 25.8533 131.575 32.6507 123.189 32.6507Z" stroke="#A3A5A8" stroke-width="3" stroke-miterlimit="10"/>
<path d="M123.189 19.4994H98.4106C97.2944 19.4994 96.3857 18.5907 96.3857 17.4745C96.3857 16.3583 97.2944 15.4496 98.4106 15.4496H123.189C124.305 15.4496 125.214 16.3583 125.214 17.4745C125.214 18.5907 124.305 19.4994 123.189 19.4994Z" fill="#CDCFD0"/>
<path d="M98.6181 27.7852C104.312 27.7852 108.929 23.1689 108.929 17.4745C108.929 11.7801 104.312 7.16388 98.6181 7.16388C92.9237 7.16388 88.3074 11.7801 88.3074 17.4745C88.3074 23.1689 92.9237 27.7852 98.6181 27.7852Z" fill="#616264"/>
<path d="M98.6181 8.59492C103.512 8.59492 107.498 12.5804 107.498 17.4745C107.498 22.3687 103.512 26.3541 98.6181 26.3541C93.7239 26.3541 89.7385 22.3687 89.7385 17.4745C89.7385 12.5804 93.7239 8.59492 98.6181 8.59492ZM98.6181 5.73283C92.1355 5.73283 86.8764 10.9919 86.8764 17.4745C86.8764 23.9571 92.1355 29.2162 98.6181 29.2162C105.101 29.2162 110.36 23.9571 110.36 17.4745C110.36 10.9919 105.101 5.73283 98.6181 5.73283Z" fill="#C0C2C4"/>
</g>
<g opacity="0.3">
<path d="M42.3352 90.4138H17.4566C9.0707 90.4138 2.27325 83.6164 2.27325 75.2376C2.27325 66.8517 9.0707 60.0543 17.4566 60.0543H42.3352C50.7211 60.0543 57.5114 66.8517 57.5114 75.2376C57.5114 83.6164 50.7211 90.4138 42.3352 90.4138Z" stroke="#A3A5A8" stroke-width="3" stroke-miterlimit="10"/>
<path d="M42.3353 77.2626H17.5568C16.4406 77.2626 15.5319 76.3539 15.5319 75.2376C15.5319 74.1214 16.4406 73.2127 17.5568 73.2127H42.3353C43.4515 73.2127 44.3602 74.1214 44.3602 75.2376C44.3602 76.3539 43.4515 77.2626 42.3353 77.2626Z" fill="#CDCFD0"/>
<path d="M17.7643 85.5483C23.4587 85.5483 28.0749 80.9321 28.0749 75.2377C28.0749 69.5432 23.4587 64.927 17.7643 64.927C12.0698 64.927 7.45361 69.5432 7.45361 75.2377C7.45361 80.9321 12.0698 85.5483 17.7643 85.5483Z" fill="#616264"/>
<path d="M17.7643 66.358C22.6584 66.358 26.6439 70.3435 26.6439 75.2376C26.6439 80.1318 22.6584 84.1173 17.7643 84.1173C12.8701 84.1173 8.88467 80.1318 8.88467 75.2376C8.88467 70.3435 12.8701 66.358 17.7643 66.358ZM17.7643 63.496C11.2817 63.496 6.02258 68.755 6.02258 75.2376C6.02258 81.7203 11.2817 86.9793 17.7643 86.9793C24.2469 86.9793 29.506 81.7203 29.506 75.2376C29.506 68.755 24.2469 63.496 17.7643 63.496Z" fill="#C0C2C4"/>
</g>
<g opacity="0.3">
<path d="M42.3352 32.6507H17.4566C9.0707 32.6507 2.27325 25.8533 2.27325 17.4745C2.27325 9.08863 9.0707 2.29118 17.4566 2.29118H42.3352C50.7211 2.29118 57.5114 9.08863 57.5114 17.4745C57.5114 25.8533 50.7211 32.6507 42.3352 32.6507Z" stroke="#A3A5A8" stroke-width="3" stroke-miterlimit="10"/>
<path d="M42.3353 19.4994H17.5568C16.4406 19.4994 15.5319 18.5907 15.5319 17.4745C15.5319 16.3583 16.4406 15.4496 17.5568 15.4496H42.3353C43.4515 15.4496 44.3602 16.3583 44.3602 17.4745C44.3602 18.5907 43.4515 19.4994 42.3353 19.4994Z" fill="#CDCFD0"/>
<path d="M17.7643 27.7852C23.4587 27.7852 28.0749 23.1689 28.0749 17.4745C28.0749 11.7801 23.4587 7.16388 17.7643 7.16388C12.0698 7.16388 7.45361 11.7801 7.45361 17.4745C7.45361 23.1689 12.0698 27.7852 17.7643 27.7852Z" fill="#616264"/>
<path d="M17.7643 8.59492C22.6584 8.59492 26.6439 12.5804 26.6439 17.4745C26.6439 22.3687 22.6584 26.3541 17.7643 26.3541C12.8701 26.3541 8.88467 22.3687 8.88467 17.4745C8.88467 12.5804 12.8701 8.59492 17.7643 8.59492ZM17.7643 5.73283C11.2817 5.73283 6.02258 10.9919 6.02258 17.4745C6.02258 23.9571 11.2817 29.2162 17.7643 29.2162C24.2469 29.2162 29.506 23.9571 29.506 17.4745C29.506 10.9919 24.2469 5.73283 17.7643 5.73283Z" fill="#C0C2C4"/>
</g>
</svg>
