<svg width="26" height="25" viewBox="0 0 26 25" fill="none" xmlns="http://www.w3.org/2000/svg">
<path d="M9.02353 20.5882C10.5457 20.6391 12.0627 20.3844 13.4847 19.8391C14.9068 19.2938 16.2051 18.4689 17.303 17.4133C18.4008 16.3577 19.2759 15.0927 19.8766 13.6931C20.4772 12.2935 20.7912 10.7877 20.8 9.26469C21.4976 8.40143 22.0156 7.40745 22.3235 6.34116C22.3465 6.25691 22.3447 6.16782 22.3182 6.0846C22.2917 6.00139 22.2417 5.9276 22.1743 5.87212C22.1069 5.81665 22.0248 5.78185 21.9381 5.77192C21.8513 5.76199 21.7635 5.77735 21.6853 5.81616C21.3203 5.99183 20.9095 6.04858 20.5106 5.9784C20.1117 5.90822 19.7448 5.71466 19.4618 5.42498C19.1004 5.02925 18.6633 4.71009 18.1763 4.48639C17.6893 4.2627 17.1624 4.13903 16.6267 4.12271C16.0911 4.10639 15.5576 4.19775 15.0579 4.39139C14.5582 4.58502 14.1024 4.87699 13.7177 5.24998C13.1908 5.76022 12.8049 6.39807 12.5975 7.10156C12.39 7.80504 12.3681 8.55023 12.5338 9.26469C9.0853 9.47057 6.71765 7.8338 4.82353 5.58969C4.76663 5.52525 4.69219 5.47877 4.60932 5.45593C4.52644 5.4331 4.4387 5.43489 4.35682 5.46109C4.27495 5.48729 4.20247 5.53677 4.14825 5.60348C4.09402 5.67019 4.0604 5.75124 4.05147 5.83675C3.69063 7.83836 3.95093 9.90246 4.7974 11.7518C5.64388 13.6012 7.03599 15.1472 8.78677 16.1823C7.61287 17.5286 5.96434 18.3695 4.1853 18.5294C4.08999 18.5452 4.002 18.5904 3.93366 18.6587C3.86532 18.727 3.82003 18.8149 3.80415 18.9102C3.78827 19.0055 3.80258 19.1034 3.84508 19.1902C3.88758 19.2769 3.95615 19.3482 4.04118 19.3941C5.58892 20.1676 7.29333 20.5761 9.02353 20.5882Z" fill="#9D1757"/>
</svg>
