<svg width="26" height="25" viewBox="0 0 26 25" fill="none" xmlns="http://www.w3.org/2000/svg">
<g filter="url(#filter0_d)">
<path d="M9.02353 20.5885C10.5457 20.6394 12.0627 20.3847 13.4847 19.8394C14.9068 19.294 16.2051 18.4692 17.303 17.4136C18.4008 16.3579 19.2759 15.0929 19.8766 13.6933C20.4772 12.2937 20.7912 10.7879 20.8 9.26493C21.4976 8.40168 22.0156 7.4077 22.3235 6.3414C22.3465 6.25716 22.3447 6.16806 22.3182 6.08485C22.2917 6.00163 22.2417 5.92784 22.1743 5.87237C22.1069 5.81689 22.0248 5.78209 21.9381 5.77216C21.8513 5.76223 21.7635 5.7776 21.6853 5.8164C21.3203 5.99207 20.9095 6.04882 20.5106 5.97864C20.1117 5.90847 19.7448 5.7149 19.4618 5.42522C19.1004 5.0295 18.6633 4.71033 18.1763 4.48664C17.6893 4.26294 17.1624 4.13927 16.6267 4.12295C16.0911 4.10663 15.5576 4.198 15.0579 4.39163C14.5582 4.58526 14.1024 4.87723 13.7177 5.25022C13.1908 5.76046 12.8049 6.39832 12.5975 7.1018C12.39 7.80529 12.3681 8.55047 12.5338 9.26493C9.0853 9.47081 6.71765 7.83405 4.82353 5.58993C4.76663 5.52549 4.69219 5.47901 4.60932 5.45618C4.52644 5.43334 4.4387 5.43513 4.35682 5.46134C4.27495 5.48754 4.20247 5.53701 4.14825 5.60372C4.09402 5.67043 4.0604 5.75149 4.05147 5.83699C3.69063 7.8386 3.95093 9.9027 4.79741 11.7521C5.64388 13.6014 7.03599 15.1475 8.78677 16.1826C7.61287 17.5289 5.96434 18.3697 4.1853 18.5296C4.08999 18.5454 4.002 18.5907 3.93366 18.6589C3.86532 18.7272 3.82004 18.8152 3.80415 18.9105C3.78827 19.0058 3.80258 19.1037 3.84508 19.1904C3.88758 19.2772 3.95615 19.3485 4.04118 19.3943C5.58892 20.1678 7.29333 20.5763 9.02353 20.5885Z" fill="#320E3B"/>
</g>
<defs>
<filter id="filter0_d" x="-0.202151" y="4.12109" width="26.5417" height="24.4737" filterUnits="userSpaceOnUse" color-interpolation-filters="sRGB">
<feFlood flood-opacity="0" result="BackgroundImageFix"/>
<feColorMatrix in="SourceAlpha" type="matrix" values="0 0 0 0 0 0 0 0 0 0 0 0 0 0 0 0 0 0 127 0"/>
<feOffset dy="4"/>
<feGaussianBlur stdDeviation="2"/>
<feColorMatrix type="matrix" values="0 0 0 0 0 0 0 0 0 0 0 0 0 0 0 0 0 0 0.25 0"/>
<feBlend mode="normal" in2="BackgroundImageFix" result="effect1_dropShadow"/>
<feBlend mode="normal" in="SourceGraphic" in2="effect1_dropShadow" result="shape"/>
</filter>
</defs>
</svg>
